<?xml version="1.0" encoding="utf-8" standalone="no"?>
<!DOCTYPE svg PUBLIC "-//W3C//DTD SVG 1.1//EN"
  "http://www.w3.org/Graphics/SVG/1.1/DTD/svg11.dtd">
<!-- Created with matplotlib (https://matplotlib.org/) -->
<svg height="216pt" version="1.1" viewBox="0 0 576 216" width="576pt" xmlns="http://www.w3.org/2000/svg" xmlns:xlink="http://www.w3.org/1999/xlink">
 <metadata>
  <rdf:RDF xmlns:cc="http://creativecommons.org/ns#" xmlns:dc="http://purl.org/dc/elements/1.1/" xmlns:rdf="http://www.w3.org/1999/02/22-rdf-syntax-ns#">
   <cc:Work>
    <dc:type rdf:resource="http://purl.org/dc/dcmitype/StillImage"/>
    <dc:date>2021-04-11T18:23:26.980445</dc:date>
    <dc:format>image/svg+xml</dc:format>
    <dc:creator>
     <cc:Agent>
      <dc:title>Matplotlib v3.3.3, https://matplotlib.org/</dc:title>
     </cc:Agent>
    </dc:creator>
   </cc:Work>
  </rdf:RDF>
 </metadata>
 <defs>
  <style type="text/css">*{stroke-linecap:butt;stroke-linejoin:round;}</style>
 </defs>
 <g id="figure_1">
  <g id="patch_1">
   <path d="M 0 216 
L 576 216 
L 576 0 
L 0 0 
z
" style="fill:#ffffff;"/>
  </g>
  <g id="axes_1">
   <g id="patch_2">
    <path d="M 47.72 174.04 
L 279.17814 174.04 
L 279.17814 34.56 
L 47.72 34.56 
z
" style="fill:#ffffff;"/>
   </g>
   <g id="matplotlib.axis_1">
    <g id="xtick_1">
     <g id="line2d_1">
      <path clip-path="url(#pdd57d25b85)" d="M 56.115405 174.04 
L 56.115405 34.56 
" style="fill:none;stroke:#b0b0b0;stroke-linecap:square;stroke-width:0.8;"/>
     </g>
     <g id="line2d_2">
      <defs>
       <path d="M 0 0 
L 0 3.5 
" id="m9aac7a1dec" style="stroke:#000000;stroke-width:0.8;"/>
      </defs>
      <g>
       <use style="stroke:#000000;stroke-width:0.8;" x="56.115405" xlink:href="#m9aac7a1dec" y="174.04"/>
      </g>
     </g>
     <g id="text_1">
      <!-- 0 -->
      <g transform="translate(52.934155 188.638438)scale(0.1 -0.1)">
       <defs>
        <path d="M 31.78125 66.40625 
Q 24.171875 66.40625 20.328125 58.90625 
Q 16.5 51.421875 16.5 36.375 
Q 16.5 21.390625 20.328125 13.890625 
Q 24.171875 6.390625 31.78125 6.390625 
Q 39.453125 6.390625 43.28125 13.890625 
Q 47.125 21.390625 47.125 36.375 
Q 47.125 51.421875 43.28125 58.90625 
Q 39.453125 66.40625 31.78125 66.40625 
z
M 31.78125 74.21875 
Q 44.046875 74.21875 50.515625 64.515625 
Q 56.984375 54.828125 56.984375 36.375 
Q 56.984375 17.96875 50.515625 8.265625 
Q 44.046875 -1.421875 31.78125 -1.421875 
Q 19.53125 -1.421875 13.0625 8.265625 
Q 6.59375 17.96875 6.59375 36.375 
Q 6.59375 54.828125 13.0625 64.515625 
Q 19.53125 74.21875 31.78125 74.21875 
z
" id="DejaVuSans-48"/>
       </defs>
       <use xlink:href="#DejaVuSans-48"/>
      </g>
     </g>
    </g>
    <g id="xtick_2">
     <g id="line2d_3">
      <path clip-path="url(#pdd57d25b85)" d="M 98.623788 174.04 
L 98.623788 34.56 
" style="fill:none;stroke:#b0b0b0;stroke-linecap:square;stroke-width:0.8;"/>
     </g>
     <g id="line2d_4">
      <g>
       <use style="stroke:#000000;stroke-width:0.8;" x="98.623788" xlink:href="#m9aac7a1dec" y="174.04"/>
      </g>
     </g>
     <g id="text_2">
      <!-- 20 -->
      <g transform="translate(92.261288 188.638438)scale(0.1 -0.1)">
       <defs>
        <path d="M 19.1875 8.296875 
L 53.609375 8.296875 
L 53.609375 0 
L 7.328125 0 
L 7.328125 8.296875 
Q 12.9375 14.109375 22.625 23.890625 
Q 32.328125 33.6875 34.8125 36.53125 
Q 39.546875 41.84375 41.421875 45.53125 
Q 43.3125 49.21875 43.3125 52.78125 
Q 43.3125 58.59375 39.234375 62.25 
Q 35.15625 65.921875 28.609375 65.921875 
Q 23.96875 65.921875 18.8125 64.3125 
Q 13.671875 62.703125 7.8125 59.421875 
L 7.8125 69.390625 
Q 13.765625 71.78125 18.9375 73 
Q 24.125 74.21875 28.421875 74.21875 
Q 39.75 74.21875 46.484375 68.546875 
Q 53.21875 62.890625 53.21875 53.421875 
Q 53.21875 48.921875 51.53125 44.890625 
Q 49.859375 40.875 45.40625 35.40625 
Q 44.1875 33.984375 37.640625 27.21875 
Q 31.109375 20.453125 19.1875 8.296875 
z
" id="DejaVuSans-50"/>
       </defs>
       <use xlink:href="#DejaVuSans-50"/>
       <use x="63.623047" xlink:href="#DejaVuSans-48"/>
      </g>
     </g>
    </g>
    <g id="xtick_3">
     <g id="line2d_5">
      <path clip-path="url(#pdd57d25b85)" d="M 141.13217 174.04 
L 141.13217 34.56 
" style="fill:none;stroke:#b0b0b0;stroke-linecap:square;stroke-width:0.8;"/>
     </g>
     <g id="line2d_6">
      <g>
       <use style="stroke:#000000;stroke-width:0.8;" x="141.13217" xlink:href="#m9aac7a1dec" y="174.04"/>
      </g>
     </g>
     <g id="text_3">
      <!-- 40 -->
      <g transform="translate(134.76967 188.638438)scale(0.1 -0.1)">
       <defs>
        <path d="M 37.796875 64.3125 
L 12.890625 25.390625 
L 37.796875 25.390625 
z
M 35.203125 72.90625 
L 47.609375 72.90625 
L 47.609375 25.390625 
L 58.015625 25.390625 
L 58.015625 17.1875 
L 47.609375 17.1875 
L 47.609375 0 
L 37.796875 0 
L 37.796875 17.1875 
L 4.890625 17.1875 
L 4.890625 26.703125 
z
" id="DejaVuSans-52"/>
       </defs>
       <use xlink:href="#DejaVuSans-52"/>
       <use x="63.623047" xlink:href="#DejaVuSans-48"/>
      </g>
     </g>
    </g>
    <g id="xtick_4">
     <g id="line2d_7">
      <path clip-path="url(#pdd57d25b85)" d="M 183.640552 174.04 
L 183.640552 34.56 
" style="fill:none;stroke:#b0b0b0;stroke-linecap:square;stroke-width:0.8;"/>
     </g>
     <g id="line2d_8">
      <g>
       <use style="stroke:#000000;stroke-width:0.8;" x="183.640552" xlink:href="#m9aac7a1dec" y="174.04"/>
      </g>
     </g>
     <g id="text_4">
      <!-- 60 -->
      <g transform="translate(177.278052 188.638438)scale(0.1 -0.1)">
       <defs>
        <path d="M 33.015625 40.375 
Q 26.375 40.375 22.484375 35.828125 
Q 18.609375 31.296875 18.609375 23.390625 
Q 18.609375 15.53125 22.484375 10.953125 
Q 26.375 6.390625 33.015625 6.390625 
Q 39.65625 6.390625 43.53125 10.953125 
Q 47.40625 15.53125 47.40625 23.390625 
Q 47.40625 31.296875 43.53125 35.828125 
Q 39.65625 40.375 33.015625 40.375 
z
M 52.59375 71.296875 
L 52.59375 62.3125 
Q 48.875 64.0625 45.09375 64.984375 
Q 41.3125 65.921875 37.59375 65.921875 
Q 27.828125 65.921875 22.671875 59.328125 
Q 17.53125 52.734375 16.796875 39.40625 
Q 19.671875 43.65625 24.015625 45.921875 
Q 28.375 48.1875 33.59375 48.1875 
Q 44.578125 48.1875 50.953125 41.515625 
Q 57.328125 34.859375 57.328125 23.390625 
Q 57.328125 12.15625 50.6875 5.359375 
Q 44.046875 -1.421875 33.015625 -1.421875 
Q 20.359375 -1.421875 13.671875 8.265625 
Q 6.984375 17.96875 6.984375 36.375 
Q 6.984375 53.65625 15.1875 63.9375 
Q 23.390625 74.21875 37.203125 74.21875 
Q 40.921875 74.21875 44.703125 73.484375 
Q 48.484375 72.75 52.59375 71.296875 
z
" id="DejaVuSans-54"/>
       </defs>
       <use xlink:href="#DejaVuSans-54"/>
       <use x="63.623047" xlink:href="#DejaVuSans-48"/>
      </g>
     </g>
    </g>
    <g id="xtick_5">
     <g id="line2d_9">
      <path clip-path="url(#pdd57d25b85)" d="M 226.148934 174.04 
L 226.148934 34.56 
" style="fill:none;stroke:#b0b0b0;stroke-linecap:square;stroke-width:0.8;"/>
     </g>
     <g id="line2d_10">
      <g>
       <use style="stroke:#000000;stroke-width:0.8;" x="226.148934" xlink:href="#m9aac7a1dec" y="174.04"/>
      </g>
     </g>
     <g id="text_5">
      <!-- 80 -->
      <g transform="translate(219.786434 188.638438)scale(0.1 -0.1)">
       <defs>
        <path d="M 31.78125 34.625 
Q 24.75 34.625 20.71875 30.859375 
Q 16.703125 27.09375 16.703125 20.515625 
Q 16.703125 13.921875 20.71875 10.15625 
Q 24.75 6.390625 31.78125 6.390625 
Q 38.8125 6.390625 42.859375 10.171875 
Q 46.921875 13.96875 46.921875 20.515625 
Q 46.921875 27.09375 42.890625 30.859375 
Q 38.875 34.625 31.78125 34.625 
z
M 21.921875 38.8125 
Q 15.578125 40.375 12.03125 44.71875 
Q 8.5 49.078125 8.5 55.328125 
Q 8.5 64.0625 14.71875 69.140625 
Q 20.953125 74.21875 31.78125 74.21875 
Q 42.671875 74.21875 48.875 69.140625 
Q 55.078125 64.0625 55.078125 55.328125 
Q 55.078125 49.078125 51.53125 44.71875 
Q 48 40.375 41.703125 38.8125 
Q 48.828125 37.15625 52.796875 32.3125 
Q 56.78125 27.484375 56.78125 20.515625 
Q 56.78125 9.90625 50.3125 4.234375 
Q 43.84375 -1.421875 31.78125 -1.421875 
Q 19.734375 -1.421875 13.25 4.234375 
Q 6.78125 9.90625 6.78125 20.515625 
Q 6.78125 27.484375 10.78125 32.3125 
Q 14.796875 37.15625 21.921875 38.8125 
z
M 18.3125 54.390625 
Q 18.3125 48.734375 21.84375 45.5625 
Q 25.390625 42.390625 31.78125 42.390625 
Q 38.140625 42.390625 41.71875 45.5625 
Q 45.3125 48.734375 45.3125 54.390625 
Q 45.3125 60.0625 41.71875 63.234375 
Q 38.140625 66.40625 31.78125 66.40625 
Q 25.390625 66.40625 21.84375 63.234375 
Q 18.3125 60.0625 18.3125 54.390625 
z
" id="DejaVuSans-56"/>
       </defs>
       <use xlink:href="#DejaVuSans-56"/>
       <use x="63.623047" xlink:href="#DejaVuSans-48"/>
      </g>
     </g>
    </g>
    <g id="xtick_6">
     <g id="line2d_11">
      <path clip-path="url(#pdd57d25b85)" d="M 268.657316 174.04 
L 268.657316 34.56 
" style="fill:none;stroke:#b0b0b0;stroke-linecap:square;stroke-width:0.8;"/>
     </g>
     <g id="line2d_12">
      <g>
       <use style="stroke:#000000;stroke-width:0.8;" x="268.657316" xlink:href="#m9aac7a1dec" y="174.04"/>
      </g>
     </g>
     <g id="text_6">
      <!-- 100 -->
      <g transform="translate(259.113566 188.638438)scale(0.1 -0.1)">
       <defs>
        <path d="M 12.40625 8.296875 
L 28.515625 8.296875 
L 28.515625 63.921875 
L 10.984375 60.40625 
L 10.984375 69.390625 
L 28.421875 72.90625 
L 38.28125 72.90625 
L 38.28125 8.296875 
L 54.390625 8.296875 
L 54.390625 0 
L 12.40625 0 
z
" id="DejaVuSans-49"/>
       </defs>
       <use xlink:href="#DejaVuSans-49"/>
       <use x="63.623047" xlink:href="#DejaVuSans-48"/>
       <use x="127.246094" xlink:href="#DejaVuSans-48"/>
      </g>
     </g>
    </g>
    <g id="text_7">
     <!-- Epochs -->
     <g transform="translate(145.533445 202.316563)scale(0.1 -0.1)">
      <defs>
       <path d="M 9.8125 72.90625 
L 55.90625 72.90625 
L 55.90625 64.59375 
L 19.671875 64.59375 
L 19.671875 43.015625 
L 54.390625 43.015625 
L 54.390625 34.71875 
L 19.671875 34.71875 
L 19.671875 8.296875 
L 56.78125 8.296875 
L 56.78125 0 
L 9.8125 0 
z
" id="DejaVuSans-69"/>
       <path d="M 18.109375 8.203125 
L 18.109375 -20.796875 
L 9.078125 -20.796875 
L 9.078125 54.6875 
L 18.109375 54.6875 
L 18.109375 46.390625 
Q 20.953125 51.265625 25.265625 53.625 
Q 29.59375 56 35.59375 56 
Q 45.5625 56 51.78125 48.09375 
Q 58.015625 40.1875 58.015625 27.296875 
Q 58.015625 14.40625 51.78125 6.484375 
Q 45.5625 -1.421875 35.59375 -1.421875 
Q 29.59375 -1.421875 25.265625 0.953125 
Q 20.953125 3.328125 18.109375 8.203125 
z
M 48.6875 27.296875 
Q 48.6875 37.203125 44.609375 42.84375 
Q 40.53125 48.484375 33.40625 48.484375 
Q 26.265625 48.484375 22.1875 42.84375 
Q 18.109375 37.203125 18.109375 27.296875 
Q 18.109375 17.390625 22.1875 11.75 
Q 26.265625 6.109375 33.40625 6.109375 
Q 40.53125 6.109375 44.609375 11.75 
Q 48.6875 17.390625 48.6875 27.296875 
z
" id="DejaVuSans-112"/>
       <path d="M 30.609375 48.390625 
Q 23.390625 48.390625 19.1875 42.75 
Q 14.984375 37.109375 14.984375 27.296875 
Q 14.984375 17.484375 19.15625 11.84375 
Q 23.34375 6.203125 30.609375 6.203125 
Q 37.796875 6.203125 41.984375 11.859375 
Q 46.1875 17.53125 46.1875 27.296875 
Q 46.1875 37.015625 41.984375 42.703125 
Q 37.796875 48.390625 30.609375 48.390625 
z
M 30.609375 56 
Q 42.328125 56 49.015625 48.375 
Q 55.71875 40.765625 55.71875 27.296875 
Q 55.71875 13.875 49.015625 6.21875 
Q 42.328125 -1.421875 30.609375 -1.421875 
Q 18.84375 -1.421875 12.171875 6.21875 
Q 5.515625 13.875 5.515625 27.296875 
Q 5.515625 40.765625 12.171875 48.375 
Q 18.84375 56 30.609375 56 
z
" id="DejaVuSans-111"/>
       <path d="M 48.78125 52.59375 
L 48.78125 44.1875 
Q 44.96875 46.296875 41.140625 47.34375 
Q 37.3125 48.390625 33.40625 48.390625 
Q 24.65625 48.390625 19.8125 42.84375 
Q 14.984375 37.3125 14.984375 27.296875 
Q 14.984375 17.28125 19.8125 11.734375 
Q 24.65625 6.203125 33.40625 6.203125 
Q 37.3125 6.203125 41.140625 7.25 
Q 44.96875 8.296875 48.78125 10.40625 
L 48.78125 2.09375 
Q 45.015625 0.34375 40.984375 -0.53125 
Q 36.96875 -1.421875 32.421875 -1.421875 
Q 20.0625 -1.421875 12.78125 6.34375 
Q 5.515625 14.109375 5.515625 27.296875 
Q 5.515625 40.671875 12.859375 48.328125 
Q 20.21875 56 33.015625 56 
Q 37.15625 56 41.109375 55.140625 
Q 45.0625 54.296875 48.78125 52.59375 
z
" id="DejaVuSans-99"/>
       <path d="M 54.890625 33.015625 
L 54.890625 0 
L 45.90625 0 
L 45.90625 32.71875 
Q 45.90625 40.484375 42.875 44.328125 
Q 39.84375 48.1875 33.796875 48.1875 
Q 26.515625 48.1875 22.3125 43.546875 
Q 18.109375 38.921875 18.109375 30.90625 
L 18.109375 0 
L 9.078125 0 
L 9.078125 75.984375 
L 18.109375 75.984375 
L 18.109375 46.1875 
Q 21.34375 51.125 25.703125 53.5625 
Q 30.078125 56 35.796875 56 
Q 45.21875 56 50.046875 50.171875 
Q 54.890625 44.34375 54.890625 33.015625 
z
" id="DejaVuSans-104"/>
       <path d="M 44.28125 53.078125 
L 44.28125 44.578125 
Q 40.484375 46.53125 36.375 47.5 
Q 32.28125 48.484375 27.875 48.484375 
Q 21.1875 48.484375 17.84375 46.4375 
Q 14.5 44.390625 14.5 40.28125 
Q 14.5 37.15625 16.890625 35.375 
Q 19.28125 33.59375 26.515625 31.984375 
L 29.59375 31.296875 
Q 39.15625 29.25 43.1875 25.515625 
Q 47.21875 21.78125 47.21875 15.09375 
Q 47.21875 7.46875 41.1875 3.015625 
Q 35.15625 -1.421875 24.609375 -1.421875 
Q 20.21875 -1.421875 15.453125 -0.5625 
Q 10.6875 0.296875 5.421875 2 
L 5.421875 11.28125 
Q 10.40625 8.6875 15.234375 7.390625 
Q 20.0625 6.109375 24.8125 6.109375 
Q 31.15625 6.109375 34.5625 8.28125 
Q 37.984375 10.453125 37.984375 14.40625 
Q 37.984375 18.0625 35.515625 20.015625 
Q 33.0625 21.96875 24.703125 23.78125 
L 21.578125 24.515625 
Q 13.234375 26.265625 9.515625 29.90625 
Q 5.8125 33.546875 5.8125 39.890625 
Q 5.8125 47.609375 11.28125 51.796875 
Q 16.75 56 26.8125 56 
Q 31.78125 56 36.171875 55.265625 
Q 40.578125 54.546875 44.28125 53.078125 
z
" id="DejaVuSans-115"/>
      </defs>
      <use xlink:href="#DejaVuSans-69"/>
      <use x="63.183594" xlink:href="#DejaVuSans-112"/>
      <use x="126.660156" xlink:href="#DejaVuSans-111"/>
      <use x="187.841797" xlink:href="#DejaVuSans-99"/>
      <use x="242.822266" xlink:href="#DejaVuSans-104"/>
      <use x="306.201172" xlink:href="#DejaVuSans-115"/>
     </g>
    </g>
   </g>
   <g id="matplotlib.axis_2">
    <g id="ytick_1">
     <g id="line2d_13">
      <path clip-path="url(#pdd57d25b85)" d="M 47.72 156.707039 
L 279.17814 156.707039 
" style="fill:none;stroke:#b0b0b0;stroke-linecap:square;stroke-width:0.8;"/>
     </g>
     <g id="line2d_14">
      <defs>
       <path d="M 0 0 
L -3.5 0 
" id="m4b023418d2" style="stroke:#000000;stroke-width:0.8;"/>
      </defs>
      <g>
       <use style="stroke:#000000;stroke-width:0.8;" x="47.72" xlink:href="#m4b023418d2" y="156.707039"/>
      </g>
     </g>
     <g id="text_8">
      <!-- 0.6 -->
      <g transform="translate(24.816875 160.506258)scale(0.1 -0.1)">
       <defs>
        <path d="M 10.6875 12.40625 
L 21 12.40625 
L 21 0 
L 10.6875 0 
z
" id="DejaVuSans-46"/>
       </defs>
       <use xlink:href="#DejaVuSans-48"/>
       <use x="63.623047" xlink:href="#DejaVuSans-46"/>
       <use x="95.410156" xlink:href="#DejaVuSans-54"/>
      </g>
     </g>
    </g>
    <g id="ytick_2">
     <g id="line2d_15">
      <path clip-path="url(#pdd57d25b85)" d="M 47.72 127.755279 
L 279.17814 127.755279 
" style="fill:none;stroke:#b0b0b0;stroke-linecap:square;stroke-width:0.8;"/>
     </g>
     <g id="line2d_16">
      <g>
       <use style="stroke:#000000;stroke-width:0.8;" x="47.72" xlink:href="#m4b023418d2" y="127.755279"/>
      </g>
     </g>
     <g id="text_9">
      <!-- 0.7 -->
      <g transform="translate(24.816875 131.554498)scale(0.1 -0.1)">
       <defs>
        <path d="M 8.203125 72.90625 
L 55.078125 72.90625 
L 55.078125 68.703125 
L 28.609375 0 
L 18.3125 0 
L 43.21875 64.59375 
L 8.203125 64.59375 
z
" id="DejaVuSans-55"/>
       </defs>
       <use xlink:href="#DejaVuSans-48"/>
       <use x="63.623047" xlink:href="#DejaVuSans-46"/>
       <use x="95.410156" xlink:href="#DejaVuSans-55"/>
      </g>
     </g>
    </g>
    <g id="ytick_3">
     <g id="line2d_17">
      <path clip-path="url(#pdd57d25b85)" d="M 47.72 98.80352 
L 279.17814 98.80352 
" style="fill:none;stroke:#b0b0b0;stroke-linecap:square;stroke-width:0.8;"/>
     </g>
     <g id="line2d_18">
      <g>
       <use style="stroke:#000000;stroke-width:0.8;" x="47.72" xlink:href="#m4b023418d2" y="98.80352"/>
      </g>
     </g>
     <g id="text_10">
      <!-- 0.8 -->
      <g transform="translate(24.816875 102.602738)scale(0.1 -0.1)">
       <use xlink:href="#DejaVuSans-48"/>
       <use x="63.623047" xlink:href="#DejaVuSans-46"/>
       <use x="95.410156" xlink:href="#DejaVuSans-56"/>
      </g>
     </g>
    </g>
    <g id="ytick_4">
     <g id="line2d_19">
      <path clip-path="url(#pdd57d25b85)" d="M 47.72 69.85176 
L 279.17814 69.85176 
" style="fill:none;stroke:#b0b0b0;stroke-linecap:square;stroke-width:0.8;"/>
     </g>
     <g id="line2d_20">
      <g>
       <use style="stroke:#000000;stroke-width:0.8;" x="47.72" xlink:href="#m4b023418d2" y="69.85176"/>
      </g>
     </g>
     <g id="text_11">
      <!-- 0.9 -->
      <g transform="translate(24.816875 73.650979)scale(0.1 -0.1)">
       <defs>
        <path d="M 10.984375 1.515625 
L 10.984375 10.5 
Q 14.703125 8.734375 18.5 7.8125 
Q 22.3125 6.890625 25.984375 6.890625 
Q 35.75 6.890625 40.890625 13.453125 
Q 46.046875 20.015625 46.78125 33.40625 
Q 43.953125 29.203125 39.59375 26.953125 
Q 35.25 24.703125 29.984375 24.703125 
Q 19.046875 24.703125 12.671875 31.3125 
Q 6.296875 37.9375 6.296875 49.421875 
Q 6.296875 60.640625 12.9375 67.421875 
Q 19.578125 74.21875 30.609375 74.21875 
Q 43.265625 74.21875 49.921875 64.515625 
Q 56.59375 54.828125 56.59375 36.375 
Q 56.59375 19.140625 48.40625 8.859375 
Q 40.234375 -1.421875 26.421875 -1.421875 
Q 22.703125 -1.421875 18.890625 -0.6875 
Q 15.09375 0.046875 10.984375 1.515625 
z
M 30.609375 32.421875 
Q 37.25 32.421875 41.125 36.953125 
Q 45.015625 41.5 45.015625 49.421875 
Q 45.015625 57.28125 41.125 61.84375 
Q 37.25 66.40625 30.609375 66.40625 
Q 23.96875 66.40625 20.09375 61.84375 
Q 16.21875 57.28125 16.21875 49.421875 
Q 16.21875 41.5 20.09375 36.953125 
Q 23.96875 32.421875 30.609375 32.421875 
z
" id="DejaVuSans-57"/>
       </defs>
       <use xlink:href="#DejaVuSans-48"/>
       <use x="63.623047" xlink:href="#DejaVuSans-46"/>
       <use x="95.410156" xlink:href="#DejaVuSans-57"/>
      </g>
     </g>
    </g>
    <g id="ytick_5">
     <g id="line2d_21">
      <path clip-path="url(#pdd57d25b85)" d="M 47.72 40.9 
L 279.17814 40.9 
" style="fill:none;stroke:#b0b0b0;stroke-linecap:square;stroke-width:0.8;"/>
     </g>
     <g id="line2d_22">
      <g>
       <use style="stroke:#000000;stroke-width:0.8;" x="47.72" xlink:href="#m4b023418d2" y="40.9"/>
      </g>
     </g>
     <g id="text_12">
      <!-- 1.0 -->
      <g transform="translate(24.816875 44.699219)scale(0.1 -0.1)">
       <use xlink:href="#DejaVuSans-49"/>
       <use x="63.623047" xlink:href="#DejaVuSans-46"/>
       <use x="95.410156" xlink:href="#DejaVuSans-48"/>
      </g>
     </g>
    </g>
    <g id="text_13">
     <!-- Acc -->
     <g transform="translate(18.737187 113.13125)rotate(-90)scale(0.1 -0.1)">
      <defs>
       <path d="M 34.1875 63.1875 
L 20.796875 26.90625 
L 47.609375 26.90625 
z
M 28.609375 72.90625 
L 39.796875 72.90625 
L 67.578125 0 
L 57.328125 0 
L 50.6875 18.703125 
L 17.828125 18.703125 
L 11.1875 0 
L 0.78125 0 
z
" id="DejaVuSans-65"/>
      </defs>
      <use xlink:href="#DejaVuSans-65"/>
      <use x="66.658203" xlink:href="#DejaVuSans-99"/>
      <use x="121.638672" xlink:href="#DejaVuSans-99"/>
     </g>
    </g>
   </g>
   <g id="line2d_23">
    <path clip-path="url(#pdd57d25b85)" d="M 58.240825 167.7 
L 60.366244 69.380109 
L 62.491663 70.287116 
L 64.617082 70.649936 
L 66.742501 70.649936 
L 68.86792 70.613645 
L 70.993339 70.649936 
L 73.118758 70.649936 
L 75.244177 70.649936 
L 77.369597 70.649936 
L 79.495016 70.649936 
L 81.620435 70.649936 
L 83.745854 70.649936 
L 85.871273 70.649936 
L 87.996692 70.613645 
L 90.122111 70.613645 
L 92.24753 70.613645 
L 94.372949 70.613645 
L 96.498368 70.613645 
L 98.623788 70.613645 
L 100.749207 70.613645 
L 102.874626 70.613645 
L 105.000045 70.541081 
L 107.125464 70.35968 
L 109.250883 69.996877 
L 111.376302 69.4164 
L 113.501721 68.618231 
L 115.62714 67.529806 
L 117.752559 66.187433 
L 119.877979 64.04689 
L 122.003398 61.761237 
L 124.128817 59.765805 
L 126.254236 57.58899 
L 128.379655 55.339593 
L 130.505074 53.489306 
L 132.630493 51.639003 
L 134.755912 49.861263 
L 136.881331 48.591454 
L 139.006751 47.793284 
L 141.13217 46.74115 
L 143.257589 46.160655 
L 145.383008 45.326213 
L 147.508427 44.818282 
L 149.633846 44.346642 
L 151.759265 43.874985 
L 153.884684 43.330781 
L 156.010103 42.822868 
L 158.135522 42.496338 
L 160.260942 42.314937 
L 162.386361 42.097245 
L 164.51178 41.952135 
L 166.637199 41.807007 
L 168.762618 41.698169 
L 170.888037 41.516768 
L 173.013456 41.407931 
L 175.138875 41.335367 
L 177.264294 41.299076 
L 179.389714 41.299076 
L 181.515133 41.262803 
L 183.640552 41.262803 
L 185.765971 41.153965 
L 187.89139 41.117675 
L 190.016809 41.081401 
L 192.142228 41.045128 
L 194.267647 41.008837 
L 196.393066 41.008837 
L 198.518485 40.972564 
L 200.643905 40.972564 
L 202.769324 40.972564 
L 204.894743 40.936273 
L 207.020162 40.9 
L 209.145581 40.9 
L 211.271 40.9 
L 213.396419 40.9 
L 215.521838 40.9 
L 217.647257 40.9 
L 219.772677 40.9 
L 221.898096 40.9 
L 224.023515 40.9 
L 226.148934 40.9 
L 228.274353 40.9 
L 230.399772 40.9 
L 232.525191 40.9 
L 234.65061 40.9 
L 236.776029 40.9 
L 238.901448 40.9 
L 241.026868 40.9 
L 243.152287 40.9 
L 245.277706 40.9 
L 247.403125 40.9 
L 249.528544 40.9 
L 251.653963 40.9 
L 253.779382 40.9 
L 255.904801 40.9 
L 258.03022 40.9 
L 260.15564 40.9 
L 262.281059 40.9 
L 264.406478 40.9 
L 266.531897 40.9 
L 268.657316 40.9 
" style="fill:none;stroke:#1f77b4;stroke-linecap:square;stroke-width:1.5;"/>
   </g>
   <g id="line2d_24">
    <path clip-path="url(#pdd57d25b85)" d="M 58.240825 120.317794 
L 60.366244 93.252622 
L 62.491663 97.606271 
L 64.617082 84.073685 
L 66.742501 82.51362 
L 68.86792 80.518205 
L 70.993339 75.148695 
L 73.118758 75.72919 
L 75.244177 74.386817 
L 77.369597 70.831337 
L 79.495016 101.12546 
L 81.620435 73.008153 
L 83.745854 70.758773 
L 85.871273 70.142005 
L 87.996692 69.053597 
L 90.122111 68.001463 
L 92.24753 66.223723 
L 94.372949 65.171589 
L 96.498368 64.663658 
L 98.623788 64.155745 
L 100.749207 63.321285 
L 102.874626 61.144469 
L 105.000045 62.414278 
L 107.125464 86.758431 
L 109.250883 98.368149 
L 111.376302 80.989845 
L 113.501721 75.402661 
L 115.62714 71.847181 
L 117.752559 70.432244 
L 119.877979 68.255428 
L 122.003398 67.566096 
L 124.128817 66.876764 
L 126.254236 64.808786 
L 128.379655 64.772495 
L 130.505074 64.119454 
L 132.630493 64.155745 
L 134.755912 62.450552 
L 136.881331 62.341714 
L 139.006751 62.341714 
L 141.13217 60.854213 
L 143.257589 62.813354 
L 145.383008 61.108179 
L 147.508427 61.398434 
L 149.633846 70.468535 
L 151.759265 62.015185 
L 153.884684 61.325871 
L 156.010103 59.910933 
L 158.135522 59.729532 
L 160.260942 59.112764 
L 162.386361 59.112764 
L 164.51178 58.604834 
L 166.637199 58.895072 
L 168.762618 57.806664 
L 170.888037 58.06063 
L 173.013456 57.770391 
L 175.138875 56.101489 
L 177.264294 57.008495 
L 179.389714 57.407588 
L 181.515133 55.883814 
L 183.640552 55.158191 
L 185.765971 56.428018 
L 187.89139 54.867953 
L 190.016809 54.97679 
L 192.142228 53.888382 
L 194.267647 54.831679 
L 196.393066 55.158191 
L 198.518485 53.090213 
L 200.643905 53.924656 
L 202.769324 54.50515 
L 204.894743 53.271614 
L 207.020162 53.344178 
L 209.145581 53.090213 
L 211.271 52.509736 
L 213.396419 52.074369 
L 215.521838 52.110642 
L 217.647257 52.400881 
L 219.772677 52.21948 
L 221.898096 52.001805 
L 224.023515 51.639003 
L 226.148934 52.074369 
L 228.274353 50.985944 
L 230.399772 51.094799 
L 232.525191 50.623141 
L 234.65061 50.659432 
L 236.776029 50.913397 
L 238.901448 51.058508 
L 241.026868 50.550595 
L 243.152287 50.042664 
L 245.277706 49.716135 
L 247.403125 50.369176 
L 249.528544 49.389606 
L 251.653963 52.546009 
L 253.779382 49.861263 
L 255.904801 50.514304 
L 258.03022 49.933827 
L 260.15564 49.280768 
L 262.281059 50.260339 
L 264.406478 49.135658 
L 266.531897 49.353332 
L 268.657316 48.809128 
" style="fill:none;stroke:#ff7f0e;stroke-linecap:square;stroke-width:1.5;"/>
   </g>
   <g id="line2d_25">
    <path clip-path="url(#pdd57d25b85)" d="M 58.240825 143.609813 
L 60.366244 115.419942 
L 62.491663 116.072983 
L 64.617082 99.565412 
L 66.742501 94.667559 
L 68.86792 118.79402 
L 70.993339 98.767243 
L 73.118758 90.966952 
L 75.244177 85.016965 
L 77.369597 78.45021 
L 79.495016 78.667901 
L 81.620435 73.479793 
L 83.745854 70.577372 
L 85.871273 80.445641 
L 87.996692 70.069441 
L 90.122111 69.271272 
L 92.24753 64.192018 
L 94.372949 62.051476 
L 96.498368 109.469955 
L 98.623788 88.354769 
L 100.749207 78.776739 
L 102.874626 71.012739 
L 105.000045 64.953914 
L 107.125464 62.341714 
L 109.250883 59.257875 
L 111.376302 56.28289 
L 113.501721 54.287475 
L 115.62714 59.185328 
L 117.752559 52.074369 
L 119.877979 51.239909 
L 122.003398 53.19905 
L 124.128817 51.348764 
L 126.254236 50.224065 
L 128.379655 48.482599 
L 130.505074 46.450894 
L 132.630493 47.176516 
L 134.755912 46.160655 
L 136.881331 44.96341 
L 139.006751 58.024356 
L 141.13217 61.253307 
L 143.257589 53.453016 
L 145.383008 48.772855 
L 147.508427 46.849987 
L 149.633846 45.181085 
L 151.759265 51.385037 
L 153.884684 46.704859 
L 156.010103 46.124382 
L 158.135522 44.382916 
L 160.260942 45.43505 
L 162.386361 43.911276 
L 164.51178 43.584746 
L 166.637199 43.367072 
L 168.762618 43.548473 
L 170.888037 43.004269 
L 173.013456 42.786577 
L 175.138875 42.387501 
L 177.264294 42.750304 
L 179.389714 42.496338 
L 181.515133 66.65909 
L 183.640552 49.933827 
L 185.765971 45.398777 
L 187.89139 43.693584 
L 190.016809 42.859141 
L 192.142228 42.641466 
L 194.267647 42.242373 
L 196.393066 42.097245 
L 198.518485 42.605176 
L 200.643905 43.330781 
L 202.769324 42.460065 
L 204.894743 42.496338 
L 207.020162 42.097245 
L 209.145581 42.278664 
L 211.271 41.952135 
L 213.396419 43.475909 
L 215.521838 46.196946 
L 217.647257 42.67774 
L 219.772677 42.750304 
L 221.898096 42.169809 
L 224.023515 42.641466 
L 226.148934 42.750304 
L 228.274353 42.024698 
L 230.399772 41.807007 
L 232.525191 45.652725 
L 234.65061 44.056386 
L 236.776029 42.35121 
L 238.901448 42.387501 
L 241.026868 41.952135 
L 243.152287 41.843297 
L 245.277706 41.915844 
L 247.403125 53.924656 
L 249.528544 51.094799 
L 251.653963 44.092677 
L 253.779382 42.423774 
L 255.904801 41.879571 
L 258.03022 41.625605 
L 260.15564 41.734443 
L 262.281059 42.460065 
L 264.406478 41.807007 
L 266.531897 41.553041 
L 268.657316 41.589332 
" style="fill:none;stroke:#2ca02c;stroke-linecap:square;stroke-width:1.5;"/>
   </g>
   <g id="patch_3">
    <path d="M 47.72 174.04 
L 47.72 34.56 
" style="fill:none;stroke:#000000;stroke-linecap:square;stroke-linejoin:miter;stroke-width:0.8;"/>
   </g>
   <g id="patch_4">
    <path d="M 279.17814 174.04 
L 279.17814 34.56 
" style="fill:none;stroke:#000000;stroke-linecap:square;stroke-linejoin:miter;stroke-width:0.8;"/>
   </g>
   <g id="patch_5">
    <path d="M 47.72 174.04 
L 279.17814 174.04 
" style="fill:none;stroke:#000000;stroke-linecap:square;stroke-linejoin:miter;stroke-width:0.8;"/>
   </g>
   <g id="patch_6">
    <path d="M 47.72 34.56 
L 279.17814 34.56 
" style="fill:none;stroke:#000000;stroke-linecap:square;stroke-linejoin:miter;stroke-width:0.8;"/>
   </g>
   <g id="legend_1">
    <g id="patch_7">
     <path d="M 184.526578 169.04 
L 272.17814 169.04 
Q 274.17814 169.04 274.17814 167.04 
L 274.17814 124.005625 
Q 274.17814 122.005625 272.17814 122.005625 
L 184.526578 122.005625 
Q 182.526578 122.005625 182.526578 124.005625 
L 182.526578 167.04 
Q 182.526578 169.04 184.526578 169.04 
z
" style="fill:#ffffff;opacity:0.8;stroke:#cccccc;stroke-linejoin:miter;"/>
    </g>
    <g id="line2d_26">
     <path d="M 186.526578 130.104062 
L 206.526578 130.104062 
" style="fill:none;stroke:#1f77b4;stroke-linecap:square;stroke-width:1.5;"/>
    </g>
    <g id="line2d_27"/>
    <g id="text_14">
     <!-- Attri2Vec -->
     <g transform="translate(214.526578 133.604062)scale(0.1 -0.1)">
      <defs>
       <path d="M 18.3125 70.21875 
L 18.3125 54.6875 
L 36.8125 54.6875 
L 36.8125 47.703125 
L 18.3125 47.703125 
L 18.3125 18.015625 
Q 18.3125 11.328125 20.140625 9.421875 
Q 21.96875 7.515625 27.59375 7.515625 
L 36.8125 7.515625 
L 36.8125 0 
L 27.59375 0 
Q 17.1875 0 13.234375 3.875 
Q 9.28125 7.765625 9.28125 18.015625 
L 9.28125 47.703125 
L 2.6875 47.703125 
L 2.6875 54.6875 
L 9.28125 54.6875 
L 9.28125 70.21875 
z
" id="DejaVuSans-116"/>
       <path d="M 41.109375 46.296875 
Q 39.59375 47.171875 37.8125 47.578125 
Q 36.03125 48 33.890625 48 
Q 26.265625 48 22.1875 43.046875 
Q 18.109375 38.09375 18.109375 28.8125 
L 18.109375 0 
L 9.078125 0 
L 9.078125 54.6875 
L 18.109375 54.6875 
L 18.109375 46.1875 
Q 20.953125 51.171875 25.484375 53.578125 
Q 30.03125 56 36.53125 56 
Q 37.453125 56 38.578125 55.875 
Q 39.703125 55.765625 41.0625 55.515625 
z
" id="DejaVuSans-114"/>
       <path d="M 9.421875 54.6875 
L 18.40625 54.6875 
L 18.40625 0 
L 9.421875 0 
z
M 9.421875 75.984375 
L 18.40625 75.984375 
L 18.40625 64.59375 
L 9.421875 64.59375 
z
" id="DejaVuSans-105"/>
       <path d="M 28.609375 0 
L 0.78125 72.90625 
L 11.078125 72.90625 
L 34.1875 11.53125 
L 57.328125 72.90625 
L 67.578125 72.90625 
L 39.796875 0 
z
" id="DejaVuSans-86"/>
       <path d="M 56.203125 29.59375 
L 56.203125 25.203125 
L 14.890625 25.203125 
Q 15.484375 15.921875 20.484375 11.0625 
Q 25.484375 6.203125 34.421875 6.203125 
Q 39.59375 6.203125 44.453125 7.46875 
Q 49.3125 8.734375 54.109375 11.28125 
L 54.109375 2.78125 
Q 49.265625 0.734375 44.1875 -0.34375 
Q 39.109375 -1.421875 33.890625 -1.421875 
Q 20.796875 -1.421875 13.15625 6.1875 
Q 5.515625 13.8125 5.515625 26.8125 
Q 5.515625 40.234375 12.765625 48.109375 
Q 20.015625 56 32.328125 56 
Q 43.359375 56 49.78125 48.890625 
Q 56.203125 41.796875 56.203125 29.59375 
z
M 47.21875 32.234375 
Q 47.125 39.59375 43.09375 43.984375 
Q 39.0625 48.390625 32.421875 48.390625 
Q 24.90625 48.390625 20.390625 44.140625 
Q 15.875 39.890625 15.1875 32.171875 
z
" id="DejaVuSans-101"/>
      </defs>
      <use xlink:href="#DejaVuSans-65"/>
      <use x="66.658203" xlink:href="#DejaVuSans-116"/>
      <use x="105.867188" xlink:href="#DejaVuSans-116"/>
      <use x="145.076172" xlink:href="#DejaVuSans-114"/>
      <use x="186.189453" xlink:href="#DejaVuSans-105"/>
      <use x="213.972656" xlink:href="#DejaVuSans-50"/>
      <use x="277.595703" xlink:href="#DejaVuSans-86"/>
      <use x="338.253906" xlink:href="#DejaVuSans-101"/>
      <use x="399.777344" xlink:href="#DejaVuSans-99"/>
     </g>
    </g>
    <g id="line2d_28">
     <path d="M 186.526578 144.782187 
L 206.526578 144.782187 
" style="fill:none;stroke:#ff7f0e;stroke-linecap:square;stroke-width:1.5;"/>
    </g>
    <g id="line2d_29"/>
    <g id="text_15">
     <!-- GraphSage -->
     <g transform="translate(214.526578 148.282187)scale(0.1 -0.1)">
      <defs>
       <path d="M 59.515625 10.40625 
L 59.515625 29.984375 
L 43.40625 29.984375 
L 43.40625 38.09375 
L 69.28125 38.09375 
L 69.28125 6.78125 
Q 63.578125 2.734375 56.6875 0.65625 
Q 49.8125 -1.421875 42 -1.421875 
Q 24.90625 -1.421875 15.25 8.5625 
Q 5.609375 18.5625 5.609375 36.375 
Q 5.609375 54.25 15.25 64.234375 
Q 24.90625 74.21875 42 74.21875 
Q 49.125 74.21875 55.546875 72.453125 
Q 61.96875 70.703125 67.390625 67.28125 
L 67.390625 56.78125 
Q 61.921875 61.421875 55.765625 63.765625 
Q 49.609375 66.109375 42.828125 66.109375 
Q 29.4375 66.109375 22.71875 58.640625 
Q 16.015625 51.171875 16.015625 36.375 
Q 16.015625 21.625 22.71875 14.15625 
Q 29.4375 6.6875 42.828125 6.6875 
Q 48.046875 6.6875 52.140625 7.59375 
Q 56.25 8.5 59.515625 10.40625 
z
" id="DejaVuSans-71"/>
       <path d="M 34.28125 27.484375 
Q 23.390625 27.484375 19.1875 25 
Q 14.984375 22.515625 14.984375 16.5 
Q 14.984375 11.71875 18.140625 8.90625 
Q 21.296875 6.109375 26.703125 6.109375 
Q 34.1875 6.109375 38.703125 11.40625 
Q 43.21875 16.703125 43.21875 25.484375 
L 43.21875 27.484375 
z
M 52.203125 31.203125 
L 52.203125 0 
L 43.21875 0 
L 43.21875 8.296875 
Q 40.140625 3.328125 35.546875 0.953125 
Q 30.953125 -1.421875 24.3125 -1.421875 
Q 15.921875 -1.421875 10.953125 3.296875 
Q 6 8.015625 6 15.921875 
Q 6 25.140625 12.171875 29.828125 
Q 18.359375 34.515625 30.609375 34.515625 
L 43.21875 34.515625 
L 43.21875 35.40625 
Q 43.21875 41.609375 39.140625 45 
Q 35.0625 48.390625 27.6875 48.390625 
Q 23 48.390625 18.546875 47.265625 
Q 14.109375 46.140625 10.015625 43.890625 
L 10.015625 52.203125 
Q 14.9375 54.109375 19.578125 55.046875 
Q 24.21875 56 28.609375 56 
Q 40.484375 56 46.34375 49.84375 
Q 52.203125 43.703125 52.203125 31.203125 
z
" id="DejaVuSans-97"/>
       <path d="M 53.515625 70.515625 
L 53.515625 60.890625 
Q 47.90625 63.578125 42.921875 64.890625 
Q 37.9375 66.21875 33.296875 66.21875 
Q 25.25 66.21875 20.875 63.09375 
Q 16.5 59.96875 16.5 54.203125 
Q 16.5 49.359375 19.40625 46.890625 
Q 22.3125 44.4375 30.421875 42.921875 
L 36.375 41.703125 
Q 47.40625 39.59375 52.65625 34.296875 
Q 57.90625 29 57.90625 20.125 
Q 57.90625 9.515625 50.796875 4.046875 
Q 43.703125 -1.421875 29.984375 -1.421875 
Q 24.8125 -1.421875 18.96875 -0.25 
Q 13.140625 0.921875 6.890625 3.21875 
L 6.890625 13.375 
Q 12.890625 10.015625 18.65625 8.296875 
Q 24.421875 6.59375 29.984375 6.59375 
Q 38.421875 6.59375 43.015625 9.90625 
Q 47.609375 13.234375 47.609375 19.390625 
Q 47.609375 24.75 44.3125 27.78125 
Q 41.015625 30.8125 33.5 32.328125 
L 27.484375 33.5 
Q 16.453125 35.6875 11.515625 40.375 
Q 6.59375 45.0625 6.59375 53.421875 
Q 6.59375 63.09375 13.40625 68.65625 
Q 20.21875 74.21875 32.171875 74.21875 
Q 37.3125 74.21875 42.625 73.28125 
Q 47.953125 72.359375 53.515625 70.515625 
z
" id="DejaVuSans-83"/>
       <path d="M 45.40625 27.984375 
Q 45.40625 37.75 41.375 43.109375 
Q 37.359375 48.484375 30.078125 48.484375 
Q 22.859375 48.484375 18.828125 43.109375 
Q 14.796875 37.75 14.796875 27.984375 
Q 14.796875 18.265625 18.828125 12.890625 
Q 22.859375 7.515625 30.078125 7.515625 
Q 37.359375 7.515625 41.375 12.890625 
Q 45.40625 18.265625 45.40625 27.984375 
z
M 54.390625 6.78125 
Q 54.390625 -7.171875 48.1875 -13.984375 
Q 42 -20.796875 29.203125 -20.796875 
Q 24.46875 -20.796875 20.265625 -20.09375 
Q 16.0625 -19.390625 12.109375 -17.921875 
L 12.109375 -9.1875 
Q 16.0625 -11.328125 19.921875 -12.34375 
Q 23.78125 -13.375 27.78125 -13.375 
Q 36.625 -13.375 41.015625 -8.765625 
Q 45.40625 -4.15625 45.40625 5.171875 
L 45.40625 9.625 
Q 42.625 4.78125 38.28125 2.390625 
Q 33.9375 0 27.875 0 
Q 17.828125 0 11.671875 7.65625 
Q 5.515625 15.328125 5.515625 27.984375 
Q 5.515625 40.671875 11.671875 48.328125 
Q 17.828125 56 27.875 56 
Q 33.9375 56 38.28125 53.609375 
Q 42.625 51.21875 45.40625 46.390625 
L 45.40625 54.6875 
L 54.390625 54.6875 
z
" id="DejaVuSans-103"/>
      </defs>
      <use xlink:href="#DejaVuSans-71"/>
      <use x="77.490234" xlink:href="#DejaVuSans-114"/>
      <use x="118.603516" xlink:href="#DejaVuSans-97"/>
      <use x="179.882812" xlink:href="#DejaVuSans-112"/>
      <use x="243.359375" xlink:href="#DejaVuSans-104"/>
      <use x="306.738281" xlink:href="#DejaVuSans-83"/>
      <use x="370.214844" xlink:href="#DejaVuSans-97"/>
      <use x="431.494141" xlink:href="#DejaVuSans-103"/>
      <use x="494.970703" xlink:href="#DejaVuSans-101"/>
     </g>
    </g>
    <g id="line2d_30">
     <path d="M 186.526578 159.460312 
L 206.526578 159.460312 
" style="fill:none;stroke:#2ca02c;stroke-linecap:square;stroke-width:1.5;"/>
    </g>
    <g id="line2d_31"/>
    <g id="text_16">
     <!-- HinSage -->
     <g transform="translate(214.526578 162.960312)scale(0.1 -0.1)">
      <defs>
       <path d="M 9.8125 72.90625 
L 19.671875 72.90625 
L 19.671875 43.015625 
L 55.515625 43.015625 
L 55.515625 72.90625 
L 65.375 72.90625 
L 65.375 0 
L 55.515625 0 
L 55.515625 34.71875 
L 19.671875 34.71875 
L 19.671875 0 
L 9.8125 0 
z
" id="DejaVuSans-72"/>
       <path d="M 54.890625 33.015625 
L 54.890625 0 
L 45.90625 0 
L 45.90625 32.71875 
Q 45.90625 40.484375 42.875 44.328125 
Q 39.84375 48.1875 33.796875 48.1875 
Q 26.515625 48.1875 22.3125 43.546875 
Q 18.109375 38.921875 18.109375 30.90625 
L 18.109375 0 
L 9.078125 0 
L 9.078125 54.6875 
L 18.109375 54.6875 
L 18.109375 46.1875 
Q 21.34375 51.125 25.703125 53.5625 
Q 30.078125 56 35.796875 56 
Q 45.21875 56 50.046875 50.171875 
Q 54.890625 44.34375 54.890625 33.015625 
z
" id="DejaVuSans-110"/>
      </defs>
      <use xlink:href="#DejaVuSans-72"/>
      <use x="75.195312" xlink:href="#DejaVuSans-105"/>
      <use x="102.978516" xlink:href="#DejaVuSans-110"/>
      <use x="166.357422" xlink:href="#DejaVuSans-83"/>
      <use x="229.833984" xlink:href="#DejaVuSans-97"/>
      <use x="291.113281" xlink:href="#DejaVuSans-103"/>
      <use x="354.589844" xlink:href="#DejaVuSans-101"/>
     </g>
    </g>
   </g>
  </g>
  <g id="axes_2">
   <g id="patch_8">
    <path d="M 333.47 174.04 
L 564.92814 174.04 
L 564.92814 34.56 
L 333.47 34.56 
z
" style="fill:#ffffff;"/>
   </g>
   <g id="matplotlib.axis_3">
    <g id="xtick_7">
     <g id="line2d_32">
      <path clip-path="url(#p53c68826c8)" d="M 341.865405 174.04 
L 341.865405 34.56 
" style="fill:none;stroke:#b0b0b0;stroke-linecap:square;stroke-width:0.8;"/>
     </g>
     <g id="line2d_33">
      <g>
       <use style="stroke:#000000;stroke-width:0.8;" x="341.865405" xlink:href="#m9aac7a1dec" y="174.04"/>
      </g>
     </g>
     <g id="text_17">
      <!-- 0 -->
      <g transform="translate(338.684155 188.638438)scale(0.1 -0.1)">
       <use xlink:href="#DejaVuSans-48"/>
      </g>
     </g>
    </g>
    <g id="xtick_8">
     <g id="line2d_34">
      <path clip-path="url(#p53c68826c8)" d="M 384.373788 174.04 
L 384.373788 34.56 
" style="fill:none;stroke:#b0b0b0;stroke-linecap:square;stroke-width:0.8;"/>
     </g>
     <g id="line2d_35">
      <g>
       <use style="stroke:#000000;stroke-width:0.8;" x="384.373788" xlink:href="#m9aac7a1dec" y="174.04"/>
      </g>
     </g>
     <g id="text_18">
      <!-- 20 -->
      <g transform="translate(378.011288 188.638438)scale(0.1 -0.1)">
       <use xlink:href="#DejaVuSans-50"/>
       <use x="63.623047" xlink:href="#DejaVuSans-48"/>
      </g>
     </g>
    </g>
    <g id="xtick_9">
     <g id="line2d_36">
      <path clip-path="url(#p53c68826c8)" d="M 426.88217 174.04 
L 426.88217 34.56 
" style="fill:none;stroke:#b0b0b0;stroke-linecap:square;stroke-width:0.8;"/>
     </g>
     <g id="line2d_37">
      <g>
       <use style="stroke:#000000;stroke-width:0.8;" x="426.88217" xlink:href="#m9aac7a1dec" y="174.04"/>
      </g>
     </g>
     <g id="text_19">
      <!-- 40 -->
      <g transform="translate(420.51967 188.638438)scale(0.1 -0.1)">
       <use xlink:href="#DejaVuSans-52"/>
       <use x="63.623047" xlink:href="#DejaVuSans-48"/>
      </g>
     </g>
    </g>
    <g id="xtick_10">
     <g id="line2d_38">
      <path clip-path="url(#p53c68826c8)" d="M 469.390552 174.04 
L 469.390552 34.56 
" style="fill:none;stroke:#b0b0b0;stroke-linecap:square;stroke-width:0.8;"/>
     </g>
     <g id="line2d_39">
      <g>
       <use style="stroke:#000000;stroke-width:0.8;" x="469.390552" xlink:href="#m9aac7a1dec" y="174.04"/>
      </g>
     </g>
     <g id="text_20">
      <!-- 60 -->
      <g transform="translate(463.028052 188.638438)scale(0.1 -0.1)">
       <use xlink:href="#DejaVuSans-54"/>
       <use x="63.623047" xlink:href="#DejaVuSans-48"/>
      </g>
     </g>
    </g>
    <g id="xtick_11">
     <g id="line2d_40">
      <path clip-path="url(#p53c68826c8)" d="M 511.898934 174.04 
L 511.898934 34.56 
" style="fill:none;stroke:#b0b0b0;stroke-linecap:square;stroke-width:0.8;"/>
     </g>
     <g id="line2d_41">
      <g>
       <use style="stroke:#000000;stroke-width:0.8;" x="511.898934" xlink:href="#m9aac7a1dec" y="174.04"/>
      </g>
     </g>
     <g id="text_21">
      <!-- 80 -->
      <g transform="translate(505.536434 188.638438)scale(0.1 -0.1)">
       <use xlink:href="#DejaVuSans-56"/>
       <use x="63.623047" xlink:href="#DejaVuSans-48"/>
      </g>
     </g>
    </g>
    <g id="xtick_12">
     <g id="line2d_42">
      <path clip-path="url(#p53c68826c8)" d="M 554.407316 174.04 
L 554.407316 34.56 
" style="fill:none;stroke:#b0b0b0;stroke-linecap:square;stroke-width:0.8;"/>
     </g>
     <g id="line2d_43">
      <g>
       <use style="stroke:#000000;stroke-width:0.8;" x="554.407316" xlink:href="#m9aac7a1dec" y="174.04"/>
      </g>
     </g>
     <g id="text_22">
      <!-- 100 -->
      <g transform="translate(544.863566 188.638438)scale(0.1 -0.1)">
       <use xlink:href="#DejaVuSans-49"/>
       <use x="63.623047" xlink:href="#DejaVuSans-48"/>
       <use x="127.246094" xlink:href="#DejaVuSans-48"/>
      </g>
     </g>
    </g>
    <g id="text_23">
     <!-- Epochs -->
     <g transform="translate(431.283445 202.316563)scale(0.1 -0.1)">
      <use xlink:href="#DejaVuSans-69"/>
      <use x="63.183594" xlink:href="#DejaVuSans-112"/>
      <use x="126.660156" xlink:href="#DejaVuSans-111"/>
      <use x="187.841797" xlink:href="#DejaVuSans-99"/>
      <use x="242.822266" xlink:href="#DejaVuSans-104"/>
      <use x="306.201172" xlink:href="#DejaVuSans-115"/>
     </g>
    </g>
   </g>
   <g id="matplotlib.axis_4">
    <g id="ytick_6">
     <g id="line2d_44">
      <path clip-path="url(#p53c68826c8)" d="M 333.47 158.315296 
L 564.92814 158.315296 
" style="fill:none;stroke:#b0b0b0;stroke-linecap:square;stroke-width:0.8;"/>
     </g>
     <g id="line2d_45">
      <g>
       <use style="stroke:#000000;stroke-width:0.8;" x="333.47" xlink:href="#m4b023418d2" y="158.315296"/>
      </g>
     </g>
     <g id="text_24">
      <!-- 0.65 -->
      <g transform="translate(304.204375 162.114515)scale(0.1 -0.1)">
       <defs>
        <path d="M 10.796875 72.90625 
L 49.515625 72.90625 
L 49.515625 64.59375 
L 19.828125 64.59375 
L 19.828125 46.734375 
Q 21.96875 47.46875 24.109375 47.828125 
Q 26.265625 48.1875 28.421875 48.1875 
Q 40.625 48.1875 47.75 41.5 
Q 54.890625 34.8125 54.890625 23.390625 
Q 54.890625 11.625 47.5625 5.09375 
Q 40.234375 -1.421875 26.90625 -1.421875 
Q 22.3125 -1.421875 17.546875 -0.640625 
Q 12.796875 0.140625 7.71875 1.703125 
L 7.71875 11.625 
Q 12.109375 9.234375 16.796875 8.0625 
Q 21.484375 6.890625 26.703125 6.890625 
Q 35.15625 6.890625 40.078125 11.328125 
Q 45.015625 15.765625 45.015625 23.390625 
Q 45.015625 31 40.078125 35.4375 
Q 35.15625 39.890625 26.703125 39.890625 
Q 22.75 39.890625 18.8125 39.015625 
Q 14.890625 38.140625 10.796875 36.28125 
z
" id="DejaVuSans-53"/>
       </defs>
       <use xlink:href="#DejaVuSans-48"/>
       <use x="63.623047" xlink:href="#DejaVuSans-46"/>
       <use x="95.410156" xlink:href="#DejaVuSans-54"/>
       <use x="159.033203" xlink:href="#DejaVuSans-53"/>
      </g>
     </g>
    </g>
    <g id="ytick_7">
     <g id="line2d_46">
      <path clip-path="url(#p53c68826c8)" d="M 333.47 132.776703 
L 564.92814 132.776703 
" style="fill:none;stroke:#b0b0b0;stroke-linecap:square;stroke-width:0.8;"/>
     </g>
     <g id="line2d_47">
      <g>
       <use style="stroke:#000000;stroke-width:0.8;" x="333.47" xlink:href="#m4b023418d2" y="132.776703"/>
      </g>
     </g>
     <g id="text_25">
      <!-- 0.70 -->
      <g transform="translate(304.204375 136.575922)scale(0.1 -0.1)">
       <use xlink:href="#DejaVuSans-48"/>
       <use x="63.623047" xlink:href="#DejaVuSans-46"/>
       <use x="95.410156" xlink:href="#DejaVuSans-55"/>
       <use x="159.033203" xlink:href="#DejaVuSans-48"/>
      </g>
     </g>
    </g>
    <g id="ytick_8">
     <g id="line2d_48">
      <path clip-path="url(#p53c68826c8)" d="M 333.47 107.238111 
L 564.92814 107.238111 
" style="fill:none;stroke:#b0b0b0;stroke-linecap:square;stroke-width:0.8;"/>
     </g>
     <g id="line2d_49">
      <g>
       <use style="stroke:#000000;stroke-width:0.8;" x="333.47" xlink:href="#m4b023418d2" y="107.238111"/>
      </g>
     </g>
     <g id="text_26">
      <!-- 0.75 -->
      <g transform="translate(304.204375 111.037329)scale(0.1 -0.1)">
       <use xlink:href="#DejaVuSans-48"/>
       <use x="63.623047" xlink:href="#DejaVuSans-46"/>
       <use x="95.410156" xlink:href="#DejaVuSans-55"/>
       <use x="159.033203" xlink:href="#DejaVuSans-53"/>
      </g>
     </g>
    </g>
    <g id="ytick_9">
     <g id="line2d_50">
      <path clip-path="url(#p53c68826c8)" d="M 333.47 81.699518 
L 564.92814 81.699518 
" style="fill:none;stroke:#b0b0b0;stroke-linecap:square;stroke-width:0.8;"/>
     </g>
     <g id="line2d_51">
      <g>
       <use style="stroke:#000000;stroke-width:0.8;" x="333.47" xlink:href="#m4b023418d2" y="81.699518"/>
      </g>
     </g>
     <g id="text_27">
      <!-- 0.80 -->
      <g transform="translate(304.204375 85.498736)scale(0.1 -0.1)">
       <use xlink:href="#DejaVuSans-48"/>
       <use x="63.623047" xlink:href="#DejaVuSans-46"/>
       <use x="95.410156" xlink:href="#DejaVuSans-56"/>
       <use x="159.033203" xlink:href="#DejaVuSans-48"/>
      </g>
     </g>
    </g>
    <g id="ytick_10">
     <g id="line2d_52">
      <path clip-path="url(#p53c68826c8)" d="M 333.47 56.160925 
L 564.92814 56.160925 
" style="fill:none;stroke:#b0b0b0;stroke-linecap:square;stroke-width:0.8;"/>
     </g>
     <g id="line2d_53">
      <g>
       <use style="stroke:#000000;stroke-width:0.8;" x="333.47" xlink:href="#m4b023418d2" y="56.160925"/>
      </g>
     </g>
     <g id="text_28">
      <!-- 0.85 -->
      <g transform="translate(304.204375 59.960144)scale(0.1 -0.1)">
       <use xlink:href="#DejaVuSans-48"/>
       <use x="63.623047" xlink:href="#DejaVuSans-46"/>
       <use x="95.410156" xlink:href="#DejaVuSans-56"/>
       <use x="159.033203" xlink:href="#DejaVuSans-53"/>
      </g>
     </g>
    </g>
    <g id="text_29">
     <!-- Val Acc -->
     <g transform="translate(298.124688 122.20625)rotate(-90)scale(0.1 -0.1)">
      <defs>
       <path d="M 9.421875 75.984375 
L 18.40625 75.984375 
L 18.40625 0 
L 9.421875 0 
z
" id="DejaVuSans-108"/>
       <path id="DejaVuSans-32"/>
      </defs>
      <use xlink:href="#DejaVuSans-86"/>
      <use x="60.658203" xlink:href="#DejaVuSans-97"/>
      <use x="121.9375" xlink:href="#DejaVuSans-108"/>
      <use x="149.720703" xlink:href="#DejaVuSans-32"/>
      <use x="181.507812" xlink:href="#DejaVuSans-65"/>
      <use x="248.166016" xlink:href="#DejaVuSans-99"/>
      <use x="303.146484" xlink:href="#DejaVuSans-99"/>
     </g>
    </g>
   </g>
   <g id="line2d_54">
    <path clip-path="url(#p53c68826c8)" d="M 343.990825 166.202137 
L 346.116244 166.547802 
L 348.241663 167.239103 
L 350.367082 167.411935 
L 352.492501 167.642399 
L 354.61792 167.7 
L 356.743339 167.584768 
L 358.868758 167.642399 
L 360.994177 167.527167 
L 363.119597 167.354335 
L 365.245016 167.296734 
L 367.370435 167.354335 
L 369.495854 167.296734 
L 371.621273 167.181502 
L 373.746692 167.008669 
L 375.872111 167.008669 
L 377.99753 167.06627 
L 380.122949 166.893437 
L 382.248368 166.720635 
L 384.373788 166.605403 
L 386.499207 166.490171 
L 388.624626 166.547802 
L 390.750045 166.086905 
L 392.875464 166.202137 
L 395.000883 165.683639 
L 397.126302 165.510806 
L 399.251721 165.222772 
L 401.37714 164.47381 
L 403.502559 164.128175 
L 405.627979 163.955342 
L 407.753398 163.667277 
L 409.878817 163.20641 
L 412.004236 162.687912 
L 414.129655 162.284646 
L 416.255074 161.93898 
L 418.380493 161.708547 
L 420.505912 162.111813 
L 422.631331 161.478083 
L 424.756751 161.478083 
L 426.88217 161.362882 
L 429.007589 160.61395 
L 431.133008 160.268285 
L 433.258427 160.095452 
L 435.383846 160.095452 
L 437.509265 159.865018 
L 439.634684 159.34652 
L 441.760103 158.828022 
L 443.885522 158.885623 
L 446.010942 158.943254 
L 448.136361 158.539988 
L 450.26178 158.482357 
L 452.387199 158.194322 
L 454.512618 158.07909 
L 456.638037 157.906258 
L 458.763456 158.02149 
L 460.888875 157.848657 
L 463.014294 157.848657 
L 465.139714 157.906258 
L 467.265133 157.963889 
L 469.390552 158.02149 
L 471.515971 157.791056 
L 473.64139 157.848657 
L 475.766809 157.618223 
L 477.892228 157.560592 
L 480.017647 157.560592 
L 482.143066 157.618223 
L 484.268485 157.618223 
L 486.393905 157.733425 
L 488.519324 157.675824 
L 490.644743 157.791056 
L 492.770162 157.618223 
L 494.895581 157.502991 
L 497.021 157.38776 
L 499.146419 157.38776 
L 501.271838 157.272558 
L 503.397257 157.214927 
L 505.522677 157.38776 
L 507.648096 157.38776 
L 509.773515 157.618223 
L 511.898934 157.560592 
L 514.024353 157.618223 
L 516.149772 157.618223 
L 518.275191 157.675824 
L 520.40061 157.848657 
L 522.526029 157.848657 
L 524.651448 157.791056 
L 526.776868 157.906258 
L 528.902287 157.791056 
L 531.027706 157.848657 
L 533.153125 157.848657 
L 535.278544 157.906258 
L 537.403963 157.848657 
L 539.529382 157.733425 
L 541.654801 157.733425 
L 543.78022 157.848657 
L 545.90564 158.07909 
L 548.031059 158.194322 
L 550.156478 158.194322 
L 552.281897 158.194322 
L 554.407316 158.194322 
" style="fill:none;stroke:#1f77b4;stroke-linecap:square;stroke-width:1.5;"/>
   </g>
   <g id="line2d_55">
    <path clip-path="url(#p53c68826c8)" d="M 343.990825 104.962515 
L 346.116244 69.359432 
L 348.241663 64.462546 
L 350.367082 116.599756 
L 352.492501 52.594841 
L 354.61792 50.808944 
L 356.743339 50.232845 
L 358.868758 96.090537 
L 360.994177 50.348046 
L 363.119597 50.808944 
L 365.245016 65.499542 
L 367.370435 53.113339 
L 369.495854 48.101252 
L 371.621273 46.372955 
L 373.746692 46.71862 
L 375.872111 45.39359 
L 377.99753 44.875092 
L 380.122949 46.08489 
L 382.248368 43.780495 
L 384.373788 42.685897 
L 386.499207 43.204396 
L 388.624626 44.183761 
L 390.750045 43.319628 
L 392.875464 139.125336 
L 395.000883 75.926984 
L 397.126302 65.614744 
L 399.251721 52.076374 
L 401.37714 49.483913 
L 403.502559 47.467552 
L 405.627979 47.006655 
L 407.753398 46.027289 
L 409.878817 45.451191 
L 412.004236 43.665263 
L 414.129655 44.12616 
L 416.255074 43.434829 
L 418.380493 43.953327 
L 420.505912 42.052198 
L 422.631331 43.434829 
L 424.756751 43.204396 
L 426.88217 42.340232 
L 429.007589 41.764133 
L 431.133008 42.570696 
L 433.258427 100.065629 
L 435.383846 48.043651 
L 437.509265 43.780495 
L 439.634684 43.204396 
L 441.760103 42.455464 
L 443.885522 43.031563 
L 446.010942 42.340232 
L 448.136361 41.879365 
L 450.26178 40.9 
L 452.387199 42.628297 
L 454.512618 43.089164 
L 456.638037 42.052198 
L 458.763456 42.397863 
L 460.888875 41.706532 
L 463.014294 43.261996 
L 465.139714 41.245635 
L 467.265133 41.5337 
L 469.390552 42.743529 
L 471.515971 40.9 
L 473.64139 41.015202 
L 475.766809 41.821764 
L 477.892228 41.188034 
L 480.017647 40.957601 
L 482.143066 42.167399 
L 484.268485 43.895727 
L 486.393905 43.722894 
L 488.519324 43.550061 
L 490.644743 42.397863 
L 492.770162 46.66102 
L 494.895581 42.743529 
L 497.021 42.397863 
L 499.146419 43.031563 
L 501.271838 45.39359 
L 503.397257 46.891453 
L 505.522677 44.587027 
L 507.648096 44.817491 
L 509.773515 45.105525 
L 511.898934 43.377228 
L 514.024353 46.200122 
L 516.149772 45.39359 
L 518.275191 43.665263 
L 520.40061 45.912088 
L 522.526029 45.163156 
L 524.651448 44.241392 
L 526.776868 45.278358 
L 528.902287 45.335959 
L 531.027706 43.953327 
L 533.153125 45.566422 
L 535.278544 44.644658 
L 537.403963 45.105525 
L 539.529382 44.644658 
L 541.654801 45.335959 
L 543.78022 47.525153 
L 545.90564 46.71862 
L 548.031059 48.792582 
L 550.156478 45.854457 
L 552.281897 46.372955 
L 554.407316 48.101252 
" style="fill:none;stroke:#ff7f0e;stroke-linecap:square;stroke-width:1.5;"/>
   </g>
   <g id="line2d_56">
    <path clip-path="url(#p53c68826c8)" d="M 343.990825 127.488095 
L 346.116244 106.921245 
L 348.241663 110.665904 
L 350.367082 101.448291 
L 352.492501 152.490904 
L 354.61792 114.756227 
L 356.743339 101.333059 
L 358.868758 96.551435 
L 360.994177 97.415568 
L 363.119597 92.40348 
L 365.245016 90.041484 
L 367.370435 88.255556 
L 369.495854 90.214316 
L 371.621273 95.860104 
L 373.746692 102.02439 
L 375.872111 94.131807 
L 377.99753 88.54362 
L 380.122949 92.576313 
L 382.248368 119.42265 
L 384.373788 105.538614 
L 386.499207 96.090537 
L 388.624626 91.827381 
L 390.750045 91.308883 
L 392.875464 89.638187 
L 395.000883 94.707906 
L 397.126302 89.580586 
L 399.251721 90.329518 
L 401.37714 90.675183 
L 403.502559 90.559951 
L 405.627979 89.234921 
L 407.753398 92.000214 
L 409.878817 99.028663 
L 412.004236 101.217857 
L 414.129655 94.016575 
L 416.255074 91.481716 
L 418.380493 95.62967 
L 420.505912 94.99594 
L 422.631331 93.555678 
L 424.756751 107.497344 
L 426.88217 99.777595 
L 429.007589 99.835195 
L 431.133008 97.646001 
L 433.258427 97.761233 
L 435.383846 99.028663 
L 437.509265 96.954701 
L 439.634684 100.75696 
L 441.760103 97.991667 
L 443.885522 98.049298 
L 446.010942 98.164499 
L 448.136361 98.913431 
L 450.26178 97.703632 
L 452.387199 98.567766 
L 454.512618 96.954701 
L 456.638037 97.069902 
L 458.763456 97.069902 
L 460.888875 97.703632 
L 463.014294 98.567766 
L 465.139714 132.788217 
L 467.265133 95.802503 
L 469.390552 97.300366 
L 471.515971 96.26337 
L 473.64139 97.300366 
L 475.766809 100.468926 
L 477.892228 96.954701 
L 480.017647 97.876465 
L 482.143066 100.814561 
L 484.268485 103.752686 
L 486.393905 100.353694 
L 488.519324 96.954701 
L 490.644743 101.217857 
L 492.770162 98.452564 
L 494.895581 100.814561 
L 497.021 98.510165 
L 499.146419 101.217857 
L 501.271838 101.736325 
L 503.397257 100.584127 
L 505.522677 98.79823 
L 507.648096 101.909158 
L 509.773515 98.337332 
L 511.898934 98.740598 
L 514.024353 103.34942 
L 516.149772 104.040751 
L 518.275191 100.526526 
L 520.40061 98.79823 
L 522.526029 96.378602 
L 524.651448 101.909158 
L 526.776868 99.086264 
L 528.902287 100.238462 
L 531.027706 102.312454 
L 533.153125 108.073443 
L 535.278544 99.48953 
L 537.403963 101.39069 
L 539.529382 99.316697 
L 541.654801 100.929792 
L 543.78022 100.526526 
L 545.90564 99.719994 
L 548.031059 102.830922 
L 550.156478 101.333059 
L 552.281897 102.485256 
L 554.407316 101.563523 
" style="fill:none;stroke:#2ca02c;stroke-linecap:square;stroke-width:1.5;"/>
   </g>
   <g id="patch_9">
    <path d="M 333.47 174.04 
L 333.47 34.56 
" style="fill:none;stroke:#000000;stroke-linecap:square;stroke-linejoin:miter;stroke-width:0.8;"/>
   </g>
   <g id="patch_10">
    <path d="M 564.92814 174.04 
L 564.92814 34.56 
" style="fill:none;stroke:#000000;stroke-linecap:square;stroke-linejoin:miter;stroke-width:0.8;"/>
   </g>
   <g id="patch_11">
    <path d="M 333.47 174.04 
L 564.92814 174.04 
" style="fill:none;stroke:#000000;stroke-linecap:square;stroke-linejoin:miter;stroke-width:0.8;"/>
   </g>
   <g id="patch_12">
    <path d="M 333.47 34.56 
L 564.92814 34.56 
" style="fill:none;stroke:#000000;stroke-linecap:square;stroke-linejoin:miter;stroke-width:0.8;"/>
   </g>
   <g id="legend_2">
    <g id="patch_13">
     <path d="M 340.47 86.594375 
L 428.121563 86.594375 
Q 430.121563 86.594375 430.121563 84.594375 
L 430.121563 41.56 
Q 430.121563 39.56 428.121563 39.56 
L 340.47 39.56 
Q 338.47 39.56 338.47 41.56 
L 338.47 84.594375 
Q 338.47 86.594375 340.47 86.594375 
z
" style="fill:#ffffff;opacity:0.8;stroke:#cccccc;stroke-linejoin:miter;"/>
    </g>
    <g id="line2d_57">
     <path d="M 342.47 47.658438 
L 362.47 47.658438 
" style="fill:none;stroke:#1f77b4;stroke-linecap:square;stroke-width:1.5;"/>
    </g>
    <g id="line2d_58"/>
    <g id="text_30">
     <!-- Attri2Vec -->
     <g transform="translate(370.47 51.158438)scale(0.1 -0.1)">
      <use xlink:href="#DejaVuSans-65"/>
      <use x="66.658203" xlink:href="#DejaVuSans-116"/>
      <use x="105.867188" xlink:href="#DejaVuSans-116"/>
      <use x="145.076172" xlink:href="#DejaVuSans-114"/>
      <use x="186.189453" xlink:href="#DejaVuSans-105"/>
      <use x="213.972656" xlink:href="#DejaVuSans-50"/>
      <use x="277.595703" xlink:href="#DejaVuSans-86"/>
      <use x="338.253906" xlink:href="#DejaVuSans-101"/>
      <use x="399.777344" xlink:href="#DejaVuSans-99"/>
     </g>
    </g>
    <g id="line2d_59">
     <path d="M 342.47 62.336563 
L 362.47 62.336563 
" style="fill:none;stroke:#ff7f0e;stroke-linecap:square;stroke-width:1.5;"/>
    </g>
    <g id="line2d_60"/>
    <g id="text_31">
     <!-- GraphSage -->
     <g transform="translate(370.47 65.836563)scale(0.1 -0.1)">
      <use xlink:href="#DejaVuSans-71"/>
      <use x="77.490234" xlink:href="#DejaVuSans-114"/>
      <use x="118.603516" xlink:href="#DejaVuSans-97"/>
      <use x="179.882812" xlink:href="#DejaVuSans-112"/>
      <use x="243.359375" xlink:href="#DejaVuSans-104"/>
      <use x="306.738281" xlink:href="#DejaVuSans-83"/>
      <use x="370.214844" xlink:href="#DejaVuSans-97"/>
      <use x="431.494141" xlink:href="#DejaVuSans-103"/>
      <use x="494.970703" xlink:href="#DejaVuSans-101"/>
     </g>
    </g>
    <g id="line2d_61">
     <path d="M 342.47 77.014688 
L 362.47 77.014688 
" style="fill:none;stroke:#2ca02c;stroke-linecap:square;stroke-width:1.5;"/>
    </g>
    <g id="line2d_62"/>
    <g id="text_32">
     <!-- HinSage -->
     <g transform="translate(370.47 80.514688)scale(0.1 -0.1)">
      <use xlink:href="#DejaVuSans-72"/>
      <use x="75.195312" xlink:href="#DejaVuSans-105"/>
      <use x="102.978516" xlink:href="#DejaVuSans-110"/>
      <use x="166.357422" xlink:href="#DejaVuSans-83"/>
      <use x="229.833984" xlink:href="#DejaVuSans-97"/>
      <use x="291.113281" xlink:href="#DejaVuSans-103"/>
      <use x="354.589844" xlink:href="#DejaVuSans-101"/>
     </g>
    </g>
   </g>
  </g>
  <g id="text_33">
   <!-- PUBMED -->
   <g transform="translate(262.28625 13.438125)scale(0.12 -0.12)">
    <defs>
     <path d="M 19.671875 64.796875 
L 19.671875 37.40625 
L 32.078125 37.40625 
Q 38.96875 37.40625 42.71875 40.96875 
Q 46.484375 44.53125 46.484375 51.125 
Q 46.484375 57.671875 42.71875 61.234375 
Q 38.96875 64.796875 32.078125 64.796875 
z
M 9.8125 72.90625 
L 32.078125 72.90625 
Q 44.34375 72.90625 50.609375 67.359375 
Q 56.890625 61.8125 56.890625 51.125 
Q 56.890625 40.328125 50.609375 34.8125 
Q 44.34375 29.296875 32.078125 29.296875 
L 19.671875 29.296875 
L 19.671875 0 
L 9.8125 0 
z
" id="DejaVuSans-80"/>
     <path d="M 8.6875 72.90625 
L 18.609375 72.90625 
L 18.609375 28.609375 
Q 18.609375 16.890625 22.84375 11.734375 
Q 27.09375 6.59375 36.625 6.59375 
Q 46.09375 6.59375 50.34375 11.734375 
Q 54.59375 16.890625 54.59375 28.609375 
L 54.59375 72.90625 
L 64.5 72.90625 
L 64.5 27.390625 
Q 64.5 13.140625 57.4375 5.859375 
Q 50.390625 -1.421875 36.625 -1.421875 
Q 22.796875 -1.421875 15.734375 5.859375 
Q 8.6875 13.140625 8.6875 27.390625 
z
" id="DejaVuSans-85"/>
     <path d="M 19.671875 34.8125 
L 19.671875 8.109375 
L 35.5 8.109375 
Q 43.453125 8.109375 47.28125 11.40625 
Q 51.125 14.703125 51.125 21.484375 
Q 51.125 28.328125 47.28125 31.5625 
Q 43.453125 34.8125 35.5 34.8125 
z
M 19.671875 64.796875 
L 19.671875 42.828125 
L 34.28125 42.828125 
Q 41.5 42.828125 45.03125 45.53125 
Q 48.578125 48.25 48.578125 53.8125 
Q 48.578125 59.328125 45.03125 62.0625 
Q 41.5 64.796875 34.28125 64.796875 
z
M 9.8125 72.90625 
L 35.015625 72.90625 
Q 46.296875 72.90625 52.390625 68.21875 
Q 58.5 63.53125 58.5 54.890625 
Q 58.5 48.1875 55.375 44.234375 
Q 52.25 40.28125 46.1875 39.3125 
Q 53.46875 37.75 57.5 32.78125 
Q 61.53125 27.828125 61.53125 20.40625 
Q 61.53125 10.640625 54.890625 5.3125 
Q 48.25 0 35.984375 0 
L 9.8125 0 
z
" id="DejaVuSans-66"/>
     <path d="M 9.8125 72.90625 
L 24.515625 72.90625 
L 43.109375 23.296875 
L 61.8125 72.90625 
L 76.515625 72.90625 
L 76.515625 0 
L 66.890625 0 
L 66.890625 64.015625 
L 48.09375 14.015625 
L 38.1875 14.015625 
L 19.390625 64.015625 
L 19.390625 0 
L 9.8125 0 
z
" id="DejaVuSans-77"/>
     <path d="M 19.671875 64.796875 
L 19.671875 8.109375 
L 31.59375 8.109375 
Q 46.6875 8.109375 53.6875 14.9375 
Q 60.6875 21.78125 60.6875 36.53125 
Q 60.6875 51.171875 53.6875 57.984375 
Q 46.6875 64.796875 31.59375 64.796875 
z
M 9.8125 72.90625 
L 30.078125 72.90625 
Q 51.265625 72.90625 61.171875 64.09375 
Q 71.09375 55.28125 71.09375 36.53125 
Q 71.09375 17.671875 61.125 8.828125 
Q 51.171875 0 30.078125 0 
L 9.8125 0 
z
" id="DejaVuSans-68"/>
    </defs>
    <use xlink:href="#DejaVuSans-80"/>
    <use x="60.302734" xlink:href="#DejaVuSans-85"/>
    <use x="133.496094" xlink:href="#DejaVuSans-66"/>
    <use x="202.099609" xlink:href="#DejaVuSans-77"/>
    <use x="288.378906" xlink:href="#DejaVuSans-69"/>
    <use x="351.5625" xlink:href="#DejaVuSans-68"/>
   </g>
  </g>
 </g>
 <defs>
  <clipPath id="pdd57d25b85">
   <rect height="139.48" width="231.45814" x="47.72" y="34.56"/>
  </clipPath>
  <clipPath id="p53c68826c8">
   <rect height="139.48" width="231.45814" x="333.47" y="34.56"/>
  </clipPath>
 </defs>
</svg>
