<?xml version="1.0" encoding="utf-8" standalone="no"?>
<!DOCTYPE svg PUBLIC "-//W3C//DTD SVG 1.1//EN"
  "http://www.w3.org/Graphics/SVG/1.1/DTD/svg11.dtd">
<!-- Created with matplotlib (https://matplotlib.org/) -->
<svg height="216pt" version="1.1" viewBox="0 0 576 216" width="576pt" xmlns="http://www.w3.org/2000/svg" xmlns:xlink="http://www.w3.org/1999/xlink">
 <metadata>
  <rdf:RDF xmlns:cc="http://creativecommons.org/ns#" xmlns:dc="http://purl.org/dc/elements/1.1/" xmlns:rdf="http://www.w3.org/1999/02/22-rdf-syntax-ns#">
   <cc:Work>
    <dc:type rdf:resource="http://purl.org/dc/dcmitype/StillImage"/>
    <dc:date>2021-04-11T18:22:48.980489</dc:date>
    <dc:format>image/svg+xml</dc:format>
    <dc:creator>
     <cc:Agent>
      <dc:title>Matplotlib v3.3.3, https://matplotlib.org/</dc:title>
     </cc:Agent>
    </dc:creator>
   </cc:Work>
  </rdf:RDF>
 </metadata>
 <defs>
  <style type="text/css">*{stroke-linecap:butt;stroke-linejoin:round;}</style>
 </defs>
 <g id="figure_1">
  <g id="patch_1">
   <path d="M 0 216 
L 576 216 
L 576 0 
L 0 0 
z
" style="fill:#ffffff;"/>
  </g>
  <g id="axes_1">
   <g id="patch_2">
    <path d="M 54.02 174.04 
L 282.32814 174.04 
L 282.32814 34.56 
L 54.02 34.56 
z
" style="fill:#ffffff;"/>
   </g>
   <g id="matplotlib.axis_1">
    <g id="xtick_1">
     <g id="line2d_1">
      <path clip-path="url(#p12ad8d600f)" d="M 62.301149 174.04 
L 62.301149 34.56 
" style="fill:none;stroke:#b0b0b0;stroke-linecap:square;stroke-width:0.8;"/>
     </g>
     <g id="line2d_2">
      <defs>
       <path d="M 0 0 
L 0 3.5 
" id="m0b5e236ac8" style="stroke:#000000;stroke-width:0.8;"/>
      </defs>
      <g>
       <use style="stroke:#000000;stroke-width:0.8;" x="62.301149" xlink:href="#m0b5e236ac8" y="174.04"/>
      </g>
     </g>
     <g id="text_1">
      <!-- 0 -->
      <g transform="translate(59.119899 188.638438)scale(0.1 -0.1)">
       <defs>
        <path d="M 31.78125 66.40625 
Q 24.171875 66.40625 20.328125 58.90625 
Q 16.5 51.421875 16.5 36.375 
Q 16.5 21.390625 20.328125 13.890625 
Q 24.171875 6.390625 31.78125 6.390625 
Q 39.453125 6.390625 43.28125 13.890625 
Q 47.125 21.390625 47.125 36.375 
Q 47.125 51.421875 43.28125 58.90625 
Q 39.453125 66.40625 31.78125 66.40625 
z
M 31.78125 74.21875 
Q 44.046875 74.21875 50.515625 64.515625 
Q 56.984375 54.828125 56.984375 36.375 
Q 56.984375 17.96875 50.515625 8.265625 
Q 44.046875 -1.421875 31.78125 -1.421875 
Q 19.53125 -1.421875 13.0625 8.265625 
Q 6.59375 17.96875 6.59375 36.375 
Q 6.59375 54.828125 13.0625 64.515625 
Q 19.53125 74.21875 31.78125 74.21875 
z
" id="DejaVuSans-48"/>
       </defs>
       <use xlink:href="#DejaVuSans-48"/>
      </g>
     </g>
    </g>
    <g id="xtick_2">
     <g id="line2d_3">
      <path clip-path="url(#p12ad8d600f)" d="M 104.231019 174.04 
L 104.231019 34.56 
" style="fill:none;stroke:#b0b0b0;stroke-linecap:square;stroke-width:0.8;"/>
     </g>
     <g id="line2d_4">
      <g>
       <use style="stroke:#000000;stroke-width:0.8;" x="104.231019" xlink:href="#m0b5e236ac8" y="174.04"/>
      </g>
     </g>
     <g id="text_2">
      <!-- 20 -->
      <g transform="translate(97.868519 188.638438)scale(0.1 -0.1)">
       <defs>
        <path d="M 19.1875 8.296875 
L 53.609375 8.296875 
L 53.609375 0 
L 7.328125 0 
L 7.328125 8.296875 
Q 12.9375 14.109375 22.625 23.890625 
Q 32.328125 33.6875 34.8125 36.53125 
Q 39.546875 41.84375 41.421875 45.53125 
Q 43.3125 49.21875 43.3125 52.78125 
Q 43.3125 58.59375 39.234375 62.25 
Q 35.15625 65.921875 28.609375 65.921875 
Q 23.96875 65.921875 18.8125 64.3125 
Q 13.671875 62.703125 7.8125 59.421875 
L 7.8125 69.390625 
Q 13.765625 71.78125 18.9375 73 
Q 24.125 74.21875 28.421875 74.21875 
Q 39.75 74.21875 46.484375 68.546875 
Q 53.21875 62.890625 53.21875 53.421875 
Q 53.21875 48.921875 51.53125 44.890625 
Q 49.859375 40.875 45.40625 35.40625 
Q 44.1875 33.984375 37.640625 27.21875 
Q 31.109375 20.453125 19.1875 8.296875 
z
" id="DejaVuSans-50"/>
       </defs>
       <use xlink:href="#DejaVuSans-50"/>
       <use x="63.623047" xlink:href="#DejaVuSans-48"/>
      </g>
     </g>
    </g>
    <g id="xtick_3">
     <g id="line2d_5">
      <path clip-path="url(#p12ad8d600f)" d="M 146.160889 174.04 
L 146.160889 34.56 
" style="fill:none;stroke:#b0b0b0;stroke-linecap:square;stroke-width:0.8;"/>
     </g>
     <g id="line2d_6">
      <g>
       <use style="stroke:#000000;stroke-width:0.8;" x="146.160889" xlink:href="#m0b5e236ac8" y="174.04"/>
      </g>
     </g>
     <g id="text_3">
      <!-- 40 -->
      <g transform="translate(139.798389 188.638438)scale(0.1 -0.1)">
       <defs>
        <path d="M 37.796875 64.3125 
L 12.890625 25.390625 
L 37.796875 25.390625 
z
M 35.203125 72.90625 
L 47.609375 72.90625 
L 47.609375 25.390625 
L 58.015625 25.390625 
L 58.015625 17.1875 
L 47.609375 17.1875 
L 47.609375 0 
L 37.796875 0 
L 37.796875 17.1875 
L 4.890625 17.1875 
L 4.890625 26.703125 
z
" id="DejaVuSans-52"/>
       </defs>
       <use xlink:href="#DejaVuSans-52"/>
       <use x="63.623047" xlink:href="#DejaVuSans-48"/>
      </g>
     </g>
    </g>
    <g id="xtick_4">
     <g id="line2d_7">
      <path clip-path="url(#p12ad8d600f)" d="M 188.090758 174.04 
L 188.090758 34.56 
" style="fill:none;stroke:#b0b0b0;stroke-linecap:square;stroke-width:0.8;"/>
     </g>
     <g id="line2d_8">
      <g>
       <use style="stroke:#000000;stroke-width:0.8;" x="188.090758" xlink:href="#m0b5e236ac8" y="174.04"/>
      </g>
     </g>
     <g id="text_4">
      <!-- 60 -->
      <g transform="translate(181.728258 188.638438)scale(0.1 -0.1)">
       <defs>
        <path d="M 33.015625 40.375 
Q 26.375 40.375 22.484375 35.828125 
Q 18.609375 31.296875 18.609375 23.390625 
Q 18.609375 15.53125 22.484375 10.953125 
Q 26.375 6.390625 33.015625 6.390625 
Q 39.65625 6.390625 43.53125 10.953125 
Q 47.40625 15.53125 47.40625 23.390625 
Q 47.40625 31.296875 43.53125 35.828125 
Q 39.65625 40.375 33.015625 40.375 
z
M 52.59375 71.296875 
L 52.59375 62.3125 
Q 48.875 64.0625 45.09375 64.984375 
Q 41.3125 65.921875 37.59375 65.921875 
Q 27.828125 65.921875 22.671875 59.328125 
Q 17.53125 52.734375 16.796875 39.40625 
Q 19.671875 43.65625 24.015625 45.921875 
Q 28.375 48.1875 33.59375 48.1875 
Q 44.578125 48.1875 50.953125 41.515625 
Q 57.328125 34.859375 57.328125 23.390625 
Q 57.328125 12.15625 50.6875 5.359375 
Q 44.046875 -1.421875 33.015625 -1.421875 
Q 20.359375 -1.421875 13.671875 8.265625 
Q 6.984375 17.96875 6.984375 36.375 
Q 6.984375 53.65625 15.1875 63.9375 
Q 23.390625 74.21875 37.203125 74.21875 
Q 40.921875 74.21875 44.703125 73.484375 
Q 48.484375 72.75 52.59375 71.296875 
z
" id="DejaVuSans-54"/>
       </defs>
       <use xlink:href="#DejaVuSans-54"/>
       <use x="63.623047" xlink:href="#DejaVuSans-48"/>
      </g>
     </g>
    </g>
    <g id="xtick_5">
     <g id="line2d_9">
      <path clip-path="url(#p12ad8d600f)" d="M 230.020628 174.04 
L 230.020628 34.56 
" style="fill:none;stroke:#b0b0b0;stroke-linecap:square;stroke-width:0.8;"/>
     </g>
     <g id="line2d_10">
      <g>
       <use style="stroke:#000000;stroke-width:0.8;" x="230.020628" xlink:href="#m0b5e236ac8" y="174.04"/>
      </g>
     </g>
     <g id="text_5">
      <!-- 80 -->
      <g transform="translate(223.658128 188.638438)scale(0.1 -0.1)">
       <defs>
        <path d="M 31.78125 34.625 
Q 24.75 34.625 20.71875 30.859375 
Q 16.703125 27.09375 16.703125 20.515625 
Q 16.703125 13.921875 20.71875 10.15625 
Q 24.75 6.390625 31.78125 6.390625 
Q 38.8125 6.390625 42.859375 10.171875 
Q 46.921875 13.96875 46.921875 20.515625 
Q 46.921875 27.09375 42.890625 30.859375 
Q 38.875 34.625 31.78125 34.625 
z
M 21.921875 38.8125 
Q 15.578125 40.375 12.03125 44.71875 
Q 8.5 49.078125 8.5 55.328125 
Q 8.5 64.0625 14.71875 69.140625 
Q 20.953125 74.21875 31.78125 74.21875 
Q 42.671875 74.21875 48.875 69.140625 
Q 55.078125 64.0625 55.078125 55.328125 
Q 55.078125 49.078125 51.53125 44.71875 
Q 48 40.375 41.703125 38.8125 
Q 48.828125 37.15625 52.796875 32.3125 
Q 56.78125 27.484375 56.78125 20.515625 
Q 56.78125 9.90625 50.3125 4.234375 
Q 43.84375 -1.421875 31.78125 -1.421875 
Q 19.734375 -1.421875 13.25 4.234375 
Q 6.78125 9.90625 6.78125 20.515625 
Q 6.78125 27.484375 10.78125 32.3125 
Q 14.796875 37.15625 21.921875 38.8125 
z
M 18.3125 54.390625 
Q 18.3125 48.734375 21.84375 45.5625 
Q 25.390625 42.390625 31.78125 42.390625 
Q 38.140625 42.390625 41.71875 45.5625 
Q 45.3125 48.734375 45.3125 54.390625 
Q 45.3125 60.0625 41.71875 63.234375 
Q 38.140625 66.40625 31.78125 66.40625 
Q 25.390625 66.40625 21.84375 63.234375 
Q 18.3125 60.0625 18.3125 54.390625 
z
" id="DejaVuSans-56"/>
       </defs>
       <use xlink:href="#DejaVuSans-56"/>
       <use x="63.623047" xlink:href="#DejaVuSans-48"/>
      </g>
     </g>
    </g>
    <g id="xtick_6">
     <g id="line2d_11">
      <path clip-path="url(#p12ad8d600f)" d="M 271.950498 174.04 
L 271.950498 34.56 
" style="fill:none;stroke:#b0b0b0;stroke-linecap:square;stroke-width:0.8;"/>
     </g>
     <g id="line2d_12">
      <g>
       <use style="stroke:#000000;stroke-width:0.8;" x="271.950498" xlink:href="#m0b5e236ac8" y="174.04"/>
      </g>
     </g>
     <g id="text_6">
      <!-- 100 -->
      <g transform="translate(262.406748 188.638438)scale(0.1 -0.1)">
       <defs>
        <path d="M 12.40625 8.296875 
L 28.515625 8.296875 
L 28.515625 63.921875 
L 10.984375 60.40625 
L 10.984375 69.390625 
L 28.421875 72.90625 
L 38.28125 72.90625 
L 38.28125 8.296875 
L 54.390625 8.296875 
L 54.390625 0 
L 12.40625 0 
z
" id="DejaVuSans-49"/>
       </defs>
       <use xlink:href="#DejaVuSans-49"/>
       <use x="63.623047" xlink:href="#DejaVuSans-48"/>
       <use x="127.246094" xlink:href="#DejaVuSans-48"/>
      </g>
     </g>
    </g>
    <g id="text_7">
     <!-- Epochs -->
     <g transform="translate(150.258445 202.316563)scale(0.1 -0.1)">
      <defs>
       <path d="M 9.8125 72.90625 
L 55.90625 72.90625 
L 55.90625 64.59375 
L 19.671875 64.59375 
L 19.671875 43.015625 
L 54.390625 43.015625 
L 54.390625 34.71875 
L 19.671875 34.71875 
L 19.671875 8.296875 
L 56.78125 8.296875 
L 56.78125 0 
L 9.8125 0 
z
" id="DejaVuSans-69"/>
       <path d="M 18.109375 8.203125 
L 18.109375 -20.796875 
L 9.078125 -20.796875 
L 9.078125 54.6875 
L 18.109375 54.6875 
L 18.109375 46.390625 
Q 20.953125 51.265625 25.265625 53.625 
Q 29.59375 56 35.59375 56 
Q 45.5625 56 51.78125 48.09375 
Q 58.015625 40.1875 58.015625 27.296875 
Q 58.015625 14.40625 51.78125 6.484375 
Q 45.5625 -1.421875 35.59375 -1.421875 
Q 29.59375 -1.421875 25.265625 0.953125 
Q 20.953125 3.328125 18.109375 8.203125 
z
M 48.6875 27.296875 
Q 48.6875 37.203125 44.609375 42.84375 
Q 40.53125 48.484375 33.40625 48.484375 
Q 26.265625 48.484375 22.1875 42.84375 
Q 18.109375 37.203125 18.109375 27.296875 
Q 18.109375 17.390625 22.1875 11.75 
Q 26.265625 6.109375 33.40625 6.109375 
Q 40.53125 6.109375 44.609375 11.75 
Q 48.6875 17.390625 48.6875 27.296875 
z
" id="DejaVuSans-112"/>
       <path d="M 30.609375 48.390625 
Q 23.390625 48.390625 19.1875 42.75 
Q 14.984375 37.109375 14.984375 27.296875 
Q 14.984375 17.484375 19.15625 11.84375 
Q 23.34375 6.203125 30.609375 6.203125 
Q 37.796875 6.203125 41.984375 11.859375 
Q 46.1875 17.53125 46.1875 27.296875 
Q 46.1875 37.015625 41.984375 42.703125 
Q 37.796875 48.390625 30.609375 48.390625 
z
M 30.609375 56 
Q 42.328125 56 49.015625 48.375 
Q 55.71875 40.765625 55.71875 27.296875 
Q 55.71875 13.875 49.015625 6.21875 
Q 42.328125 -1.421875 30.609375 -1.421875 
Q 18.84375 -1.421875 12.171875 6.21875 
Q 5.515625 13.875 5.515625 27.296875 
Q 5.515625 40.765625 12.171875 48.375 
Q 18.84375 56 30.609375 56 
z
" id="DejaVuSans-111"/>
       <path d="M 48.78125 52.59375 
L 48.78125 44.1875 
Q 44.96875 46.296875 41.140625 47.34375 
Q 37.3125 48.390625 33.40625 48.390625 
Q 24.65625 48.390625 19.8125 42.84375 
Q 14.984375 37.3125 14.984375 27.296875 
Q 14.984375 17.28125 19.8125 11.734375 
Q 24.65625 6.203125 33.40625 6.203125 
Q 37.3125 6.203125 41.140625 7.25 
Q 44.96875 8.296875 48.78125 10.40625 
L 48.78125 2.09375 
Q 45.015625 0.34375 40.984375 -0.53125 
Q 36.96875 -1.421875 32.421875 -1.421875 
Q 20.0625 -1.421875 12.78125 6.34375 
Q 5.515625 14.109375 5.515625 27.296875 
Q 5.515625 40.671875 12.859375 48.328125 
Q 20.21875 56 33.015625 56 
Q 37.15625 56 41.109375 55.140625 
Q 45.0625 54.296875 48.78125 52.59375 
z
" id="DejaVuSans-99"/>
       <path d="M 54.890625 33.015625 
L 54.890625 0 
L 45.90625 0 
L 45.90625 32.71875 
Q 45.90625 40.484375 42.875 44.328125 
Q 39.84375 48.1875 33.796875 48.1875 
Q 26.515625 48.1875 22.3125 43.546875 
Q 18.109375 38.921875 18.109375 30.90625 
L 18.109375 0 
L 9.078125 0 
L 9.078125 75.984375 
L 18.109375 75.984375 
L 18.109375 46.1875 
Q 21.34375 51.125 25.703125 53.5625 
Q 30.078125 56 35.796875 56 
Q 45.21875 56 50.046875 50.171875 
Q 54.890625 44.34375 54.890625 33.015625 
z
" id="DejaVuSans-104"/>
       <path d="M 44.28125 53.078125 
L 44.28125 44.578125 
Q 40.484375 46.53125 36.375 47.5 
Q 32.28125 48.484375 27.875 48.484375 
Q 21.1875 48.484375 17.84375 46.4375 
Q 14.5 44.390625 14.5 40.28125 
Q 14.5 37.15625 16.890625 35.375 
Q 19.28125 33.59375 26.515625 31.984375 
L 29.59375 31.296875 
Q 39.15625 29.25 43.1875 25.515625 
Q 47.21875 21.78125 47.21875 15.09375 
Q 47.21875 7.46875 41.1875 3.015625 
Q 35.15625 -1.421875 24.609375 -1.421875 
Q 20.21875 -1.421875 15.453125 -0.5625 
Q 10.6875 0.296875 5.421875 2 
L 5.421875 11.28125 
Q 10.40625 8.6875 15.234375 7.390625 
Q 20.0625 6.109375 24.8125 6.109375 
Q 31.15625 6.109375 34.5625 8.28125 
Q 37.984375 10.453125 37.984375 14.40625 
Q 37.984375 18.0625 35.515625 20.015625 
Q 33.0625 21.96875 24.703125 23.78125 
L 21.578125 24.515625 
Q 13.234375 26.265625 9.515625 29.90625 
Q 5.8125 33.546875 5.8125 39.890625 
Q 5.8125 47.609375 11.28125 51.796875 
Q 16.75 56 26.8125 56 
Q 31.78125 56 36.171875 55.265625 
Q 40.578125 54.546875 44.28125 53.078125 
z
" id="DejaVuSans-115"/>
      </defs>
      <use xlink:href="#DejaVuSans-69"/>
      <use x="63.183594" xlink:href="#DejaVuSans-112"/>
      <use x="126.660156" xlink:href="#DejaVuSans-111"/>
      <use x="187.841797" xlink:href="#DejaVuSans-99"/>
      <use x="242.822266" xlink:href="#DejaVuSans-104"/>
      <use x="306.201172" xlink:href="#DejaVuSans-115"/>
     </g>
    </g>
   </g>
   <g id="matplotlib.axis_2">
    <g id="ytick_1">
     <g id="line2d_13">
      <path clip-path="url(#p12ad8d600f)" d="M 54.02 151.931278 
L 282.32814 151.931278 
" style="fill:none;stroke:#b0b0b0;stroke-linecap:square;stroke-width:0.8;"/>
     </g>
     <g id="line2d_14">
      <defs>
       <path d="M 0 0 
L -3.5 0 
" id="ma0e81f0cfa" style="stroke:#000000;stroke-width:0.8;"/>
      </defs>
      <g>
       <use style="stroke:#000000;stroke-width:0.8;" x="54.02" xlink:href="#ma0e81f0cfa" y="151.931278"/>
      </g>
     </g>
     <g id="text_8">
      <!-- 0.65 -->
      <g transform="translate(24.754375 155.730497)scale(0.1 -0.1)">
       <defs>
        <path d="M 10.6875 12.40625 
L 21 12.40625 
L 21 0 
L 10.6875 0 
z
" id="DejaVuSans-46"/>
        <path d="M 10.796875 72.90625 
L 49.515625 72.90625 
L 49.515625 64.59375 
L 19.828125 64.59375 
L 19.828125 46.734375 
Q 21.96875 47.46875 24.109375 47.828125 
Q 26.265625 48.1875 28.421875 48.1875 
Q 40.625 48.1875 47.75 41.5 
Q 54.890625 34.8125 54.890625 23.390625 
Q 54.890625 11.625 47.5625 5.09375 
Q 40.234375 -1.421875 26.90625 -1.421875 
Q 22.3125 -1.421875 17.546875 -0.640625 
Q 12.796875 0.140625 7.71875 1.703125 
L 7.71875 11.625 
Q 12.109375 9.234375 16.796875 8.0625 
Q 21.484375 6.890625 26.703125 6.890625 
Q 35.15625 6.890625 40.078125 11.328125 
Q 45.015625 15.765625 45.015625 23.390625 
Q 45.015625 31 40.078125 35.4375 
Q 35.15625 39.890625 26.703125 39.890625 
Q 22.75 39.890625 18.8125 39.015625 
Q 14.890625 38.140625 10.796875 36.28125 
z
" id="DejaVuSans-53"/>
       </defs>
       <use xlink:href="#DejaVuSans-48"/>
       <use x="63.623047" xlink:href="#DejaVuSans-46"/>
       <use x="95.410156" xlink:href="#DejaVuSans-54"/>
       <use x="159.033203" xlink:href="#DejaVuSans-53"/>
      </g>
     </g>
    </g>
    <g id="ytick_2">
     <g id="line2d_15">
      <path clip-path="url(#p12ad8d600f)" d="M 54.02 124.457943 
L 282.32814 124.457943 
" style="fill:none;stroke:#b0b0b0;stroke-linecap:square;stroke-width:0.8;"/>
     </g>
     <g id="line2d_16">
      <g>
       <use style="stroke:#000000;stroke-width:0.8;" x="54.02" xlink:href="#ma0e81f0cfa" y="124.457943"/>
      </g>
     </g>
     <g id="text_9">
      <!-- 0.70 -->
      <g transform="translate(24.754375 128.257162)scale(0.1 -0.1)">
       <defs>
        <path d="M 8.203125 72.90625 
L 55.078125 72.90625 
L 55.078125 68.703125 
L 28.609375 0 
L 18.3125 0 
L 43.21875 64.59375 
L 8.203125 64.59375 
z
" id="DejaVuSans-55"/>
       </defs>
       <use xlink:href="#DejaVuSans-48"/>
       <use x="63.623047" xlink:href="#DejaVuSans-46"/>
       <use x="95.410156" xlink:href="#DejaVuSans-55"/>
       <use x="159.033203" xlink:href="#DejaVuSans-48"/>
      </g>
     </g>
    </g>
    <g id="ytick_3">
     <g id="line2d_17">
      <path clip-path="url(#p12ad8d600f)" d="M 54.02 96.984608 
L 282.32814 96.984608 
" style="fill:none;stroke:#b0b0b0;stroke-linecap:square;stroke-width:0.8;"/>
     </g>
     <g id="line2d_18">
      <g>
       <use style="stroke:#000000;stroke-width:0.8;" x="54.02" xlink:href="#ma0e81f0cfa" y="96.984608"/>
      </g>
     </g>
     <g id="text_10">
      <!-- 0.75 -->
      <g transform="translate(24.754375 100.783827)scale(0.1 -0.1)">
       <use xlink:href="#DejaVuSans-48"/>
       <use x="63.623047" xlink:href="#DejaVuSans-46"/>
       <use x="95.410156" xlink:href="#DejaVuSans-55"/>
       <use x="159.033203" xlink:href="#DejaVuSans-53"/>
      </g>
     </g>
    </g>
    <g id="ytick_4">
     <g id="line2d_19">
      <path clip-path="url(#p12ad8d600f)" d="M 54.02 69.511273 
L 282.32814 69.511273 
" style="fill:none;stroke:#b0b0b0;stroke-linecap:square;stroke-width:0.8;"/>
     </g>
     <g id="line2d_20">
      <g>
       <use style="stroke:#000000;stroke-width:0.8;" x="54.02" xlink:href="#ma0e81f0cfa" y="69.511273"/>
      </g>
     </g>
     <g id="text_11">
      <!-- 0.80 -->
      <g transform="translate(24.754375 73.310492)scale(0.1 -0.1)">
       <use xlink:href="#DejaVuSans-48"/>
       <use x="63.623047" xlink:href="#DejaVuSans-46"/>
       <use x="95.410156" xlink:href="#DejaVuSans-56"/>
       <use x="159.033203" xlink:href="#DejaVuSans-48"/>
      </g>
     </g>
    </g>
    <g id="ytick_5">
     <g id="line2d_21">
      <path clip-path="url(#p12ad8d600f)" d="M 54.02 42.037939 
L 282.32814 42.037939 
" style="fill:none;stroke:#b0b0b0;stroke-linecap:square;stroke-width:0.8;"/>
     </g>
     <g id="line2d_22">
      <g>
       <use style="stroke:#000000;stroke-width:0.8;" x="54.02" xlink:href="#ma0e81f0cfa" y="42.037939"/>
      </g>
     </g>
     <g id="text_12">
      <!-- 0.85 -->
      <g transform="translate(24.754375 45.837157)scale(0.1 -0.1)">
       <use xlink:href="#DejaVuSans-48"/>
       <use x="63.623047" xlink:href="#DejaVuSans-46"/>
       <use x="95.410156" xlink:href="#DejaVuSans-56"/>
       <use x="159.033203" xlink:href="#DejaVuSans-53"/>
      </g>
     </g>
    </g>
    <g id="text_13">
     <!-- Acc -->
     <g transform="translate(18.674688 113.13125)rotate(-90)scale(0.1 -0.1)">
      <defs>
       <path d="M 34.1875 63.1875 
L 20.796875 26.90625 
L 47.609375 26.90625 
z
M 28.609375 72.90625 
L 39.796875 72.90625 
L 67.578125 0 
L 57.328125 0 
L 50.6875 18.703125 
L 17.828125 18.703125 
L 11.1875 0 
L 0.78125 0 
z
" id="DejaVuSans-65"/>
      </defs>
      <use xlink:href="#DejaVuSans-65"/>
      <use x="66.658203" xlink:href="#DejaVuSans-99"/>
      <use x="121.638672" xlink:href="#DejaVuSans-99"/>
     </g>
    </g>
   </g>
   <g id="line2d_23">
    <path clip-path="url(#p12ad8d600f)" d="M 64.397643 167.7 
L 66.494136 144.941033 
L 68.59063 144.941033 
L 70.687123 144.941033 
L 72.783617 144.941033 
L 74.88011 144.941033 
L 76.976604 148.1923 
L 79.073097 151.4436 
L 81.169591 135.187167 
L 83.266084 161.197433 
L 85.362578 131.9359 
L 87.459071 144.941033 
L 89.555565 109.176933 
L 91.652058 131.9359 
L 93.748552 118.930767 
L 95.845045 115.679467 
L 97.941539 122.182034 
L 100.038032 122.182034 
L 102.134525 138.438467 
L 104.231019 109.176933 
L 106.327512 125.433333 
L 108.424006 105.925633 
L 110.520499 138.438467 
L 112.616993 109.176933 
L 114.713486 135.187167 
L 116.80998 109.176933 
L 118.906473 118.930767 
L 121.002967 118.930767 
L 123.09946 122.182034 
L 125.195954 92.9205 
L 127.292447 105.925633 
L 129.388941 105.925633 
L 131.485434 99.423067 
L 133.581928 92.9205 
L 135.678421 105.925633 
L 137.774915 118.930767 
L 139.871408 112.4282 
L 141.967902 86.417934 
L 144.064395 141.689734 
L 146.160889 122.182034 
L 148.257382 122.182034 
L 150.353876 115.679467 
L 152.450369 99.423067 
L 154.546863 86.417934 
L 156.643356 86.417934 
L 158.73985 122.182034 
L 160.836343 118.930767 
L 162.932837 102.674367 
L 165.02933 131.9359 
L 167.125824 109.176933 
L 169.222317 102.674367 
L 171.31881 115.679467 
L 173.415304 105.925633 
L 175.511797 105.925633 
L 177.608291 118.930767 
L 179.704784 109.176933 
L 181.801278 118.930767 
L 183.897771 109.176933 
L 185.994265 102.674367 
L 188.090758 112.4282 
L 190.187252 118.930767 
L 192.283745 102.674367 
L 194.380239 118.930767 
L 196.476732 102.674367 
L 198.573226 83.166667 
L 200.669719 118.930767 
L 202.766213 102.674367 
L 204.862706 128.6846 
L 206.9592 109.176933 
L 209.055693 76.6641 
L 211.152187 115.679467 
L 213.24868 105.925633 
L 215.345174 96.1718 
L 217.441667 115.679467 
L 219.538161 86.417934 
L 221.634654 112.4282 
L 223.731148 115.679467 
L 225.827641 135.187167 
L 227.924135 109.176933 
L 230.020628 86.417934 
L 232.117122 99.423067 
L 234.213615 105.925633 
L 236.310109 109.176933 
L 238.406602 102.674367 
L 240.503095 96.1718 
L 242.599589 96.1718 
L 244.696082 115.679467 
L 246.792576 105.925633 
L 248.889069 102.674367 
L 250.985563 112.4282 
L 253.082056 118.930767 
L 255.17855 92.9205 
L 257.275043 109.176933 
L 259.371537 96.1718 
L 261.46803 125.433333 
L 263.564524 115.679467 
L 265.661017 109.176933 
L 267.757511 105.925633 
L 269.854004 99.423067 
L 271.950498 109.176933 
" style="fill:none;stroke:#1f77b4;stroke-linecap:square;stroke-width:1.5;"/>
   </g>
   <g id="line2d_24">
    <path clip-path="url(#p12ad8d600f)" d="M 64.397643 131.9359 
L 66.494136 131.9359 
L 68.59063 138.438467 
L 70.687123 144.941033 
L 72.783617 141.689734 
L 74.88011 144.941033 
L 76.976604 144.941033 
L 79.073097 144.941033 
L 81.169591 144.941033 
L 83.266084 144.941033 
L 85.362578 144.941033 
L 87.459071 144.941033 
L 89.555565 144.941033 
L 91.652058 144.941033 
L 93.748552 141.689734 
L 95.845045 144.941033 
L 97.941539 144.941033 
L 100.038032 141.689734 
L 102.134525 118.930767 
L 104.231019 105.925633 
L 106.327512 105.925633 
L 108.424006 112.4282 
L 110.520499 109.176933 
L 112.616993 96.1718 
L 114.713486 92.9205 
L 116.80998 70.161533 
L 118.906473 63.658967 
L 121.002967 63.658967 
L 123.09946 73.4128 
L 125.195954 47.402567 
L 127.292447 57.1564 
L 129.388941 40.9 
L 131.485434 57.1564 
L 133.581928 47.402567 
L 135.678421 63.658967 
L 137.774915 57.1564 
L 139.871408 50.653834 
L 141.967902 53.905133 
L 144.064395 70.161533 
L 146.160889 57.1564 
L 148.257382 60.407667 
L 150.353876 40.9 
L 152.450369 50.653834 
L 154.546863 53.905133 
L 156.643356 47.402567 
L 158.73985 47.402567 
L 160.836343 53.905133 
L 162.932837 44.151267 
L 165.02933 53.905133 
L 167.125824 50.653834 
L 169.222317 53.905133 
L 171.31881 57.1564 
L 173.415304 60.407667 
L 175.511797 57.1564 
L 177.608291 66.910234 
L 179.704784 57.1564 
L 181.801278 50.653834 
L 183.897771 60.407667 
L 185.994265 57.1564 
L 188.090758 53.905133 
L 190.187252 50.653834 
L 192.283745 53.905133 
L 194.380239 50.653834 
L 196.476732 40.9 
L 198.573226 50.653834 
L 200.669719 53.905133 
L 202.766213 66.910234 
L 204.862706 44.151267 
L 206.9592 63.658967 
L 209.055693 63.658967 
L 211.152187 53.905133 
L 213.24868 63.658967 
L 215.345174 57.1564 
L 217.441667 57.1564 
L 219.538161 50.653834 
L 221.634654 57.1564 
L 223.731148 44.151267 
L 225.827641 57.1564 
L 227.924135 50.653834 
L 230.020628 50.653834 
L 232.117122 40.9 
L 234.213615 60.407667 
L 236.310109 47.402567 
L 238.406602 53.905133 
L 240.503095 66.910234 
L 242.599589 47.402567 
L 244.696082 57.1564 
L 246.792576 60.407667 
L 248.889069 57.1564 
L 250.985563 60.407667 
L 253.082056 57.1564 
L 255.17855 63.658967 
L 257.275043 60.407667 
L 259.371537 60.407667 
L 261.46803 50.653834 
L 263.564524 50.653834 
L 265.661017 63.658967 
L 267.757511 47.402567 
L 269.854004 47.402567 
L 271.950498 50.653834 
" style="fill:none;stroke:#ff7f0e;stroke-linecap:square;stroke-width:1.5;"/>
   </g>
   <g id="patch_3">
    <path d="M 54.02 174.04 
L 54.02 34.56 
" style="fill:none;stroke:#000000;stroke-linecap:square;stroke-linejoin:miter;stroke-width:0.8;"/>
   </g>
   <g id="patch_4">
    <path d="M 282.32814 174.04 
L 282.32814 34.56 
" style="fill:none;stroke:#000000;stroke-linecap:square;stroke-linejoin:miter;stroke-width:0.8;"/>
   </g>
   <g id="patch_5">
    <path d="M 54.02 174.04 
L 282.32814 174.04 
" style="fill:none;stroke:#000000;stroke-linecap:square;stroke-linejoin:miter;stroke-width:0.8;"/>
   </g>
   <g id="patch_6">
    <path d="M 54.02 34.56 
L 282.32814 34.56 
" style="fill:none;stroke:#000000;stroke-linecap:square;stroke-linejoin:miter;stroke-width:0.8;"/>
   </g>
   <g id="legend_1">
    <g id="patch_7">
     <path d="M 205.93439 169.04 
L 275.32814 169.04 
Q 277.32814 169.04 277.32814 167.04 
L 277.32814 138.68375 
Q 277.32814 136.68375 275.32814 136.68375 
L 205.93439 136.68375 
Q 203.93439 136.68375 203.93439 138.68375 
L 203.93439 167.04 
Q 203.93439 169.04 205.93439 169.04 
z
" style="fill:#ffffff;opacity:0.8;stroke:#cccccc;stroke-linejoin:miter;"/>
    </g>
    <g id="line2d_25">
     <path d="M 207.93439 144.782188 
L 227.93439 144.782188 
" style="fill:none;stroke:#1f77b4;stroke-linecap:square;stroke-width:1.5;"/>
    </g>
    <g id="line2d_26"/>
    <g id="text_14">
     <!-- GCN -->
     <g transform="translate(235.93439 148.282188)scale(0.1 -0.1)">
      <defs>
       <path d="M 59.515625 10.40625 
L 59.515625 29.984375 
L 43.40625 29.984375 
L 43.40625 38.09375 
L 69.28125 38.09375 
L 69.28125 6.78125 
Q 63.578125 2.734375 56.6875 0.65625 
Q 49.8125 -1.421875 42 -1.421875 
Q 24.90625 -1.421875 15.25 8.5625 
Q 5.609375 18.5625 5.609375 36.375 
Q 5.609375 54.25 15.25 64.234375 
Q 24.90625 74.21875 42 74.21875 
Q 49.125 74.21875 55.546875 72.453125 
Q 61.96875 70.703125 67.390625 67.28125 
L 67.390625 56.78125 
Q 61.921875 61.421875 55.765625 63.765625 
Q 49.609375 66.109375 42.828125 66.109375 
Q 29.4375 66.109375 22.71875 58.640625 
Q 16.015625 51.171875 16.015625 36.375 
Q 16.015625 21.625 22.71875 14.15625 
Q 29.4375 6.6875 42.828125 6.6875 
Q 48.046875 6.6875 52.140625 7.59375 
Q 56.25 8.5 59.515625 10.40625 
z
" id="DejaVuSans-71"/>
       <path d="M 64.40625 67.28125 
L 64.40625 56.890625 
Q 59.421875 61.53125 53.78125 63.8125 
Q 48.140625 66.109375 41.796875 66.109375 
Q 29.296875 66.109375 22.65625 58.46875 
Q 16.015625 50.828125 16.015625 36.375 
Q 16.015625 21.96875 22.65625 14.328125 
Q 29.296875 6.6875 41.796875 6.6875 
Q 48.140625 6.6875 53.78125 8.984375 
Q 59.421875 11.28125 64.40625 15.921875 
L 64.40625 5.609375 
Q 59.234375 2.09375 53.4375 0.328125 
Q 47.65625 -1.421875 41.21875 -1.421875 
Q 24.65625 -1.421875 15.125 8.703125 
Q 5.609375 18.84375 5.609375 36.375 
Q 5.609375 53.953125 15.125 64.078125 
Q 24.65625 74.21875 41.21875 74.21875 
Q 47.75 74.21875 53.53125 72.484375 
Q 59.328125 70.75 64.40625 67.28125 
z
" id="DejaVuSans-67"/>
       <path d="M 9.8125 72.90625 
L 23.09375 72.90625 
L 55.421875 11.921875 
L 55.421875 72.90625 
L 64.984375 72.90625 
L 64.984375 0 
L 51.703125 0 
L 19.390625 60.984375 
L 19.390625 0 
L 9.8125 0 
z
" id="DejaVuSans-78"/>
      </defs>
      <use xlink:href="#DejaVuSans-71"/>
      <use x="77.490234" xlink:href="#DejaVuSans-67"/>
      <use x="147.314453" xlink:href="#DejaVuSans-78"/>
     </g>
    </g>
    <g id="line2d_27">
     <path d="M 207.93439 159.460313 
L 227.93439 159.460313 
" style="fill:none;stroke:#ff7f0e;stroke-linecap:square;stroke-width:1.5;"/>
    </g>
    <g id="line2d_28"/>
    <g id="text_15">
     <!-- DGCNN -->
     <g transform="translate(235.93439 162.960313)scale(0.1 -0.1)">
      <defs>
       <path d="M 19.671875 64.796875 
L 19.671875 8.109375 
L 31.59375 8.109375 
Q 46.6875 8.109375 53.6875 14.9375 
Q 60.6875 21.78125 60.6875 36.53125 
Q 60.6875 51.171875 53.6875 57.984375 
Q 46.6875 64.796875 31.59375 64.796875 
z
M 9.8125 72.90625 
L 30.078125 72.90625 
Q 51.265625 72.90625 61.171875 64.09375 
Q 71.09375 55.28125 71.09375 36.53125 
Q 71.09375 17.671875 61.125 8.828125 
Q 51.171875 0 30.078125 0 
L 9.8125 0 
z
" id="DejaVuSans-68"/>
      </defs>
      <use xlink:href="#DejaVuSans-68"/>
      <use x="77.001953" xlink:href="#DejaVuSans-71"/>
      <use x="154.492188" xlink:href="#DejaVuSans-67"/>
      <use x="224.316406" xlink:href="#DejaVuSans-78"/>
      <use x="299.121094" xlink:href="#DejaVuSans-78"/>
     </g>
    </g>
   </g>
  </g>
  <g id="axes_2">
   <g id="patch_8">
    <path d="M 336.62 174.04 
L 564.92814 174.04 
L 564.92814 34.56 
L 336.62 34.56 
z
" style="fill:#ffffff;"/>
   </g>
   <g id="matplotlib.axis_3">
    <g id="xtick_7">
     <g id="line2d_29">
      <path clip-path="url(#p9e4eafdf53)" d="M 344.901149 174.04 
L 344.901149 34.56 
" style="fill:none;stroke:#b0b0b0;stroke-linecap:square;stroke-width:0.8;"/>
     </g>
     <g id="line2d_30">
      <g>
       <use style="stroke:#000000;stroke-width:0.8;" x="344.901149" xlink:href="#m0b5e236ac8" y="174.04"/>
      </g>
     </g>
     <g id="text_16">
      <!-- 0 -->
      <g transform="translate(341.719899 188.638438)scale(0.1 -0.1)">
       <use xlink:href="#DejaVuSans-48"/>
      </g>
     </g>
    </g>
    <g id="xtick_8">
     <g id="line2d_31">
      <path clip-path="url(#p9e4eafdf53)" d="M 386.831019 174.04 
L 386.831019 34.56 
" style="fill:none;stroke:#b0b0b0;stroke-linecap:square;stroke-width:0.8;"/>
     </g>
     <g id="line2d_32">
      <g>
       <use style="stroke:#000000;stroke-width:0.8;" x="386.831019" xlink:href="#m0b5e236ac8" y="174.04"/>
      </g>
     </g>
     <g id="text_17">
      <!-- 20 -->
      <g transform="translate(380.468519 188.638438)scale(0.1 -0.1)">
       <use xlink:href="#DejaVuSans-50"/>
       <use x="63.623047" xlink:href="#DejaVuSans-48"/>
      </g>
     </g>
    </g>
    <g id="xtick_9">
     <g id="line2d_33">
      <path clip-path="url(#p9e4eafdf53)" d="M 428.760889 174.04 
L 428.760889 34.56 
" style="fill:none;stroke:#b0b0b0;stroke-linecap:square;stroke-width:0.8;"/>
     </g>
     <g id="line2d_34">
      <g>
       <use style="stroke:#000000;stroke-width:0.8;" x="428.760889" xlink:href="#m0b5e236ac8" y="174.04"/>
      </g>
     </g>
     <g id="text_18">
      <!-- 40 -->
      <g transform="translate(422.398389 188.638438)scale(0.1 -0.1)">
       <use xlink:href="#DejaVuSans-52"/>
       <use x="63.623047" xlink:href="#DejaVuSans-48"/>
      </g>
     </g>
    </g>
    <g id="xtick_10">
     <g id="line2d_35">
      <path clip-path="url(#p9e4eafdf53)" d="M 470.690758 174.04 
L 470.690758 34.56 
" style="fill:none;stroke:#b0b0b0;stroke-linecap:square;stroke-width:0.8;"/>
     </g>
     <g id="line2d_36">
      <g>
       <use style="stroke:#000000;stroke-width:0.8;" x="470.690758" xlink:href="#m0b5e236ac8" y="174.04"/>
      </g>
     </g>
     <g id="text_19">
      <!-- 60 -->
      <g transform="translate(464.328258 188.638438)scale(0.1 -0.1)">
       <use xlink:href="#DejaVuSans-54"/>
       <use x="63.623047" xlink:href="#DejaVuSans-48"/>
      </g>
     </g>
    </g>
    <g id="xtick_11">
     <g id="line2d_37">
      <path clip-path="url(#p9e4eafdf53)" d="M 512.620628 174.04 
L 512.620628 34.56 
" style="fill:none;stroke:#b0b0b0;stroke-linecap:square;stroke-width:0.8;"/>
     </g>
     <g id="line2d_38">
      <g>
       <use style="stroke:#000000;stroke-width:0.8;" x="512.620628" xlink:href="#m0b5e236ac8" y="174.04"/>
      </g>
     </g>
     <g id="text_20">
      <!-- 80 -->
      <g transform="translate(506.258128 188.638438)scale(0.1 -0.1)">
       <use xlink:href="#DejaVuSans-56"/>
       <use x="63.623047" xlink:href="#DejaVuSans-48"/>
      </g>
     </g>
    </g>
    <g id="xtick_12">
     <g id="line2d_39">
      <path clip-path="url(#p9e4eafdf53)" d="M 554.550498 174.04 
L 554.550498 34.56 
" style="fill:none;stroke:#b0b0b0;stroke-linecap:square;stroke-width:0.8;"/>
     </g>
     <g id="line2d_40">
      <g>
       <use style="stroke:#000000;stroke-width:0.8;" x="554.550498" xlink:href="#m0b5e236ac8" y="174.04"/>
      </g>
     </g>
     <g id="text_21">
      <!-- 100 -->
      <g transform="translate(545.006748 188.638438)scale(0.1 -0.1)">
       <use xlink:href="#DejaVuSans-49"/>
       <use x="63.623047" xlink:href="#DejaVuSans-48"/>
       <use x="127.246094" xlink:href="#DejaVuSans-48"/>
      </g>
     </g>
    </g>
    <g id="text_22">
     <!-- Epochs -->
     <g transform="translate(432.858445 202.316563)scale(0.1 -0.1)">
      <use xlink:href="#DejaVuSans-69"/>
      <use x="63.183594" xlink:href="#DejaVuSans-112"/>
      <use x="126.660156" xlink:href="#DejaVuSans-111"/>
      <use x="187.841797" xlink:href="#DejaVuSans-99"/>
      <use x="242.822266" xlink:href="#DejaVuSans-104"/>
      <use x="306.201172" xlink:href="#DejaVuSans-115"/>
     </g>
    </g>
   </g>
   <g id="matplotlib.axis_4">
    <g id="ytick_6">
     <g id="line2d_41">
      <path clip-path="url(#p9e4eafdf53)" d="M 336.62 140.226661 
L 564.92814 140.226661 
" style="fill:none;stroke:#b0b0b0;stroke-linecap:square;stroke-width:0.8;"/>
     </g>
     <g id="line2d_42">
      <g>
       <use style="stroke:#000000;stroke-width:0.8;" x="336.62" xlink:href="#ma0e81f0cfa" y="140.226661"/>
      </g>
     </g>
     <g id="text_23">
      <!-- 0.7 -->
      <g transform="translate(313.716875 144.025879)scale(0.1 -0.1)">
       <use xlink:href="#DejaVuSans-48"/>
       <use x="63.623047" xlink:href="#DejaVuSans-46"/>
       <use x="95.410156" xlink:href="#DejaVuSans-55"/>
      </g>
     </g>
    </g>
    <g id="ytick_7">
     <g id="line2d_43">
      <path clip-path="url(#p9e4eafdf53)" d="M 336.62 100.073333 
L 564.92814 100.073333 
" style="fill:none;stroke:#b0b0b0;stroke-linecap:square;stroke-width:0.8;"/>
     </g>
     <g id="line2d_44">
      <g>
       <use style="stroke:#000000;stroke-width:0.8;" x="336.62" xlink:href="#ma0e81f0cfa" y="100.073333"/>
      </g>
     </g>
     <g id="text_24">
      <!-- 0.8 -->
      <g transform="translate(313.716875 103.872552)scale(0.1 -0.1)">
       <use xlink:href="#DejaVuSans-48"/>
       <use x="63.623047" xlink:href="#DejaVuSans-46"/>
       <use x="95.410156" xlink:href="#DejaVuSans-56"/>
      </g>
     </g>
    </g>
    <g id="ytick_8">
     <g id="line2d_45">
      <path clip-path="url(#p9e4eafdf53)" d="M 336.62 59.920006 
L 564.92814 59.920006 
" style="fill:none;stroke:#b0b0b0;stroke-linecap:square;stroke-width:0.8;"/>
     </g>
     <g id="line2d_46">
      <g>
       <use style="stroke:#000000;stroke-width:0.8;" x="336.62" xlink:href="#ma0e81f0cfa" y="59.920006"/>
      </g>
     </g>
     <g id="text_25">
      <!-- 0.9 -->
      <g transform="translate(313.716875 63.719225)scale(0.1 -0.1)">
       <defs>
        <path d="M 10.984375 1.515625 
L 10.984375 10.5 
Q 14.703125 8.734375 18.5 7.8125 
Q 22.3125 6.890625 25.984375 6.890625 
Q 35.75 6.890625 40.890625 13.453125 
Q 46.046875 20.015625 46.78125 33.40625 
Q 43.953125 29.203125 39.59375 26.953125 
Q 35.25 24.703125 29.984375 24.703125 
Q 19.046875 24.703125 12.671875 31.3125 
Q 6.296875 37.9375 6.296875 49.421875 
Q 6.296875 60.640625 12.9375 67.421875 
Q 19.578125 74.21875 30.609375 74.21875 
Q 43.265625 74.21875 49.921875 64.515625 
Q 56.59375 54.828125 56.59375 36.375 
Q 56.59375 19.140625 48.40625 8.859375 
Q 40.234375 -1.421875 26.421875 -1.421875 
Q 22.703125 -1.421875 18.890625 -0.6875 
Q 15.09375 0.046875 10.984375 1.515625 
z
M 30.609375 32.421875 
Q 37.25 32.421875 41.125 36.953125 
Q 45.015625 41.5 45.015625 49.421875 
Q 45.015625 57.28125 41.125 61.84375 
Q 37.25 66.40625 30.609375 66.40625 
Q 23.96875 66.40625 20.09375 61.84375 
Q 16.21875 57.28125 16.21875 49.421875 
Q 16.21875 41.5 20.09375 36.953125 
Q 23.96875 32.421875 30.609375 32.421875 
z
" id="DejaVuSans-57"/>
       </defs>
       <use xlink:href="#DejaVuSans-48"/>
       <use x="63.623047" xlink:href="#DejaVuSans-46"/>
       <use x="95.410156" xlink:href="#DejaVuSans-57"/>
      </g>
     </g>
    </g>
    <g id="text_26">
     <!-- Val Acc -->
     <g transform="translate(307.637188 122.20625)rotate(-90)scale(0.1 -0.1)">
      <defs>
       <path d="M 28.609375 0 
L 0.78125 72.90625 
L 11.078125 72.90625 
L 34.1875 11.53125 
L 57.328125 72.90625 
L 67.578125 72.90625 
L 39.796875 0 
z
" id="DejaVuSans-86"/>
       <path d="M 34.28125 27.484375 
Q 23.390625 27.484375 19.1875 25 
Q 14.984375 22.515625 14.984375 16.5 
Q 14.984375 11.71875 18.140625 8.90625 
Q 21.296875 6.109375 26.703125 6.109375 
Q 34.1875 6.109375 38.703125 11.40625 
Q 43.21875 16.703125 43.21875 25.484375 
L 43.21875 27.484375 
z
M 52.203125 31.203125 
L 52.203125 0 
L 43.21875 0 
L 43.21875 8.296875 
Q 40.140625 3.328125 35.546875 0.953125 
Q 30.953125 -1.421875 24.3125 -1.421875 
Q 15.921875 -1.421875 10.953125 3.296875 
Q 6 8.015625 6 15.921875 
Q 6 25.140625 12.171875 29.828125 
Q 18.359375 34.515625 30.609375 34.515625 
L 43.21875 34.515625 
L 43.21875 35.40625 
Q 43.21875 41.609375 39.140625 45 
Q 35.0625 48.390625 27.6875 48.390625 
Q 23 48.390625 18.546875 47.265625 
Q 14.109375 46.140625 10.015625 43.890625 
L 10.015625 52.203125 
Q 14.9375 54.109375 19.578125 55.046875 
Q 24.21875 56 28.609375 56 
Q 40.484375 56 46.34375 49.84375 
Q 52.203125 43.703125 52.203125 31.203125 
z
" id="DejaVuSans-97"/>
       <path d="M 9.421875 75.984375 
L 18.40625 75.984375 
L 18.40625 0 
L 9.421875 0 
z
" id="DejaVuSans-108"/>
       <path id="DejaVuSans-32"/>
      </defs>
      <use xlink:href="#DejaVuSans-86"/>
      <use x="60.658203" xlink:href="#DejaVuSans-97"/>
      <use x="121.9375" xlink:href="#DejaVuSans-108"/>
      <use x="149.720703" xlink:href="#DejaVuSans-32"/>
      <use x="181.507812" xlink:href="#DejaVuSans-65"/>
      <use x="248.166016" xlink:href="#DejaVuSans-99"/>
      <use x="303.146484" xlink:href="#DejaVuSans-99"/>
     </g>
    </g>
   </g>
   <g id="line2d_47">
    <path clip-path="url(#p9e4eafdf53)" d="M 346.997643 146.566655 
L 349.094136 146.566655 
L 351.19063 146.566655 
L 353.287123 146.566655 
L 355.383617 146.566655 
L 357.48011 146.566655 
L 359.576604 146.566655 
L 361.673097 146.566655 
L 363.769591 146.566655 
L 365.866084 146.566655 
L 367.962578 146.566655 
L 370.059071 146.566655 
L 372.155565 146.566655 
L 374.252058 146.566655 
L 376.348552 146.566655 
L 378.445045 146.566655 
L 380.541539 167.7 
L 382.638032 146.566655 
L 384.734525 146.566655 
L 386.831019 167.7 
L 388.927512 146.566655 
L 391.024006 167.7 
L 393.120499 167.7 
L 395.216993 146.566655 
L 397.313486 146.566655 
L 399.40998 146.566655 
L 401.506473 167.7 
L 403.602967 146.566655 
L 405.69946 146.566655 
L 407.795954 146.566655 
L 409.892447 146.566655 
L 411.988941 146.566655 
L 414.085434 125.433333 
L 416.181928 146.566655 
L 418.278421 125.433333 
L 420.374915 146.566655 
L 422.471408 146.566655 
L 424.567902 146.566655 
L 426.664395 146.566655 
L 428.760889 125.433333 
L 430.857382 146.566655 
L 432.953876 125.433333 
L 435.050369 146.566655 
L 437.146863 146.566655 
L 439.243356 146.566655 
L 441.33985 146.566655 
L 443.436343 146.566655 
L 445.532837 125.433333 
L 447.62933 146.566655 
L 449.725824 146.566655 
L 451.822317 125.433333 
L 453.91881 146.566655 
L 456.015304 146.566655 
L 458.111797 146.566655 
L 460.208291 146.566655 
L 462.304784 146.566655 
L 464.401278 146.566655 
L 466.497771 146.566655 
L 468.594265 146.566655 
L 470.690758 125.433333 
L 472.787252 125.433333 
L 474.883745 125.433333 
L 476.980239 146.566655 
L 479.076732 125.433333 
L 481.173226 125.433333 
L 483.269719 125.433333 
L 485.366213 125.433333 
L 487.462706 125.433333 
L 489.5592 125.433333 
L 491.655693 125.433333 
L 493.752187 125.433333 
L 495.84868 125.433333 
L 497.945174 125.433333 
L 500.041667 125.433333 
L 502.138161 125.433333 
L 504.234654 125.433333 
L 506.331148 125.433333 
L 508.427641 125.433333 
L 510.524135 125.433333 
L 512.620628 125.433333 
L 514.717122 125.433333 
L 516.813615 125.433333 
L 518.910109 125.433333 
L 521.006602 146.566655 
L 523.103095 125.433333 
L 525.199589 146.566655 
L 527.296082 146.566655 
L 529.392576 125.433333 
L 531.489069 146.566655 
L 533.585563 146.566655 
L 535.682056 146.566655 
L 537.77855 125.433333 
L 539.875043 125.433333 
L 541.971537 125.433333 
L 544.06803 125.433333 
L 546.164524 125.433333 
L 548.261017 125.433333 
L 550.357511 125.433333 
L 552.454004 125.433333 
L 554.550498 125.433333 
" style="fill:none;stroke:#1f77b4;stroke-linecap:square;stroke-width:1.5;"/>
   </g>
   <g id="line2d_48">
    <path clip-path="url(#p9e4eafdf53)" d="M 346.997643 125.433333 
L 349.094136 146.566655 
L 351.19063 146.566655 
L 353.287123 146.566655 
L 355.383617 146.566655 
L 357.48011 146.566655 
L 359.576604 146.566655 
L 361.673097 146.566655 
L 363.769591 146.566655 
L 365.866084 146.566655 
L 367.962578 146.566655 
L 370.059071 146.566655 
L 372.155565 146.566655 
L 374.252058 146.566655 
L 376.348552 146.566655 
L 378.445045 146.566655 
L 380.541539 146.566655 
L 382.638032 146.566655 
L 384.734525 146.566655 
L 386.831019 125.433333 
L 388.927512 83.166667 
L 391.024006 40.9 
L 393.120499 40.9 
L 395.216993 40.9 
L 397.313486 40.9 
L 399.40998 40.9 
L 401.506473 40.9 
L 403.602967 40.9 
L 405.69946 40.9 
L 407.795954 40.9 
L 409.892447 40.9 
L 411.988941 40.9 
L 414.085434 40.9 
L 416.181928 40.9 
L 418.278421 40.9 
L 420.374915 40.9 
L 422.471408 40.9 
L 424.567902 40.9 
L 426.664395 40.9 
L 428.760889 40.9 
L 430.857382 40.9 
L 432.953876 40.9 
L 435.050369 40.9 
L 437.146863 40.9 
L 439.243356 40.9 
L 441.33985 40.9 
L 443.436343 40.9 
L 445.532837 40.9 
L 447.62933 40.9 
L 449.725824 40.9 
L 451.822317 40.9 
L 453.91881 40.9 
L 456.015304 40.9 
L 458.111797 40.9 
L 460.208291 40.9 
L 462.304784 40.9 
L 464.401278 40.9 
L 466.497771 40.9 
L 468.594265 40.9 
L 470.690758 40.9 
L 472.787252 40.9 
L 474.883745 40.9 
L 476.980239 40.9 
L 479.076732 40.9 
L 481.173226 40.9 
L 483.269719 40.9 
L 485.366213 40.9 
L 487.462706 40.9 
L 489.5592 40.9 
L 491.655693 40.9 
L 493.752187 40.9 
L 495.84868 40.9 
L 497.945174 40.9 
L 500.041667 40.9 
L 502.138161 40.9 
L 504.234654 40.9 
L 506.331148 40.9 
L 508.427641 40.9 
L 510.524135 40.9 
L 512.620628 40.9 
L 514.717122 40.9 
L 516.813615 40.9 
L 518.910109 40.9 
L 521.006602 40.9 
L 523.103095 40.9 
L 525.199589 40.9 
L 527.296082 40.9 
L 529.392576 40.9 
L 531.489069 40.9 
L 533.585563 40.9 
L 535.682056 40.9 
L 537.77855 40.9 
L 539.875043 40.9 
L 541.971537 40.9 
L 544.06803 40.9 
L 546.164524 40.9 
L 548.261017 40.9 
L 550.357511 40.9 
L 552.454004 40.9 
L 554.550498 40.9 
" style="fill:none;stroke:#ff7f0e;stroke-linecap:square;stroke-width:1.5;"/>
   </g>
   <g id="patch_9">
    <path d="M 336.62 174.04 
L 336.62 34.56 
" style="fill:none;stroke:#000000;stroke-linecap:square;stroke-linejoin:miter;stroke-width:0.8;"/>
   </g>
   <g id="patch_10">
    <path d="M 564.92814 174.04 
L 564.92814 34.56 
" style="fill:none;stroke:#000000;stroke-linecap:square;stroke-linejoin:miter;stroke-width:0.8;"/>
   </g>
   <g id="patch_11">
    <path d="M 336.62 174.04 
L 564.92814 174.04 
" style="fill:none;stroke:#000000;stroke-linecap:square;stroke-linejoin:miter;stroke-width:0.8;"/>
   </g>
   <g id="patch_12">
    <path d="M 336.62 34.56 
L 564.92814 34.56 
" style="fill:none;stroke:#000000;stroke-linecap:square;stroke-linejoin:miter;stroke-width:0.8;"/>
   </g>
   <g id="legend_2">
    <g id="patch_13">
     <path d="M 488.53439 120.478125 
L 557.92814 120.478125 
Q 559.92814 120.478125 559.92814 118.478125 
L 559.92814 90.121875 
Q 559.92814 88.121875 557.92814 88.121875 
L 488.53439 88.121875 
Q 486.53439 88.121875 486.53439 90.121875 
L 486.53439 118.478125 
Q 486.53439 120.478125 488.53439 120.478125 
z
" style="fill:#ffffff;opacity:0.8;stroke:#cccccc;stroke-linejoin:miter;"/>
    </g>
    <g id="line2d_49">
     <path d="M 490.53439 96.220313 
L 510.53439 96.220313 
" style="fill:none;stroke:#1f77b4;stroke-linecap:square;stroke-width:1.5;"/>
    </g>
    <g id="line2d_50"/>
    <g id="text_27">
     <!-- GCN -->
     <g transform="translate(518.53439 99.720313)scale(0.1 -0.1)">
      <use xlink:href="#DejaVuSans-71"/>
      <use x="77.490234" xlink:href="#DejaVuSans-67"/>
      <use x="147.314453" xlink:href="#DejaVuSans-78"/>
     </g>
    </g>
    <g id="line2d_51">
     <path d="M 490.53439 110.898438 
L 510.53439 110.898438 
" style="fill:none;stroke:#ff7f0e;stroke-linecap:square;stroke-width:1.5;"/>
    </g>
    <g id="line2d_52"/>
    <g id="text_28">
     <!-- DGCNN -->
     <g transform="translate(518.53439 114.398438)scale(0.1 -0.1)">
      <use xlink:href="#DejaVuSans-68"/>
      <use x="77.001953" xlink:href="#DejaVuSans-71"/>
      <use x="154.492188" xlink:href="#DejaVuSans-67"/>
      <use x="224.316406" xlink:href="#DejaVuSans-78"/>
      <use x="299.121094" xlink:href="#DejaVuSans-78"/>
     </g>
    </g>
   </g>
  </g>
  <g id="text_29">
   <!-- MUTAG -->
   <g transform="translate(266.58375 13.438125)scale(0.12 -0.12)">
    <defs>
     <path d="M 9.8125 72.90625 
L 24.515625 72.90625 
L 43.109375 23.296875 
L 61.8125 72.90625 
L 76.515625 72.90625 
L 76.515625 0 
L 66.890625 0 
L 66.890625 64.015625 
L 48.09375 14.015625 
L 38.1875 14.015625 
L 19.390625 64.015625 
L 19.390625 0 
L 9.8125 0 
z
" id="DejaVuSans-77"/>
     <path d="M 8.6875 72.90625 
L 18.609375 72.90625 
L 18.609375 28.609375 
Q 18.609375 16.890625 22.84375 11.734375 
Q 27.09375 6.59375 36.625 6.59375 
Q 46.09375 6.59375 50.34375 11.734375 
Q 54.59375 16.890625 54.59375 28.609375 
L 54.59375 72.90625 
L 64.5 72.90625 
L 64.5 27.390625 
Q 64.5 13.140625 57.4375 5.859375 
Q 50.390625 -1.421875 36.625 -1.421875 
Q 22.796875 -1.421875 15.734375 5.859375 
Q 8.6875 13.140625 8.6875 27.390625 
z
" id="DejaVuSans-85"/>
     <path d="M -0.296875 72.90625 
L 61.375 72.90625 
L 61.375 64.59375 
L 35.5 64.59375 
L 35.5 0 
L 25.59375 0 
L 25.59375 64.59375 
L -0.296875 64.59375 
z
" id="DejaVuSans-84"/>
    </defs>
    <use xlink:href="#DejaVuSans-77"/>
    <use x="86.279297" xlink:href="#DejaVuSans-85"/>
    <use x="159.472656" xlink:href="#DejaVuSans-84"/>
    <use x="212.806641" xlink:href="#DejaVuSans-65"/>
    <use x="279.464844" xlink:href="#DejaVuSans-71"/>
   </g>
  </g>
 </g>
 <defs>
  <clipPath id="p12ad8d600f">
   <rect height="139.48" width="228.30814" x="54.02" y="34.56"/>
  </clipPath>
  <clipPath id="p9e4eafdf53">
   <rect height="139.48" width="228.30814" x="336.62" y="34.56"/>
  </clipPath>
 </defs>
</svg>
