<?xml version="1.0" encoding="utf-8" standalone="no"?>
<!DOCTYPE svg PUBLIC "-//W3C//DTD SVG 1.1//EN"
  "http://www.w3.org/Graphics/SVG/1.1/DTD/svg11.dtd">
<!-- Created with matplotlib (https://matplotlib.org/) -->
<svg height="216pt" version="1.1" viewBox="0 0 576 216" width="576pt" xmlns="http://www.w3.org/2000/svg" xmlns:xlink="http://www.w3.org/1999/xlink">
 <metadata>
  <rdf:RDF xmlns:cc="http://creativecommons.org/ns#" xmlns:dc="http://purl.org/dc/elements/1.1/" xmlns:rdf="http://www.w3.org/1999/02/22-rdf-syntax-ns#">
   <cc:Work>
    <dc:type rdf:resource="http://purl.org/dc/dcmitype/StillImage"/>
    <dc:date>2021-04-11T18:22:49.125314</dc:date>
    <dc:format>image/svg+xml</dc:format>
    <dc:creator>
     <cc:Agent>
      <dc:title>Matplotlib v3.3.3, https://matplotlib.org/</dc:title>
     </cc:Agent>
    </dc:creator>
   </cc:Work>
  </rdf:RDF>
 </metadata>
 <defs>
  <style type="text/css">*{stroke-linecap:butt;stroke-linejoin:round;}</style>
 </defs>
 <g id="figure_1">
  <g id="patch_1">
   <path d="M 0 216 
L 576 216 
L 576 0 
L 0 0 
z
" style="fill:#ffffff;"/>
  </g>
  <g id="axes_1">
   <g id="patch_2">
    <path d="M 54.02 174.04 
L 279.17814 174.04 
L 279.17814 34.56 
L 54.02 34.56 
z
" style="fill:#ffffff;"/>
   </g>
   <g id="matplotlib.axis_1">
    <g id="xtick_1">
     <g id="line2d_1">
      <path clip-path="url(#pf3c2d84291)" d="M 62.186893 174.04 
L 62.186893 34.56 
" style="fill:none;stroke:#b0b0b0;stroke-linecap:square;stroke-width:0.8;"/>
     </g>
     <g id="line2d_2">
      <defs>
       <path d="M 0 0 
L 0 3.5 
" id="m19b7640e4e" style="stroke:#000000;stroke-width:0.8;"/>
      </defs>
      <g>
       <use style="stroke:#000000;stroke-width:0.8;" x="62.186893" xlink:href="#m19b7640e4e" y="174.04"/>
      </g>
     </g>
     <g id="text_1">
      <!-- 0 -->
      <g transform="translate(59.005643 188.638438)scale(0.1 -0.1)">
       <defs>
        <path d="M 31.78125 66.40625 
Q 24.171875 66.40625 20.328125 58.90625 
Q 16.5 51.421875 16.5 36.375 
Q 16.5 21.390625 20.328125 13.890625 
Q 24.171875 6.390625 31.78125 6.390625 
Q 39.453125 6.390625 43.28125 13.890625 
Q 47.125 21.390625 47.125 36.375 
Q 47.125 51.421875 43.28125 58.90625 
Q 39.453125 66.40625 31.78125 66.40625 
z
M 31.78125 74.21875 
Q 44.046875 74.21875 50.515625 64.515625 
Q 56.984375 54.828125 56.984375 36.375 
Q 56.984375 17.96875 50.515625 8.265625 
Q 44.046875 -1.421875 31.78125 -1.421875 
Q 19.53125 -1.421875 13.0625 8.265625 
Q 6.59375 17.96875 6.59375 36.375 
Q 6.59375 54.828125 13.0625 64.515625 
Q 19.53125 74.21875 31.78125 74.21875 
z
" id="DejaVuSans-48"/>
       </defs>
       <use xlink:href="#DejaVuSans-48"/>
      </g>
     </g>
    </g>
    <g id="xtick_2">
     <g id="line2d_3">
      <path clip-path="url(#pf3c2d84291)" d="M 103.53825 174.04 
L 103.53825 34.56 
" style="fill:none;stroke:#b0b0b0;stroke-linecap:square;stroke-width:0.8;"/>
     </g>
     <g id="line2d_4">
      <g>
       <use style="stroke:#000000;stroke-width:0.8;" x="103.53825" xlink:href="#m19b7640e4e" y="174.04"/>
      </g>
     </g>
     <g id="text_2">
      <!-- 20 -->
      <g transform="translate(97.17575 188.638438)scale(0.1 -0.1)">
       <defs>
        <path d="M 19.1875 8.296875 
L 53.609375 8.296875 
L 53.609375 0 
L 7.328125 0 
L 7.328125 8.296875 
Q 12.9375 14.109375 22.625 23.890625 
Q 32.328125 33.6875 34.8125 36.53125 
Q 39.546875 41.84375 41.421875 45.53125 
Q 43.3125 49.21875 43.3125 52.78125 
Q 43.3125 58.59375 39.234375 62.25 
Q 35.15625 65.921875 28.609375 65.921875 
Q 23.96875 65.921875 18.8125 64.3125 
Q 13.671875 62.703125 7.8125 59.421875 
L 7.8125 69.390625 
Q 13.765625 71.78125 18.9375 73 
Q 24.125 74.21875 28.421875 74.21875 
Q 39.75 74.21875 46.484375 68.546875 
Q 53.21875 62.890625 53.21875 53.421875 
Q 53.21875 48.921875 51.53125 44.890625 
Q 49.859375 40.875 45.40625 35.40625 
Q 44.1875 33.984375 37.640625 27.21875 
Q 31.109375 20.453125 19.1875 8.296875 
z
" id="DejaVuSans-50"/>
       </defs>
       <use xlink:href="#DejaVuSans-50"/>
       <use x="63.623047" xlink:href="#DejaVuSans-48"/>
      </g>
     </g>
    </g>
    <g id="xtick_3">
     <g id="line2d_5">
      <path clip-path="url(#pf3c2d84291)" d="M 144.889608 174.04 
L 144.889608 34.56 
" style="fill:none;stroke:#b0b0b0;stroke-linecap:square;stroke-width:0.8;"/>
     </g>
     <g id="line2d_6">
      <g>
       <use style="stroke:#000000;stroke-width:0.8;" x="144.889608" xlink:href="#m19b7640e4e" y="174.04"/>
      </g>
     </g>
     <g id="text_3">
      <!-- 40 -->
      <g transform="translate(138.527108 188.638438)scale(0.1 -0.1)">
       <defs>
        <path d="M 37.796875 64.3125 
L 12.890625 25.390625 
L 37.796875 25.390625 
z
M 35.203125 72.90625 
L 47.609375 72.90625 
L 47.609375 25.390625 
L 58.015625 25.390625 
L 58.015625 17.1875 
L 47.609375 17.1875 
L 47.609375 0 
L 37.796875 0 
L 37.796875 17.1875 
L 4.890625 17.1875 
L 4.890625 26.703125 
z
" id="DejaVuSans-52"/>
       </defs>
       <use xlink:href="#DejaVuSans-52"/>
       <use x="63.623047" xlink:href="#DejaVuSans-48"/>
      </g>
     </g>
    </g>
    <g id="xtick_4">
     <g id="line2d_7">
      <path clip-path="url(#pf3c2d84291)" d="M 186.240965 174.04 
L 186.240965 34.56 
" style="fill:none;stroke:#b0b0b0;stroke-linecap:square;stroke-width:0.8;"/>
     </g>
     <g id="line2d_8">
      <g>
       <use style="stroke:#000000;stroke-width:0.8;" x="186.240965" xlink:href="#m19b7640e4e" y="174.04"/>
      </g>
     </g>
     <g id="text_4">
      <!-- 60 -->
      <g transform="translate(179.878465 188.638438)scale(0.1 -0.1)">
       <defs>
        <path d="M 33.015625 40.375 
Q 26.375 40.375 22.484375 35.828125 
Q 18.609375 31.296875 18.609375 23.390625 
Q 18.609375 15.53125 22.484375 10.953125 
Q 26.375 6.390625 33.015625 6.390625 
Q 39.65625 6.390625 43.53125 10.953125 
Q 47.40625 15.53125 47.40625 23.390625 
Q 47.40625 31.296875 43.53125 35.828125 
Q 39.65625 40.375 33.015625 40.375 
z
M 52.59375 71.296875 
L 52.59375 62.3125 
Q 48.875 64.0625 45.09375 64.984375 
Q 41.3125 65.921875 37.59375 65.921875 
Q 27.828125 65.921875 22.671875 59.328125 
Q 17.53125 52.734375 16.796875 39.40625 
Q 19.671875 43.65625 24.015625 45.921875 
Q 28.375 48.1875 33.59375 48.1875 
Q 44.578125 48.1875 50.953125 41.515625 
Q 57.328125 34.859375 57.328125 23.390625 
Q 57.328125 12.15625 50.6875 5.359375 
Q 44.046875 -1.421875 33.015625 -1.421875 
Q 20.359375 -1.421875 13.671875 8.265625 
Q 6.984375 17.96875 6.984375 36.375 
Q 6.984375 53.65625 15.1875 63.9375 
Q 23.390625 74.21875 37.203125 74.21875 
Q 40.921875 74.21875 44.703125 73.484375 
Q 48.484375 72.75 52.59375 71.296875 
z
" id="DejaVuSans-54"/>
       </defs>
       <use xlink:href="#DejaVuSans-54"/>
       <use x="63.623047" xlink:href="#DejaVuSans-48"/>
      </g>
     </g>
    </g>
    <g id="xtick_5">
     <g id="line2d_9">
      <path clip-path="url(#pf3c2d84291)" d="M 227.592322 174.04 
L 227.592322 34.56 
" style="fill:none;stroke:#b0b0b0;stroke-linecap:square;stroke-width:0.8;"/>
     </g>
     <g id="line2d_10">
      <g>
       <use style="stroke:#000000;stroke-width:0.8;" x="227.592322" xlink:href="#m19b7640e4e" y="174.04"/>
      </g>
     </g>
     <g id="text_5">
      <!-- 80 -->
      <g transform="translate(221.229822 188.638438)scale(0.1 -0.1)">
       <defs>
        <path d="M 31.78125 34.625 
Q 24.75 34.625 20.71875 30.859375 
Q 16.703125 27.09375 16.703125 20.515625 
Q 16.703125 13.921875 20.71875 10.15625 
Q 24.75 6.390625 31.78125 6.390625 
Q 38.8125 6.390625 42.859375 10.171875 
Q 46.921875 13.96875 46.921875 20.515625 
Q 46.921875 27.09375 42.890625 30.859375 
Q 38.875 34.625 31.78125 34.625 
z
M 21.921875 38.8125 
Q 15.578125 40.375 12.03125 44.71875 
Q 8.5 49.078125 8.5 55.328125 
Q 8.5 64.0625 14.71875 69.140625 
Q 20.953125 74.21875 31.78125 74.21875 
Q 42.671875 74.21875 48.875 69.140625 
Q 55.078125 64.0625 55.078125 55.328125 
Q 55.078125 49.078125 51.53125 44.71875 
Q 48 40.375 41.703125 38.8125 
Q 48.828125 37.15625 52.796875 32.3125 
Q 56.78125 27.484375 56.78125 20.515625 
Q 56.78125 9.90625 50.3125 4.234375 
Q 43.84375 -1.421875 31.78125 -1.421875 
Q 19.734375 -1.421875 13.25 4.234375 
Q 6.78125 9.90625 6.78125 20.515625 
Q 6.78125 27.484375 10.78125 32.3125 
Q 14.796875 37.15625 21.921875 38.8125 
z
M 18.3125 54.390625 
Q 18.3125 48.734375 21.84375 45.5625 
Q 25.390625 42.390625 31.78125 42.390625 
Q 38.140625 42.390625 41.71875 45.5625 
Q 45.3125 48.734375 45.3125 54.390625 
Q 45.3125 60.0625 41.71875 63.234375 
Q 38.140625 66.40625 31.78125 66.40625 
Q 25.390625 66.40625 21.84375 63.234375 
Q 18.3125 60.0625 18.3125 54.390625 
z
" id="DejaVuSans-56"/>
       </defs>
       <use xlink:href="#DejaVuSans-56"/>
       <use x="63.623047" xlink:href="#DejaVuSans-48"/>
      </g>
     </g>
    </g>
    <g id="xtick_6">
     <g id="line2d_11">
      <path clip-path="url(#pf3c2d84291)" d="M 268.94368 174.04 
L 268.94368 34.56 
" style="fill:none;stroke:#b0b0b0;stroke-linecap:square;stroke-width:0.8;"/>
     </g>
     <g id="line2d_12">
      <g>
       <use style="stroke:#000000;stroke-width:0.8;" x="268.94368" xlink:href="#m19b7640e4e" y="174.04"/>
      </g>
     </g>
     <g id="text_6">
      <!-- 100 -->
      <g transform="translate(259.39993 188.638438)scale(0.1 -0.1)">
       <defs>
        <path d="M 12.40625 8.296875 
L 28.515625 8.296875 
L 28.515625 63.921875 
L 10.984375 60.40625 
L 10.984375 69.390625 
L 28.421875 72.90625 
L 38.28125 72.90625 
L 38.28125 8.296875 
L 54.390625 8.296875 
L 54.390625 0 
L 12.40625 0 
z
" id="DejaVuSans-49"/>
       </defs>
       <use xlink:href="#DejaVuSans-49"/>
       <use x="63.623047" xlink:href="#DejaVuSans-48"/>
       <use x="127.246094" xlink:href="#DejaVuSans-48"/>
      </g>
     </g>
    </g>
    <g id="text_7">
     <!-- Epochs -->
     <g transform="translate(148.683445 202.316563)scale(0.1 -0.1)">
      <defs>
       <path d="M 9.8125 72.90625 
L 55.90625 72.90625 
L 55.90625 64.59375 
L 19.671875 64.59375 
L 19.671875 43.015625 
L 54.390625 43.015625 
L 54.390625 34.71875 
L 19.671875 34.71875 
L 19.671875 8.296875 
L 56.78125 8.296875 
L 56.78125 0 
L 9.8125 0 
z
" id="DejaVuSans-69"/>
       <path d="M 18.109375 8.203125 
L 18.109375 -20.796875 
L 9.078125 -20.796875 
L 9.078125 54.6875 
L 18.109375 54.6875 
L 18.109375 46.390625 
Q 20.953125 51.265625 25.265625 53.625 
Q 29.59375 56 35.59375 56 
Q 45.5625 56 51.78125 48.09375 
Q 58.015625 40.1875 58.015625 27.296875 
Q 58.015625 14.40625 51.78125 6.484375 
Q 45.5625 -1.421875 35.59375 -1.421875 
Q 29.59375 -1.421875 25.265625 0.953125 
Q 20.953125 3.328125 18.109375 8.203125 
z
M 48.6875 27.296875 
Q 48.6875 37.203125 44.609375 42.84375 
Q 40.53125 48.484375 33.40625 48.484375 
Q 26.265625 48.484375 22.1875 42.84375 
Q 18.109375 37.203125 18.109375 27.296875 
Q 18.109375 17.390625 22.1875 11.75 
Q 26.265625 6.109375 33.40625 6.109375 
Q 40.53125 6.109375 44.609375 11.75 
Q 48.6875 17.390625 48.6875 27.296875 
z
" id="DejaVuSans-112"/>
       <path d="M 30.609375 48.390625 
Q 23.390625 48.390625 19.1875 42.75 
Q 14.984375 37.109375 14.984375 27.296875 
Q 14.984375 17.484375 19.15625 11.84375 
Q 23.34375 6.203125 30.609375 6.203125 
Q 37.796875 6.203125 41.984375 11.859375 
Q 46.1875 17.53125 46.1875 27.296875 
Q 46.1875 37.015625 41.984375 42.703125 
Q 37.796875 48.390625 30.609375 48.390625 
z
M 30.609375 56 
Q 42.328125 56 49.015625 48.375 
Q 55.71875 40.765625 55.71875 27.296875 
Q 55.71875 13.875 49.015625 6.21875 
Q 42.328125 -1.421875 30.609375 -1.421875 
Q 18.84375 -1.421875 12.171875 6.21875 
Q 5.515625 13.875 5.515625 27.296875 
Q 5.515625 40.765625 12.171875 48.375 
Q 18.84375 56 30.609375 56 
z
" id="DejaVuSans-111"/>
       <path d="M 48.78125 52.59375 
L 48.78125 44.1875 
Q 44.96875 46.296875 41.140625 47.34375 
Q 37.3125 48.390625 33.40625 48.390625 
Q 24.65625 48.390625 19.8125 42.84375 
Q 14.984375 37.3125 14.984375 27.296875 
Q 14.984375 17.28125 19.8125 11.734375 
Q 24.65625 6.203125 33.40625 6.203125 
Q 37.3125 6.203125 41.140625 7.25 
Q 44.96875 8.296875 48.78125 10.40625 
L 48.78125 2.09375 
Q 45.015625 0.34375 40.984375 -0.53125 
Q 36.96875 -1.421875 32.421875 -1.421875 
Q 20.0625 -1.421875 12.78125 6.34375 
Q 5.515625 14.109375 5.515625 27.296875 
Q 5.515625 40.671875 12.859375 48.328125 
Q 20.21875 56 33.015625 56 
Q 37.15625 56 41.109375 55.140625 
Q 45.0625 54.296875 48.78125 52.59375 
z
" id="DejaVuSans-99"/>
       <path d="M 54.890625 33.015625 
L 54.890625 0 
L 45.90625 0 
L 45.90625 32.71875 
Q 45.90625 40.484375 42.875 44.328125 
Q 39.84375 48.1875 33.796875 48.1875 
Q 26.515625 48.1875 22.3125 43.546875 
Q 18.109375 38.921875 18.109375 30.90625 
L 18.109375 0 
L 9.078125 0 
L 9.078125 75.984375 
L 18.109375 75.984375 
L 18.109375 46.1875 
Q 21.34375 51.125 25.703125 53.5625 
Q 30.078125 56 35.796875 56 
Q 45.21875 56 50.046875 50.171875 
Q 54.890625 44.34375 54.890625 33.015625 
z
" id="DejaVuSans-104"/>
       <path d="M 44.28125 53.078125 
L 44.28125 44.578125 
Q 40.484375 46.53125 36.375 47.5 
Q 32.28125 48.484375 27.875 48.484375 
Q 21.1875 48.484375 17.84375 46.4375 
Q 14.5 44.390625 14.5 40.28125 
Q 14.5 37.15625 16.890625 35.375 
Q 19.28125 33.59375 26.515625 31.984375 
L 29.59375 31.296875 
Q 39.15625 29.25 43.1875 25.515625 
Q 47.21875 21.78125 47.21875 15.09375 
Q 47.21875 7.46875 41.1875 3.015625 
Q 35.15625 -1.421875 24.609375 -1.421875 
Q 20.21875 -1.421875 15.453125 -0.5625 
Q 10.6875 0.296875 5.421875 2 
L 5.421875 11.28125 
Q 10.40625 8.6875 15.234375 7.390625 
Q 20.0625 6.109375 24.8125 6.109375 
Q 31.15625 6.109375 34.5625 8.28125 
Q 37.984375 10.453125 37.984375 14.40625 
Q 37.984375 18.0625 35.515625 20.015625 
Q 33.0625 21.96875 24.703125 23.78125 
L 21.578125 24.515625 
Q 13.234375 26.265625 9.515625 29.90625 
Q 5.8125 33.546875 5.8125 39.890625 
Q 5.8125 47.609375 11.28125 51.796875 
Q 16.75 56 26.8125 56 
Q 31.78125 56 36.171875 55.265625 
Q 40.578125 54.546875 44.28125 53.078125 
z
" id="DejaVuSans-115"/>
      </defs>
      <use xlink:href="#DejaVuSans-69"/>
      <use x="63.183594" xlink:href="#DejaVuSans-112"/>
      <use x="126.660156" xlink:href="#DejaVuSans-111"/>
      <use x="187.841797" xlink:href="#DejaVuSans-99"/>
      <use x="242.822266" xlink:href="#DejaVuSans-104"/>
      <use x="306.201172" xlink:href="#DejaVuSans-115"/>
     </g>
    </g>
   </g>
   <g id="matplotlib.axis_2">
    <g id="ytick_1">
     <g id="line2d_13">
      <path clip-path="url(#pf3c2d84291)" d="M 54.02 144.555906 
L 279.17814 144.555906 
" style="fill:none;stroke:#b0b0b0;stroke-linecap:square;stroke-width:0.8;"/>
     </g>
     <g id="line2d_14">
      <defs>
       <path d="M 0 0 
L -3.5 0 
" id="m24db2466d0" style="stroke:#000000;stroke-width:0.8;"/>
      </defs>
      <g>
       <use style="stroke:#000000;stroke-width:0.8;" x="54.02" xlink:href="#m24db2466d0" y="144.555906"/>
      </g>
     </g>
     <g id="text_8">
      <!-- 0.60 -->
      <g transform="translate(24.754375 148.355125)scale(0.1 -0.1)">
       <defs>
        <path d="M 10.6875 12.40625 
L 21 12.40625 
L 21 0 
L 10.6875 0 
z
" id="DejaVuSans-46"/>
       </defs>
       <use xlink:href="#DejaVuSans-48"/>
       <use x="63.623047" xlink:href="#DejaVuSans-46"/>
       <use x="95.410156" xlink:href="#DejaVuSans-54"/>
       <use x="159.033203" xlink:href="#DejaVuSans-48"/>
      </g>
     </g>
    </g>
    <g id="ytick_2">
     <g id="line2d_15">
      <path clip-path="url(#pf3c2d84291)" d="M 54.02 113.748432 
L 279.17814 113.748432 
" style="fill:none;stroke:#b0b0b0;stroke-linecap:square;stroke-width:0.8;"/>
     </g>
     <g id="line2d_16">
      <g>
       <use style="stroke:#000000;stroke-width:0.8;" x="54.02" xlink:href="#m24db2466d0" y="113.748432"/>
      </g>
     </g>
     <g id="text_9">
      <!-- 0.65 -->
      <g transform="translate(24.754375 117.547651)scale(0.1 -0.1)">
       <defs>
        <path d="M 10.796875 72.90625 
L 49.515625 72.90625 
L 49.515625 64.59375 
L 19.828125 64.59375 
L 19.828125 46.734375 
Q 21.96875 47.46875 24.109375 47.828125 
Q 26.265625 48.1875 28.421875 48.1875 
Q 40.625 48.1875 47.75 41.5 
Q 54.890625 34.8125 54.890625 23.390625 
Q 54.890625 11.625 47.5625 5.09375 
Q 40.234375 -1.421875 26.90625 -1.421875 
Q 22.3125 -1.421875 17.546875 -0.640625 
Q 12.796875 0.140625 7.71875 1.703125 
L 7.71875 11.625 
Q 12.109375 9.234375 16.796875 8.0625 
Q 21.484375 6.890625 26.703125 6.890625 
Q 35.15625 6.890625 40.078125 11.328125 
Q 45.015625 15.765625 45.015625 23.390625 
Q 45.015625 31 40.078125 35.4375 
Q 35.15625 39.890625 26.703125 39.890625 
Q 22.75 39.890625 18.8125 39.015625 
Q 14.890625 38.140625 10.796875 36.28125 
z
" id="DejaVuSans-53"/>
       </defs>
       <use xlink:href="#DejaVuSans-48"/>
       <use x="63.623047" xlink:href="#DejaVuSans-46"/>
       <use x="95.410156" xlink:href="#DejaVuSans-54"/>
       <use x="159.033203" xlink:href="#DejaVuSans-53"/>
      </g>
     </g>
    </g>
    <g id="ytick_3">
     <g id="line2d_17">
      <path clip-path="url(#pf3c2d84291)" d="M 54.02 82.940957 
L 279.17814 82.940957 
" style="fill:none;stroke:#b0b0b0;stroke-linecap:square;stroke-width:0.8;"/>
     </g>
     <g id="line2d_18">
      <g>
       <use style="stroke:#000000;stroke-width:0.8;" x="54.02" xlink:href="#m24db2466d0" y="82.940957"/>
      </g>
     </g>
     <g id="text_10">
      <!-- 0.70 -->
      <g transform="translate(24.754375 86.740176)scale(0.1 -0.1)">
       <defs>
        <path d="M 8.203125 72.90625 
L 55.078125 72.90625 
L 55.078125 68.703125 
L 28.609375 0 
L 18.3125 0 
L 43.21875 64.59375 
L 8.203125 64.59375 
z
" id="DejaVuSans-55"/>
       </defs>
       <use xlink:href="#DejaVuSans-48"/>
       <use x="63.623047" xlink:href="#DejaVuSans-46"/>
       <use x="95.410156" xlink:href="#DejaVuSans-55"/>
       <use x="159.033203" xlink:href="#DejaVuSans-48"/>
      </g>
     </g>
    </g>
    <g id="ytick_4">
     <g id="line2d_19">
      <path clip-path="url(#pf3c2d84291)" d="M 54.02 52.133483 
L 279.17814 52.133483 
" style="fill:none;stroke:#b0b0b0;stroke-linecap:square;stroke-width:0.8;"/>
     </g>
     <g id="line2d_20">
      <g>
       <use style="stroke:#000000;stroke-width:0.8;" x="54.02" xlink:href="#m24db2466d0" y="52.133483"/>
      </g>
     </g>
     <g id="text_11">
      <!-- 0.75 -->
      <g transform="translate(24.754375 55.932702)scale(0.1 -0.1)">
       <use xlink:href="#DejaVuSans-48"/>
       <use x="63.623047" xlink:href="#DejaVuSans-46"/>
       <use x="95.410156" xlink:href="#DejaVuSans-55"/>
       <use x="159.033203" xlink:href="#DejaVuSans-53"/>
      </g>
     </g>
    </g>
    <g id="text_12">
     <!-- Acc -->
     <g transform="translate(18.674688 113.13125)rotate(-90)scale(0.1 -0.1)">
      <defs>
       <path d="M 34.1875 63.1875 
L 20.796875 26.90625 
L 47.609375 26.90625 
z
M 28.609375 72.90625 
L 39.796875 72.90625 
L 67.578125 0 
L 57.328125 0 
L 50.6875 18.703125 
L 17.828125 18.703125 
L 11.1875 0 
L 0.78125 0 
z
" id="DejaVuSans-65"/>
      </defs>
      <use xlink:href="#DejaVuSans-65"/>
      <use x="66.658203" xlink:href="#DejaVuSans-99"/>
      <use x="121.638672" xlink:href="#DejaVuSans-99"/>
     </g>
    </g>
   </g>
   <g id="line2d_21">
    <path clip-path="url(#pf3c2d84291)" d="M 64.254461 167.7 
L 66.322029 141.847542 
L 68.389597 129.536867 
L 70.457165 137.538811 
L 72.524732 146.771827 
L 74.5923 144.309684 
L 76.659868 143.694167 
L 78.727436 144.925238 
L 80.795004 138.154365 
L 82.862572 125.84369 
L 84.93014 134.461152 
L 86.997707 120.919406 
L 89.065275 133.230081 
L 91.132843 124.612619 
L 93.200411 133.230081 
L 95.267979 143.078613 
L 97.335547 139.385437 
L 99.403115 136.923294 
L 101.470683 127.690279 
L 103.53825 125.228136 
L 105.605818 128.305796 
L 107.673386 136.923294 
L 109.740954 133.845598 
L 111.808522 133.230081 
L 113.87609 130.152421 
L 115.943658 121.534923 
L 118.011225 127.074725 
L 120.078793 129.536867 
L 122.146361 148.002898 
L 124.213929 143.694167 
L 126.281497 137.538811 
L 128.349065 143.694167 
L 130.416633 143.078613 
L 132.4842 147.387344 
L 134.551768 146.771827 
L 136.619336 148.002898 
L 138.686904 141.847542 
L 140.754472 142.463096 
L 142.82204 147.387344 
L 144.889608 145.540756 
L 146.957176 140.616471 
L 149.024743 139.385437 
L 151.092311 141.847542 
L 153.159879 138.154365 
L 155.227447 134.461152 
L 157.295015 116.610675 
L 159.362583 139.385437 
L 161.430151 143.694167 
L 163.497718 125.84369 
L 165.565286 131.383492 
L 167.632854 135.076669 
L 169.700422 127.690279 
L 171.76799 131.99901 
L 173.835558 130.767938 
L 175.903126 134.461152 
L 177.970694 129.536867 
L 180.038261 124.612619 
L 182.105829 134.461152 
L 184.173397 127.074725 
L 186.240965 132.614563 
L 188.308533 123.381548 
L 190.376101 118.457263 
L 192.443669 126.459208 
L 194.511236 109.224248 
L 196.578804 114.76405 
L 198.646372 128.92135 
L 200.71394 143.078613 
L 202.781508 135.692223 
L 204.849076 123.381548 
L 206.916644 125.228136 
L 208.984211 115.995121 
L 211.051779 129.536867 
L 213.119347 119.688335 
L 215.186915 111.68639 
L 217.254483 111.070873 
L 219.322051 114.76405 
L 221.389619 120.303852 
L 223.457187 133.230081 
L 225.524754 135.692223 
L 227.592322 120.303852 
L 229.65989 107.993177 
L 231.727458 121.534923 
L 233.795026 117.841746 
L 235.862594 113.532979 
L 237.930162 107.37766 
L 239.997729 118.457263 
L 242.065297 114.148533 
L 244.132865 111.070873 
L 246.200433 119.688335 
L 248.268001 104.3 
L 250.335569 114.76405 
L 252.403137 112.301944 
L 254.470705 105.531071 
L 256.538272 131.383492 
L 258.60584 117.841746 
L 260.673408 123.997065 
L 262.740976 119.072817 
L 264.808544 115.995121 
L 266.876112 122.765994 
L 268.94368 120.303852 
" style="fill:none;stroke:#1f77b4;stroke-linecap:square;stroke-width:1.5;"/>
   </g>
   <g id="line2d_22">
    <path clip-path="url(#pf3c2d84291)" d="M 64.254461 153.5427 
L 66.322029 103.684446 
L 68.389597 80.909684 
L 70.457165 74.754365 
L 72.524732 68.59901 
L 74.5923 69.214563 
L 76.659868 72.292223 
L 78.727436 72.292223 
L 80.795004 74.754365 
L 82.862572 74.754365 
L 84.93014 71.061152 
L 86.997707 79.063096 
L 89.065275 71.061152 
L 91.132843 74.754365 
L 93.200411 70.445635 
L 95.267979 69.830081 
L 97.335547 71.061152 
L 99.403115 63.059208 
L 101.470683 61.828136 
L 103.53825 65.52135 
L 105.605818 73.523294 
L 107.673386 70.445635 
L 109.740954 66.136867 
L 111.808522 70.445635 
L 113.87609 55.672817 
L 115.943658 71.061152 
L 118.011225 67.367938 
L 120.078793 66.752421 
L 122.146361 67.367938 
L 124.213929 66.136867 
L 126.281497 64.290279 
L 128.349065 64.290279 
L 130.416633 58.134923 
L 132.4842 58.750477 
L 134.551768 63.059208 
L 136.619336 59.981548 
L 138.686904 63.674762 
L 140.754472 58.134923 
L 142.82204 56.288335 
L 144.889608 57.519406 
L 146.957176 59.365994 
L 149.024743 53.826192 
L 151.092311 59.981548 
L 153.159879 60.597065 
L 155.227447 66.752421 
L 157.295015 59.981548 
L 159.362583 56.903888 
L 161.430151 60.597065 
L 163.497718 57.519406 
L 165.565286 51.979604 
L 167.632854 59.365994 
L 169.700422 54.441746 
L 171.76799 56.288335 
L 173.835558 53.826192 
L 175.903126 57.519406 
L 177.970694 55.057263 
L 180.038261 53.210675 
L 182.105829 55.672817 
L 184.173397 56.288335 
L 186.240965 51.979604 
L 188.308533 51.979604 
L 190.376101 47.670873 
L 192.443669 45.208731 
L 194.511236 52.595121 
L 196.578804 47.055319 
L 198.646372 50.748533 
L 200.71394 51.979604 
L 202.781508 53.210675 
L 204.849076 50.133015 
L 206.916644 48.901944 
L 208.984211 48.901944 
L 211.051779 49.517461 
L 213.119347 50.133015 
L 215.186915 60.597065 
L 217.254483 49.517461 
L 219.322051 50.133015 
L 221.389619 48.901944 
L 223.457187 48.28639 
L 225.524754 48.28639 
L 227.592322 48.28639 
L 229.65989 55.057263 
L 231.727458 50.133015 
L 233.795026 49.517461 
L 235.862594 48.28639 
L 237.930162 51.36405 
L 239.997729 43.362142 
L 242.065297 42.746588 
L 244.132865 48.28639 
L 246.200433 51.36405 
L 248.268001 46.439802 
L 250.335569 48.901944 
L 252.403137 47.670873 
L 254.470705 50.748533 
L 256.538272 47.670873 
L 258.60584 47.670873 
L 260.673408 44.593177 
L 262.740976 51.36405 
L 264.808544 51.979604 
L 266.876112 40.9 
L 268.94368 53.210675 
" style="fill:none;stroke:#ff7f0e;stroke-linecap:square;stroke-width:1.5;"/>
   </g>
   <g id="patch_3">
    <path d="M 54.02 174.04 
L 54.02 34.56 
" style="fill:none;stroke:#000000;stroke-linecap:square;stroke-linejoin:miter;stroke-width:0.8;"/>
   </g>
   <g id="patch_4">
    <path d="M 279.17814 174.04 
L 279.17814 34.56 
" style="fill:none;stroke:#000000;stroke-linecap:square;stroke-linejoin:miter;stroke-width:0.8;"/>
   </g>
   <g id="patch_5">
    <path d="M 54.02 174.04 
L 279.17814 174.04 
" style="fill:none;stroke:#000000;stroke-linecap:square;stroke-linejoin:miter;stroke-width:0.8;"/>
   </g>
   <g id="patch_6">
    <path d="M 54.02 34.56 
L 279.17814 34.56 
" style="fill:none;stroke:#000000;stroke-linecap:square;stroke-linejoin:miter;stroke-width:0.8;"/>
   </g>
   <g id="legend_1">
    <g id="patch_7">
     <path d="M 202.78439 169.04 
L 272.17814 169.04 
Q 274.17814 169.04 274.17814 167.04 
L 274.17814 138.68375 
Q 274.17814 136.68375 272.17814 136.68375 
L 202.78439 136.68375 
Q 200.78439 136.68375 200.78439 138.68375 
L 200.78439 167.04 
Q 200.78439 169.04 202.78439 169.04 
z
" style="fill:#ffffff;opacity:0.8;stroke:#cccccc;stroke-linejoin:miter;"/>
    </g>
    <g id="line2d_23">
     <path d="M 204.78439 144.782188 
L 224.78439 144.782188 
" style="fill:none;stroke:#1f77b4;stroke-linecap:square;stroke-width:1.5;"/>
    </g>
    <g id="line2d_24"/>
    <g id="text_13">
     <!-- GCN -->
     <g transform="translate(232.78439 148.282188)scale(0.1 -0.1)">
      <defs>
       <path d="M 59.515625 10.40625 
L 59.515625 29.984375 
L 43.40625 29.984375 
L 43.40625 38.09375 
L 69.28125 38.09375 
L 69.28125 6.78125 
Q 63.578125 2.734375 56.6875 0.65625 
Q 49.8125 -1.421875 42 -1.421875 
Q 24.90625 -1.421875 15.25 8.5625 
Q 5.609375 18.5625 5.609375 36.375 
Q 5.609375 54.25 15.25 64.234375 
Q 24.90625 74.21875 42 74.21875 
Q 49.125 74.21875 55.546875 72.453125 
Q 61.96875 70.703125 67.390625 67.28125 
L 67.390625 56.78125 
Q 61.921875 61.421875 55.765625 63.765625 
Q 49.609375 66.109375 42.828125 66.109375 
Q 29.4375 66.109375 22.71875 58.640625 
Q 16.015625 51.171875 16.015625 36.375 
Q 16.015625 21.625 22.71875 14.15625 
Q 29.4375 6.6875 42.828125 6.6875 
Q 48.046875 6.6875 52.140625 7.59375 
Q 56.25 8.5 59.515625 10.40625 
z
" id="DejaVuSans-71"/>
       <path d="M 64.40625 67.28125 
L 64.40625 56.890625 
Q 59.421875 61.53125 53.78125 63.8125 
Q 48.140625 66.109375 41.796875 66.109375 
Q 29.296875 66.109375 22.65625 58.46875 
Q 16.015625 50.828125 16.015625 36.375 
Q 16.015625 21.96875 22.65625 14.328125 
Q 29.296875 6.6875 41.796875 6.6875 
Q 48.140625 6.6875 53.78125 8.984375 
Q 59.421875 11.28125 64.40625 15.921875 
L 64.40625 5.609375 
Q 59.234375 2.09375 53.4375 0.328125 
Q 47.65625 -1.421875 41.21875 -1.421875 
Q 24.65625 -1.421875 15.125 8.703125 
Q 5.609375 18.84375 5.609375 36.375 
Q 5.609375 53.953125 15.125 64.078125 
Q 24.65625 74.21875 41.21875 74.21875 
Q 47.75 74.21875 53.53125 72.484375 
Q 59.328125 70.75 64.40625 67.28125 
z
" id="DejaVuSans-67"/>
       <path d="M 9.8125 72.90625 
L 23.09375 72.90625 
L 55.421875 11.921875 
L 55.421875 72.90625 
L 64.984375 72.90625 
L 64.984375 0 
L 51.703125 0 
L 19.390625 60.984375 
L 19.390625 0 
L 9.8125 0 
z
" id="DejaVuSans-78"/>
      </defs>
      <use xlink:href="#DejaVuSans-71"/>
      <use x="77.490234" xlink:href="#DejaVuSans-67"/>
      <use x="147.314453" xlink:href="#DejaVuSans-78"/>
     </g>
    </g>
    <g id="line2d_25">
     <path d="M 204.78439 159.460313 
L 224.78439 159.460313 
" style="fill:none;stroke:#ff7f0e;stroke-linecap:square;stroke-width:1.5;"/>
    </g>
    <g id="line2d_26"/>
    <g id="text_14">
     <!-- DGCNN -->
     <g transform="translate(232.78439 162.960313)scale(0.1 -0.1)">
      <defs>
       <path d="M 19.671875 64.796875 
L 19.671875 8.109375 
L 31.59375 8.109375 
Q 46.6875 8.109375 53.6875 14.9375 
Q 60.6875 21.78125 60.6875 36.53125 
Q 60.6875 51.171875 53.6875 57.984375 
Q 46.6875 64.796875 31.59375 64.796875 
z
M 9.8125 72.90625 
L 30.078125 72.90625 
Q 51.265625 72.90625 61.171875 64.09375 
Q 71.09375 55.28125 71.09375 36.53125 
Q 71.09375 17.671875 61.125 8.828125 
Q 51.171875 0 30.078125 0 
L 9.8125 0 
z
" id="DejaVuSans-68"/>
      </defs>
      <use xlink:href="#DejaVuSans-68"/>
      <use x="77.001953" xlink:href="#DejaVuSans-71"/>
      <use x="154.492188" xlink:href="#DejaVuSans-67"/>
      <use x="224.316406" xlink:href="#DejaVuSans-78"/>
      <use x="299.121094" xlink:href="#DejaVuSans-78"/>
     </g>
    </g>
   </g>
  </g>
  <g id="axes_2">
   <g id="patch_8">
    <path d="M 339.77 174.04 
L 564.92814 174.04 
L 564.92814 34.56 
L 339.77 34.56 
z
" style="fill:#ffffff;"/>
   </g>
   <g id="matplotlib.axis_3">
    <g id="xtick_7">
     <g id="line2d_27">
      <path clip-path="url(#p56d561e945)" d="M 347.936893 174.04 
L 347.936893 34.56 
" style="fill:none;stroke:#b0b0b0;stroke-linecap:square;stroke-width:0.8;"/>
     </g>
     <g id="line2d_28">
      <g>
       <use style="stroke:#000000;stroke-width:0.8;" x="347.936893" xlink:href="#m19b7640e4e" y="174.04"/>
      </g>
     </g>
     <g id="text_15">
      <!-- 0 -->
      <g transform="translate(344.755643 188.638438)scale(0.1 -0.1)">
       <use xlink:href="#DejaVuSans-48"/>
      </g>
     </g>
    </g>
    <g id="xtick_8">
     <g id="line2d_29">
      <path clip-path="url(#p56d561e945)" d="M 389.28825 174.04 
L 389.28825 34.56 
" style="fill:none;stroke:#b0b0b0;stroke-linecap:square;stroke-width:0.8;"/>
     </g>
     <g id="line2d_30">
      <g>
       <use style="stroke:#000000;stroke-width:0.8;" x="389.28825" xlink:href="#m19b7640e4e" y="174.04"/>
      </g>
     </g>
     <g id="text_16">
      <!-- 20 -->
      <g transform="translate(382.92575 188.638438)scale(0.1 -0.1)">
       <use xlink:href="#DejaVuSans-50"/>
       <use x="63.623047" xlink:href="#DejaVuSans-48"/>
      </g>
     </g>
    </g>
    <g id="xtick_9">
     <g id="line2d_31">
      <path clip-path="url(#p56d561e945)" d="M 430.639608 174.04 
L 430.639608 34.56 
" style="fill:none;stroke:#b0b0b0;stroke-linecap:square;stroke-width:0.8;"/>
     </g>
     <g id="line2d_32">
      <g>
       <use style="stroke:#000000;stroke-width:0.8;" x="430.639608" xlink:href="#m19b7640e4e" y="174.04"/>
      </g>
     </g>
     <g id="text_17">
      <!-- 40 -->
      <g transform="translate(424.277108 188.638438)scale(0.1 -0.1)">
       <use xlink:href="#DejaVuSans-52"/>
       <use x="63.623047" xlink:href="#DejaVuSans-48"/>
      </g>
     </g>
    </g>
    <g id="xtick_10">
     <g id="line2d_33">
      <path clip-path="url(#p56d561e945)" d="M 471.990965 174.04 
L 471.990965 34.56 
" style="fill:none;stroke:#b0b0b0;stroke-linecap:square;stroke-width:0.8;"/>
     </g>
     <g id="line2d_34">
      <g>
       <use style="stroke:#000000;stroke-width:0.8;" x="471.990965" xlink:href="#m19b7640e4e" y="174.04"/>
      </g>
     </g>
     <g id="text_18">
      <!-- 60 -->
      <g transform="translate(465.628465 188.638438)scale(0.1 -0.1)">
       <use xlink:href="#DejaVuSans-54"/>
       <use x="63.623047" xlink:href="#DejaVuSans-48"/>
      </g>
     </g>
    </g>
    <g id="xtick_11">
     <g id="line2d_35">
      <path clip-path="url(#p56d561e945)" d="M 513.342322 174.04 
L 513.342322 34.56 
" style="fill:none;stroke:#b0b0b0;stroke-linecap:square;stroke-width:0.8;"/>
     </g>
     <g id="line2d_36">
      <g>
       <use style="stroke:#000000;stroke-width:0.8;" x="513.342322" xlink:href="#m19b7640e4e" y="174.04"/>
      </g>
     </g>
     <g id="text_19">
      <!-- 80 -->
      <g transform="translate(506.979822 188.638438)scale(0.1 -0.1)">
       <use xlink:href="#DejaVuSans-56"/>
       <use x="63.623047" xlink:href="#DejaVuSans-48"/>
      </g>
     </g>
    </g>
    <g id="xtick_12">
     <g id="line2d_37">
      <path clip-path="url(#p56d561e945)" d="M 554.69368 174.04 
L 554.69368 34.56 
" style="fill:none;stroke:#b0b0b0;stroke-linecap:square;stroke-width:0.8;"/>
     </g>
     <g id="line2d_38">
      <g>
       <use style="stroke:#000000;stroke-width:0.8;" x="554.69368" xlink:href="#m19b7640e4e" y="174.04"/>
      </g>
     </g>
     <g id="text_20">
      <!-- 100 -->
      <g transform="translate(545.14993 188.638438)scale(0.1 -0.1)">
       <use xlink:href="#DejaVuSans-49"/>
       <use x="63.623047" xlink:href="#DejaVuSans-48"/>
       <use x="127.246094" xlink:href="#DejaVuSans-48"/>
      </g>
     </g>
    </g>
    <g id="text_21">
     <!-- Epochs -->
     <g transform="translate(434.433445 202.316563)scale(0.1 -0.1)">
      <use xlink:href="#DejaVuSans-69"/>
      <use x="63.183594" xlink:href="#DejaVuSans-112"/>
      <use x="126.660156" xlink:href="#DejaVuSans-111"/>
      <use x="187.841797" xlink:href="#DejaVuSans-99"/>
      <use x="242.822266" xlink:href="#DejaVuSans-104"/>
      <use x="306.201172" xlink:href="#DejaVuSans-115"/>
     </g>
    </g>
   </g>
   <g id="matplotlib.axis_4">
    <g id="ytick_5">
     <g id="line2d_39">
      <path clip-path="url(#p56d561e945)" d="M 339.77 159.246679 
L 564.92814 159.246679 
" style="fill:none;stroke:#b0b0b0;stroke-linecap:square;stroke-width:0.8;"/>
     </g>
     <g id="line2d_40">
      <g>
       <use style="stroke:#000000;stroke-width:0.8;" x="339.77" xlink:href="#m24db2466d0" y="159.246679"/>
      </g>
     </g>
     <g id="text_22">
      <!-- 0.60 -->
      <g transform="translate(310.504375 163.045898)scale(0.1 -0.1)">
       <use xlink:href="#DejaVuSans-48"/>
       <use x="63.623047" xlink:href="#DejaVuSans-46"/>
       <use x="95.410156" xlink:href="#DejaVuSans-54"/>
       <use x="159.033203" xlink:href="#DejaVuSans-48"/>
      </g>
     </g>
    </g>
    <g id="ytick_6">
     <g id="line2d_41">
      <path clip-path="url(#p56d561e945)" d="M 339.77 119.797786 
L 564.92814 119.797786 
" style="fill:none;stroke:#b0b0b0;stroke-linecap:square;stroke-width:0.8;"/>
     </g>
     <g id="line2d_42">
      <g>
       <use style="stroke:#000000;stroke-width:0.8;" x="339.77" xlink:href="#m24db2466d0" y="119.797786"/>
      </g>
     </g>
     <g id="text_23">
      <!-- 0.65 -->
      <g transform="translate(310.504375 123.597005)scale(0.1 -0.1)">
       <use xlink:href="#DejaVuSans-48"/>
       <use x="63.623047" xlink:href="#DejaVuSans-46"/>
       <use x="95.410156" xlink:href="#DejaVuSans-54"/>
       <use x="159.033203" xlink:href="#DejaVuSans-53"/>
      </g>
     </g>
    </g>
    <g id="ytick_7">
     <g id="line2d_43">
      <path clip-path="url(#p56d561e945)" d="M 339.77 80.348893 
L 564.92814 80.348893 
" style="fill:none;stroke:#b0b0b0;stroke-linecap:square;stroke-width:0.8;"/>
     </g>
     <g id="line2d_44">
      <g>
       <use style="stroke:#000000;stroke-width:0.8;" x="339.77" xlink:href="#m24db2466d0" y="80.348893"/>
      </g>
     </g>
     <g id="text_24">
      <!-- 0.70 -->
      <g transform="translate(310.504375 84.148112)scale(0.1 -0.1)">
       <use xlink:href="#DejaVuSans-48"/>
       <use x="63.623047" xlink:href="#DejaVuSans-46"/>
       <use x="95.410156" xlink:href="#DejaVuSans-55"/>
       <use x="159.033203" xlink:href="#DejaVuSans-48"/>
      </g>
     </g>
    </g>
    <g id="ytick_8">
     <g id="line2d_45">
      <path clip-path="url(#p56d561e945)" d="M 339.77 40.9 
L 564.92814 40.9 
" style="fill:none;stroke:#b0b0b0;stroke-linecap:square;stroke-width:0.8;"/>
     </g>
     <g id="line2d_46">
      <g>
       <use style="stroke:#000000;stroke-width:0.8;" x="339.77" xlink:href="#m24db2466d0" y="40.9"/>
      </g>
     </g>
     <g id="text_25">
      <!-- 0.75 -->
      <g transform="translate(310.504375 44.699219)scale(0.1 -0.1)">
       <use xlink:href="#DejaVuSans-48"/>
       <use x="63.623047" xlink:href="#DejaVuSans-46"/>
       <use x="95.410156" xlink:href="#DejaVuSans-55"/>
       <use x="159.033203" xlink:href="#DejaVuSans-53"/>
      </g>
     </g>
    </g>
    <g id="text_26">
     <!-- Val Acc -->
     <g transform="translate(304.424688 122.20625)rotate(-90)scale(0.1 -0.1)">
      <defs>
       <path d="M 28.609375 0 
L 0.78125 72.90625 
L 11.078125 72.90625 
L 34.1875 11.53125 
L 57.328125 72.90625 
L 67.578125 72.90625 
L 39.796875 0 
z
" id="DejaVuSans-86"/>
       <path d="M 34.28125 27.484375 
Q 23.390625 27.484375 19.1875 25 
Q 14.984375 22.515625 14.984375 16.5 
Q 14.984375 11.71875 18.140625 8.90625 
Q 21.296875 6.109375 26.703125 6.109375 
Q 34.1875 6.109375 38.703125 11.40625 
Q 43.21875 16.703125 43.21875 25.484375 
L 43.21875 27.484375 
z
M 52.203125 31.203125 
L 52.203125 0 
L 43.21875 0 
L 43.21875 8.296875 
Q 40.140625 3.328125 35.546875 0.953125 
Q 30.953125 -1.421875 24.3125 -1.421875 
Q 15.921875 -1.421875 10.953125 3.296875 
Q 6 8.015625 6 15.921875 
Q 6 25.140625 12.171875 29.828125 
Q 18.359375 34.515625 30.609375 34.515625 
L 43.21875 34.515625 
L 43.21875 35.40625 
Q 43.21875 41.609375 39.140625 45 
Q 35.0625 48.390625 27.6875 48.390625 
Q 23 48.390625 18.546875 47.265625 
Q 14.109375 46.140625 10.015625 43.890625 
L 10.015625 52.203125 
Q 14.9375 54.109375 19.578125 55.046875 
Q 24.21875 56 28.609375 56 
Q 40.484375 56 46.34375 49.84375 
Q 52.203125 43.703125 52.203125 31.203125 
z
" id="DejaVuSans-97"/>
       <path d="M 9.421875 75.984375 
L 18.40625 75.984375 
L 18.40625 0 
L 9.421875 0 
z
" id="DejaVuSans-108"/>
       <path id="DejaVuSans-32"/>
      </defs>
      <use xlink:href="#DejaVuSans-86"/>
      <use x="60.658203" xlink:href="#DejaVuSans-97"/>
      <use x="121.9375" xlink:href="#DejaVuSans-108"/>
      <use x="149.720703" xlink:href="#DejaVuSans-32"/>
      <use x="181.507812" xlink:href="#DejaVuSans-65"/>
      <use x="248.166016" xlink:href="#DejaVuSans-99"/>
      <use x="303.146484" xlink:href="#DejaVuSans-99"/>
     </g>
    </g>
   </g>
   <g id="line2d_47">
    <path clip-path="url(#p56d561e945)" d="M 350.004461 160.655582 
L 352.072029 160.655582 
L 354.139597 160.655582 
L 356.207165 160.655582 
L 358.274732 160.655582 
L 360.3423 160.655582 
L 362.409868 160.655582 
L 364.477436 146.566698 
L 366.545004 160.655582 
L 368.612572 146.566698 
L 370.68014 118.388884 
L 372.747707 111.344465 
L 374.815275 76.122233 
L 376.882843 167.7 
L 378.950411 153.611116 
L 381.017979 167.7 
L 383.085547 153.611116 
L 385.153115 139.522233 
L 387.220683 146.566698 
L 389.28825 97.255582 
L 391.355818 118.388884 
L 393.423386 104.3 
L 395.490954 111.344465 
L 397.558522 132.477767 
L 399.62609 125.433349 
L 401.693658 139.522233 
L 403.761225 146.566698 
L 405.828793 167.7 
L 407.896361 167.7 
L 409.963929 167.7 
L 412.031497 160.655582 
L 414.099065 160.655582 
L 416.166633 160.655582 
L 418.2342 167.7 
L 420.301768 167.7 
L 422.369336 160.655582 
L 424.436904 125.433349 
L 426.504472 160.655582 
L 428.57204 160.655582 
L 430.639608 153.611116 
L 432.707176 160.655582 
L 434.774743 153.611116 
L 436.842311 153.611116 
L 438.909879 160.655582 
L 440.977447 125.433349 
L 443.045015 125.433349 
L 445.112583 160.655582 
L 447.180151 153.611116 
L 449.247718 125.433349 
L 451.315286 167.7 
L 453.382854 111.344465 
L 455.450422 153.611116 
L 457.51799 76.122233 
L 459.585558 153.611116 
L 461.653126 146.566698 
L 463.720694 118.388884 
L 465.788261 167.7 
L 467.855829 111.344465 
L 469.923397 160.655582 
L 471.990965 132.477767 
L 474.058533 132.477767 
L 476.126101 153.611116 
L 478.193669 132.477767 
L 480.261236 125.433349 
L 482.328804 111.344465 
L 484.396372 160.655582 
L 486.46394 153.611116 
L 488.531508 139.522233 
L 490.599076 146.566698 
L 492.666644 139.522233 
L 494.734211 139.522233 
L 496.801779 153.611116 
L 498.869347 125.433349 
L 500.936915 97.255582 
L 503.004483 125.433349 
L 505.072051 139.522233 
L 507.139619 111.344465 
L 509.207187 153.611116 
L 511.274754 146.566698 
L 513.342322 118.388884 
L 515.40989 104.3 
L 517.477458 118.388884 
L 519.545026 118.388884 
L 521.612594 125.433349 
L 523.680162 83.166651 
L 525.747729 97.255582 
L 527.815297 104.3 
L 529.882865 153.611116 
L 531.950433 111.344465 
L 534.018001 104.3 
L 536.085569 97.255582 
L 538.153137 160.655582 
L 540.220705 125.433349 
L 542.288272 111.344465 
L 544.35584 125.433349 
L 546.423408 139.522233 
L 548.490976 146.566698 
L 550.558544 146.566698 
L 552.626112 153.611116 
L 554.69368 125.433349 
" style="fill:none;stroke:#1f77b4;stroke-linecap:square;stroke-width:1.5;"/>
   </g>
   <g id="line2d_48">
    <path clip-path="url(#p56d561e945)" d="M 350.004461 125.433349 
L 352.072029 90.211116 
L 354.139597 69.077767 
L 356.207165 83.166651 
L 358.274732 76.122233 
L 360.3423 69.077767 
L 362.409868 83.166651 
L 364.477436 69.077767 
L 366.545004 62.033349 
L 368.612572 54.988884 
L 370.68014 47.944465 
L 372.747707 54.988884 
L 374.815275 54.988884 
L 376.882843 47.944465 
L 378.950411 54.988884 
L 381.017979 47.944465 
L 383.085547 47.944465 
L 385.153115 54.988884 
L 387.220683 47.944465 
L 389.28825 47.944465 
L 391.355818 54.988884 
L 393.423386 76.122233 
L 395.490954 40.9 
L 397.558522 76.122233 
L 399.62609 54.988884 
L 401.693658 54.988884 
L 403.761225 47.944465 
L 405.828793 54.988884 
L 407.896361 54.988884 
L 409.963929 54.988884 
L 412.031497 47.944465 
L 414.099065 69.077767 
L 416.166633 47.944465 
L 418.2342 62.033349 
L 420.301768 76.122233 
L 422.369336 69.077767 
L 424.436904 54.988884 
L 426.504472 69.077767 
L 428.57204 62.033349 
L 430.639608 69.077767 
L 432.707176 69.077767 
L 434.774743 83.166651 
L 436.842311 76.122233 
L 438.909879 83.166651 
L 440.977447 62.033349 
L 443.045015 90.211116 
L 445.112583 83.166651 
L 447.180151 76.122233 
L 449.247718 83.166651 
L 451.315286 69.077767 
L 453.382854 62.033349 
L 455.450422 62.033349 
L 457.51799 83.166651 
L 459.585558 83.166651 
L 461.653126 69.077767 
L 463.720694 83.166651 
L 465.788261 69.077767 
L 467.855829 54.988884 
L 469.923397 83.166651 
L 471.990965 83.166651 
L 474.058533 69.077767 
L 476.126101 90.211116 
L 478.193669 83.166651 
L 480.261236 54.988884 
L 482.328804 83.166651 
L 484.396372 90.211116 
L 486.46394 83.166651 
L 488.531508 90.211116 
L 490.599076 83.166651 
L 492.666644 83.166651 
L 494.734211 83.166651 
L 496.801779 62.033349 
L 498.869347 76.122233 
L 500.936915 83.166651 
L 503.004483 69.077767 
L 505.072051 83.166651 
L 507.139619 83.166651 
L 509.207187 76.122233 
L 511.274754 76.122233 
L 513.342322 83.166651 
L 515.40989 76.122233 
L 517.477458 76.122233 
L 519.545026 54.988884 
L 521.612594 83.166651 
L 523.680162 62.033349 
L 525.747729 83.166651 
L 527.815297 69.077767 
L 529.882865 83.166651 
L 531.950433 83.166651 
L 534.018001 76.122233 
L 536.085569 62.033349 
L 538.153137 90.211116 
L 540.220705 83.166651 
L 542.288272 76.122233 
L 544.35584 62.033349 
L 546.423408 76.122233 
L 548.490976 83.166651 
L 550.558544 83.166651 
L 552.626112 83.166651 
L 554.69368 54.988884 
" style="fill:none;stroke:#ff7f0e;stroke-linecap:square;stroke-width:1.5;"/>
   </g>
   <g id="patch_9">
    <path d="M 339.77 174.04 
L 339.77 34.56 
" style="fill:none;stroke:#000000;stroke-linecap:square;stroke-linejoin:miter;stroke-width:0.8;"/>
   </g>
   <g id="patch_10">
    <path d="M 564.92814 174.04 
L 564.92814 34.56 
" style="fill:none;stroke:#000000;stroke-linecap:square;stroke-linejoin:miter;stroke-width:0.8;"/>
   </g>
   <g id="patch_11">
    <path d="M 339.77 174.04 
L 564.92814 174.04 
" style="fill:none;stroke:#000000;stroke-linecap:square;stroke-linejoin:miter;stroke-width:0.8;"/>
   </g>
   <g id="patch_12">
    <path d="M 339.77 34.56 
L 564.92814 34.56 
" style="fill:none;stroke:#000000;stroke-linecap:square;stroke-linejoin:miter;stroke-width:0.8;"/>
   </g>
   <g id="legend_2">
    <g id="patch_13">
     <path d="M 488.53439 71.91625 
L 557.92814 71.91625 
Q 559.92814 71.91625 559.92814 69.91625 
L 559.92814 41.56 
Q 559.92814 39.56 557.92814 39.56 
L 488.53439 39.56 
Q 486.53439 39.56 486.53439 41.56 
L 486.53439 69.91625 
Q 486.53439 71.91625 488.53439 71.91625 
z
" style="fill:#ffffff;opacity:0.8;stroke:#cccccc;stroke-linejoin:miter;"/>
    </g>
    <g id="line2d_49">
     <path d="M 490.53439 47.658438 
L 510.53439 47.658438 
" style="fill:none;stroke:#1f77b4;stroke-linecap:square;stroke-width:1.5;"/>
    </g>
    <g id="line2d_50"/>
    <g id="text_27">
     <!-- GCN -->
     <g transform="translate(518.53439 51.158438)scale(0.1 -0.1)">
      <use xlink:href="#DejaVuSans-71"/>
      <use x="77.490234" xlink:href="#DejaVuSans-67"/>
      <use x="147.314453" xlink:href="#DejaVuSans-78"/>
     </g>
    </g>
    <g id="line2d_51">
     <path d="M 490.53439 62.336563 
L 510.53439 62.336563 
" style="fill:none;stroke:#ff7f0e;stroke-linecap:square;stroke-width:1.5;"/>
    </g>
    <g id="line2d_52"/>
    <g id="text_28">
     <!-- DGCNN -->
     <g transform="translate(518.53439 65.836563)scale(0.1 -0.1)">
      <use xlink:href="#DejaVuSans-68"/>
      <use x="77.001953" xlink:href="#DejaVuSans-71"/>
      <use x="154.492188" xlink:href="#DejaVuSans-67"/>
      <use x="224.316406" xlink:href="#DejaVuSans-78"/>
      <use x="299.121094" xlink:href="#DejaVuSans-78"/>
     </g>
    </g>
   </g>
  </g>
  <g id="text_29">
   <!-- PROTEINS -->
   <g transform="translate(257.96625 13.438125)scale(0.12 -0.12)">
    <defs>
     <path d="M 19.671875 64.796875 
L 19.671875 37.40625 
L 32.078125 37.40625 
Q 38.96875 37.40625 42.71875 40.96875 
Q 46.484375 44.53125 46.484375 51.125 
Q 46.484375 57.671875 42.71875 61.234375 
Q 38.96875 64.796875 32.078125 64.796875 
z
M 9.8125 72.90625 
L 32.078125 72.90625 
Q 44.34375 72.90625 50.609375 67.359375 
Q 56.890625 61.8125 56.890625 51.125 
Q 56.890625 40.328125 50.609375 34.8125 
Q 44.34375 29.296875 32.078125 29.296875 
L 19.671875 29.296875 
L 19.671875 0 
L 9.8125 0 
z
" id="DejaVuSans-80"/>
     <path d="M 44.390625 34.1875 
Q 47.5625 33.109375 50.5625 29.59375 
Q 53.5625 26.078125 56.59375 19.921875 
L 66.609375 0 
L 56 0 
L 46.6875 18.703125 
Q 43.0625 26.03125 39.671875 28.421875 
Q 36.28125 30.8125 30.421875 30.8125 
L 19.671875 30.8125 
L 19.671875 0 
L 9.8125 0 
L 9.8125 72.90625 
L 32.078125 72.90625 
Q 44.578125 72.90625 50.734375 67.671875 
Q 56.890625 62.453125 56.890625 51.90625 
Q 56.890625 45.015625 53.6875 40.46875 
Q 50.484375 35.9375 44.390625 34.1875 
z
M 19.671875 64.796875 
L 19.671875 38.921875 
L 32.078125 38.921875 
Q 39.203125 38.921875 42.84375 42.21875 
Q 46.484375 45.515625 46.484375 51.90625 
Q 46.484375 58.296875 42.84375 61.546875 
Q 39.203125 64.796875 32.078125 64.796875 
z
" id="DejaVuSans-82"/>
     <path d="M 39.40625 66.21875 
Q 28.65625 66.21875 22.328125 58.203125 
Q 16.015625 50.203125 16.015625 36.375 
Q 16.015625 22.609375 22.328125 14.59375 
Q 28.65625 6.59375 39.40625 6.59375 
Q 50.140625 6.59375 56.421875 14.59375 
Q 62.703125 22.609375 62.703125 36.375 
Q 62.703125 50.203125 56.421875 58.203125 
Q 50.140625 66.21875 39.40625 66.21875 
z
M 39.40625 74.21875 
Q 54.734375 74.21875 63.90625 63.9375 
Q 73.09375 53.65625 73.09375 36.375 
Q 73.09375 19.140625 63.90625 8.859375 
Q 54.734375 -1.421875 39.40625 -1.421875 
Q 24.03125 -1.421875 14.8125 8.828125 
Q 5.609375 19.09375 5.609375 36.375 
Q 5.609375 53.65625 14.8125 63.9375 
Q 24.03125 74.21875 39.40625 74.21875 
z
" id="DejaVuSans-79"/>
     <path d="M -0.296875 72.90625 
L 61.375 72.90625 
L 61.375 64.59375 
L 35.5 64.59375 
L 35.5 0 
L 25.59375 0 
L 25.59375 64.59375 
L -0.296875 64.59375 
z
" id="DejaVuSans-84"/>
     <path d="M 9.8125 72.90625 
L 19.671875 72.90625 
L 19.671875 0 
L 9.8125 0 
z
" id="DejaVuSans-73"/>
     <path d="M 53.515625 70.515625 
L 53.515625 60.890625 
Q 47.90625 63.578125 42.921875 64.890625 
Q 37.9375 66.21875 33.296875 66.21875 
Q 25.25 66.21875 20.875 63.09375 
Q 16.5 59.96875 16.5 54.203125 
Q 16.5 49.359375 19.40625 46.890625 
Q 22.3125 44.4375 30.421875 42.921875 
L 36.375 41.703125 
Q 47.40625 39.59375 52.65625 34.296875 
Q 57.90625 29 57.90625 20.125 
Q 57.90625 9.515625 50.796875 4.046875 
Q 43.703125 -1.421875 29.984375 -1.421875 
Q 24.8125 -1.421875 18.96875 -0.25 
Q 13.140625 0.921875 6.890625 3.21875 
L 6.890625 13.375 
Q 12.890625 10.015625 18.65625 8.296875 
Q 24.421875 6.59375 29.984375 6.59375 
Q 38.421875 6.59375 43.015625 9.90625 
Q 47.609375 13.234375 47.609375 19.390625 
Q 47.609375 24.75 44.3125 27.78125 
Q 41.015625 30.8125 33.5 32.328125 
L 27.484375 33.5 
Q 16.453125 35.6875 11.515625 40.375 
Q 6.59375 45.0625 6.59375 53.421875 
Q 6.59375 63.09375 13.40625 68.65625 
Q 20.21875 74.21875 32.171875 74.21875 
Q 37.3125 74.21875 42.625 73.28125 
Q 47.953125 72.359375 53.515625 70.515625 
z
" id="DejaVuSans-83"/>
    </defs>
    <use xlink:href="#DejaVuSans-80"/>
    <use x="60.302734" xlink:href="#DejaVuSans-82"/>
    <use x="129.785156" xlink:href="#DejaVuSans-79"/>
    <use x="208.496094" xlink:href="#DejaVuSans-84"/>
    <use x="269.580078" xlink:href="#DejaVuSans-69"/>
    <use x="332.763672" xlink:href="#DejaVuSans-73"/>
    <use x="362.255859" xlink:href="#DejaVuSans-78"/>
    <use x="437.060547" xlink:href="#DejaVuSans-83"/>
   </g>
  </g>
 </g>
 <defs>
  <clipPath id="pf3c2d84291">
   <rect height="139.48" width="225.15814" x="54.02" y="34.56"/>
  </clipPath>
  <clipPath id="p56d561e945">
   <rect height="139.48" width="225.15814" x="339.77" y="34.56"/>
  </clipPath>
 </defs>
</svg>
