<?xml version="1.0" encoding="utf-8" standalone="no"?>
<!DOCTYPE svg PUBLIC "-//W3C//DTD SVG 1.1//EN"
  "http://www.w3.org/Graphics/SVG/1.1/DTD/svg11.dtd">
<!-- Created with matplotlib (https://matplotlib.org/) -->
<svg height="216pt" version="1.1" viewBox="0 0 576 216" width="576pt" xmlns="http://www.w3.org/2000/svg" xmlns:xlink="http://www.w3.org/1999/xlink">
 <metadata>
  <rdf:RDF xmlns:cc="http://creativecommons.org/ns#" xmlns:dc="http://purl.org/dc/elements/1.1/" xmlns:rdf="http://www.w3.org/1999/02/22-rdf-syntax-ns#">
   <cc:Work>
    <dc:type rdf:resource="http://purl.org/dc/dcmitype/StillImage"/>
    <dc:date>2021-04-11T18:23:43.500049</dc:date>
    <dc:format>image/svg+xml</dc:format>
    <dc:creator>
     <cc:Agent>
      <dc:title>Matplotlib v3.3.3, https://matplotlib.org/</dc:title>
     </cc:Agent>
    </dc:creator>
   </cc:Work>
  </rdf:RDF>
 </metadata>
 <defs>
  <style type="text/css">*{stroke-linecap:butt;stroke-linejoin:round;}</style>
 </defs>
 <g id="figure_1">
  <g id="patch_1">
   <path d="M 0 216 
L 576 216 
L 576 0 
L 0 0 
z
" style="fill:#ffffff;"/>
  </g>
  <g id="axes_1">
   <g id="patch_2">
    <path d="M 47.72 174.04 
L 282.32814 174.04 
L 282.32814 34.56 
L 47.72 34.56 
z
" style="fill:#ffffff;"/>
   </g>
   <g id="matplotlib.axis_1">
    <g id="xtick_1">
     <g id="line2d_1">
      <path clip-path="url(#p8951bdcf08)" d="M 56.229662 174.04 
L 56.229662 34.56 
" style="fill:none;stroke:#b0b0b0;stroke-linecap:square;stroke-width:0.8;"/>
     </g>
     <g id="line2d_2">
      <defs>
       <path d="M 0 0 
L 0 3.5 
" id="m77fcee8be7" style="stroke:#000000;stroke-width:0.8;"/>
      </defs>
      <g>
       <use style="stroke:#000000;stroke-width:0.8;" x="56.229662" xlink:href="#m77fcee8be7" y="174.04"/>
      </g>
     </g>
     <g id="text_1">
      <!-- 0 -->
      <g transform="translate(53.048412 188.638438)scale(0.1 -0.1)">
       <defs>
        <path d="M 31.78125 66.40625 
Q 24.171875 66.40625 20.328125 58.90625 
Q 16.5 51.421875 16.5 36.375 
Q 16.5 21.390625 20.328125 13.890625 
Q 24.171875 6.390625 31.78125 6.390625 
Q 39.453125 6.390625 43.28125 13.890625 
Q 47.125 21.390625 47.125 36.375 
Q 47.125 51.421875 43.28125 58.90625 
Q 39.453125 66.40625 31.78125 66.40625 
z
M 31.78125 74.21875 
Q 44.046875 74.21875 50.515625 64.515625 
Q 56.984375 54.828125 56.984375 36.375 
Q 56.984375 17.96875 50.515625 8.265625 
Q 44.046875 -1.421875 31.78125 -1.421875 
Q 19.53125 -1.421875 13.0625 8.265625 
Q 6.59375 17.96875 6.59375 36.375 
Q 6.59375 54.828125 13.0625 64.515625 
Q 19.53125 74.21875 31.78125 74.21875 
z
" id="DejaVuSans-48"/>
       </defs>
       <use xlink:href="#DejaVuSans-48"/>
      </g>
     </g>
    </g>
    <g id="xtick_2">
     <g id="line2d_3">
      <path clip-path="url(#p8951bdcf08)" d="M 99.316556 174.04 
L 99.316556 34.56 
" style="fill:none;stroke:#b0b0b0;stroke-linecap:square;stroke-width:0.8;"/>
     </g>
     <g id="line2d_4">
      <g>
       <use style="stroke:#000000;stroke-width:0.8;" x="99.316556" xlink:href="#m77fcee8be7" y="174.04"/>
      </g>
     </g>
     <g id="text_2">
      <!-- 20 -->
      <g transform="translate(92.954056 188.638438)scale(0.1 -0.1)">
       <defs>
        <path d="M 19.1875 8.296875 
L 53.609375 8.296875 
L 53.609375 0 
L 7.328125 0 
L 7.328125 8.296875 
Q 12.9375 14.109375 22.625 23.890625 
Q 32.328125 33.6875 34.8125 36.53125 
Q 39.546875 41.84375 41.421875 45.53125 
Q 43.3125 49.21875 43.3125 52.78125 
Q 43.3125 58.59375 39.234375 62.25 
Q 35.15625 65.921875 28.609375 65.921875 
Q 23.96875 65.921875 18.8125 64.3125 
Q 13.671875 62.703125 7.8125 59.421875 
L 7.8125 69.390625 
Q 13.765625 71.78125 18.9375 73 
Q 24.125 74.21875 28.421875 74.21875 
Q 39.75 74.21875 46.484375 68.546875 
Q 53.21875 62.890625 53.21875 53.421875 
Q 53.21875 48.921875 51.53125 44.890625 
Q 49.859375 40.875 45.40625 35.40625 
Q 44.1875 33.984375 37.640625 27.21875 
Q 31.109375 20.453125 19.1875 8.296875 
z
" id="DejaVuSans-50"/>
       </defs>
       <use xlink:href="#DejaVuSans-50"/>
       <use x="63.623047" xlink:href="#DejaVuSans-48"/>
      </g>
     </g>
    </g>
    <g id="xtick_3">
     <g id="line2d_5">
      <path clip-path="url(#p8951bdcf08)" d="M 142.403451 174.04 
L 142.403451 34.56 
" style="fill:none;stroke:#b0b0b0;stroke-linecap:square;stroke-width:0.8;"/>
     </g>
     <g id="line2d_6">
      <g>
       <use style="stroke:#000000;stroke-width:0.8;" x="142.403451" xlink:href="#m77fcee8be7" y="174.04"/>
      </g>
     </g>
     <g id="text_3">
      <!-- 40 -->
      <g transform="translate(136.040951 188.638438)scale(0.1 -0.1)">
       <defs>
        <path d="M 37.796875 64.3125 
L 12.890625 25.390625 
L 37.796875 25.390625 
z
M 35.203125 72.90625 
L 47.609375 72.90625 
L 47.609375 25.390625 
L 58.015625 25.390625 
L 58.015625 17.1875 
L 47.609375 17.1875 
L 47.609375 0 
L 37.796875 0 
L 37.796875 17.1875 
L 4.890625 17.1875 
L 4.890625 26.703125 
z
" id="DejaVuSans-52"/>
       </defs>
       <use xlink:href="#DejaVuSans-52"/>
       <use x="63.623047" xlink:href="#DejaVuSans-48"/>
      </g>
     </g>
    </g>
    <g id="xtick_4">
     <g id="line2d_7">
      <path clip-path="url(#p8951bdcf08)" d="M 185.490345 174.04 
L 185.490345 34.56 
" style="fill:none;stroke:#b0b0b0;stroke-linecap:square;stroke-width:0.8;"/>
     </g>
     <g id="line2d_8">
      <g>
       <use style="stroke:#000000;stroke-width:0.8;" x="185.490345" xlink:href="#m77fcee8be7" y="174.04"/>
      </g>
     </g>
     <g id="text_4">
      <!-- 60 -->
      <g transform="translate(179.127845 188.638438)scale(0.1 -0.1)">
       <defs>
        <path d="M 33.015625 40.375 
Q 26.375 40.375 22.484375 35.828125 
Q 18.609375 31.296875 18.609375 23.390625 
Q 18.609375 15.53125 22.484375 10.953125 
Q 26.375 6.390625 33.015625 6.390625 
Q 39.65625 6.390625 43.53125 10.953125 
Q 47.40625 15.53125 47.40625 23.390625 
Q 47.40625 31.296875 43.53125 35.828125 
Q 39.65625 40.375 33.015625 40.375 
z
M 52.59375 71.296875 
L 52.59375 62.3125 
Q 48.875 64.0625 45.09375 64.984375 
Q 41.3125 65.921875 37.59375 65.921875 
Q 27.828125 65.921875 22.671875 59.328125 
Q 17.53125 52.734375 16.796875 39.40625 
Q 19.671875 43.65625 24.015625 45.921875 
Q 28.375 48.1875 33.59375 48.1875 
Q 44.578125 48.1875 50.953125 41.515625 
Q 57.328125 34.859375 57.328125 23.390625 
Q 57.328125 12.15625 50.6875 5.359375 
Q 44.046875 -1.421875 33.015625 -1.421875 
Q 20.359375 -1.421875 13.671875 8.265625 
Q 6.984375 17.96875 6.984375 36.375 
Q 6.984375 53.65625 15.1875 63.9375 
Q 23.390625 74.21875 37.203125 74.21875 
Q 40.921875 74.21875 44.703125 73.484375 
Q 48.484375 72.75 52.59375 71.296875 
z
" id="DejaVuSans-54"/>
       </defs>
       <use xlink:href="#DejaVuSans-54"/>
       <use x="63.623047" xlink:href="#DejaVuSans-48"/>
      </g>
     </g>
    </g>
    <g id="xtick_5">
     <g id="line2d_9">
      <path clip-path="url(#p8951bdcf08)" d="M 228.57724 174.04 
L 228.57724 34.56 
" style="fill:none;stroke:#b0b0b0;stroke-linecap:square;stroke-width:0.8;"/>
     </g>
     <g id="line2d_10">
      <g>
       <use style="stroke:#000000;stroke-width:0.8;" x="228.57724" xlink:href="#m77fcee8be7" y="174.04"/>
      </g>
     </g>
     <g id="text_5">
      <!-- 80 -->
      <g transform="translate(222.21474 188.638438)scale(0.1 -0.1)">
       <defs>
        <path d="M 31.78125 34.625 
Q 24.75 34.625 20.71875 30.859375 
Q 16.703125 27.09375 16.703125 20.515625 
Q 16.703125 13.921875 20.71875 10.15625 
Q 24.75 6.390625 31.78125 6.390625 
Q 38.8125 6.390625 42.859375 10.171875 
Q 46.921875 13.96875 46.921875 20.515625 
Q 46.921875 27.09375 42.890625 30.859375 
Q 38.875 34.625 31.78125 34.625 
z
M 21.921875 38.8125 
Q 15.578125 40.375 12.03125 44.71875 
Q 8.5 49.078125 8.5 55.328125 
Q 8.5 64.0625 14.71875 69.140625 
Q 20.953125 74.21875 31.78125 74.21875 
Q 42.671875 74.21875 48.875 69.140625 
Q 55.078125 64.0625 55.078125 55.328125 
Q 55.078125 49.078125 51.53125 44.71875 
Q 48 40.375 41.703125 38.8125 
Q 48.828125 37.15625 52.796875 32.3125 
Q 56.78125 27.484375 56.78125 20.515625 
Q 56.78125 9.90625 50.3125 4.234375 
Q 43.84375 -1.421875 31.78125 -1.421875 
Q 19.734375 -1.421875 13.25 4.234375 
Q 6.78125 9.90625 6.78125 20.515625 
Q 6.78125 27.484375 10.78125 32.3125 
Q 14.796875 37.15625 21.921875 38.8125 
z
M 18.3125 54.390625 
Q 18.3125 48.734375 21.84375 45.5625 
Q 25.390625 42.390625 31.78125 42.390625 
Q 38.140625 42.390625 41.71875 45.5625 
Q 45.3125 48.734375 45.3125 54.390625 
Q 45.3125 60.0625 41.71875 63.234375 
Q 38.140625 66.40625 31.78125 66.40625 
Q 25.390625 66.40625 21.84375 63.234375 
Q 18.3125 60.0625 18.3125 54.390625 
z
" id="DejaVuSans-56"/>
       </defs>
       <use xlink:href="#DejaVuSans-56"/>
       <use x="63.623047" xlink:href="#DejaVuSans-48"/>
      </g>
     </g>
    </g>
    <g id="xtick_6">
     <g id="line2d_11">
      <path clip-path="url(#p8951bdcf08)" d="M 271.664134 174.04 
L 271.664134 34.56 
" style="fill:none;stroke:#b0b0b0;stroke-linecap:square;stroke-width:0.8;"/>
     </g>
     <g id="line2d_12">
      <g>
       <use style="stroke:#000000;stroke-width:0.8;" x="271.664134" xlink:href="#m77fcee8be7" y="174.04"/>
      </g>
     </g>
     <g id="text_6">
      <!-- 100 -->
      <g transform="translate(262.120384 188.638438)scale(0.1 -0.1)">
       <defs>
        <path d="M 12.40625 8.296875 
L 28.515625 8.296875 
L 28.515625 63.921875 
L 10.984375 60.40625 
L 10.984375 69.390625 
L 28.421875 72.90625 
L 38.28125 72.90625 
L 38.28125 8.296875 
L 54.390625 8.296875 
L 54.390625 0 
L 12.40625 0 
z
" id="DejaVuSans-49"/>
       </defs>
       <use xlink:href="#DejaVuSans-49"/>
       <use x="63.623047" xlink:href="#DejaVuSans-48"/>
       <use x="127.246094" xlink:href="#DejaVuSans-48"/>
      </g>
     </g>
    </g>
    <g id="text_7">
     <!-- Epochs -->
     <g transform="translate(147.108445 202.316563)scale(0.1 -0.1)">
      <defs>
       <path d="M 9.8125 72.90625 
L 55.90625 72.90625 
L 55.90625 64.59375 
L 19.671875 64.59375 
L 19.671875 43.015625 
L 54.390625 43.015625 
L 54.390625 34.71875 
L 19.671875 34.71875 
L 19.671875 8.296875 
L 56.78125 8.296875 
L 56.78125 0 
L 9.8125 0 
z
" id="DejaVuSans-69"/>
       <path d="M 18.109375 8.203125 
L 18.109375 -20.796875 
L 9.078125 -20.796875 
L 9.078125 54.6875 
L 18.109375 54.6875 
L 18.109375 46.390625 
Q 20.953125 51.265625 25.265625 53.625 
Q 29.59375 56 35.59375 56 
Q 45.5625 56 51.78125 48.09375 
Q 58.015625 40.1875 58.015625 27.296875 
Q 58.015625 14.40625 51.78125 6.484375 
Q 45.5625 -1.421875 35.59375 -1.421875 
Q 29.59375 -1.421875 25.265625 0.953125 
Q 20.953125 3.328125 18.109375 8.203125 
z
M 48.6875 27.296875 
Q 48.6875 37.203125 44.609375 42.84375 
Q 40.53125 48.484375 33.40625 48.484375 
Q 26.265625 48.484375 22.1875 42.84375 
Q 18.109375 37.203125 18.109375 27.296875 
Q 18.109375 17.390625 22.1875 11.75 
Q 26.265625 6.109375 33.40625 6.109375 
Q 40.53125 6.109375 44.609375 11.75 
Q 48.6875 17.390625 48.6875 27.296875 
z
" id="DejaVuSans-112"/>
       <path d="M 30.609375 48.390625 
Q 23.390625 48.390625 19.1875 42.75 
Q 14.984375 37.109375 14.984375 27.296875 
Q 14.984375 17.484375 19.15625 11.84375 
Q 23.34375 6.203125 30.609375 6.203125 
Q 37.796875 6.203125 41.984375 11.859375 
Q 46.1875 17.53125 46.1875 27.296875 
Q 46.1875 37.015625 41.984375 42.703125 
Q 37.796875 48.390625 30.609375 48.390625 
z
M 30.609375 56 
Q 42.328125 56 49.015625 48.375 
Q 55.71875 40.765625 55.71875 27.296875 
Q 55.71875 13.875 49.015625 6.21875 
Q 42.328125 -1.421875 30.609375 -1.421875 
Q 18.84375 -1.421875 12.171875 6.21875 
Q 5.515625 13.875 5.515625 27.296875 
Q 5.515625 40.765625 12.171875 48.375 
Q 18.84375 56 30.609375 56 
z
" id="DejaVuSans-111"/>
       <path d="M 48.78125 52.59375 
L 48.78125 44.1875 
Q 44.96875 46.296875 41.140625 47.34375 
Q 37.3125 48.390625 33.40625 48.390625 
Q 24.65625 48.390625 19.8125 42.84375 
Q 14.984375 37.3125 14.984375 27.296875 
Q 14.984375 17.28125 19.8125 11.734375 
Q 24.65625 6.203125 33.40625 6.203125 
Q 37.3125 6.203125 41.140625 7.25 
Q 44.96875 8.296875 48.78125 10.40625 
L 48.78125 2.09375 
Q 45.015625 0.34375 40.984375 -0.53125 
Q 36.96875 -1.421875 32.421875 -1.421875 
Q 20.0625 -1.421875 12.78125 6.34375 
Q 5.515625 14.109375 5.515625 27.296875 
Q 5.515625 40.671875 12.859375 48.328125 
Q 20.21875 56 33.015625 56 
Q 37.15625 56 41.109375 55.140625 
Q 45.0625 54.296875 48.78125 52.59375 
z
" id="DejaVuSans-99"/>
       <path d="M 54.890625 33.015625 
L 54.890625 0 
L 45.90625 0 
L 45.90625 32.71875 
Q 45.90625 40.484375 42.875 44.328125 
Q 39.84375 48.1875 33.796875 48.1875 
Q 26.515625 48.1875 22.3125 43.546875 
Q 18.109375 38.921875 18.109375 30.90625 
L 18.109375 0 
L 9.078125 0 
L 9.078125 75.984375 
L 18.109375 75.984375 
L 18.109375 46.1875 
Q 21.34375 51.125 25.703125 53.5625 
Q 30.078125 56 35.796875 56 
Q 45.21875 56 50.046875 50.171875 
Q 54.890625 44.34375 54.890625 33.015625 
z
" id="DejaVuSans-104"/>
       <path d="M 44.28125 53.078125 
L 44.28125 44.578125 
Q 40.484375 46.53125 36.375 47.5 
Q 32.28125 48.484375 27.875 48.484375 
Q 21.1875 48.484375 17.84375 46.4375 
Q 14.5 44.390625 14.5 40.28125 
Q 14.5 37.15625 16.890625 35.375 
Q 19.28125 33.59375 26.515625 31.984375 
L 29.59375 31.296875 
Q 39.15625 29.25 43.1875 25.515625 
Q 47.21875 21.78125 47.21875 15.09375 
Q 47.21875 7.46875 41.1875 3.015625 
Q 35.15625 -1.421875 24.609375 -1.421875 
Q 20.21875 -1.421875 15.453125 -0.5625 
Q 10.6875 0.296875 5.421875 2 
L 5.421875 11.28125 
Q 10.40625 8.6875 15.234375 7.390625 
Q 20.0625 6.109375 24.8125 6.109375 
Q 31.15625 6.109375 34.5625 8.28125 
Q 37.984375 10.453125 37.984375 14.40625 
Q 37.984375 18.0625 35.515625 20.015625 
Q 33.0625 21.96875 24.703125 23.78125 
L 21.578125 24.515625 
Q 13.234375 26.265625 9.515625 29.90625 
Q 5.8125 33.546875 5.8125 39.890625 
Q 5.8125 47.609375 11.28125 51.796875 
Q 16.75 56 26.8125 56 
Q 31.78125 56 36.171875 55.265625 
Q 40.578125 54.546875 44.28125 53.078125 
z
" id="DejaVuSans-115"/>
      </defs>
      <use xlink:href="#DejaVuSans-69"/>
      <use x="63.183594" xlink:href="#DejaVuSans-112"/>
      <use x="126.660156" xlink:href="#DejaVuSans-111"/>
      <use x="187.841797" xlink:href="#DejaVuSans-99"/>
      <use x="242.822266" xlink:href="#DejaVuSans-104"/>
      <use x="306.201172" xlink:href="#DejaVuSans-115"/>
     </g>
    </g>
   </g>
   <g id="matplotlib.axis_2">
    <g id="ytick_1">
     <g id="line2d_13">
      <path clip-path="url(#p8951bdcf08)" d="M 47.72 166.833118 
L 282.32814 166.833118 
" style="fill:none;stroke:#b0b0b0;stroke-linecap:square;stroke-width:0.8;"/>
     </g>
     <g id="line2d_14">
      <defs>
       <path d="M 0 0 
L -3.5 0 
" id="m8fc065b97c" style="stroke:#000000;stroke-width:0.8;"/>
      </defs>
      <g>
       <use style="stroke:#000000;stroke-width:0.8;" x="47.72" xlink:href="#m8fc065b97c" y="166.833118"/>
      </g>
     </g>
     <g id="text_8">
      <!-- 0.2 -->
      <g transform="translate(24.816875 170.632337)scale(0.1 -0.1)">
       <defs>
        <path d="M 10.6875 12.40625 
L 21 12.40625 
L 21 0 
L 10.6875 0 
z
" id="DejaVuSans-46"/>
       </defs>
       <use xlink:href="#DejaVuSans-48"/>
       <use x="63.623047" xlink:href="#DejaVuSans-46"/>
       <use x="95.410156" xlink:href="#DejaVuSans-50"/>
      </g>
     </g>
    </g>
    <g id="ytick_2">
     <g id="line2d_15">
      <path clip-path="url(#p8951bdcf08)" d="M 47.72 127.911542 
L 282.32814 127.911542 
" style="fill:none;stroke:#b0b0b0;stroke-linecap:square;stroke-width:0.8;"/>
     </g>
     <g id="line2d_16">
      <g>
       <use style="stroke:#000000;stroke-width:0.8;" x="47.72" xlink:href="#m8fc065b97c" y="127.911542"/>
      </g>
     </g>
     <g id="text_9">
      <!-- 0.4 -->
      <g transform="translate(24.816875 131.710761)scale(0.1 -0.1)">
       <use xlink:href="#DejaVuSans-48"/>
       <use x="63.623047" xlink:href="#DejaVuSans-46"/>
       <use x="95.410156" xlink:href="#DejaVuSans-52"/>
      </g>
     </g>
    </g>
    <g id="ytick_3">
     <g id="line2d_17">
      <path clip-path="url(#p8951bdcf08)" d="M 47.72 88.989966 
L 282.32814 88.989966 
" style="fill:none;stroke:#b0b0b0;stroke-linecap:square;stroke-width:0.8;"/>
     </g>
     <g id="line2d_18">
      <g>
       <use style="stroke:#000000;stroke-width:0.8;" x="47.72" xlink:href="#m8fc065b97c" y="88.989966"/>
      </g>
     </g>
     <g id="text_10">
      <!-- 0.6 -->
      <g transform="translate(24.816875 92.789185)scale(0.1 -0.1)">
       <use xlink:href="#DejaVuSans-48"/>
       <use x="63.623047" xlink:href="#DejaVuSans-46"/>
       <use x="95.410156" xlink:href="#DejaVuSans-54"/>
      </g>
     </g>
    </g>
    <g id="ytick_4">
     <g id="line2d_19">
      <path clip-path="url(#p8951bdcf08)" d="M 47.72 50.06839 
L 282.32814 50.06839 
" style="fill:none;stroke:#b0b0b0;stroke-linecap:square;stroke-width:0.8;"/>
     </g>
     <g id="line2d_20">
      <g>
       <use style="stroke:#000000;stroke-width:0.8;" x="47.72" xlink:href="#m8fc065b97c" y="50.06839"/>
      </g>
     </g>
     <g id="text_11">
      <!-- 0.8 -->
      <g transform="translate(24.816875 53.867608)scale(0.1 -0.1)">
       <use xlink:href="#DejaVuSans-48"/>
       <use x="63.623047" xlink:href="#DejaVuSans-46"/>
       <use x="95.410156" xlink:href="#DejaVuSans-56"/>
      </g>
     </g>
    </g>
    <g id="text_12">
     <!-- Acc -->
     <g transform="translate(18.737187 113.13125)rotate(-90)scale(0.1 -0.1)">
      <defs>
       <path d="M 34.1875 63.1875 
L 20.796875 26.90625 
L 47.609375 26.90625 
z
M 28.609375 72.90625 
L 39.796875 72.90625 
L 67.578125 0 
L 57.328125 0 
L 50.6875 18.703125 
L 17.828125 18.703125 
L 11.1875 0 
L 0.78125 0 
z
" id="DejaVuSans-65"/>
      </defs>
      <use xlink:href="#DejaVuSans-65"/>
      <use x="66.658203" xlink:href="#DejaVuSans-99"/>
      <use x="121.638672" xlink:href="#DejaVuSans-99"/>
     </g>
    </g>
   </g>
   <g id="line2d_21">
    <path clip-path="url(#p8951bdcf08)" d="M 58.384006 167.185749 
L 60.538351 116.274738 
L 62.692696 92.76605 
L 64.847041 80.056662 
L 67.001385 77.705796 
L 69.15573 76.309966 
L 71.310075 72.122476 
L 73.464419 70.726646 
L 75.618764 68.743103 
L 77.773109 68.522712 
L 79.927454 71.09398 
L 82.081798 69.036965 
L 84.236143 66.318777 
L 86.390488 65.36373 
L 88.544833 65.510661 
L 90.699177 64.555625 
L 92.853522 64.482153 
L 95.007867 64.482153 
L 97.162211 61.690494 
L 99.316556 64.776016 
L 101.470901 60.515067 
L 103.625246 61.543574 
L 105.77959 60.882389 
L 107.933935 61.543574 
L 110.08828 62.057828 
L 112.242624 63.086324 
L 114.396969 62.865932 
L 116.551314 60.294675 
L 118.705659 58.825374 
L 120.860003 58.751914 
L 123.014348 59.119237 
L 125.168693 59.853881 
L 127.323038 58.751914 
L 129.477382 56.547968 
L 131.631727 60.221204 
L 133.786072 58.384592 
L 135.940416 58.531523 
L 138.094761 59.192696 
L 140.249106 58.531523 
L 142.403451 57.209153 
L 144.557795 58.164201 
L 146.71214 59.192696 
L 148.866485 59.045765 
L 151.02083 56.033714 
L 153.175174 56.841831 
L 155.329519 54.637896 
L 157.483864 56.107186 
L 159.638208 58.164201 
L 161.792553 55.592932 
L 163.946898 58.972305 
L 166.101243 57.503016 
L 168.255587 56.254117 
L 170.409932 55.666392 
L 172.564277 56.254117 
L 174.718622 57.429544 
L 176.872966 55.519472 
L 179.027311 56.327577 
L 181.181656 56.033714 
L 183.336 54.490965 
L 185.490345 56.107186 
L 187.64469 53.75632 
L 189.799035 57.943798 
L 191.953379 56.988762 
L 194.107724 56.91529 
L 196.262069 51.772765 
L 198.416413 57.503016 
L 200.570758 54.417493 
L 202.725103 52.213559 
L 204.879448 56.547968 
L 207.033792 55.960254 
L 209.188137 54.931747 
L 211.342482 53.095135 
L 213.496827 52.727812 
L 215.651171 58.31112 
L 217.805516 53.90324 
L 219.959861 55.446001 
L 222.114205 55.519472 
L 224.26855 54.931747 
L 226.422895 53.90324 
L 228.57724 53.682848 
L 230.731584 54.050171 
L 232.885929 55.592932 
L 235.040274 55.666392 
L 237.194619 51.03812 
L 239.348963 56.033714 
L 241.503308 53.462457 
L 243.657653 56.327577 
L 245.811997 56.180646 
L 247.966342 54.344033 
L 250.120687 54.344033 
L 252.275032 55.666392 
L 254.429376 53.609389 
L 256.583721 53.90324 
L 258.738066 54.050171 
L 260.89241 54.564425 
L 263.046755 52.507421 
L 265.2011 52.580881 
L 267.355445 52.507421 
L 269.509789 52.874744 
L 271.664134 52.43395 
" style="fill:none;stroke:#1f77b4;stroke-linecap:square;stroke-width:1.5;"/>
   </g>
   <g id="line2d_22">
    <path clip-path="url(#p8951bdcf08)" d="M 58.384006 167.038818 
L 60.538351 145.660602 
L 62.692696 128.984126 
L 64.847041 125.017034 
L 67.001385 113.409618 
L 69.15573 108.487484 
L 71.310075 104.006137 
L 73.464419 97.614713 
L 75.618764 96.586206 
L 77.773109 89.900931 
L 79.927454 89.680528 
L 82.081798 87.843916 
L 84.236143 86.521557 
L 86.390488 84.317611 
L 88.544833 77.411933 
L 90.699177 69.84507 
L 92.853522 65.437201 
L 95.007867 62.939392 
L 97.162211 58.531523 
L 99.316556 56.180646 
L 101.470901 53.90324 
L 103.625246 55.005218 
L 105.77959 55.15215 
L 107.933935 54.637896 
L 110.08828 54.490965 
L 112.242624 54.931747 
L 114.396969 51.846236 
L 116.551314 53.315526 
L 118.705659 51.258523 
L 120.860003 50.597338 
L 123.014348 51.552374 
L 125.168693 49.274968 
L 127.323038 50.376947 
L 129.477382 49.56883 
L 131.631727 49.936153 
L 133.786072 49.054577 
L 135.940416 48.319932 
L 138.094761 48.540323 
L 140.249106 48.687254 
L 142.403451 48.613794 
L 144.557795 47.438356 
L 146.71214 46.924102 
L 148.866485 47.217964 
L 151.02083 49.789221 
L 153.175174 48.687254 
L 155.329519 47.732218 
L 157.483864 46.924102 
L 159.638208 47.438356 
L 161.792553 48.026069 
L 163.946898 47.071033 
L 166.101243 46.115985 
L 168.255587 46.77717 
L 170.409932 47.511815 
L 172.564277 46.924102 
L 174.718622 46.630239 
L 176.872966 47.732218 
L 179.027311 49.274968 
L 181.181656 47.732218 
L 183.336 48.466863 
L 185.490345 48.687254 
L 187.64469 47.805678 
L 189.799035 48.834185 
L 191.953379 49.128036 
L 194.107724 49.421899 
L 196.262069 47.438356 
L 198.416413 48.687254 
L 200.570758 50.230015 
L 202.725103 51.185051 
L 204.879448 49.56883 
L 207.033792 50.817729 
L 209.188137 50.96466 
L 211.342482 52.507421 
L 213.496827 54.197102 
L 215.651171 53.462457 
L 217.805516 55.813323 
L 219.959861 58.31112 
L 222.114205 59.192696 
L 224.26855 58.898845 
L 226.422895 59.486559 
L 228.57724 59.192696 
L 230.731584 60.368135 
L 232.885929 61.543574 
L 235.040274 64.555625 
L 237.194619 64.849476 
L 239.348963 66.098374 
L 241.503308 67.567676 
L 243.657653 67.494204 
L 245.811997 72.783661 
L 247.966342 72.63673 
L 250.120687 74.767205 
L 252.275032 74.914136 
L 254.429376 73.371375 
L 256.583721 77.265002 
L 258.738066 79.468948 
L 260.89241 82.407527 
L 263.046755 81.746354 
L 265.2011 82.260608 
L 267.355445 81.819814 
L 269.509789 83.289104 
L 271.664134 79.101626 
" style="fill:none;stroke:#ff7f0e;stroke-linecap:square;stroke-width:1.5;"/>
   </g>
   <g id="line2d_23">
    <path clip-path="url(#p8951bdcf08)" d="M 58.384006 159.545423 
L 60.538351 157.635343 
L 62.692696 143.089339 
L 64.847041 136.771381 
L 67.001385 133.17161 
L 69.15573 127.735228 
L 71.310075 118.846001 
L 73.464419 120.82955 
L 75.618764 112.674973 
L 77.773109 110.985287 
L 79.927454 106.797797 
L 82.081798 101.50834 
L 84.236143 100.11251 
L 86.390488 91.517152 
L 88.544833 84.978796 
L 90.699177 83.142184 
L 92.853522 80.056662 
L 95.007867 80.791306 
L 97.162211 77.779256 
L 99.316556 71.975557 
L 101.470901 72.783661 
L 103.625246 71.387831 
L 105.77959 67.641136 
L 107.933935 72.56327 
L 110.08828 69.330828 
L 112.242624 70.359324 
L 114.396969 68.228849 
L 116.551314 65.437201 
L 118.705659 62.49861 
L 120.860003 62.131288 
L 123.014348 65.804523 
L 125.168693 65.216798 
L 127.323038 63.380186 
L 129.477382 66.833019 
L 131.631727 62.719001 
L 133.786072 63.380186 
L 135.940416 61.984356 
L 138.094761 61.690494 
L 140.249106 61.249711 
L 142.403451 62.351679 
L 144.557795 61.10278 
L 146.71214 61.543574 
L 148.866485 61.543574 
L 151.02083 62.57207 
L 153.175174 58.458052 
L 155.329519 61.323171 
L 157.483864 62.204747 
L 159.638208 59.192696 
L 161.792553 60.441595 
L 163.946898 60.221204 
L 166.101243 58.164201 
L 168.255587 60.147744 
L 170.409932 61.690494 
L 172.564277 60.147744 
L 174.718622 64.041371 
L 176.872966 60.808917 
L 179.027311 58.164201 
L 181.181656 61.763965 
L 183.336 57.870338 
L 185.490345 60.221204 
L 187.64469 61.323171 
L 189.799035 58.898845 
L 191.953379 59.119237 
L 194.107724 61.323171 
L 196.262069 58.017269 
L 198.416413 59.119237 
L 200.570758 62.131288 
L 202.725103 60.441595 
L 204.879448 58.751914 
L 207.033792 61.249711 
L 209.188137 58.751914 
L 211.342482 61.10278 
L 213.496827 59.486559 
L 215.651171 61.543574 
L 217.805516 58.384592 
L 219.959861 60.515067 
L 222.114205 59.560019 
L 224.26855 58.090729 
L 226.422895 55.592932 
L 228.57724 61.249711 
L 230.731584 58.972305 
L 232.885929 60.955849 
L 235.040274 58.31112 
L 237.194619 59.70695 
L 239.348963 59.853881 
L 241.503308 60.074273 
L 243.657653 59.413099 
L 245.811997 59.339628 
L 247.966342 60.441595 
L 250.120687 58.531523 
L 252.275032 57.356084 
L 254.429376 59.339628 
L 256.583721 57.282624 
L 258.738066 61.10278 
L 260.89241 59.045765 
L 263.046755 56.988762 
L 265.2011 60.221204 
L 267.355445 56.988762 
L 269.509789 62.351679 
L 271.664134 56.254117 
" style="fill:none;stroke:#2ca02c;stroke-linecap:square;stroke-width:1.5;"/>
   </g>
   <g id="line2d_24">
    <path clip-path="url(#p8951bdcf08)" d="M 58.384006 167.038818 
L 60.538351 101.141018 
L 62.692696 81.525951 
L 64.847041 68.081929 
L 67.001385 61.690494 
L 69.15573 58.678443 
L 71.310075 56.033714 
L 73.464419 54.270574 
L 75.618764 52.140087 
L 77.773109 51.111591 
L 79.927454 48.907645 
L 82.081798 50.891189 
L 84.236143 49.054577 
L 86.390488 50.450406 
L 88.544833 51.331983 
L 90.699177 53.095135 
L 92.853522 50.450406 
L 95.007867 50.009613 
L 97.162211 50.670798 
L 99.316556 54.270574 
L 101.470901 54.564425 
L 103.625246 59.119237 
L 105.77959 59.853881 
L 107.933935 65.951443 
L 110.08828 67.494204 
L 112.242624 71.020509 
L 114.396969 74.987607 
L 116.551314 77.485405 
L 118.705659 85.346119 
L 120.860003 85.052256 
L 123.014348 92.178337 
L 125.168693 91.44368 
L 127.323038 100.626764 
L 129.477382 91.884474 
L 131.631727 99.892119 
L 133.786072 91.811014 
L 135.940416 100.479833 
L 138.094761 98.349358 
L 140.249106 104.079609 
L 142.403451 98.128967 
L 144.557795 118.184822 
L 146.71214 100.626764 
L 148.866485 118.992932 
L 151.02083 118.258287 
L 153.175174 103.271493 
L 155.329519 98.643221 
L 157.483864 118.772541 
L 159.638208 105.989692 
L 161.792553 118.111356 
L 163.946898 103.638815 
L 166.101243 131.188067 
L 168.255587 120.462228 
L 170.409932 145.587136 
L 172.564277 121.490729 
L 174.718622 139.416109 
L 176.872966 141.693509 
L 179.027311 110.324102 
L 181.181656 136.771381 
L 183.336 130.894204 
L 185.490345 104.814254 
L 187.64469 141.399652 
L 189.799035 114.070798 
L 191.953379 139.195712 
L 194.107724 114.144263 
L 196.262069 156.019119 
L 198.416413 142.060838 
L 200.570758 166.59803 
L 202.725103 140.811939 
L 204.879448 156.459907 
L 207.033792 132.583897 
L 209.188137 152.272423 
L 211.342482 148.158399 
L 213.496827 155.945653 
L 215.651171 142.795482 
L 217.805516 159.618889 
L 219.959861 130.673813 
L 222.114205 140.297685 
L 224.26855 141.987372 
L 226.422895 121.63766 
L 228.57724 151.023525 
L 230.731584 151.09699 
L 232.885929 143.82399 
L 235.040274 134.493975 
L 237.194619 125.237431 
L 239.348963 117.670568 
L 241.503308 146.248321 
L 243.657653 137.652957 
L 245.811997 142.942414 
L 247.966342 141.840441 
L 250.120687 166.304173 
L 252.275032 118.699075 
L 254.429376 130.086094 
L 256.583721 128.69027 
L 258.738066 135.302085 
L 260.89241 141.620049 
L 263.046755 140.958864 
L 265.2011 127.29444 
L 267.355445 161.308576 
L 269.509789 143.970915 
L 271.664134 167.7 
" style="fill:none;stroke:#d62728;stroke-linecap:square;stroke-width:1.5;"/>
   </g>
   <g id="line2d_25">
    <path clip-path="url(#p8951bdcf08)" d="M 58.384006 165.055274 
L 60.538351 118.62561 
L 62.692696 93.647626 
L 64.847041 78.807763 
L 67.001385 67.934998 
L 69.15573 61.323171 
L 71.310075 59.266168 
L 73.464419 56.768371 
L 75.618764 55.005218 
L 77.773109 53.021663 
L 79.927454 51.919696 
L 82.081798 51.552374 
L 84.236143 50.597338 
L 86.390488 51.258523 
L 88.544833 50.009613 
L 90.699177 49.64229 
L 92.853522 49.054577 
L 95.007867 49.054577 
L 97.162211 48.099541 
L 99.316556 48.466863 
L 101.470901 49.054577 
L 103.625246 49.862693 
L 105.77959 49.201508 
L 107.933935 48.466863 
L 110.08828 48.319932 
L 112.242624 48.026069 
L 114.396969 46.850642 
L 116.551314 47.585287 
L 118.705659 46.924102 
L 120.860003 45.895594 
L 123.014348 46.115985 
L 125.168693 47.879138 
L 127.323038 47.217964 
L 129.477382 46.336388 
L 131.631727 45.675203 
L 133.786072 46.115985 
L 135.940416 45.748663 
L 138.094761 45.748663 
L 140.249106 45.234421 
L 142.403451 45.014018 
L 144.557795 44.940558 
L 146.71214 46.042526 
L 148.866485 46.409848 
L 151.02083 44.867087 
L 153.175174 44.793627 
L 155.329519 44.279373 
L 157.483864 44.279373 
L 159.638208 45.08749 
L 161.792553 43.76512 
L 163.946898 44.573236 
L 166.101243 43.838591 
L 168.255587 44.132442 
L 170.409932 43.838591 
L 172.564277 43.912051 
L 174.718622 44.058982 
L 176.872966 42.736612 
L 179.027311 43.838591 
L 181.181656 43.76512 
L 183.336 43.103935 
L 185.490345 42.36929 
L 187.64469 42.810084 
L 189.799035 42.736612 
L 191.953379 42.589692 
L 194.107724 43.69166 
L 196.262069 42.883543 
L 198.416413 42.663152 
L 200.570758 41.855036 
L 202.725103 43.76512 
L 204.879448 42.442761 
L 207.033792 43.250866 
L 209.188137 42.222358 
L 211.342482 42.36929 
L 213.496827 41.414254 
L 215.651171 42.075439 
L 217.805516 42.442761 
L 219.959861 41.855036 
L 222.114205 43.324337 
L 224.26855 42.663152 
L 226.422895 42.36929 
L 228.57724 41.487714 
L 230.731584 41.634645 
L 232.885929 41.781576 
L 235.040274 42.516221 
L 237.194619 41.267322 
L 239.348963 42.516221 
L 241.503308 42.222358 
L 243.657653 41.708116 
L 245.811997 42.883543 
L 247.966342 41.267322 
L 250.120687 41.561185 
L 252.275032 40.97346 
L 254.429376 41.708116 
L 256.583721 43.103935 
L 258.738066 41.781576 
L 260.89241 41.855036 
L 263.046755 41.928507 
L 265.2011 42.075439 
L 267.355445 41.855036 
L 269.509789 41.267322 
L 271.664134 40.9 
" style="fill:none;stroke:#9467bd;stroke-linecap:square;stroke-width:1.5;"/>
   </g>
   <g id="patch_3">
    <path d="M 47.72 174.04 
L 47.72 34.56 
" style="fill:none;stroke:#000000;stroke-linecap:square;stroke-linejoin:miter;stroke-width:0.8;"/>
   </g>
   <g id="patch_4">
    <path d="M 282.32814 174.04 
L 282.32814 34.56 
" style="fill:none;stroke:#000000;stroke-linecap:square;stroke-linejoin:miter;stroke-width:0.8;"/>
   </g>
   <g id="patch_5">
    <path d="M 47.72 174.04 
L 282.32814 174.04 
" style="fill:none;stroke:#000000;stroke-linecap:square;stroke-linejoin:miter;stroke-width:0.8;"/>
   </g>
   <g id="patch_6">
    <path d="M 47.72 34.56 
L 282.32814 34.56 
" style="fill:none;stroke:#000000;stroke-linecap:square;stroke-linejoin:miter;stroke-width:0.8;"/>
   </g>
   <g id="legend_1">
    <g id="patch_7">
     <path d="M 214.167203 169.04 
L 275.32814 169.04 
Q 277.32814 169.04 277.32814 167.04 
L 277.32814 94.649375 
Q 277.32814 92.649375 275.32814 92.649375 
L 214.167203 92.649375 
Q 212.167203 92.649375 212.167203 94.649375 
L 212.167203 167.04 
Q 212.167203 169.04 214.167203 169.04 
z
" style="fill:#ffffff;opacity:0.8;stroke:#cccccc;stroke-linejoin:miter;"/>
    </g>
    <g id="line2d_26">
     <path d="M 216.167203 100.747813 
L 236.167203 100.747813 
" style="fill:none;stroke:#1f77b4;stroke-linecap:square;stroke-width:1.5;"/>
    </g>
    <g id="line2d_27"/>
    <g id="text_13">
     <!-- GAT -->
     <g transform="translate(244.167203 104.247813)scale(0.1 -0.1)">
      <defs>
       <path d="M 59.515625 10.40625 
L 59.515625 29.984375 
L 43.40625 29.984375 
L 43.40625 38.09375 
L 69.28125 38.09375 
L 69.28125 6.78125 
Q 63.578125 2.734375 56.6875 0.65625 
Q 49.8125 -1.421875 42 -1.421875 
Q 24.90625 -1.421875 15.25 8.5625 
Q 5.609375 18.5625 5.609375 36.375 
Q 5.609375 54.25 15.25 64.234375 
Q 24.90625 74.21875 42 74.21875 
Q 49.125 74.21875 55.546875 72.453125 
Q 61.96875 70.703125 67.390625 67.28125 
L 67.390625 56.78125 
Q 61.921875 61.421875 55.765625 63.765625 
Q 49.609375 66.109375 42.828125 66.109375 
Q 29.4375 66.109375 22.71875 58.640625 
Q 16.015625 51.171875 16.015625 36.375 
Q 16.015625 21.625 22.71875 14.15625 
Q 29.4375 6.6875 42.828125 6.6875 
Q 48.046875 6.6875 52.140625 7.59375 
Q 56.25 8.5 59.515625 10.40625 
z
" id="DejaVuSans-71"/>
       <path d="M -0.296875 72.90625 
L 61.375 72.90625 
L 61.375 64.59375 
L 35.5 64.59375 
L 35.5 0 
L 25.59375 0 
L 25.59375 64.59375 
L -0.296875 64.59375 
z
" id="DejaVuSans-84"/>
      </defs>
      <use xlink:href="#DejaVuSans-71"/>
      <use x="77.490234" xlink:href="#DejaVuSans-65"/>
      <use x="138.148438" xlink:href="#DejaVuSans-84"/>
     </g>
    </g>
    <g id="line2d_28">
     <path d="M 216.167203 115.425938 
L 236.167203 115.425938 
" style="fill:none;stroke:#ff7f0e;stroke-linecap:square;stroke-width:1.5;"/>
    </g>
    <g id="line2d_29"/>
    <g id="text_14">
     <!-- GCN -->
     <g transform="translate(244.167203 118.925938)scale(0.1 -0.1)">
      <defs>
       <path d="M 64.40625 67.28125 
L 64.40625 56.890625 
Q 59.421875 61.53125 53.78125 63.8125 
Q 48.140625 66.109375 41.796875 66.109375 
Q 29.296875 66.109375 22.65625 58.46875 
Q 16.015625 50.828125 16.015625 36.375 
Q 16.015625 21.96875 22.65625 14.328125 
Q 29.296875 6.6875 41.796875 6.6875 
Q 48.140625 6.6875 53.78125 8.984375 
Q 59.421875 11.28125 64.40625 15.921875 
L 64.40625 5.609375 
Q 59.234375 2.09375 53.4375 0.328125 
Q 47.65625 -1.421875 41.21875 -1.421875 
Q 24.65625 -1.421875 15.125 8.703125 
Q 5.609375 18.84375 5.609375 36.375 
Q 5.609375 53.953125 15.125 64.078125 
Q 24.65625 74.21875 41.21875 74.21875 
Q 47.75 74.21875 53.53125 72.484375 
Q 59.328125 70.75 64.40625 67.28125 
z
" id="DejaVuSans-67"/>
       <path d="M 9.8125 72.90625 
L 23.09375 72.90625 
L 55.421875 11.921875 
L 55.421875 72.90625 
L 64.984375 72.90625 
L 64.984375 0 
L 51.703125 0 
L 19.390625 60.984375 
L 19.390625 0 
L 9.8125 0 
z
" id="DejaVuSans-78"/>
      </defs>
      <use xlink:href="#DejaVuSans-71"/>
      <use x="77.490234" xlink:href="#DejaVuSans-67"/>
      <use x="147.314453" xlink:href="#DejaVuSans-78"/>
     </g>
    </g>
    <g id="line2d_30">
     <path d="M 216.167203 130.104062 
L 236.167203 130.104062 
" style="fill:none;stroke:#2ca02c;stroke-linecap:square;stroke-width:1.5;"/>
    </g>
    <g id="line2d_31"/>
    <g id="text_15">
     <!-- PPNP -->
     <g transform="translate(244.167203 133.604062)scale(0.1 -0.1)">
      <defs>
       <path d="M 19.671875 64.796875 
L 19.671875 37.40625 
L 32.078125 37.40625 
Q 38.96875 37.40625 42.71875 40.96875 
Q 46.484375 44.53125 46.484375 51.125 
Q 46.484375 57.671875 42.71875 61.234375 
Q 38.96875 64.796875 32.078125 64.796875 
z
M 9.8125 72.90625 
L 32.078125 72.90625 
Q 44.34375 72.90625 50.609375 67.359375 
Q 56.890625 61.8125 56.890625 51.125 
Q 56.890625 40.328125 50.609375 34.8125 
Q 44.34375 29.296875 32.078125 29.296875 
L 19.671875 29.296875 
L 19.671875 0 
L 9.8125 0 
z
" id="DejaVuSans-80"/>
      </defs>
      <use xlink:href="#DejaVuSans-80"/>
      <use x="60.302734" xlink:href="#DejaVuSans-80"/>
      <use x="120.605469" xlink:href="#DejaVuSans-78"/>
      <use x="195.410156" xlink:href="#DejaVuSans-80"/>
     </g>
    </g>
    <g id="line2d_32">
     <path d="M 216.167203 144.782188 
L 236.167203 144.782188 
" style="fill:none;stroke:#d62728;stroke-linecap:square;stroke-width:1.5;"/>
    </g>
    <g id="line2d_33"/>
    <g id="text_16">
     <!-- RGCN -->
     <g transform="translate(244.167203 148.282188)scale(0.1 -0.1)">
      <defs>
       <path d="M 44.390625 34.1875 
Q 47.5625 33.109375 50.5625 29.59375 
Q 53.5625 26.078125 56.59375 19.921875 
L 66.609375 0 
L 56 0 
L 46.6875 18.703125 
Q 43.0625 26.03125 39.671875 28.421875 
Q 36.28125 30.8125 30.421875 30.8125 
L 19.671875 30.8125 
L 19.671875 0 
L 9.8125 0 
L 9.8125 72.90625 
L 32.078125 72.90625 
Q 44.578125 72.90625 50.734375 67.671875 
Q 56.890625 62.453125 56.890625 51.90625 
Q 56.890625 45.015625 53.6875 40.46875 
Q 50.484375 35.9375 44.390625 34.1875 
z
M 19.671875 64.796875 
L 19.671875 38.921875 
L 32.078125 38.921875 
Q 39.203125 38.921875 42.84375 42.21875 
Q 46.484375 45.515625 46.484375 51.90625 
Q 46.484375 58.296875 42.84375 61.546875 
Q 39.203125 64.796875 32.078125 64.796875 
z
" id="DejaVuSans-82"/>
      </defs>
      <use xlink:href="#DejaVuSans-82"/>
      <use x="69.482422" xlink:href="#DejaVuSans-71"/>
      <use x="146.972656" xlink:href="#DejaVuSans-67"/>
      <use x="216.796875" xlink:href="#DejaVuSans-78"/>
     </g>
    </g>
    <g id="line2d_34">
     <path d="M 216.167203 159.460313 
L 236.167203 159.460313 
" style="fill:none;stroke:#9467bd;stroke-linecap:square;stroke-width:1.5;"/>
    </g>
    <g id="line2d_35"/>
    <g id="text_17">
     <!-- SGC -->
     <g transform="translate(244.167203 162.960313)scale(0.1 -0.1)">
      <defs>
       <path d="M 53.515625 70.515625 
L 53.515625 60.890625 
Q 47.90625 63.578125 42.921875 64.890625 
Q 37.9375 66.21875 33.296875 66.21875 
Q 25.25 66.21875 20.875 63.09375 
Q 16.5 59.96875 16.5 54.203125 
Q 16.5 49.359375 19.40625 46.890625 
Q 22.3125 44.4375 30.421875 42.921875 
L 36.375 41.703125 
Q 47.40625 39.59375 52.65625 34.296875 
Q 57.90625 29 57.90625 20.125 
Q 57.90625 9.515625 50.796875 4.046875 
Q 43.703125 -1.421875 29.984375 -1.421875 
Q 24.8125 -1.421875 18.96875 -0.25 
Q 13.140625 0.921875 6.890625 3.21875 
L 6.890625 13.375 
Q 12.890625 10.015625 18.65625 8.296875 
Q 24.421875 6.59375 29.984375 6.59375 
Q 38.421875 6.59375 43.015625 9.90625 
Q 47.609375 13.234375 47.609375 19.390625 
Q 47.609375 24.75 44.3125 27.78125 
Q 41.015625 30.8125 33.5 32.328125 
L 27.484375 33.5 
Q 16.453125 35.6875 11.515625 40.375 
Q 6.59375 45.0625 6.59375 53.421875 
Q 6.59375 63.09375 13.40625 68.65625 
Q 20.21875 74.21875 32.171875 74.21875 
Q 37.3125 74.21875 42.625 73.28125 
Q 47.953125 72.359375 53.515625 70.515625 
z
" id="DejaVuSans-83"/>
      </defs>
      <use xlink:href="#DejaVuSans-83"/>
      <use x="63.476562" xlink:href="#DejaVuSans-71"/>
      <use x="140.966797" xlink:href="#DejaVuSans-67"/>
     </g>
    </g>
   </g>
  </g>
  <g id="axes_2">
   <g id="patch_8">
    <path d="M 330.32 174.04 
L 564.92814 174.04 
L 564.92814 34.56 
L 330.32 34.56 
z
" style="fill:#ffffff;"/>
   </g>
   <g id="matplotlib.axis_3">
    <g id="xtick_7">
     <g id="line2d_36">
      <path clip-path="url(#p6d43d1ea37)" d="M 338.829662 174.04 
L 338.829662 34.56 
" style="fill:none;stroke:#b0b0b0;stroke-linecap:square;stroke-width:0.8;"/>
     </g>
     <g id="line2d_37">
      <g>
       <use style="stroke:#000000;stroke-width:0.8;" x="338.829662" xlink:href="#m77fcee8be7" y="174.04"/>
      </g>
     </g>
     <g id="text_18">
      <!-- 0 -->
      <g transform="translate(335.648412 188.638438)scale(0.1 -0.1)">
       <use xlink:href="#DejaVuSans-48"/>
      </g>
     </g>
    </g>
    <g id="xtick_8">
     <g id="line2d_38">
      <path clip-path="url(#p6d43d1ea37)" d="M 381.916556 174.04 
L 381.916556 34.56 
" style="fill:none;stroke:#b0b0b0;stroke-linecap:square;stroke-width:0.8;"/>
     </g>
     <g id="line2d_39">
      <g>
       <use style="stroke:#000000;stroke-width:0.8;" x="381.916556" xlink:href="#m77fcee8be7" y="174.04"/>
      </g>
     </g>
     <g id="text_19">
      <!-- 20 -->
      <g transform="translate(375.554056 188.638438)scale(0.1 -0.1)">
       <use xlink:href="#DejaVuSans-50"/>
       <use x="63.623047" xlink:href="#DejaVuSans-48"/>
      </g>
     </g>
    </g>
    <g id="xtick_9">
     <g id="line2d_40">
      <path clip-path="url(#p6d43d1ea37)" d="M 425.003451 174.04 
L 425.003451 34.56 
" style="fill:none;stroke:#b0b0b0;stroke-linecap:square;stroke-width:0.8;"/>
     </g>
     <g id="line2d_41">
      <g>
       <use style="stroke:#000000;stroke-width:0.8;" x="425.003451" xlink:href="#m77fcee8be7" y="174.04"/>
      </g>
     </g>
     <g id="text_20">
      <!-- 40 -->
      <g transform="translate(418.640951 188.638438)scale(0.1 -0.1)">
       <use xlink:href="#DejaVuSans-52"/>
       <use x="63.623047" xlink:href="#DejaVuSans-48"/>
      </g>
     </g>
    </g>
    <g id="xtick_10">
     <g id="line2d_42">
      <path clip-path="url(#p6d43d1ea37)" d="M 468.090345 174.04 
L 468.090345 34.56 
" style="fill:none;stroke:#b0b0b0;stroke-linecap:square;stroke-width:0.8;"/>
     </g>
     <g id="line2d_43">
      <g>
       <use style="stroke:#000000;stroke-width:0.8;" x="468.090345" xlink:href="#m77fcee8be7" y="174.04"/>
      </g>
     </g>
     <g id="text_21">
      <!-- 60 -->
      <g transform="translate(461.727845 188.638438)scale(0.1 -0.1)">
       <use xlink:href="#DejaVuSans-54"/>
       <use x="63.623047" xlink:href="#DejaVuSans-48"/>
      </g>
     </g>
    </g>
    <g id="xtick_11">
     <g id="line2d_44">
      <path clip-path="url(#p6d43d1ea37)" d="M 511.17724 174.04 
L 511.17724 34.56 
" style="fill:none;stroke:#b0b0b0;stroke-linecap:square;stroke-width:0.8;"/>
     </g>
     <g id="line2d_45">
      <g>
       <use style="stroke:#000000;stroke-width:0.8;" x="511.17724" xlink:href="#m77fcee8be7" y="174.04"/>
      </g>
     </g>
     <g id="text_22">
      <!-- 80 -->
      <g transform="translate(504.81474 188.638438)scale(0.1 -0.1)">
       <use xlink:href="#DejaVuSans-56"/>
       <use x="63.623047" xlink:href="#DejaVuSans-48"/>
      </g>
     </g>
    </g>
    <g id="xtick_12">
     <g id="line2d_46">
      <path clip-path="url(#p6d43d1ea37)" d="M 554.264134 174.04 
L 554.264134 34.56 
" style="fill:none;stroke:#b0b0b0;stroke-linecap:square;stroke-width:0.8;"/>
     </g>
     <g id="line2d_47">
      <g>
       <use style="stroke:#000000;stroke-width:0.8;" x="554.264134" xlink:href="#m77fcee8be7" y="174.04"/>
      </g>
     </g>
     <g id="text_23">
      <!-- 100 -->
      <g transform="translate(544.720384 188.638438)scale(0.1 -0.1)">
       <use xlink:href="#DejaVuSans-49"/>
       <use x="63.623047" xlink:href="#DejaVuSans-48"/>
       <use x="127.246094" xlink:href="#DejaVuSans-48"/>
      </g>
     </g>
    </g>
    <g id="text_24">
     <!-- Epochs -->
     <g transform="translate(429.708445 202.316563)scale(0.1 -0.1)">
      <use xlink:href="#DejaVuSans-69"/>
      <use x="63.183594" xlink:href="#DejaVuSans-112"/>
      <use x="126.660156" xlink:href="#DejaVuSans-111"/>
      <use x="187.841797" xlink:href="#DejaVuSans-99"/>
      <use x="242.822266" xlink:href="#DejaVuSans-104"/>
      <use x="306.201172" xlink:href="#DejaVuSans-115"/>
     </g>
    </g>
   </g>
   <g id="matplotlib.axis_4">
    <g id="ytick_5">
     <g id="line2d_48">
      <path clip-path="url(#p6d43d1ea37)" d="M 330.32 157.752759 
L 564.92814 157.752759 
" style="fill:none;stroke:#b0b0b0;stroke-linecap:square;stroke-width:0.8;"/>
     </g>
     <g id="line2d_49">
      <g>
       <use style="stroke:#000000;stroke-width:0.8;" x="330.32" xlink:href="#m8fc065b97c" y="157.752759"/>
      </g>
     </g>
     <g id="text_25">
      <!-- 0.2 -->
      <g transform="translate(307.416875 161.551977)scale(0.1 -0.1)">
       <use xlink:href="#DejaVuSans-48"/>
       <use x="63.623047" xlink:href="#DejaVuSans-46"/>
       <use x="95.410156" xlink:href="#DejaVuSans-50"/>
      </g>
     </g>
    </g>
    <g id="ytick_6">
     <g id="line2d_50">
      <path clip-path="url(#p6d43d1ea37)" d="M 330.32 121.571035 
L 564.92814 121.571035 
" style="fill:none;stroke:#b0b0b0;stroke-linecap:square;stroke-width:0.8;"/>
     </g>
     <g id="line2d_51">
      <g>
       <use style="stroke:#000000;stroke-width:0.8;" x="330.32" xlink:href="#m8fc065b97c" y="121.571035"/>
      </g>
     </g>
     <g id="text_26">
      <!-- 0.4 -->
      <g transform="translate(307.416875 125.370254)scale(0.1 -0.1)">
       <use xlink:href="#DejaVuSans-48"/>
       <use x="63.623047" xlink:href="#DejaVuSans-46"/>
       <use x="95.410156" xlink:href="#DejaVuSans-52"/>
      </g>
     </g>
    </g>
    <g id="ytick_7">
     <g id="line2d_52">
      <path clip-path="url(#p6d43d1ea37)" d="M 330.32 85.389311 
L 564.92814 85.389311 
" style="fill:none;stroke:#b0b0b0;stroke-linecap:square;stroke-width:0.8;"/>
     </g>
     <g id="line2d_53">
      <g>
       <use style="stroke:#000000;stroke-width:0.8;" x="330.32" xlink:href="#m8fc065b97c" y="85.389311"/>
      </g>
     </g>
     <g id="text_27">
      <!-- 0.6 -->
      <g transform="translate(307.416875 89.18853)scale(0.1 -0.1)">
       <use xlink:href="#DejaVuSans-48"/>
       <use x="63.623047" xlink:href="#DejaVuSans-46"/>
       <use x="95.410156" xlink:href="#DejaVuSans-54"/>
      </g>
     </g>
    </g>
    <g id="ytick_8">
     <g id="line2d_54">
      <path clip-path="url(#p6d43d1ea37)" d="M 330.32 49.207587 
L 564.92814 49.207587 
" style="fill:none;stroke:#b0b0b0;stroke-linecap:square;stroke-width:0.8;"/>
     </g>
     <g id="line2d_55">
      <g>
       <use style="stroke:#000000;stroke-width:0.8;" x="330.32" xlink:href="#m8fc065b97c" y="49.207587"/>
      </g>
     </g>
     <g id="text_28">
      <!-- 0.8 -->
      <g transform="translate(307.416875 53.006806)scale(0.1 -0.1)">
       <use xlink:href="#DejaVuSans-48"/>
       <use x="63.623047" xlink:href="#DejaVuSans-46"/>
       <use x="95.410156" xlink:href="#DejaVuSans-56"/>
      </g>
     </g>
    </g>
    <g id="text_29">
     <!-- Val Acc -->
     <g transform="translate(301.337188 122.20625)rotate(-90)scale(0.1 -0.1)">
      <defs>
       <path d="M 28.609375 0 
L 0.78125 72.90625 
L 11.078125 72.90625 
L 34.1875 11.53125 
L 57.328125 72.90625 
L 67.578125 72.90625 
L 39.796875 0 
z
" id="DejaVuSans-86"/>
       <path d="M 34.28125 27.484375 
Q 23.390625 27.484375 19.1875 25 
Q 14.984375 22.515625 14.984375 16.5 
Q 14.984375 11.71875 18.140625 8.90625 
Q 21.296875 6.109375 26.703125 6.109375 
Q 34.1875 6.109375 38.703125 11.40625 
Q 43.21875 16.703125 43.21875 25.484375 
L 43.21875 27.484375 
z
M 52.203125 31.203125 
L 52.203125 0 
L 43.21875 0 
L 43.21875 8.296875 
Q 40.140625 3.328125 35.546875 0.953125 
Q 30.953125 -1.421875 24.3125 -1.421875 
Q 15.921875 -1.421875 10.953125 3.296875 
Q 6 8.015625 6 15.921875 
Q 6 25.140625 12.171875 29.828125 
Q 18.359375 34.515625 30.609375 34.515625 
L 43.21875 34.515625 
L 43.21875 35.40625 
Q 43.21875 41.609375 39.140625 45 
Q 35.0625 48.390625 27.6875 48.390625 
Q 23 48.390625 18.546875 47.265625 
Q 14.109375 46.140625 10.015625 43.890625 
L 10.015625 52.203125 
Q 14.9375 54.109375 19.578125 55.046875 
Q 24.21875 56 28.609375 56 
Q 40.484375 56 46.34375 49.84375 
Q 52.203125 43.703125 52.203125 31.203125 
z
" id="DejaVuSans-97"/>
       <path d="M 9.421875 75.984375 
L 18.40625 75.984375 
L 18.40625 0 
L 9.421875 0 
z
" id="DejaVuSans-108"/>
       <path id="DejaVuSans-32"/>
      </defs>
      <use xlink:href="#DejaVuSans-86"/>
      <use x="60.658203" xlink:href="#DejaVuSans-97"/>
      <use x="121.9375" xlink:href="#DejaVuSans-108"/>
      <use x="149.720703" xlink:href="#DejaVuSans-32"/>
      <use x="181.507812" xlink:href="#DejaVuSans-65"/>
      <use x="248.166016" xlink:href="#DejaVuSans-99"/>
      <use x="303.146484" xlink:href="#DejaVuSans-99"/>
     </g>
    </g>
   </g>
   <g id="line2d_56">
    <path clip-path="url(#p6d43d1ea37)" d="M 340.984006 78.612066 
L 343.138351 68.774136 
L 345.292696 62.762067 
L 347.447041 61.668963 
L 349.601385 61.668963 
L 351.75573 60.575858 
L 353.910075 58.936207 
L 356.064419 58.936207 
L 358.218764 57.296556 
L 360.373109 54.563789 
L 362.527454 54.017243 
L 364.681798 54.017243 
L 366.836143 54.563789 
L 368.990488 53.470696 
L 371.144833 52.924138 
L 373.299177 53.470696 
L 375.453522 53.470696 
L 377.607867 53.470696 
L 379.762211 54.017243 
L 381.916556 54.017243 
L 384.070901 54.563789 
L 386.225246 54.563789 
L 388.37959 54.563789 
L 390.533935 54.563789 
L 392.68828 55.110347 
L 394.842624 55.656894 
L 396.996969 55.656894 
L 399.151314 55.110347 
L 401.305659 55.110347 
L 403.460003 55.110347 
L 405.614348 55.656894 
L 407.768693 55.656894 
L 409.923038 55.656894 
L 412.077382 55.656894 
L 414.231727 55.656894 
L 416.386072 55.656894 
L 418.540416 55.656894 
L 420.694761 55.656894 
L 422.849106 56.203451 
L 425.003451 56.749998 
L 427.157795 56.749998 
L 429.31214 56.749998 
L 431.466485 56.203451 
L 433.62083 56.749998 
L 435.775174 56.749998 
L 437.929519 57.296556 
L 440.083864 57.296556 
L 442.238208 57.296556 
L 444.392553 57.843103 
L 446.546898 57.843103 
L 448.701243 57.843103 
L 450.855587 57.843103 
L 453.009932 57.843103 
L 455.164277 57.843103 
L 457.318622 57.843103 
L 459.472966 57.296556 
L 461.627311 56.749998 
L 463.781656 56.749998 
L 465.936 56.749998 
L 468.090345 56.749998 
L 470.24469 56.203451 
L 472.399035 56.203451 
L 474.553379 57.296556 
L 476.707724 57.296556 
L 478.862069 57.843103 
L 481.016413 57.843103 
L 483.170758 57.296556 
L 485.325103 57.296556 
L 487.479448 57.296556 
L 489.633792 57.296556 
L 491.788137 57.843103 
L 493.942482 57.843103 
L 496.096827 57.296556 
L 498.251171 56.749998 
L 500.405516 56.749998 
L 502.559861 56.749998 
L 504.714205 57.296556 
L 506.86855 56.749998 
L 509.022895 57.296556 
L 511.17724 57.296556 
L 513.331584 57.843103 
L 515.485929 57.843103 
L 517.640274 58.936207 
L 519.794619 57.843103 
L 521.948963 58.38966 
L 524.103308 58.936207 
L 526.257653 58.38966 
L 528.411997 57.843103 
L 530.566342 57.843103 
L 532.720687 57.843103 
L 534.875032 58.38966 
L 537.029376 58.38966 
L 539.183721 58.38966 
L 541.338066 58.936207 
L 543.49241 58.38966 
L 545.646755 58.38966 
L 547.8011 58.38966 
L 549.955445 58.38966 
L 552.109789 56.749998 
L 554.264134 57.843103 
" style="fill:none;stroke:#1f77b4;stroke-linecap:square;stroke-width:1.5;"/>
   </g>
   <g id="line2d_57">
    <path clip-path="url(#p6d43d1ea37)" d="M 340.984006 125.615519 
L 343.138351 113.591381 
L 345.292696 100.474144 
L 347.447041 93.36897 
L 349.601385 88.450006 
L 351.75573 85.717239 
L 353.910075 82.984483 
L 356.064419 81.891379 
L 358.218764 82.437937 
L 360.373109 81.891379 
L 362.527454 80.798275 
L 364.681798 78.065519 
L 366.836143 74.239659 
L 368.990488 67.134485 
L 371.144833 64.948276 
L 373.299177 62.215521 
L 375.453522 59.482765 
L 377.607867 55.656894 
L 379.762211 54.563789 
L 381.916556 53.470696 
L 384.070901 52.377591 
L 386.225246 51.831034 
L 388.37959 51.831034 
L 390.533935 51.831034 
L 392.68828 51.831034 
L 394.842624 51.831034 
L 396.996969 51.831034 
L 399.151314 51.284487 
L 401.305659 50.191382 
L 403.460003 50.191382 
L 405.614348 50.191382 
L 407.768693 50.737929 
L 409.923038 50.191382 
L 412.077382 50.737929 
L 414.231727 51.284487 
L 416.386072 51.284487 
L 418.540416 51.284487 
L 420.694761 50.191382 
L 422.849106 49.644825 
L 425.003451 49.098278 
L 427.157795 48.55172 
L 429.31214 48.55172 
L 431.466485 49.098278 
L 433.62083 49.098278 
L 435.775174 50.191382 
L 437.929519 50.191382 
L 440.083864 50.737929 
L 442.238208 51.831034 
L 444.392553 52.377591 
L 446.546898 52.377591 
L 448.701243 52.924138 
L 450.855587 51.831034 
L 453.009932 51.284487 
L 455.164277 51.284487 
L 457.318622 51.284487 
L 459.472966 52.377591 
L 461.627311 52.377591 
L 463.781656 51.831034 
L 465.936 51.284487 
L 468.090345 51.831034 
L 470.24469 51.284487 
L 472.399035 50.737929 
L 474.553379 52.377591 
L 476.707724 52.377591 
L 478.862069 52.377591 
L 481.016413 52.377591 
L 483.170758 51.831034 
L 485.325103 51.831034 
L 487.479448 52.377591 
L 489.633792 52.924138 
L 491.788137 52.924138 
L 493.942482 52.924138 
L 496.096827 53.470696 
L 498.251171 52.924138 
L 500.405516 52.377591 
L 502.559861 50.737929 
L 504.714205 51.284487 
L 506.86855 51.831034 
L 509.022895 53.470696 
L 511.17724 54.563789 
L 513.331584 54.017243 
L 515.485929 52.377591 
L 517.640274 51.831034 
L 519.794619 51.284487 
L 521.948963 51.831034 
L 524.103308 52.924138 
L 526.257653 54.017243 
L 528.411997 52.924138 
L 530.566342 51.831034 
L 532.720687 51.284487 
L 534.875032 51.831034 
L 537.029376 52.924138 
L 539.183721 52.924138 
L 541.338066 54.017243 
L 543.49241 53.470696 
L 545.646755 48.005174 
L 547.8011 49.644825 
L 549.955445 50.191382 
L 552.109789 51.284487 
L 554.264134 51.831034 
" style="fill:none;stroke:#ff7f0e;stroke-linecap:square;stroke-width:1.5;"/>
   </g>
   <g id="line2d_58">
    <path clip-path="url(#p6d43d1ea37)" d="M 340.984006 154.582757 
L 343.138351 125.615519 
L 345.292696 111.405172 
L 347.447041 104.846551 
L 349.601385 97.194831 
L 351.75573 96.101726 
L 353.910075 93.915517 
L 356.064419 93.36897 
L 358.218764 92.275866 
L 360.373109 90.089657 
L 362.527454 85.170692 
L 364.681798 80.798275 
L 366.836143 72.05345 
L 368.990488 61.668963 
L 371.144833 60.029312 
L 373.299177 57.843103 
L 375.453522 54.563789 
L 377.607867 53.470696 
L 379.762211 53.470696 
L 381.916556 54.017243 
L 384.070901 53.470696 
L 386.225246 53.470696 
L 388.37959 54.017243 
L 390.533935 52.924138 
L 392.68828 51.831034 
L 394.842624 51.831034 
L 396.996969 52.377591 
L 399.151314 52.377591 
L 401.305659 52.377591 
L 403.460003 52.377591 
L 405.614348 51.831034 
L 407.768693 52.924138 
L 409.923038 52.924138 
L 412.077382 52.377591 
L 414.231727 52.377591 
L 416.386072 52.377591 
L 418.540416 52.924138 
L 420.694761 52.924138 
L 422.849106 52.924138 
L 425.003451 54.017243 
L 427.157795 54.563789 
L 429.31214 54.017243 
L 431.466485 54.563789 
L 433.62083 54.017243 
L 435.775174 53.470696 
L 437.929519 53.470696 
L 440.083864 53.470696 
L 442.238208 53.470696 
L 444.392553 52.924138 
L 446.546898 53.470696 
L 448.701243 52.377591 
L 450.855587 51.831034 
L 453.009932 52.377591 
L 455.164277 51.831034 
L 457.318622 51.831034 
L 459.472966 51.831034 
L 461.627311 53.470696 
L 463.781656 54.563789 
L 465.936 55.110347 
L 468.090345 54.563789 
L 470.24469 54.563789 
L 472.399035 54.563789 
L 474.553379 55.656894 
L 476.707724 54.563789 
L 478.862069 56.749998 
L 481.016413 58.38966 
L 483.170758 58.38966 
L 485.325103 57.296556 
L 487.479448 56.203451 
L 489.633792 55.656894 
L 491.788137 55.656894 
L 493.942482 55.656894 
L 496.096827 56.749998 
L 498.251171 56.749998 
L 500.405516 55.656894 
L 502.559861 55.656894 
L 504.714205 55.656894 
L 506.86855 54.563789 
L 509.022895 53.470696 
L 511.17724 53.470696 
L 513.331584 53.470696 
L 515.485929 53.470696 
L 517.640274 53.470696 
L 519.794619 53.470696 
L 521.948963 52.377591 
L 524.103308 52.377591 
L 526.257653 52.377591 
L 528.411997 52.924138 
L 530.566342 53.470696 
L 532.720687 54.563789 
L 534.875032 55.656894 
L 537.029376 56.749998 
L 539.183721 55.656894 
L 541.338066 56.203451 
L 543.49241 55.656894 
L 545.646755 55.656894 
L 547.8011 55.110347 
L 549.955445 54.563789 
L 552.109789 54.563789 
L 554.264134 55.110347 
" style="fill:none;stroke:#2ca02c;stroke-linecap:square;stroke-width:1.5;"/>
   </g>
   <g id="line2d_59">
    <path clip-path="url(#p6d43d1ea37)" d="M 340.984006 70.413799 
L 343.138351 57.843103 
L 345.292696 49.098278 
L 347.447041 49.098278 
L 349.601385 46.912069 
L 351.75573 45.272418 
L 353.910075 44.72586 
L 356.064419 46.912069 
L 358.218764 45.272418 
L 360.373109 43.086209 
L 362.527454 44.72586 
L 364.681798 46.365522 
L 366.836143 45.272418 
L 368.990488 50.191382 
L 371.144833 50.191382 
L 373.299177 47.458627 
L 375.453522 44.72586 
L 377.607867 46.365522 
L 379.762211 46.912069 
L 381.916556 45.818965 
L 384.070901 40.9 
L 386.225246 42.539651 
L 388.37959 49.644825 
L 390.533935 43.632756 
L 392.68828 47.458627 
L 394.842624 49.644825 
L 396.996969 49.644825 
L 399.151314 69.320694 
L 401.305659 50.737929 
L 403.460003 70.960345 
L 405.614348 73.146554 
L 407.768693 72.05345 
L 409.923038 48.005174 
L 412.077382 78.612066 
L 414.231727 63.308625 
L 416.386072 73.693101 
L 418.540416 63.855172 
L 420.694761 85.717239 
L 422.849106 67.681032 
L 425.003451 102.660342 
L 427.157795 88.450006 
L 429.31214 110.85862 
L 431.466485 111.951724 
L 433.62083 77.518961 
L 435.775174 74.786206 
L 437.929519 91.729308 
L 440.083864 77.518961 
L 442.238208 113.044829 
L 444.392553 74.239659 
L 446.546898 114.684486 
L 448.701243 120.150002 
L 450.855587 155.12931 
L 453.009932 110.85862 
L 455.164277 125.068967 
L 457.318622 140.372413 
L 459.472966 77.518961 
L 461.627311 125.068967 
L 463.781656 106.486208 
L 465.936 72.05345 
L 468.090345 131.081036 
L 470.24469 98.287935 
L 472.399035 122.336206 
L 474.553379 92.275866 
L 476.707724 148.570691 
L 478.862069 126.708624 
L 481.016413 165.513794 
L 483.170758 122.336206 
L 485.325103 156.768966 
L 487.479448 119.056898 
L 489.633792 145.291378 
L 491.788137 142.01207 
L 493.942482 155.12931 
L 496.096827 143.105174 
L 498.251171 156.768966 
L 500.405516 115.777585 
L 502.559861 127.801723 
L 504.714205 130.534484 
L 506.86855 120.150002 
L 509.022895 142.558622 
L 511.17724 156.222414 
L 513.331584 132.17414 
L 515.485929 117.963793 
L 517.640274 99.381039 
L 519.794619 96.101726 
L 521.948963 133.26724 
L 524.103308 131.627588 
L 526.257653 149.117241 
L 528.411997 134.360344 
L 530.566342 153.489656 
L 532.720687 81.891379 
L 534.875032 112.498277 
L 537.029376 119.056898 
L 539.183721 138.732756 
L 541.338066 130.534484 
L 543.49241 131.081036 
L 545.646755 97.741377 
L 547.8011 153.489656 
L 549.955445 143.105174 
L 552.109789 167.7 
L 554.264134 151.849999 
" style="fill:none;stroke:#d62728;stroke-linecap:square;stroke-width:1.5;"/>
   </g>
   <g id="line2d_60">
    <path clip-path="url(#p6d43d1ea37)" d="M 340.984006 114.137933 
L 343.138351 89.543099 
L 345.292696 75.87931 
L 347.447041 68.774136 
L 349.601385 63.308625 
L 351.75573 60.029312 
L 353.910075 57.843103 
L 356.064419 55.656894 
L 358.218764 56.203451 
L 360.373109 54.563789 
L 362.527454 54.017243 
L 364.681798 53.470696 
L 366.836143 53.470696 
L 368.990488 54.563789 
L 371.144833 54.563789 
L 373.299177 53.470696 
L 375.453522 52.924138 
L 377.607867 54.017243 
L 379.762211 54.563789 
L 381.916556 54.563789 
L 384.070901 54.563789 
L 386.225246 55.656894 
L 388.37959 55.656894 
L 390.533935 55.656894 
L 392.68828 55.656894 
L 394.842624 55.656894 
L 396.996969 55.656894 
L 399.151314 55.656894 
L 401.305659 55.656894 
L 403.460003 55.656894 
L 405.614348 55.656894 
L 407.768693 55.656894 
L 409.923038 55.656894 
L 412.077382 56.203451 
L 414.231727 56.203451 
L 416.386072 56.203451 
L 418.540416 56.203451 
L 420.694761 56.203451 
L 422.849106 56.749998 
L 425.003451 57.296556 
L 427.157795 57.296556 
L 429.31214 57.296556 
L 431.466485 57.296556 
L 433.62083 57.296556 
L 435.775174 56.749998 
L 437.929519 56.749998 
L 440.083864 57.296556 
L 442.238208 57.296556 
L 444.392553 56.749998 
L 446.546898 56.749998 
L 448.701243 56.203451 
L 450.855587 56.203451 
L 453.009932 56.203451 
L 455.164277 56.203451 
L 457.318622 56.203451 
L 459.472966 56.203451 
L 461.627311 56.203451 
L 463.781656 55.656894 
L 465.936 55.656894 
L 468.090345 55.656894 
L 470.24469 55.656894 
L 472.399035 55.656894 
L 474.553379 55.656894 
L 476.707724 56.203451 
L 478.862069 56.203451 
L 481.016413 56.203451 
L 483.170758 56.749998 
L 485.325103 56.749998 
L 487.479448 56.749998 
L 489.633792 56.203451 
L 491.788137 56.203451 
L 493.942482 56.203451 
L 496.096827 56.203451 
L 498.251171 56.203451 
L 500.405516 56.203451 
L 502.559861 56.203451 
L 504.714205 56.203451 
L 506.86855 55.656894 
L 509.022895 56.203451 
L 511.17724 56.203451 
L 513.331584 56.203451 
L 515.485929 56.203451 
L 517.640274 56.203451 
L 519.794619 56.203451 
L 521.948963 56.203451 
L 524.103308 56.203451 
L 526.257653 55.656894 
L 528.411997 55.656894 
L 530.566342 55.656894 
L 532.720687 55.656894 
L 534.875032 55.656894 
L 537.029376 55.656894 
L 539.183721 55.656894 
L 541.338066 55.656894 
L 543.49241 55.656894 
L 545.646755 55.656894 
L 547.8011 55.656894 
L 549.955445 55.656894 
L 552.109789 55.656894 
L 554.264134 55.656894 
" style="fill:none;stroke:#9467bd;stroke-linecap:square;stroke-width:1.5;"/>
   </g>
   <g id="patch_9">
    <path d="M 330.32 174.04 
L 330.32 34.56 
" style="fill:none;stroke:#000000;stroke-linecap:square;stroke-linejoin:miter;stroke-width:0.8;"/>
   </g>
   <g id="patch_10">
    <path d="M 564.92814 174.04 
L 564.92814 34.56 
" style="fill:none;stroke:#000000;stroke-linecap:square;stroke-linejoin:miter;stroke-width:0.8;"/>
   </g>
   <g id="patch_11">
    <path d="M 330.32 174.04 
L 564.92814 174.04 
" style="fill:none;stroke:#000000;stroke-linecap:square;stroke-linejoin:miter;stroke-width:0.8;"/>
   </g>
   <g id="patch_12">
    <path d="M 330.32 34.56 
L 564.92814 34.56 
" style="fill:none;stroke:#000000;stroke-linecap:square;stroke-linejoin:miter;stroke-width:0.8;"/>
   </g>
   <g id="legend_2">
    <g id="patch_13">
     <path d="M 337.32 169.04 
L 398.480938 169.04 
Q 400.480938 169.04 400.480938 167.04 
L 400.480938 94.649375 
Q 400.480938 92.649375 398.480938 92.649375 
L 337.32 92.649375 
Q 335.32 92.649375 335.32 94.649375 
L 335.32 167.04 
Q 335.32 169.04 337.32 169.04 
z
" style="fill:#ffffff;opacity:0.8;stroke:#cccccc;stroke-linejoin:miter;"/>
    </g>
    <g id="line2d_61">
     <path d="M 339.32 100.747813 
L 359.32 100.747813 
" style="fill:none;stroke:#1f77b4;stroke-linecap:square;stroke-width:1.5;"/>
    </g>
    <g id="line2d_62"/>
    <g id="text_30">
     <!-- GAT -->
     <g transform="translate(367.32 104.247813)scale(0.1 -0.1)">
      <use xlink:href="#DejaVuSans-71"/>
      <use x="77.490234" xlink:href="#DejaVuSans-65"/>
      <use x="138.148438" xlink:href="#DejaVuSans-84"/>
     </g>
    </g>
    <g id="line2d_63">
     <path d="M 339.32 115.425938 
L 359.32 115.425938 
" style="fill:none;stroke:#ff7f0e;stroke-linecap:square;stroke-width:1.5;"/>
    </g>
    <g id="line2d_64"/>
    <g id="text_31">
     <!-- GCN -->
     <g transform="translate(367.32 118.925938)scale(0.1 -0.1)">
      <use xlink:href="#DejaVuSans-71"/>
      <use x="77.490234" xlink:href="#DejaVuSans-67"/>
      <use x="147.314453" xlink:href="#DejaVuSans-78"/>
     </g>
    </g>
    <g id="line2d_65">
     <path d="M 339.32 130.104062 
L 359.32 130.104062 
" style="fill:none;stroke:#2ca02c;stroke-linecap:square;stroke-width:1.5;"/>
    </g>
    <g id="line2d_66"/>
    <g id="text_32">
     <!-- PPNP -->
     <g transform="translate(367.32 133.604062)scale(0.1 -0.1)">
      <use xlink:href="#DejaVuSans-80"/>
      <use x="60.302734" xlink:href="#DejaVuSans-80"/>
      <use x="120.605469" xlink:href="#DejaVuSans-78"/>
      <use x="195.410156" xlink:href="#DejaVuSans-80"/>
     </g>
    </g>
    <g id="line2d_67">
     <path d="M 339.32 144.782188 
L 359.32 144.782188 
" style="fill:none;stroke:#d62728;stroke-linecap:square;stroke-width:1.5;"/>
    </g>
    <g id="line2d_68"/>
    <g id="text_33">
     <!-- RGCN -->
     <g transform="translate(367.32 148.282188)scale(0.1 -0.1)">
      <use xlink:href="#DejaVuSans-82"/>
      <use x="69.482422" xlink:href="#DejaVuSans-71"/>
      <use x="146.972656" xlink:href="#DejaVuSans-67"/>
      <use x="216.796875" xlink:href="#DejaVuSans-78"/>
     </g>
    </g>
    <g id="line2d_69">
     <path d="M 339.32 159.460313 
L 359.32 159.460313 
" style="fill:none;stroke:#9467bd;stroke-linecap:square;stroke-width:1.5;"/>
    </g>
    <g id="line2d_70"/>
    <g id="text_34">
     <!-- SGC -->
     <g transform="translate(367.32 162.960313)scale(0.1 -0.1)">
      <use xlink:href="#DejaVuSans-83"/>
      <use x="63.476562" xlink:href="#DejaVuSans-71"/>
      <use x="140.966797" xlink:href="#DejaVuSans-67"/>
     </g>
    </g>
   </g>
  </g>
  <g id="text_35">
   <!-- CITESEER -->
   <g transform="translate(259.02375 13.438125)scale(0.12 -0.12)">
    <defs>
     <path d="M 9.8125 72.90625 
L 19.671875 72.90625 
L 19.671875 0 
L 9.8125 0 
z
" id="DejaVuSans-73"/>
    </defs>
    <use xlink:href="#DejaVuSans-67"/>
    <use x="69.824219" xlink:href="#DejaVuSans-73"/>
    <use x="99.316406" xlink:href="#DejaVuSans-84"/>
    <use x="160.400391" xlink:href="#DejaVuSans-69"/>
    <use x="223.583984" xlink:href="#DejaVuSans-83"/>
    <use x="287.060547" xlink:href="#DejaVuSans-69"/>
    <use x="350.244141" xlink:href="#DejaVuSans-69"/>
    <use x="413.427734" xlink:href="#DejaVuSans-82"/>
   </g>
  </g>
 </g>
 <defs>
  <clipPath id="p8951bdcf08">
   <rect height="139.48" width="234.60814" x="47.72" y="34.56"/>
  </clipPath>
  <clipPath id="p6d43d1ea37">
   <rect height="139.48" width="234.60814" x="330.32" y="34.56"/>
  </clipPath>
 </defs>
</svg>
