<?xml version="1.0" encoding="utf-8" standalone="no"?>
<!DOCTYPE svg PUBLIC "-//W3C//DTD SVG 1.1//EN"
  "http://www.w3.org/Graphics/SVG/1.1/DTD/svg11.dtd">
<!-- Created with matplotlib (https://matplotlib.org/) -->
<svg height="216pt" version="1.1" viewBox="0 0 576 216" width="576pt" xmlns="http://www.w3.org/2000/svg" xmlns:xlink="http://www.w3.org/1999/xlink">
 <metadata>
  <rdf:RDF xmlns:cc="http://creativecommons.org/ns#" xmlns:dc="http://purl.org/dc/elements/1.1/" xmlns:rdf="http://www.w3.org/1999/02/22-rdf-syntax-ns#">
   <cc:Work>
    <dc:type rdf:resource="http://purl.org/dc/dcmitype/StillImage"/>
    <dc:date>2021-04-11T18:23:43.659698</dc:date>
    <dc:format>image/svg+xml</dc:format>
    <dc:creator>
     <cc:Agent>
      <dc:title>Matplotlib v3.3.3, https://matplotlib.org/</dc:title>
     </cc:Agent>
    </dc:creator>
   </cc:Work>
  </rdf:RDF>
 </metadata>
 <defs>
  <style type="text/css">*{stroke-linecap:butt;stroke-linejoin:round;}</style>
 </defs>
 <g id="figure_1">
  <g id="patch_1">
   <path d="M 0 216 
L 576 216 
L 576 0 
L 0 0 
z
" style="fill:#ffffff;"/>
  </g>
  <g id="axes_1">
   <g id="patch_2">
    <path d="M 47.72 174.04 
L 282.32814 174.04 
L 282.32814 34.56 
L 47.72 34.56 
z
" style="fill:#ffffff;"/>
   </g>
   <g id="matplotlib.axis_1">
    <g id="xtick_1">
     <g id="line2d_1">
      <path clip-path="url(#pf3102e5438)" d="M 56.229662 174.04 
L 56.229662 34.56 
" style="fill:none;stroke:#b0b0b0;stroke-linecap:square;stroke-width:0.8;"/>
     </g>
     <g id="line2d_2">
      <defs>
       <path d="M 0 0 
L 0 3.5 
" id="m3c44ef9b9c" style="stroke:#000000;stroke-width:0.8;"/>
      </defs>
      <g>
       <use style="stroke:#000000;stroke-width:0.8;" x="56.229662" xlink:href="#m3c44ef9b9c" y="174.04"/>
      </g>
     </g>
     <g id="text_1">
      <!-- 0 -->
      <g transform="translate(53.048412 188.638438)scale(0.1 -0.1)">
       <defs>
        <path d="M 31.78125 66.40625 
Q 24.171875 66.40625 20.328125 58.90625 
Q 16.5 51.421875 16.5 36.375 
Q 16.5 21.390625 20.328125 13.890625 
Q 24.171875 6.390625 31.78125 6.390625 
Q 39.453125 6.390625 43.28125 13.890625 
Q 47.125 21.390625 47.125 36.375 
Q 47.125 51.421875 43.28125 58.90625 
Q 39.453125 66.40625 31.78125 66.40625 
z
M 31.78125 74.21875 
Q 44.046875 74.21875 50.515625 64.515625 
Q 56.984375 54.828125 56.984375 36.375 
Q 56.984375 17.96875 50.515625 8.265625 
Q 44.046875 -1.421875 31.78125 -1.421875 
Q 19.53125 -1.421875 13.0625 8.265625 
Q 6.59375 17.96875 6.59375 36.375 
Q 6.59375 54.828125 13.0625 64.515625 
Q 19.53125 74.21875 31.78125 74.21875 
z
" id="DejaVuSans-48"/>
       </defs>
       <use xlink:href="#DejaVuSans-48"/>
      </g>
     </g>
    </g>
    <g id="xtick_2">
     <g id="line2d_3">
      <path clip-path="url(#pf3102e5438)" d="M 99.316556 174.04 
L 99.316556 34.56 
" style="fill:none;stroke:#b0b0b0;stroke-linecap:square;stroke-width:0.8;"/>
     </g>
     <g id="line2d_4">
      <g>
       <use style="stroke:#000000;stroke-width:0.8;" x="99.316556" xlink:href="#m3c44ef9b9c" y="174.04"/>
      </g>
     </g>
     <g id="text_2">
      <!-- 20 -->
      <g transform="translate(92.954056 188.638438)scale(0.1 -0.1)">
       <defs>
        <path d="M 19.1875 8.296875 
L 53.609375 8.296875 
L 53.609375 0 
L 7.328125 0 
L 7.328125 8.296875 
Q 12.9375 14.109375 22.625 23.890625 
Q 32.328125 33.6875 34.8125 36.53125 
Q 39.546875 41.84375 41.421875 45.53125 
Q 43.3125 49.21875 43.3125 52.78125 
Q 43.3125 58.59375 39.234375 62.25 
Q 35.15625 65.921875 28.609375 65.921875 
Q 23.96875 65.921875 18.8125 64.3125 
Q 13.671875 62.703125 7.8125 59.421875 
L 7.8125 69.390625 
Q 13.765625 71.78125 18.9375 73 
Q 24.125 74.21875 28.421875 74.21875 
Q 39.75 74.21875 46.484375 68.546875 
Q 53.21875 62.890625 53.21875 53.421875 
Q 53.21875 48.921875 51.53125 44.890625 
Q 49.859375 40.875 45.40625 35.40625 
Q 44.1875 33.984375 37.640625 27.21875 
Q 31.109375 20.453125 19.1875 8.296875 
z
" id="DejaVuSans-50"/>
       </defs>
       <use xlink:href="#DejaVuSans-50"/>
       <use x="63.623047" xlink:href="#DejaVuSans-48"/>
      </g>
     </g>
    </g>
    <g id="xtick_3">
     <g id="line2d_5">
      <path clip-path="url(#pf3102e5438)" d="M 142.403451 174.04 
L 142.403451 34.56 
" style="fill:none;stroke:#b0b0b0;stroke-linecap:square;stroke-width:0.8;"/>
     </g>
     <g id="line2d_6">
      <g>
       <use style="stroke:#000000;stroke-width:0.8;" x="142.403451" xlink:href="#m3c44ef9b9c" y="174.04"/>
      </g>
     </g>
     <g id="text_3">
      <!-- 40 -->
      <g transform="translate(136.040951 188.638438)scale(0.1 -0.1)">
       <defs>
        <path d="M 37.796875 64.3125 
L 12.890625 25.390625 
L 37.796875 25.390625 
z
M 35.203125 72.90625 
L 47.609375 72.90625 
L 47.609375 25.390625 
L 58.015625 25.390625 
L 58.015625 17.1875 
L 47.609375 17.1875 
L 47.609375 0 
L 37.796875 0 
L 37.796875 17.1875 
L 4.890625 17.1875 
L 4.890625 26.703125 
z
" id="DejaVuSans-52"/>
       </defs>
       <use xlink:href="#DejaVuSans-52"/>
       <use x="63.623047" xlink:href="#DejaVuSans-48"/>
      </g>
     </g>
    </g>
    <g id="xtick_4">
     <g id="line2d_7">
      <path clip-path="url(#pf3102e5438)" d="M 185.490345 174.04 
L 185.490345 34.56 
" style="fill:none;stroke:#b0b0b0;stroke-linecap:square;stroke-width:0.8;"/>
     </g>
     <g id="line2d_8">
      <g>
       <use style="stroke:#000000;stroke-width:0.8;" x="185.490345" xlink:href="#m3c44ef9b9c" y="174.04"/>
      </g>
     </g>
     <g id="text_4">
      <!-- 60 -->
      <g transform="translate(179.127845 188.638438)scale(0.1 -0.1)">
       <defs>
        <path d="M 33.015625 40.375 
Q 26.375 40.375 22.484375 35.828125 
Q 18.609375 31.296875 18.609375 23.390625 
Q 18.609375 15.53125 22.484375 10.953125 
Q 26.375 6.390625 33.015625 6.390625 
Q 39.65625 6.390625 43.53125 10.953125 
Q 47.40625 15.53125 47.40625 23.390625 
Q 47.40625 31.296875 43.53125 35.828125 
Q 39.65625 40.375 33.015625 40.375 
z
M 52.59375 71.296875 
L 52.59375 62.3125 
Q 48.875 64.0625 45.09375 64.984375 
Q 41.3125 65.921875 37.59375 65.921875 
Q 27.828125 65.921875 22.671875 59.328125 
Q 17.53125 52.734375 16.796875 39.40625 
Q 19.671875 43.65625 24.015625 45.921875 
Q 28.375 48.1875 33.59375 48.1875 
Q 44.578125 48.1875 50.953125 41.515625 
Q 57.328125 34.859375 57.328125 23.390625 
Q 57.328125 12.15625 50.6875 5.359375 
Q 44.046875 -1.421875 33.015625 -1.421875 
Q 20.359375 -1.421875 13.671875 8.265625 
Q 6.984375 17.96875 6.984375 36.375 
Q 6.984375 53.65625 15.1875 63.9375 
Q 23.390625 74.21875 37.203125 74.21875 
Q 40.921875 74.21875 44.703125 73.484375 
Q 48.484375 72.75 52.59375 71.296875 
z
" id="DejaVuSans-54"/>
       </defs>
       <use xlink:href="#DejaVuSans-54"/>
       <use x="63.623047" xlink:href="#DejaVuSans-48"/>
      </g>
     </g>
    </g>
    <g id="xtick_5">
     <g id="line2d_9">
      <path clip-path="url(#pf3102e5438)" d="M 228.57724 174.04 
L 228.57724 34.56 
" style="fill:none;stroke:#b0b0b0;stroke-linecap:square;stroke-width:0.8;"/>
     </g>
     <g id="line2d_10">
      <g>
       <use style="stroke:#000000;stroke-width:0.8;" x="228.57724" xlink:href="#m3c44ef9b9c" y="174.04"/>
      </g>
     </g>
     <g id="text_5">
      <!-- 80 -->
      <g transform="translate(222.21474 188.638438)scale(0.1 -0.1)">
       <defs>
        <path d="M 31.78125 34.625 
Q 24.75 34.625 20.71875 30.859375 
Q 16.703125 27.09375 16.703125 20.515625 
Q 16.703125 13.921875 20.71875 10.15625 
Q 24.75 6.390625 31.78125 6.390625 
Q 38.8125 6.390625 42.859375 10.171875 
Q 46.921875 13.96875 46.921875 20.515625 
Q 46.921875 27.09375 42.890625 30.859375 
Q 38.875 34.625 31.78125 34.625 
z
M 21.921875 38.8125 
Q 15.578125 40.375 12.03125 44.71875 
Q 8.5 49.078125 8.5 55.328125 
Q 8.5 64.0625 14.71875 69.140625 
Q 20.953125 74.21875 31.78125 74.21875 
Q 42.671875 74.21875 48.875 69.140625 
Q 55.078125 64.0625 55.078125 55.328125 
Q 55.078125 49.078125 51.53125 44.71875 
Q 48 40.375 41.703125 38.8125 
Q 48.828125 37.15625 52.796875 32.3125 
Q 56.78125 27.484375 56.78125 20.515625 
Q 56.78125 9.90625 50.3125 4.234375 
Q 43.84375 -1.421875 31.78125 -1.421875 
Q 19.734375 -1.421875 13.25 4.234375 
Q 6.78125 9.90625 6.78125 20.515625 
Q 6.78125 27.484375 10.78125 32.3125 
Q 14.796875 37.15625 21.921875 38.8125 
z
M 18.3125 54.390625 
Q 18.3125 48.734375 21.84375 45.5625 
Q 25.390625 42.390625 31.78125 42.390625 
Q 38.140625 42.390625 41.71875 45.5625 
Q 45.3125 48.734375 45.3125 54.390625 
Q 45.3125 60.0625 41.71875 63.234375 
Q 38.140625 66.40625 31.78125 66.40625 
Q 25.390625 66.40625 21.84375 63.234375 
Q 18.3125 60.0625 18.3125 54.390625 
z
" id="DejaVuSans-56"/>
       </defs>
       <use xlink:href="#DejaVuSans-56"/>
       <use x="63.623047" xlink:href="#DejaVuSans-48"/>
      </g>
     </g>
    </g>
    <g id="xtick_6">
     <g id="line2d_11">
      <path clip-path="url(#pf3102e5438)" d="M 271.664134 174.04 
L 271.664134 34.56 
" style="fill:none;stroke:#b0b0b0;stroke-linecap:square;stroke-width:0.8;"/>
     </g>
     <g id="line2d_12">
      <g>
       <use style="stroke:#000000;stroke-width:0.8;" x="271.664134" xlink:href="#m3c44ef9b9c" y="174.04"/>
      </g>
     </g>
     <g id="text_6">
      <!-- 100 -->
      <g transform="translate(262.120384 188.638438)scale(0.1 -0.1)">
       <defs>
        <path d="M 12.40625 8.296875 
L 28.515625 8.296875 
L 28.515625 63.921875 
L 10.984375 60.40625 
L 10.984375 69.390625 
L 28.421875 72.90625 
L 38.28125 72.90625 
L 38.28125 8.296875 
L 54.390625 8.296875 
L 54.390625 0 
L 12.40625 0 
z
" id="DejaVuSans-49"/>
       </defs>
       <use xlink:href="#DejaVuSans-49"/>
       <use x="63.623047" xlink:href="#DejaVuSans-48"/>
       <use x="127.246094" xlink:href="#DejaVuSans-48"/>
      </g>
     </g>
    </g>
    <g id="text_7">
     <!-- Epochs -->
     <g transform="translate(147.108445 202.316563)scale(0.1 -0.1)">
      <defs>
       <path d="M 9.8125 72.90625 
L 55.90625 72.90625 
L 55.90625 64.59375 
L 19.671875 64.59375 
L 19.671875 43.015625 
L 54.390625 43.015625 
L 54.390625 34.71875 
L 19.671875 34.71875 
L 19.671875 8.296875 
L 56.78125 8.296875 
L 56.78125 0 
L 9.8125 0 
z
" id="DejaVuSans-69"/>
       <path d="M 18.109375 8.203125 
L 18.109375 -20.796875 
L 9.078125 -20.796875 
L 9.078125 54.6875 
L 18.109375 54.6875 
L 18.109375 46.390625 
Q 20.953125 51.265625 25.265625 53.625 
Q 29.59375 56 35.59375 56 
Q 45.5625 56 51.78125 48.09375 
Q 58.015625 40.1875 58.015625 27.296875 
Q 58.015625 14.40625 51.78125 6.484375 
Q 45.5625 -1.421875 35.59375 -1.421875 
Q 29.59375 -1.421875 25.265625 0.953125 
Q 20.953125 3.328125 18.109375 8.203125 
z
M 48.6875 27.296875 
Q 48.6875 37.203125 44.609375 42.84375 
Q 40.53125 48.484375 33.40625 48.484375 
Q 26.265625 48.484375 22.1875 42.84375 
Q 18.109375 37.203125 18.109375 27.296875 
Q 18.109375 17.390625 22.1875 11.75 
Q 26.265625 6.109375 33.40625 6.109375 
Q 40.53125 6.109375 44.609375 11.75 
Q 48.6875 17.390625 48.6875 27.296875 
z
" id="DejaVuSans-112"/>
       <path d="M 30.609375 48.390625 
Q 23.390625 48.390625 19.1875 42.75 
Q 14.984375 37.109375 14.984375 27.296875 
Q 14.984375 17.484375 19.15625 11.84375 
Q 23.34375 6.203125 30.609375 6.203125 
Q 37.796875 6.203125 41.984375 11.859375 
Q 46.1875 17.53125 46.1875 27.296875 
Q 46.1875 37.015625 41.984375 42.703125 
Q 37.796875 48.390625 30.609375 48.390625 
z
M 30.609375 56 
Q 42.328125 56 49.015625 48.375 
Q 55.71875 40.765625 55.71875 27.296875 
Q 55.71875 13.875 49.015625 6.21875 
Q 42.328125 -1.421875 30.609375 -1.421875 
Q 18.84375 -1.421875 12.171875 6.21875 
Q 5.515625 13.875 5.515625 27.296875 
Q 5.515625 40.765625 12.171875 48.375 
Q 18.84375 56 30.609375 56 
z
" id="DejaVuSans-111"/>
       <path d="M 48.78125 52.59375 
L 48.78125 44.1875 
Q 44.96875 46.296875 41.140625 47.34375 
Q 37.3125 48.390625 33.40625 48.390625 
Q 24.65625 48.390625 19.8125 42.84375 
Q 14.984375 37.3125 14.984375 27.296875 
Q 14.984375 17.28125 19.8125 11.734375 
Q 24.65625 6.203125 33.40625 6.203125 
Q 37.3125 6.203125 41.140625 7.25 
Q 44.96875 8.296875 48.78125 10.40625 
L 48.78125 2.09375 
Q 45.015625 0.34375 40.984375 -0.53125 
Q 36.96875 -1.421875 32.421875 -1.421875 
Q 20.0625 -1.421875 12.78125 6.34375 
Q 5.515625 14.109375 5.515625 27.296875 
Q 5.515625 40.671875 12.859375 48.328125 
Q 20.21875 56 33.015625 56 
Q 37.15625 56 41.109375 55.140625 
Q 45.0625 54.296875 48.78125 52.59375 
z
" id="DejaVuSans-99"/>
       <path d="M 54.890625 33.015625 
L 54.890625 0 
L 45.90625 0 
L 45.90625 32.71875 
Q 45.90625 40.484375 42.875 44.328125 
Q 39.84375 48.1875 33.796875 48.1875 
Q 26.515625 48.1875 22.3125 43.546875 
Q 18.109375 38.921875 18.109375 30.90625 
L 18.109375 0 
L 9.078125 0 
L 9.078125 75.984375 
L 18.109375 75.984375 
L 18.109375 46.1875 
Q 21.34375 51.125 25.703125 53.5625 
Q 30.078125 56 35.796875 56 
Q 45.21875 56 50.046875 50.171875 
Q 54.890625 44.34375 54.890625 33.015625 
z
" id="DejaVuSans-104"/>
       <path d="M 44.28125 53.078125 
L 44.28125 44.578125 
Q 40.484375 46.53125 36.375 47.5 
Q 32.28125 48.484375 27.875 48.484375 
Q 21.1875 48.484375 17.84375 46.4375 
Q 14.5 44.390625 14.5 40.28125 
Q 14.5 37.15625 16.890625 35.375 
Q 19.28125 33.59375 26.515625 31.984375 
L 29.59375 31.296875 
Q 39.15625 29.25 43.1875 25.515625 
Q 47.21875 21.78125 47.21875 15.09375 
Q 47.21875 7.46875 41.1875 3.015625 
Q 35.15625 -1.421875 24.609375 -1.421875 
Q 20.21875 -1.421875 15.453125 -0.5625 
Q 10.6875 0.296875 5.421875 2 
L 5.421875 11.28125 
Q 10.40625 8.6875 15.234375 7.390625 
Q 20.0625 6.109375 24.8125 6.109375 
Q 31.15625 6.109375 34.5625 8.28125 
Q 37.984375 10.453125 37.984375 14.40625 
Q 37.984375 18.0625 35.515625 20.015625 
Q 33.0625 21.96875 24.703125 23.78125 
L 21.578125 24.515625 
Q 13.234375 26.265625 9.515625 29.90625 
Q 5.8125 33.546875 5.8125 39.890625 
Q 5.8125 47.609375 11.28125 51.796875 
Q 16.75 56 26.8125 56 
Q 31.78125 56 36.171875 55.265625 
Q 40.578125 54.546875 44.28125 53.078125 
z
" id="DejaVuSans-115"/>
      </defs>
      <use xlink:href="#DejaVuSans-69"/>
      <use x="63.183594" xlink:href="#DejaVuSans-112"/>
      <use x="126.660156" xlink:href="#DejaVuSans-111"/>
      <use x="187.841797" xlink:href="#DejaVuSans-99"/>
      <use x="242.822266" xlink:href="#DejaVuSans-104"/>
      <use x="306.201172" xlink:href="#DejaVuSans-115"/>
     </g>
    </g>
   </g>
   <g id="matplotlib.axis_2">
    <g id="ytick_1">
     <g id="line2d_13">
      <path clip-path="url(#pf3102e5438)" d="M 47.72 155.930444 
L 282.32814 155.930444 
" style="fill:none;stroke:#b0b0b0;stroke-linecap:square;stroke-width:0.8;"/>
     </g>
     <g id="line2d_14">
      <defs>
       <path d="M 0 0 
L -3.5 0 
" id="m344e5fdacd" style="stroke:#000000;stroke-width:0.8;"/>
      </defs>
      <g>
       <use style="stroke:#000000;stroke-width:0.8;" x="47.72" xlink:href="#m344e5fdacd" y="155.930444"/>
      </g>
     </g>
     <g id="text_8">
      <!-- 0.2 -->
      <g transform="translate(24.816875 159.729663)scale(0.1 -0.1)">
       <defs>
        <path d="M 10.6875 12.40625 
L 21 12.40625 
L 21 0 
L 10.6875 0 
z
" id="DejaVuSans-46"/>
       </defs>
       <use xlink:href="#DejaVuSans-48"/>
       <use x="63.623047" xlink:href="#DejaVuSans-46"/>
       <use x="95.410156" xlink:href="#DejaVuSans-50"/>
      </g>
     </g>
    </g>
    <g id="ytick_2">
     <g id="line2d_15">
      <path clip-path="url(#pf3102e5438)" d="M 47.72 120.075509 
L 282.32814 120.075509 
" style="fill:none;stroke:#b0b0b0;stroke-linecap:square;stroke-width:0.8;"/>
     </g>
     <g id="line2d_16">
      <g>
       <use style="stroke:#000000;stroke-width:0.8;" x="47.72" xlink:href="#m344e5fdacd" y="120.075509"/>
      </g>
     </g>
     <g id="text_9">
      <!-- 0.4 -->
      <g transform="translate(24.816875 123.874727)scale(0.1 -0.1)">
       <use xlink:href="#DejaVuSans-48"/>
       <use x="63.623047" xlink:href="#DejaVuSans-46"/>
       <use x="95.410156" xlink:href="#DejaVuSans-52"/>
      </g>
     </g>
    </g>
    <g id="ytick_3">
     <g id="line2d_17">
      <path clip-path="url(#pf3102e5438)" d="M 47.72 84.220573 
L 282.32814 84.220573 
" style="fill:none;stroke:#b0b0b0;stroke-linecap:square;stroke-width:0.8;"/>
     </g>
     <g id="line2d_18">
      <g>
       <use style="stroke:#000000;stroke-width:0.8;" x="47.72" xlink:href="#m344e5fdacd" y="84.220573"/>
      </g>
     </g>
     <g id="text_10">
      <!-- 0.6 -->
      <g transform="translate(24.816875 88.019792)scale(0.1 -0.1)">
       <use xlink:href="#DejaVuSans-48"/>
       <use x="63.623047" xlink:href="#DejaVuSans-46"/>
       <use x="95.410156" xlink:href="#DejaVuSans-54"/>
      </g>
     </g>
    </g>
    <g id="ytick_4">
     <g id="line2d_19">
      <path clip-path="url(#pf3102e5438)" d="M 47.72 48.365638 
L 282.32814 48.365638 
" style="fill:none;stroke:#b0b0b0;stroke-linecap:square;stroke-width:0.8;"/>
     </g>
     <g id="line2d_20">
      <g>
       <use style="stroke:#000000;stroke-width:0.8;" x="47.72" xlink:href="#m344e5fdacd" y="48.365638"/>
      </g>
     </g>
     <g id="text_11">
      <!-- 0.8 -->
      <g transform="translate(24.816875 52.164857)scale(0.1 -0.1)">
       <use xlink:href="#DejaVuSans-48"/>
       <use x="63.623047" xlink:href="#DejaVuSans-46"/>
       <use x="95.410156" xlink:href="#DejaVuSans-56"/>
      </g>
     </g>
    </g>
    <g id="text_12">
     <!-- Acc -->
     <g transform="translate(18.737187 113.13125)rotate(-90)scale(0.1 -0.1)">
      <defs>
       <path d="M 34.1875 63.1875 
L 20.796875 26.90625 
L 47.609375 26.90625 
z
M 28.609375 72.90625 
L 39.796875 72.90625 
L 67.578125 0 
L 57.328125 0 
L 50.6875 18.703125 
L 17.828125 18.703125 
L 11.1875 0 
L 0.78125 0 
z
" id="DejaVuSans-65"/>
      </defs>
      <use xlink:href="#DejaVuSans-65"/>
      <use x="66.658203" xlink:href="#DejaVuSans-99"/>
      <use x="121.638672" xlink:href="#DejaVuSans-99"/>
     </g>
    </g>
   </g>
   <g id="line2d_21">
    <path clip-path="url(#pf3102e5438)" d="M 58.384006 164.968669 
L 60.538351 137.986422 
L 62.692696 124.412532 
L 64.847041 113.901045 
L 67.001385 106.865794 
L 69.15573 102.975716 
L 71.310075 89.484596 
L 73.464419 80.297392 
L 75.618764 70.365274 
L 77.773109 67.137335 
L 79.927454 69.70313 
L 82.081798 67.054564 
L 84.236143 64.65431 
L 86.390488 61.095299 
L 88.544833 61.922974 
L 90.699177 59.688251 
L 92.853522 59.026107 
L 95.007867 63.081721 
L 97.162211 63.743865 
L 99.316556 61.757443 
L 101.470901 61.26083 
L 103.625246 63.992166 
L 105.77959 61.922974 
L 107.933935 56.708613 
L 110.08828 60.515926 
L 112.242624 58.612275 
L 114.396969 55.963709 
L 116.551314 58.695035 
L 118.705659 59.357179 
L 120.860003 56.377541 
L 123.014348 55.963709 
L 125.168693 58.363963 
L 127.323038 54.556661 
L 129.477382 56.956914 
L 131.631727 54.970493 
L 133.786072 55.301565 
L 135.940416 55.963709 
L 138.094761 54.722191 
L 140.249106 54.639421 
L 142.403451 56.874154 
L 144.557795 54.804962 
L 146.71214 56.294781 
L 148.866485 55.053263 
L 151.02083 52.404698 
L 153.175174 54.970493 
L 155.329519 54.225589 
L 157.483864 52.239167 
L 159.638208 55.053263 
L 161.792553 52.487468 
L 163.946898 54.556661 
L 166.101243 55.963709 
L 168.255587 54.225589 
L 170.409932 54.142818 
L 172.564277 53.066842 
L 174.718622 54.722191 
L 176.872966 51.990855 
L 179.027311 55.467095 
L 181.181656 52.239167 
L 183.336 51.16318 
L 185.490345 52.652999 
L 187.64469 51.16318 
L 189.799035 50.418276 
L 191.953379 51.577023 
L 194.107724 51.577023 
L 196.262069 50.832108 
L 198.416413 53.563445 
L 200.570758 49.507831 
L 202.725103 52.652999 
L 204.879448 50.583807 
L 207.033792 52.652999 
L 209.188137 52.073626 
L 211.342482 53.149602 
L 213.496827 51.825324 
L 215.651171 51.908095 
L 217.805516 51.494252 
L 219.959861 50.666577 
L 222.114205 52.984071 
L 224.26855 51.245951 
L 226.422895 53.894517 
L 228.57724 49.093988 
L 230.731584 53.811746 
L 232.885929 51.08042 
L 235.040274 53.315143 
L 237.194619 51.328722 
L 239.348963 52.73577 
L 241.503308 52.984071 
L 243.657653 51.245951 
L 245.811997 50.583807 
L 247.966342 51.494252 
L 250.120687 51.245951 
L 252.275032 48.266313 
L 254.429376 51.328722 
L 256.583721 51.742554 
L 258.738066 51.908095 
L 260.89241 50.335505 
L 263.046755 51.659794 
L 265.2011 48.100782 
L 267.355445 50.914879 
L 269.509789 51.245951 
L 271.664134 48.597385 
" style="fill:none;stroke:#1f77b4;stroke-linecap:square;stroke-width:1.5;"/>
   </g>
   <g id="line2d_22">
    <path clip-path="url(#pf3102e5438)" d="M 58.384006 143.531855 
L 60.538351 137.241513 
L 62.692696 137.158748 
L 64.847041 136.579374 
L 67.001385 137.158748 
L 69.15573 135.420627 
L 71.310075 132.772062 
L 73.464419 125.736815 
L 75.618764 113.487208 
L 77.773109 104.5483 
L 79.927454 96.602608 
L 82.081798 91.222717 
L 84.236143 87.001561 
L 86.390488 84.518537 
L 88.544833 78.559272 
L 90.699177 76.903912 
L 92.853522 76.57284 
L 95.007867 75.827936 
L 97.162211 72.765538 
L 99.316556 72.186165 
L 101.470901 70.448044 
L 103.625246 65.813057 
L 105.77959 66.640732 
L 107.933935 64.240467 
L 110.08828 62.750649 
L 112.242624 64.65431 
L 114.396969 61.26083 
L 116.551314 57.039685 
L 118.705659 59.853781 
L 120.860003 56.543082 
L 123.014348 59.274408 
L 125.168693 58.198432 
L 127.323038 58.695035 
L 129.477382 57.205216 
L 131.631727 57.86736 
L 133.786072 55.467095 
L 135.940416 56.294781 
L 138.094761 57.453528 
L 140.249106 58.612275 
L 142.403451 55.136034 
L 144.557795 57.784589 
L 146.71214 58.198432 
L 148.866485 58.032901 
L 151.02083 59.771021 
L 153.175174 54.308349 
L 155.329519 58.032901 
L 157.483864 56.21201 
L 159.638208 56.791384 
L 161.792553 59.688251 
L 163.946898 54.556661 
L 166.101243 54.804962 
L 168.255587 61.591902 
L 170.409932 58.281203 
L 172.564277 61.674672 
L 174.718622 60.846998 
L 176.872966 58.198432 
L 179.027311 57.619058 
L 181.181656 62.005744 
L 183.336 60.598696 
L 185.490345 60.681456 
L 187.64469 63.578323 
L 189.799035 63.247262 
L 191.953379 62.336816 
L 194.107724 63.495563 
L 196.262069 64.074937 
L 198.416413 64.985382 
L 200.570758 65.150913 
L 202.725103 69.206527 
L 204.879448 67.716708 
L 207.033792 69.123756 
L 209.188137 69.7859 
L 211.342482 72.434466 
L 213.496827 72.931069 
L 215.651171 75.993466 
L 217.805516 73.675973 
L 219.959861 74.420888 
L 222.114205 77.234984 
L 224.26855 78.062659 
L 226.422895 77.566056 
L 228.57724 77.483285 
L 230.731584 78.062659 
L 232.885929 78.393731 
L 235.040274 80.297392 
L 237.194619 78.145429 
L 239.348963 82.449345 
L 241.503308 84.684068 
L 243.657653 83.856393 
L 245.811997 84.270236 
L 247.966342 84.684068 
L 250.120687 85.511753 
L 252.275032 89.236295 
L 254.429376 92.629765 
L 256.583721 87.167103 
L 258.738066 86.587729 
L 260.89241 89.732898 
L 263.046755 89.981199 
L 265.2011 96.188776 
L 267.355445 91.636549 
L 269.509789 92.712536 
L 271.664134 93.126368 
" style="fill:none;stroke:#ff7f0e;stroke-linecap:square;stroke-width:1.5;"/>
   </g>
   <g id="line2d_23">
    <path clip-path="url(#pf3102e5438)" d="M 58.384006 163.561618 
L 60.538351 150.732638 
L 62.692696 140.055615 
L 64.847041 137.903657 
L 67.001385 139.22794 
L 69.15573 137.903657 
L 71.310075 138.565796 
L 73.464419 137.407049 
L 75.618764 135.337857 
L 77.773109 135.834465 
L 79.927454 132.358224 
L 82.081798 128.550912 
L 84.236143 119.69478 
L 86.390488 113.818275 
L 88.544833 106.865794 
L 90.699177 96.685379 
L 92.853522 93.871282 
L 95.007867 91.719319 
L 97.162211 91.222717 
L 99.316556 84.518537 
L 101.470901 81.704441 
L 103.625246 81.042297 
L 105.77959 78.393731 
L 107.933935 78.642032 
L 110.08828 77.483285 
L 112.242624 75.910706 
L 114.396969 78.476502 
L 116.551314 78.062659 
L 118.705659 74.172586 
L 120.860003 74.089816 
L 123.014348 76.49008 
L 125.168693 75.000261 
L 127.323038 72.599997 
L 129.477382 72.517226 
L 131.631727 75.000261 
L 133.786072 72.848298 
L 135.940416 71.772322 
L 138.094761 73.344911 
L 140.249106 68.709924 
L 142.403451 71.192948 
L 144.557795 71.855093 
L 146.71214 70.613575 
L 148.866485 71.689551 
L 151.02083 70.034202 
L 153.175174 70.365274 
L 155.329519 69.620359 
L 157.483864 73.593213 
L 159.638208 70.944647 
L 161.792553 69.951431 
L 163.946898 69.372058 
L 166.101243 71.358479 
L 168.255587 68.461623 
L 170.409932 72.351695 
L 172.564277 71.524021 
L 174.718622 68.792684 
L 176.872966 73.510442 
L 179.027311 67.302876 
L 181.181656 71.358479 
L 183.336 69.454828 
L 185.490345 69.70313 
L 187.64469 67.137335 
L 189.799035 70.365274 
L 191.953379 68.627153 
L 194.107724 63.909395 
L 196.262069 62.088515 
L 198.416413 67.468407 
L 200.570758 67.716708 
L 202.725103 62.91619 
L 204.879448 69.620359 
L 207.033792 62.99895 
L 209.188137 66.640732 
L 211.342482 63.247262 
L 213.496827 63.081721 
L 215.651171 64.157697 
L 217.805516 59.191648 
L 219.959861 59.936552 
L 222.114205 58.032901 
L 224.26855 60.350395 
L 226.422895 60.267624 
L 228.57724 58.115661 
L 230.731584 61.509142 
L 232.885929 59.688251 
L 235.040274 61.840203 
L 237.194619 59.357179 
L 239.348963 62.667889 
L 241.503308 57.453528 
L 243.657653 61.012528 
L 245.811997 57.950131 
L 247.966342 55.053263 
L 250.120687 54.225589 
L 252.275032 57.453528 
L 254.429376 54.722191 
L 256.583721 55.384335 
L 258.738066 58.198432 
L 260.89241 58.446733 
L 263.046755 57.701829 
L 265.2011 55.549866 
L 267.355445 56.12924 
L 269.509789 55.218794 
L 271.664134 54.47389 
" style="fill:none;stroke:#2ca02c;stroke-linecap:square;stroke-width:1.5;"/>
   </g>
   <g id="line2d_24">
    <path clip-path="url(#pf3102e5438)" d="M 58.384006 167.7 
L 60.538351 128.385381 
L 62.692696 122.260575 
L 64.847041 124.660834 
L 67.001385 113.901045 
L 69.15573 87.415404 
L 71.310075 71.689551 
L 73.464419 63.826635 
L 75.618764 61.674672 
L 77.773109 60.019323 
L 79.927454 52.9013 
L 82.081798 52.156396 
L 84.236143 52.239167 
L 86.390488 48.928457 
L 88.544833 47.76971 
L 90.699177 47.521409 
L 92.853522 48.597385 
L 95.007867 47.273108 
L 97.162211 49.42506 
L 99.316556 49.838903 
L 101.470901 52.321927 
L 103.625246 53.894517 
L 105.77959 53.480674 
L 107.933935 56.708613 
L 110.08828 61.3436 
L 112.242624 65.481985 
L 114.396969 63.495563 
L 116.551314 63.495563 
L 118.705659 68.958225 
L 120.860003 66.971804 
L 123.014348 70.696346 
L 125.168693 74.503658 
L 127.323038 74.089816 
L 129.477382 76.738381 
L 131.631727 81.538899 
L 133.786072 81.704441 
L 135.940416 76.324539 
L 138.094761 84.435766 
L 140.249106 83.19426 
L 142.403451 78.476502 
L 144.557795 86.6705 
L 146.71214 89.153524 
L 148.866485 88.40862 
L 151.02083 91.88485 
L 153.175174 92.215922 
L 155.329519 100.989294 
L 157.483864 98.754571 
L 159.638208 110.673106 
L 161.792553 88.574151 
L 163.946898 106.948564 
L 166.101243 95.609403 
L 168.255587 98.257958 
L 170.409932 98.754571 
L 172.564277 101.568668 
L 174.718622 96.76815 
L 176.872966 121.267364 
L 179.027311 92.546994 
L 181.181656 108.686685 
L 183.336 101.403137 
L 185.490345 101.568668 
L 187.64469 98.257958 
L 189.799035 122.260575 
L 191.953379 102.313577 
L 194.107724 112.742299 
L 196.262069 112.080154 
L 198.416413 114.72872 
L 200.570758 128.054309 
L 202.725103 128.716448 
L 204.879448 130.78564 
L 207.033792 152.719059 
L 209.188137 141.793735 
L 211.342482 123.336551 
L 213.496827 126.481725 
L 215.651171 118.94987 
L 217.805516 141.793735 
L 219.959861 135.00679 
L 222.114205 112.907835 
L 224.26855 135.503393 
L 226.422895 125.736815 
L 228.57724 117.791123 
L 230.731584 132.192688 
L 232.885929 165.051437 
L 235.040274 122.674412 
L 237.194619 125.405743 
L 239.348963 118.039425 
L 241.503308 134.096344 
L 243.657653 117.21175 
L 245.811997 107.362402 
L 247.966342 165.63081 
L 250.120687 137.738121 
L 252.275032 140.055615 
L 254.429376 131.861616 
L 256.583721 143.449084 
L 258.738066 113.238901 
L 260.89241 150.898174 
L 263.046755 123.005484 
L 265.2011 116.218539 
L 267.355445 157.105745 
L 269.509789 138.317494 
L 271.664134 145.932114 
" style="fill:none;stroke:#d62728;stroke-linecap:square;stroke-width:1.5;"/>
   </g>
   <g id="line2d_25">
    <path clip-path="url(#pf3102e5438)" d="M 58.384006 159.340471 
L 60.538351 132.358224 
L 62.692696 120.356918 
L 64.847041 118.370497 
L 67.001385 115.225328 
L 69.15573 115.142558 
L 71.310075 114.480419 
L 73.464419 116.46684 
L 75.618764 114.480419 
L 77.773109 110.424805 
L 79.927454 111.169714 
L 82.081798 109.514359 
L 84.236143 104.5483 
L 86.390488 102.230806 
L 88.544833 98.257958 
L 90.699177 94.781717 
L 92.853522 90.974415 
L 95.007867 89.319055 
L 97.162211 86.008356 
L 99.316556 80.380152 
L 101.470901 79.386947 
L 103.625246 76.49008 
L 105.77959 74.586418 
L 107.933935 71.44125 
L 110.08828 67.965009 
L 112.242624 66.226889 
L 114.396969 61.922974 
L 116.551314 59.936552 
L 118.705659 57.370757 
L 120.860003 56.625842 
L 123.014348 54.47389 
L 125.168693 52.81854 
L 127.323038 54.060047 
L 129.477382 51.825324 
L 131.631727 51.825324 
L 133.786072 51.990855 
L 135.940416 50.335505 
L 138.094761 47.190337 
L 140.249106 49.590601 
L 142.403451 48.514614 
L 144.557795 47.935241 
L 146.71214 45.783289 
L 148.866485 47.024806 
L 151.02083 48.183553 
L 153.175174 48.349084 
L 155.329519 46.776494 
L 157.483864 46.362662 
L 159.638208 45.783289 
L 161.792553 46.776494 
L 163.946898 45.286686 
L 166.101243 47.107566 
L 168.255587 43.217494 
L 170.409932 45.121145 
L 172.564277 45.783289 
L 174.718622 45.286686 
L 176.872966 45.203915 
L 179.027311 45.534987 
L 181.181656 45.121145 
L 183.336 45.038385 
L 185.490345 44.376241 
L 187.64469 45.038385 
L 189.799035 45.038385 
L 191.953379 43.796867 
L 194.107724 43.548566 
L 196.262069 45.534987 
L 198.416413 44.624542 
L 200.570758 44.541771 
L 202.725103 43.217494 
L 204.879448 43.962398 
L 207.033792 45.121145 
L 209.188137 46.610964 
L 211.342482 43.548566 
L 213.496827 43.879638 
L 215.651171 43.134723 
L 217.805516 43.217494 
L 219.959861 43.714096 
L 222.114205 44.872843 
L 224.26855 44.624542 
L 226.422895 43.796867 
L 228.57724 43.962398 
L 230.731584 43.134723 
L 232.885929 41.644904 
L 235.040274 41.644904 
L 237.194619 43.631326 
L 239.348963 43.217494 
L 241.503308 40.9 
L 243.657653 43.051952 
L 245.811997 42.307048 
L 247.966342 44.376241 
L 250.120687 43.383024 
L 252.275032 44.127939 
L 254.429376 43.383024 
L 256.583721 42.058747 
L 258.738066 43.548566 
L 260.89241 43.217494 
L 263.046755 42.63812 
L 265.2011 42.389819 
L 267.355445 42.886422 
L 269.509789 44.127939 
L 271.664134 42.720891 
" style="fill:none;stroke:#9467bd;stroke-linecap:square;stroke-width:1.5;"/>
   </g>
   <g id="patch_3">
    <path d="M 47.72 174.04 
L 47.72 34.56 
" style="fill:none;stroke:#000000;stroke-linecap:square;stroke-linejoin:miter;stroke-width:0.8;"/>
   </g>
   <g id="patch_4">
    <path d="M 282.32814 174.04 
L 282.32814 34.56 
" style="fill:none;stroke:#000000;stroke-linecap:square;stroke-linejoin:miter;stroke-width:0.8;"/>
   </g>
   <g id="patch_5">
    <path d="M 47.72 174.04 
L 282.32814 174.04 
" style="fill:none;stroke:#000000;stroke-linecap:square;stroke-linejoin:miter;stroke-width:0.8;"/>
   </g>
   <g id="patch_6">
    <path d="M 47.72 34.56 
L 282.32814 34.56 
" style="fill:none;stroke:#000000;stroke-linecap:square;stroke-linejoin:miter;stroke-width:0.8;"/>
   </g>
   <g id="legend_1">
    <g id="patch_7">
     <path d="M 134.443601 169.04 
L 195.604539 169.04 
Q 197.604539 169.04 197.604539 167.04 
L 197.604539 94.649375 
Q 197.604539 92.649375 195.604539 92.649375 
L 134.443601 92.649375 
Q 132.443601 92.649375 132.443601 94.649375 
L 132.443601 167.04 
Q 132.443601 169.04 134.443601 169.04 
z
" style="fill:#ffffff;opacity:0.8;stroke:#cccccc;stroke-linejoin:miter;"/>
    </g>
    <g id="line2d_26">
     <path d="M 136.443601 100.747813 
L 156.443601 100.747813 
" style="fill:none;stroke:#1f77b4;stroke-linecap:square;stroke-width:1.5;"/>
    </g>
    <g id="line2d_27"/>
    <g id="text_13">
     <!-- GAT -->
     <g transform="translate(164.443601 104.247813)scale(0.1 -0.1)">
      <defs>
       <path d="M 59.515625 10.40625 
L 59.515625 29.984375 
L 43.40625 29.984375 
L 43.40625 38.09375 
L 69.28125 38.09375 
L 69.28125 6.78125 
Q 63.578125 2.734375 56.6875 0.65625 
Q 49.8125 -1.421875 42 -1.421875 
Q 24.90625 -1.421875 15.25 8.5625 
Q 5.609375 18.5625 5.609375 36.375 
Q 5.609375 54.25 15.25 64.234375 
Q 24.90625 74.21875 42 74.21875 
Q 49.125 74.21875 55.546875 72.453125 
Q 61.96875 70.703125 67.390625 67.28125 
L 67.390625 56.78125 
Q 61.921875 61.421875 55.765625 63.765625 
Q 49.609375 66.109375 42.828125 66.109375 
Q 29.4375 66.109375 22.71875 58.640625 
Q 16.015625 51.171875 16.015625 36.375 
Q 16.015625 21.625 22.71875 14.15625 
Q 29.4375 6.6875 42.828125 6.6875 
Q 48.046875 6.6875 52.140625 7.59375 
Q 56.25 8.5 59.515625 10.40625 
z
" id="DejaVuSans-71"/>
       <path d="M -0.296875 72.90625 
L 61.375 72.90625 
L 61.375 64.59375 
L 35.5 64.59375 
L 35.5 0 
L 25.59375 0 
L 25.59375 64.59375 
L -0.296875 64.59375 
z
" id="DejaVuSans-84"/>
      </defs>
      <use xlink:href="#DejaVuSans-71"/>
      <use x="77.490234" xlink:href="#DejaVuSans-65"/>
      <use x="138.148438" xlink:href="#DejaVuSans-84"/>
     </g>
    </g>
    <g id="line2d_28">
     <path d="M 136.443601 115.425938 
L 156.443601 115.425938 
" style="fill:none;stroke:#ff7f0e;stroke-linecap:square;stroke-width:1.5;"/>
    </g>
    <g id="line2d_29"/>
    <g id="text_14">
     <!-- GCN -->
     <g transform="translate(164.443601 118.925938)scale(0.1 -0.1)">
      <defs>
       <path d="M 64.40625 67.28125 
L 64.40625 56.890625 
Q 59.421875 61.53125 53.78125 63.8125 
Q 48.140625 66.109375 41.796875 66.109375 
Q 29.296875 66.109375 22.65625 58.46875 
Q 16.015625 50.828125 16.015625 36.375 
Q 16.015625 21.96875 22.65625 14.328125 
Q 29.296875 6.6875 41.796875 6.6875 
Q 48.140625 6.6875 53.78125 8.984375 
Q 59.421875 11.28125 64.40625 15.921875 
L 64.40625 5.609375 
Q 59.234375 2.09375 53.4375 0.328125 
Q 47.65625 -1.421875 41.21875 -1.421875 
Q 24.65625 -1.421875 15.125 8.703125 
Q 5.609375 18.84375 5.609375 36.375 
Q 5.609375 53.953125 15.125 64.078125 
Q 24.65625 74.21875 41.21875 74.21875 
Q 47.75 74.21875 53.53125 72.484375 
Q 59.328125 70.75 64.40625 67.28125 
z
" id="DejaVuSans-67"/>
       <path d="M 9.8125 72.90625 
L 23.09375 72.90625 
L 55.421875 11.921875 
L 55.421875 72.90625 
L 64.984375 72.90625 
L 64.984375 0 
L 51.703125 0 
L 19.390625 60.984375 
L 19.390625 0 
L 9.8125 0 
z
" id="DejaVuSans-78"/>
      </defs>
      <use xlink:href="#DejaVuSans-71"/>
      <use x="77.490234" xlink:href="#DejaVuSans-67"/>
      <use x="147.314453" xlink:href="#DejaVuSans-78"/>
     </g>
    </g>
    <g id="line2d_30">
     <path d="M 136.443601 130.104062 
L 156.443601 130.104062 
" style="fill:none;stroke:#2ca02c;stroke-linecap:square;stroke-width:1.5;"/>
    </g>
    <g id="line2d_31"/>
    <g id="text_15">
     <!-- PPNP -->
     <g transform="translate(164.443601 133.604062)scale(0.1 -0.1)">
      <defs>
       <path d="M 19.671875 64.796875 
L 19.671875 37.40625 
L 32.078125 37.40625 
Q 38.96875 37.40625 42.71875 40.96875 
Q 46.484375 44.53125 46.484375 51.125 
Q 46.484375 57.671875 42.71875 61.234375 
Q 38.96875 64.796875 32.078125 64.796875 
z
M 9.8125 72.90625 
L 32.078125 72.90625 
Q 44.34375 72.90625 50.609375 67.359375 
Q 56.890625 61.8125 56.890625 51.125 
Q 56.890625 40.328125 50.609375 34.8125 
Q 44.34375 29.296875 32.078125 29.296875 
L 19.671875 29.296875 
L 19.671875 0 
L 9.8125 0 
z
" id="DejaVuSans-80"/>
      </defs>
      <use xlink:href="#DejaVuSans-80"/>
      <use x="60.302734" xlink:href="#DejaVuSans-80"/>
      <use x="120.605469" xlink:href="#DejaVuSans-78"/>
      <use x="195.410156" xlink:href="#DejaVuSans-80"/>
     </g>
    </g>
    <g id="line2d_32">
     <path d="M 136.443601 144.782188 
L 156.443601 144.782188 
" style="fill:none;stroke:#d62728;stroke-linecap:square;stroke-width:1.5;"/>
    </g>
    <g id="line2d_33"/>
    <g id="text_16">
     <!-- RGCN -->
     <g transform="translate(164.443601 148.282188)scale(0.1 -0.1)">
      <defs>
       <path d="M 44.390625 34.1875 
Q 47.5625 33.109375 50.5625 29.59375 
Q 53.5625 26.078125 56.59375 19.921875 
L 66.609375 0 
L 56 0 
L 46.6875 18.703125 
Q 43.0625 26.03125 39.671875 28.421875 
Q 36.28125 30.8125 30.421875 30.8125 
L 19.671875 30.8125 
L 19.671875 0 
L 9.8125 0 
L 9.8125 72.90625 
L 32.078125 72.90625 
Q 44.578125 72.90625 50.734375 67.671875 
Q 56.890625 62.453125 56.890625 51.90625 
Q 56.890625 45.015625 53.6875 40.46875 
Q 50.484375 35.9375 44.390625 34.1875 
z
M 19.671875 64.796875 
L 19.671875 38.921875 
L 32.078125 38.921875 
Q 39.203125 38.921875 42.84375 42.21875 
Q 46.484375 45.515625 46.484375 51.90625 
Q 46.484375 58.296875 42.84375 61.546875 
Q 39.203125 64.796875 32.078125 64.796875 
z
" id="DejaVuSans-82"/>
      </defs>
      <use xlink:href="#DejaVuSans-82"/>
      <use x="69.482422" xlink:href="#DejaVuSans-71"/>
      <use x="146.972656" xlink:href="#DejaVuSans-67"/>
      <use x="216.796875" xlink:href="#DejaVuSans-78"/>
     </g>
    </g>
    <g id="line2d_34">
     <path d="M 136.443601 159.460313 
L 156.443601 159.460313 
" style="fill:none;stroke:#9467bd;stroke-linecap:square;stroke-width:1.5;"/>
    </g>
    <g id="line2d_35"/>
    <g id="text_17">
     <!-- SGC -->
     <g transform="translate(164.443601 162.960313)scale(0.1 -0.1)">
      <defs>
       <path d="M 53.515625 70.515625 
L 53.515625 60.890625 
Q 47.90625 63.578125 42.921875 64.890625 
Q 37.9375 66.21875 33.296875 66.21875 
Q 25.25 66.21875 20.875 63.09375 
Q 16.5 59.96875 16.5 54.203125 
Q 16.5 49.359375 19.40625 46.890625 
Q 22.3125 44.4375 30.421875 42.921875 
L 36.375 41.703125 
Q 47.40625 39.59375 52.65625 34.296875 
Q 57.90625 29 57.90625 20.125 
Q 57.90625 9.515625 50.796875 4.046875 
Q 43.703125 -1.421875 29.984375 -1.421875 
Q 24.8125 -1.421875 18.96875 -0.25 
Q 13.140625 0.921875 6.890625 3.21875 
L 6.890625 13.375 
Q 12.890625 10.015625 18.65625 8.296875 
Q 24.421875 6.59375 29.984375 6.59375 
Q 38.421875 6.59375 43.015625 9.90625 
Q 47.609375 13.234375 47.609375 19.390625 
Q 47.609375 24.75 44.3125 27.78125 
Q 41.015625 30.8125 33.5 32.328125 
L 27.484375 33.5 
Q 16.453125 35.6875 11.515625 40.375 
Q 6.59375 45.0625 6.59375 53.421875 
Q 6.59375 63.09375 13.40625 68.65625 
Q 20.21875 74.21875 32.171875 74.21875 
Q 37.3125 74.21875 42.625 73.28125 
Q 47.953125 72.359375 53.515625 70.515625 
z
" id="DejaVuSans-83"/>
      </defs>
      <use xlink:href="#DejaVuSans-83"/>
      <use x="63.476562" xlink:href="#DejaVuSans-71"/>
      <use x="140.966797" xlink:href="#DejaVuSans-67"/>
     </g>
    </g>
   </g>
  </g>
  <g id="axes_2">
   <g id="patch_8">
    <path d="M 330.32 174.04 
L 564.92814 174.04 
L 564.92814 34.56 
L 330.32 34.56 
z
" style="fill:#ffffff;"/>
   </g>
   <g id="matplotlib.axis_3">
    <g id="xtick_7">
     <g id="line2d_36">
      <path clip-path="url(#p1d87fede2e)" d="M 338.829662 174.04 
L 338.829662 34.56 
" style="fill:none;stroke:#b0b0b0;stroke-linecap:square;stroke-width:0.8;"/>
     </g>
     <g id="line2d_37">
      <g>
       <use style="stroke:#000000;stroke-width:0.8;" x="338.829662" xlink:href="#m3c44ef9b9c" y="174.04"/>
      </g>
     </g>
     <g id="text_18">
      <!-- 0 -->
      <g transform="translate(335.648412 188.638438)scale(0.1 -0.1)">
       <use xlink:href="#DejaVuSans-48"/>
      </g>
     </g>
    </g>
    <g id="xtick_8">
     <g id="line2d_38">
      <path clip-path="url(#p1d87fede2e)" d="M 381.916556 174.04 
L 381.916556 34.56 
" style="fill:none;stroke:#b0b0b0;stroke-linecap:square;stroke-width:0.8;"/>
     </g>
     <g id="line2d_39">
      <g>
       <use style="stroke:#000000;stroke-width:0.8;" x="381.916556" xlink:href="#m3c44ef9b9c" y="174.04"/>
      </g>
     </g>
     <g id="text_19">
      <!-- 20 -->
      <g transform="translate(375.554056 188.638438)scale(0.1 -0.1)">
       <use xlink:href="#DejaVuSans-50"/>
       <use x="63.623047" xlink:href="#DejaVuSans-48"/>
      </g>
     </g>
    </g>
    <g id="xtick_9">
     <g id="line2d_40">
      <path clip-path="url(#p1d87fede2e)" d="M 425.003451 174.04 
L 425.003451 34.56 
" style="fill:none;stroke:#b0b0b0;stroke-linecap:square;stroke-width:0.8;"/>
     </g>
     <g id="line2d_41">
      <g>
       <use style="stroke:#000000;stroke-width:0.8;" x="425.003451" xlink:href="#m3c44ef9b9c" y="174.04"/>
      </g>
     </g>
     <g id="text_20">
      <!-- 40 -->
      <g transform="translate(418.640951 188.638438)scale(0.1 -0.1)">
       <use xlink:href="#DejaVuSans-52"/>
       <use x="63.623047" xlink:href="#DejaVuSans-48"/>
      </g>
     </g>
    </g>
    <g id="xtick_10">
     <g id="line2d_42">
      <path clip-path="url(#p1d87fede2e)" d="M 468.090345 174.04 
L 468.090345 34.56 
" style="fill:none;stroke:#b0b0b0;stroke-linecap:square;stroke-width:0.8;"/>
     </g>
     <g id="line2d_43">
      <g>
       <use style="stroke:#000000;stroke-width:0.8;" x="468.090345" xlink:href="#m3c44ef9b9c" y="174.04"/>
      </g>
     </g>
     <g id="text_21">
      <!-- 60 -->
      <g transform="translate(461.727845 188.638438)scale(0.1 -0.1)">
       <use xlink:href="#DejaVuSans-54"/>
       <use x="63.623047" xlink:href="#DejaVuSans-48"/>
      </g>
     </g>
    </g>
    <g id="xtick_11">
     <g id="line2d_44">
      <path clip-path="url(#p1d87fede2e)" d="M 511.17724 174.04 
L 511.17724 34.56 
" style="fill:none;stroke:#b0b0b0;stroke-linecap:square;stroke-width:0.8;"/>
     </g>
     <g id="line2d_45">
      <g>
       <use style="stroke:#000000;stroke-width:0.8;" x="511.17724" xlink:href="#m3c44ef9b9c" y="174.04"/>
      </g>
     </g>
     <g id="text_22">
      <!-- 80 -->
      <g transform="translate(504.81474 188.638438)scale(0.1 -0.1)">
       <use xlink:href="#DejaVuSans-56"/>
       <use x="63.623047" xlink:href="#DejaVuSans-48"/>
      </g>
     </g>
    </g>
    <g id="xtick_12">
     <g id="line2d_46">
      <path clip-path="url(#p1d87fede2e)" d="M 554.264134 174.04 
L 554.264134 34.56 
" style="fill:none;stroke:#b0b0b0;stroke-linecap:square;stroke-width:0.8;"/>
     </g>
     <g id="line2d_47">
      <g>
       <use style="stroke:#000000;stroke-width:0.8;" x="554.264134" xlink:href="#m3c44ef9b9c" y="174.04"/>
      </g>
     </g>
     <g id="text_23">
      <!-- 100 -->
      <g transform="translate(544.720384 188.638438)scale(0.1 -0.1)">
       <use xlink:href="#DejaVuSans-49"/>
       <use x="63.623047" xlink:href="#DejaVuSans-48"/>
       <use x="127.246094" xlink:href="#DejaVuSans-48"/>
      </g>
     </g>
    </g>
    <g id="text_24">
     <!-- Epochs -->
     <g transform="translate(429.708445 202.316563)scale(0.1 -0.1)">
      <use xlink:href="#DejaVuSans-69"/>
      <use x="63.183594" xlink:href="#DejaVuSans-112"/>
      <use x="126.660156" xlink:href="#DejaVuSans-111"/>
      <use x="187.841797" xlink:href="#DejaVuSans-99"/>
      <use x="242.822266" xlink:href="#DejaVuSans-104"/>
      <use x="306.201172" xlink:href="#DejaVuSans-115"/>
     </g>
    </g>
   </g>
   <g id="matplotlib.axis_4">
    <g id="ytick_5">
     <g id="line2d_48">
      <path clip-path="url(#p1d87fede2e)" d="M 330.32 151.005728 
L 564.92814 151.005728 
" style="fill:none;stroke:#b0b0b0;stroke-linecap:square;stroke-width:0.8;"/>
     </g>
     <g id="line2d_49">
      <g>
       <use style="stroke:#000000;stroke-width:0.8;" x="330.32" xlink:href="#m344e5fdacd" y="151.005728"/>
      </g>
     </g>
     <g id="text_25">
      <!-- 0.2 -->
      <g transform="translate(307.416875 154.804947)scale(0.1 -0.1)">
       <use xlink:href="#DejaVuSans-48"/>
       <use x="63.623047" xlink:href="#DejaVuSans-46"/>
       <use x="95.410156" xlink:href="#DejaVuSans-50"/>
      </g>
     </g>
    </g>
    <g id="ytick_6">
     <g id="line2d_50">
      <path clip-path="url(#p1d87fede2e)" d="M 330.32 116.470251 
L 564.92814 116.470251 
" style="fill:none;stroke:#b0b0b0;stroke-linecap:square;stroke-width:0.8;"/>
     </g>
     <g id="line2d_51">
      <g>
       <use style="stroke:#000000;stroke-width:0.8;" x="330.32" xlink:href="#m344e5fdacd" y="116.470251"/>
      </g>
     </g>
     <g id="text_26">
      <!-- 0.4 -->
      <g transform="translate(307.416875 120.26947)scale(0.1 -0.1)">
       <use xlink:href="#DejaVuSans-48"/>
       <use x="63.623047" xlink:href="#DejaVuSans-46"/>
       <use x="95.410156" xlink:href="#DejaVuSans-52"/>
      </g>
     </g>
    </g>
    <g id="ytick_7">
     <g id="line2d_52">
      <path clip-path="url(#p1d87fede2e)" d="M 330.32 81.934774 
L 564.92814 81.934774 
" style="fill:none;stroke:#b0b0b0;stroke-linecap:square;stroke-width:0.8;"/>
     </g>
     <g id="line2d_53">
      <g>
       <use style="stroke:#000000;stroke-width:0.8;" x="330.32" xlink:href="#m344e5fdacd" y="81.934774"/>
      </g>
     </g>
     <g id="text_27">
      <!-- 0.6 -->
      <g transform="translate(307.416875 85.733993)scale(0.1 -0.1)">
       <use xlink:href="#DejaVuSans-48"/>
       <use x="63.623047" xlink:href="#DejaVuSans-46"/>
       <use x="95.410156" xlink:href="#DejaVuSans-54"/>
      </g>
     </g>
    </g>
    <g id="ytick_8">
     <g id="line2d_54">
      <path clip-path="url(#p1d87fede2e)" d="M 330.32 47.399297 
L 564.92814 47.399297 
" style="fill:none;stroke:#b0b0b0;stroke-linecap:square;stroke-width:0.8;"/>
     </g>
     <g id="line2d_55">
      <g>
       <use style="stroke:#000000;stroke-width:0.8;" x="330.32" xlink:href="#m344e5fdacd" y="47.399297"/>
      </g>
     </g>
     <g id="text_28">
      <!-- 0.8 -->
      <g transform="translate(307.416875 51.198515)scale(0.1 -0.1)">
       <use xlink:href="#DejaVuSans-48"/>
       <use x="63.623047" xlink:href="#DejaVuSans-46"/>
       <use x="95.410156" xlink:href="#DejaVuSans-56"/>
      </g>
     </g>
    </g>
    <g id="text_29">
     <!-- Val Acc -->
     <g transform="translate(301.337188 122.20625)rotate(-90)scale(0.1 -0.1)">
      <defs>
       <path d="M 28.609375 0 
L 0.78125 72.90625 
L 11.078125 72.90625 
L 34.1875 11.53125 
L 57.328125 72.90625 
L 67.578125 72.90625 
L 39.796875 0 
z
" id="DejaVuSans-86"/>
       <path d="M 34.28125 27.484375 
Q 23.390625 27.484375 19.1875 25 
Q 14.984375 22.515625 14.984375 16.5 
Q 14.984375 11.71875 18.140625 8.90625 
Q 21.296875 6.109375 26.703125 6.109375 
Q 34.1875 6.109375 38.703125 11.40625 
Q 43.21875 16.703125 43.21875 25.484375 
L 43.21875 27.484375 
z
M 52.203125 31.203125 
L 52.203125 0 
L 43.21875 0 
L 43.21875 8.296875 
Q 40.140625 3.328125 35.546875 0.953125 
Q 30.953125 -1.421875 24.3125 -1.421875 
Q 15.921875 -1.421875 10.953125 3.296875 
Q 6 8.015625 6 15.921875 
Q 6 25.140625 12.171875 29.828125 
Q 18.359375 34.515625 30.609375 34.515625 
L 43.21875 34.515625 
L 43.21875 35.40625 
Q 43.21875 41.609375 39.140625 45 
Q 35.0625 48.390625 27.6875 48.390625 
Q 23 48.390625 18.546875 47.265625 
Q 14.109375 46.140625 10.015625 43.890625 
L 10.015625 52.203125 
Q 14.9375 54.109375 19.578125 55.046875 
Q 24.21875 56 28.609375 56 
Q 40.484375 56 46.34375 49.84375 
Q 52.203125 43.703125 52.203125 31.203125 
z
" id="DejaVuSans-97"/>
       <path d="M 9.421875 75.984375 
L 18.40625 75.984375 
L 18.40625 0 
L 9.421875 0 
z
" id="DejaVuSans-108"/>
       <path id="DejaVuSans-32"/>
      </defs>
      <use xlink:href="#DejaVuSans-86"/>
      <use x="60.658203" xlink:href="#DejaVuSans-97"/>
      <use x="121.9375" xlink:href="#DejaVuSans-108"/>
      <use x="149.720703" xlink:href="#DejaVuSans-32"/>
      <use x="181.507812" xlink:href="#DejaVuSans-65"/>
      <use x="248.166016" xlink:href="#DejaVuSans-99"/>
      <use x="303.146484" xlink:href="#DejaVuSans-99"/>
     </g>
    </g>
   </g>
   <g id="line2d_56">
    <path clip-path="url(#p1d87fede2e)" d="M 340.984006 131.380401 
L 343.138351 125.008541 
L 345.292696 107.167338 
L 347.447041 96.972361 
L 349.601385 84.228642 
L 351.75573 74.670855 
L 353.910075 63.201506 
L 356.064419 53.006529 
L 358.218764 48.546236 
L 360.373109 43.448742 
L 362.527454 40.9 
L 364.681798 40.9 
L 366.836143 42.174371 
L 368.990488 42.174371 
L 371.144833 43.448742 
L 373.299177 44.723113 
L 375.453522 45.360303 
L 377.607867 44.723113 
L 379.762211 45.360303 
L 381.916556 46.634674 
L 384.070901 46.634674 
L 386.225246 45.997484 
L 388.37959 44.085932 
L 390.533935 45.360303 
L 392.68828 44.723113 
L 394.842624 44.723113 
L 396.996969 44.723113 
L 399.151314 44.723113 
L 401.305659 44.723113 
L 403.460003 44.723113 
L 405.614348 43.448742 
L 407.768693 43.448742 
L 409.923038 43.448742 
L 412.077382 42.811561 
L 414.231727 42.811561 
L 416.386072 42.174371 
L 418.540416 42.174371 
L 420.694761 42.174371 
L 422.849106 42.174371 
L 425.003451 42.174371 
L 427.157795 42.811561 
L 429.31214 42.811561 
L 431.466485 42.811561 
L 433.62083 42.811561 
L 435.775174 43.448742 
L 437.929519 43.448742 
L 440.083864 43.448742 
L 442.238208 42.811561 
L 444.392553 42.174371 
L 446.546898 42.174371 
L 448.701243 41.537191 
L 450.855587 40.9 
L 453.009932 40.9 
L 455.164277 40.9 
L 457.318622 40.9 
L 459.472966 42.174371 
L 461.627311 41.537191 
L 463.781656 41.537191 
L 465.936 41.537191 
L 468.090345 41.537191 
L 470.24469 41.537191 
L 472.399035 41.537191 
L 474.553379 42.174371 
L 476.707724 42.174371 
L 478.862069 42.811561 
L 481.016413 42.811561 
L 483.170758 42.811561 
L 485.325103 42.174371 
L 487.479448 41.537191 
L 489.633792 41.537191 
L 491.788137 41.537191 
L 493.942482 41.537191 
L 496.096827 41.537191 
L 498.251171 42.174371 
L 500.405516 41.537191 
L 502.559861 41.537191 
L 504.714205 40.9 
L 506.86855 41.537191 
L 509.022895 41.537191 
L 511.17724 42.174371 
L 513.331584 42.174371 
L 515.485929 42.811561 
L 517.640274 42.811561 
L 519.794619 42.811561 
L 521.948963 42.811561 
L 524.103308 42.811561 
L 526.257653 42.811561 
L 528.411997 42.811561 
L 530.566342 42.811561 
L 532.720687 42.811561 
L 534.875032 42.811561 
L 537.029376 42.811561 
L 539.183721 42.811561 
L 541.338066 42.811561 
L 543.49241 42.811561 
L 545.646755 42.811561 
L 547.8011 42.811561 
L 549.955445 42.811561 
L 552.109789 43.448742 
L 554.264134 42.811561 
" style="fill:none;stroke:#1f77b4;stroke-linecap:square;stroke-width:1.5;"/>
   </g>
   <g id="line2d_57">
    <path clip-path="url(#p1d87fede2e)" d="M 340.984006 132.654772 
L 343.138351 131.380401 
L 345.292696 131.380401 
L 347.447041 131.380401 
L 349.601385 130.743216 
L 351.75573 128.194474 
L 353.910075 119.273867 
L 356.064419 112.902007 
L 358.218764 102.06985 
L 360.373109 93.149248 
L 362.527454 84.228642 
L 364.681798 81.042709 
L 366.836143 79.131158 
L 368.990488 77.219596 
L 371.144833 74.670855 
L 373.299177 73.396484 
L 375.453522 72.122113 
L 377.607867 72.122113 
L 379.762211 71.484922 
L 381.916556 69.573371 
L 384.070901 67.024619 
L 386.225246 65.113068 
L 388.37959 63.201506 
L 390.533935 61.927135 
L 392.68828 61.289955 
L 394.842624 57.466832 
L 396.996969 57.466832 
L 399.151314 54.91809 
L 401.305659 55.555281 
L 403.460003 54.2809 
L 405.614348 53.006529 
L 407.768693 52.369348 
L 409.923038 51.732158 
L 412.077382 52.369348 
L 414.231727 53.006529 
L 416.386072 53.006529 
L 418.540416 51.732158 
L 420.694761 51.732158 
L 422.849106 51.094978 
L 425.003451 51.732158 
L 427.157795 51.094978 
L 429.31214 50.457787 
L 431.466485 51.094978 
L 433.62083 50.457787 
L 435.775174 49.820607 
L 437.929519 49.820607 
L 440.083864 51.094978 
L 442.238208 51.094978 
L 444.392553 51.094978 
L 446.546898 50.457787 
L 448.701243 50.457787 
L 450.855587 49.183416 
L 453.009932 49.820607 
L 455.164277 49.820607 
L 457.318622 49.183416 
L 459.472966 48.546236 
L 461.627311 49.183416 
L 463.781656 48.546236 
L 465.936 49.820607 
L 468.090345 49.820607 
L 470.24469 49.820607 
L 472.399035 50.457787 
L 474.553379 50.457787 
L 476.707724 50.457787 
L 478.862069 50.457787 
L 481.016413 48.546236 
L 483.170758 48.546236 
L 485.325103 48.546236 
L 487.479448 49.183416 
L 489.633792 49.820607 
L 491.788137 49.183416 
L 493.942482 50.457787 
L 496.096827 50.457787 
L 498.251171 51.732158 
L 500.405516 51.732158 
L 502.559861 51.094978 
L 504.714205 51.732158 
L 506.86855 51.094978 
L 509.022895 51.094978 
L 511.17724 50.457787 
L 513.331584 50.457787 
L 515.485929 51.732158 
L 517.640274 51.732158 
L 519.794619 49.820607 
L 521.948963 52.369348 
L 524.103308 52.369348 
L 526.257653 52.369348 
L 528.411997 52.369348 
L 530.566342 51.732158 
L 532.720687 52.369348 
L 534.875032 53.006529 
L 537.029376 51.732158 
L 539.183721 49.820607 
L 541.338066 52.369348 
L 543.49241 54.91809 
L 545.646755 55.555281 
L 547.8011 56.829652 
L 549.955445 56.829652 
L 552.109789 54.2809 
L 554.264134 53.643719 
" style="fill:none;stroke:#ff7f0e;stroke-linecap:square;stroke-width:1.5;"/>
   </g>
   <g id="line2d_58">
    <path clip-path="url(#p1d87fede2e)" d="M 340.984006 130.10603 
L 343.138351 130.10603 
L 345.292696 130.10603 
L 347.447041 130.10603 
L 349.601385 130.10603 
L 351.75573 130.10603 
L 353.910075 130.10603 
L 356.064419 130.10603 
L 358.218764 128.194474 
L 360.373109 126.282912 
L 362.527454 119.273867 
L 364.681798 101.432664 
L 366.836143 87.414574 
L 368.990488 81.042709 
L 371.144833 75.945226 
L 373.299177 68.93618 
L 375.453522 65.113068 
L 377.607867 63.201506 
L 379.762211 60.015574 
L 381.916556 60.652764 
L 384.070901 63.201506 
L 386.225246 62.564326 
L 388.37959 63.201506 
L 390.533935 62.564326 
L 392.68828 64.475877 
L 394.842624 64.475877 
L 396.996969 64.475877 
L 399.151314 63.838697 
L 401.305659 65.750248 
L 403.460003 66.387439 
L 405.614348 65.750248 
L 407.768693 65.750248 
L 409.923038 65.750248 
L 412.077382 66.387439 
L 414.231727 66.387439 
L 416.386072 65.750248 
L 418.540416 64.475877 
L 420.694761 64.475877 
L 422.849106 63.201506 
L 425.003451 63.201506 
L 427.157795 65.113068 
L 429.31214 65.113068 
L 431.466485 65.750248 
L 433.62083 65.750248 
L 435.775174 66.387439 
L 437.929519 65.113068 
L 440.083864 65.750248 
L 442.238208 67.024619 
L 444.392553 65.750248 
L 446.546898 66.387439 
L 448.701243 64.475877 
L 450.855587 63.838697 
L 453.009932 64.475877 
L 455.164277 64.475877 
L 457.318622 65.750248 
L 459.472966 65.113068 
L 461.627311 63.838697 
L 463.781656 63.838697 
L 465.936 65.113068 
L 468.090345 62.564326 
L 470.24469 61.927135 
L 472.399035 60.652764 
L 474.553379 61.927135 
L 476.707724 61.927135 
L 478.862069 59.378394 
L 481.016413 58.104023 
L 483.170758 58.104023 
L 485.325103 57.466832 
L 487.479448 56.829652 
L 489.633792 56.192461 
L 491.788137 56.192461 
L 493.942482 54.2809 
L 496.096827 54.91809 
L 498.251171 56.192461 
L 500.405516 56.829652 
L 502.559861 56.192461 
L 504.714205 56.192461 
L 506.86855 56.192461 
L 509.022895 55.555281 
L 511.17724 55.555281 
L 513.331584 54.91809 
L 515.485929 53.643719 
L 517.640274 53.643719 
L 519.794619 51.094978 
L 521.948963 49.183416 
L 524.103308 49.183416 
L 526.257653 48.546236 
L 528.411997 49.820607 
L 530.566342 49.183416 
L 532.720687 49.183416 
L 534.875032 48.546236 
L 537.029376 47.909045 
L 539.183721 49.183416 
L 541.338066 49.820607 
L 543.49241 51.094978 
L 545.646755 51.094978 
L 547.8011 50.457787 
L 549.955445 49.183416 
L 552.109789 49.183416 
L 554.264134 49.183416 
" style="fill:none;stroke:#2ca02c;stroke-linecap:square;stroke-width:1.5;"/>
   </g>
   <g id="line2d_59">
    <path clip-path="url(#p1d87fede2e)" d="M 340.984006 108.441709 
L 343.138351 120.548243 
L 345.292696 121.185429 
L 347.447041 101.432664 
L 349.601385 75.945226 
L 351.75573 64.475877 
L 353.910075 64.475877 
L 356.064419 60.015574 
L 358.218764 53.643719 
L 360.373109 53.643719 
L 362.527454 53.006529 
L 364.681798 54.2809 
L 366.836143 54.2809 
L 368.990488 53.643719 
L 371.144833 53.643719 
L 373.299177 52.369348 
L 375.453522 53.006529 
L 377.607867 54.2809 
L 379.762211 54.91809 
L 381.916556 54.91809 
L 384.070901 54.91809 
L 386.225246 54.2809 
L 388.37959 51.732158 
L 390.533935 51.094978 
L 392.68828 50.457787 
L 394.842624 49.820607 
L 396.996969 49.820607 
L 399.151314 54.2809 
L 401.305659 56.829652 
L 403.460003 54.2809 
L 405.614348 53.006529 
L 407.768693 55.555281 
L 409.923038 57.466832 
L 412.077382 58.741203 
L 414.231727 56.829652 
L 416.386072 56.192461 
L 418.540416 53.006529 
L 420.694761 58.741203 
L 422.849106 60.015574 
L 425.003451 45.997484 
L 427.157795 66.387439 
L 429.31214 62.564326 
L 431.466485 53.643719 
L 433.62083 80.405529 
L 435.775174 92.512058 
L 437.929519 68.93618 
L 440.083864 98.883922 
L 442.238208 44.085932 
L 444.392553 92.512058 
L 446.546898 61.289955 
L 448.701243 80.405529 
L 450.855587 75.308045 
L 453.009932 74.670855 
L 455.164277 100.158293 
L 457.318622 95.69799 
L 459.472966 65.113068 
L 461.627311 76.582416 
L 463.781656 82.31709 
L 465.936 82.954271 
L 468.090345 92.512058 
L 470.24469 103.981406 
L 472.399035 92.512058 
L 474.553379 95.060799 
L 476.707724 91.874877 
L 478.862069 86.140203 
L 481.016413 112.902007 
L 483.170758 119.911053 
L 485.325103 125.645727 
L 487.479448 140.938193 
L 489.633792 129.468845 
L 491.788137 110.990451 
L 493.942482 123.73417 
L 496.096827 121.185429 
L 498.251171 147.31005 
L 500.405516 121.185429 
L 502.559861 114.813569 
L 504.714205 129.468845 
L 506.86855 111.627637 
L 509.022895 116.08794 
L 511.17724 136.47789 
L 513.331584 166.425628 
L 515.485929 123.096985 
L 517.640274 127.557288 
L 519.794619 109.078895 
L 521.948963 124.371356 
L 524.103308 107.804524 
L 526.257653 91.237687 
L 528.411997 167.7 
L 530.566342 135.840704 
L 532.720687 145.398491 
L 534.875032 129.468845 
L 537.029376 136.47789 
L 539.183721 91.874877 
L 541.338066 154.319095 
L 543.49241 117.999496 
L 545.646755 113.539198 
L 547.8011 163.876885 
L 549.955445 119.273867 
L 552.109789 144.761306 
L 554.264134 157.505025 
" style="fill:none;stroke:#d62728;stroke-linecap:square;stroke-width:1.5;"/>
   </g>
   <g id="line2d_60">
    <path clip-path="url(#p1d87fede2e)" d="M 340.984006 126.920103 
L 343.138351 118.636682 
L 345.292696 116.08794 
L 347.447041 116.08794 
L 349.601385 116.725125 
L 351.75573 117.999496 
L 353.910075 117.362311 
L 356.064419 116.725125 
L 358.218764 114.176383 
L 360.373109 109.71608 
L 362.527454 107.167338 
L 364.681798 103.344221 
L 366.836143 101.432664 
L 368.990488 97.609551 
L 371.144833 95.69799 
L 373.299177 93.786428 
L 375.453522 91.874877 
L 377.607867 90.600506 
L 379.762211 86.777383 
L 381.916556 83.591461 
L 384.070901 77.856787 
L 386.225246 75.308045 
L 388.37959 72.122113 
L 390.533935 69.573371 
L 392.68828 66.387439 
L 394.842624 63.838697 
L 396.996969 61.289955 
L 399.151314 60.015574 
L 401.305659 59.378394 
L 403.460003 58.104023 
L 405.614348 56.829652 
L 407.768693 56.192461 
L 409.923038 53.006529 
L 412.077382 52.369348 
L 414.231727 51.732158 
L 416.386072 51.094978 
L 418.540416 49.820607 
L 420.694761 49.183416 
L 422.849106 49.183416 
L 425.003451 49.183416 
L 427.157795 49.183416 
L 429.31214 49.183416 
L 431.466485 47.909045 
L 433.62083 47.271855 
L 435.775174 47.271855 
L 437.929519 47.271855 
L 440.083864 46.634674 
L 442.238208 46.634674 
L 444.392553 46.634674 
L 446.546898 46.634674 
L 448.701243 46.634674 
L 450.855587 46.634674 
L 453.009932 45.997484 
L 455.164277 45.997484 
L 457.318622 45.360303 
L 459.472966 45.360303 
L 461.627311 45.360303 
L 463.781656 44.723113 
L 465.936 44.085932 
L 468.090345 44.085932 
L 470.24469 44.085932 
L 472.399035 44.085932 
L 474.553379 44.085932 
L 476.707724 44.085932 
L 478.862069 44.085932 
L 481.016413 44.085932 
L 483.170758 44.085932 
L 485.325103 44.085932 
L 487.479448 44.085932 
L 489.633792 44.085932 
L 491.788137 44.723113 
L 493.942482 44.723113 
L 496.096827 44.723113 
L 498.251171 44.723113 
L 500.405516 44.723113 
L 502.559861 44.723113 
L 504.714205 44.723113 
L 506.86855 44.723113 
L 509.022895 44.723113 
L 511.17724 44.723113 
L 513.331584 44.723113 
L 515.485929 44.723113 
L 517.640274 44.723113 
L 519.794619 44.723113 
L 521.948963 44.085932 
L 524.103308 44.085932 
L 526.257653 44.723113 
L 528.411997 44.723113 
L 530.566342 44.723113 
L 532.720687 44.723113 
L 534.875032 44.723113 
L 537.029376 45.360303 
L 539.183721 45.360303 
L 541.338066 45.360303 
L 543.49241 45.997484 
L 545.646755 45.997484 
L 547.8011 45.997484 
L 549.955445 46.634674 
L 552.109789 46.634674 
L 554.264134 46.634674 
" style="fill:none;stroke:#9467bd;stroke-linecap:square;stroke-width:1.5;"/>
   </g>
   <g id="patch_9">
    <path d="M 330.32 174.04 
L 330.32 34.56 
" style="fill:none;stroke:#000000;stroke-linecap:square;stroke-linejoin:miter;stroke-width:0.8;"/>
   </g>
   <g id="patch_10">
    <path d="M 564.92814 174.04 
L 564.92814 34.56 
" style="fill:none;stroke:#000000;stroke-linecap:square;stroke-linejoin:miter;stroke-width:0.8;"/>
   </g>
   <g id="patch_11">
    <path d="M 330.32 174.04 
L 564.92814 174.04 
" style="fill:none;stroke:#000000;stroke-linecap:square;stroke-linejoin:miter;stroke-width:0.8;"/>
   </g>
   <g id="patch_12">
    <path d="M 330.32 34.56 
L 564.92814 34.56 
" style="fill:none;stroke:#000000;stroke-linecap:square;stroke-linejoin:miter;stroke-width:0.8;"/>
   </g>
   <g id="legend_2">
    <g id="patch_13">
     <path d="M 417.043601 169.04 
L 478.204539 169.04 
Q 480.204539 169.04 480.204539 167.04 
L 480.204539 94.649375 
Q 480.204539 92.649375 478.204539 92.649375 
L 417.043601 92.649375 
Q 415.043601 92.649375 415.043601 94.649375 
L 415.043601 167.04 
Q 415.043601 169.04 417.043601 169.04 
z
" style="fill:#ffffff;opacity:0.8;stroke:#cccccc;stroke-linejoin:miter;"/>
    </g>
    <g id="line2d_61">
     <path d="M 419.043601 100.747813 
L 439.043601 100.747813 
" style="fill:none;stroke:#1f77b4;stroke-linecap:square;stroke-width:1.5;"/>
    </g>
    <g id="line2d_62"/>
    <g id="text_30">
     <!-- GAT -->
     <g transform="translate(447.043601 104.247813)scale(0.1 -0.1)">
      <use xlink:href="#DejaVuSans-71"/>
      <use x="77.490234" xlink:href="#DejaVuSans-65"/>
      <use x="138.148438" xlink:href="#DejaVuSans-84"/>
     </g>
    </g>
    <g id="line2d_63">
     <path d="M 419.043601 115.425938 
L 439.043601 115.425938 
" style="fill:none;stroke:#ff7f0e;stroke-linecap:square;stroke-width:1.5;"/>
    </g>
    <g id="line2d_64"/>
    <g id="text_31">
     <!-- GCN -->
     <g transform="translate(447.043601 118.925938)scale(0.1 -0.1)">
      <use xlink:href="#DejaVuSans-71"/>
      <use x="77.490234" xlink:href="#DejaVuSans-67"/>
      <use x="147.314453" xlink:href="#DejaVuSans-78"/>
     </g>
    </g>
    <g id="line2d_65">
     <path d="M 419.043601 130.104062 
L 439.043601 130.104062 
" style="fill:none;stroke:#2ca02c;stroke-linecap:square;stroke-width:1.5;"/>
    </g>
    <g id="line2d_66"/>
    <g id="text_32">
     <!-- PPNP -->
     <g transform="translate(447.043601 133.604062)scale(0.1 -0.1)">
      <use xlink:href="#DejaVuSans-80"/>
      <use x="60.302734" xlink:href="#DejaVuSans-80"/>
      <use x="120.605469" xlink:href="#DejaVuSans-78"/>
      <use x="195.410156" xlink:href="#DejaVuSans-80"/>
     </g>
    </g>
    <g id="line2d_67">
     <path d="M 419.043601 144.782188 
L 439.043601 144.782188 
" style="fill:none;stroke:#d62728;stroke-linecap:square;stroke-width:1.5;"/>
    </g>
    <g id="line2d_68"/>
    <g id="text_33">
     <!-- RGCN -->
     <g transform="translate(447.043601 148.282188)scale(0.1 -0.1)">
      <use xlink:href="#DejaVuSans-82"/>
      <use x="69.482422" xlink:href="#DejaVuSans-71"/>
      <use x="146.972656" xlink:href="#DejaVuSans-67"/>
      <use x="216.796875" xlink:href="#DejaVuSans-78"/>
     </g>
    </g>
    <g id="line2d_69">
     <path d="M 419.043601 159.460313 
L 439.043601 159.460313 
" style="fill:none;stroke:#9467bd;stroke-linecap:square;stroke-width:1.5;"/>
    </g>
    <g id="line2d_70"/>
    <g id="text_34">
     <!-- SGC -->
     <g transform="translate(447.043601 162.960313)scale(0.1 -0.1)">
      <use xlink:href="#DejaVuSans-83"/>
      <use x="63.476562" xlink:href="#DejaVuSans-71"/>
      <use x="140.966797" xlink:href="#DejaVuSans-67"/>
     </g>
    </g>
   </g>
  </g>
  <g id="text_35">
   <!-- CORA -->
   <g transform="translate(271.05375 13.438125)scale(0.12 -0.12)">
    <defs>
     <path d="M 39.40625 66.21875 
Q 28.65625 66.21875 22.328125 58.203125 
Q 16.015625 50.203125 16.015625 36.375 
Q 16.015625 22.609375 22.328125 14.59375 
Q 28.65625 6.59375 39.40625 6.59375 
Q 50.140625 6.59375 56.421875 14.59375 
Q 62.703125 22.609375 62.703125 36.375 
Q 62.703125 50.203125 56.421875 58.203125 
Q 50.140625 66.21875 39.40625 66.21875 
z
M 39.40625 74.21875 
Q 54.734375 74.21875 63.90625 63.9375 
Q 73.09375 53.65625 73.09375 36.375 
Q 73.09375 19.140625 63.90625 8.859375 
Q 54.734375 -1.421875 39.40625 -1.421875 
Q 24.03125 -1.421875 14.8125 8.828125 
Q 5.609375 19.09375 5.609375 36.375 
Q 5.609375 53.65625 14.8125 63.9375 
Q 24.03125 74.21875 39.40625 74.21875 
z
" id="DejaVuSans-79"/>
    </defs>
    <use xlink:href="#DejaVuSans-67"/>
    <use x="69.824219" xlink:href="#DejaVuSans-79"/>
    <use x="148.535156" xlink:href="#DejaVuSans-82"/>
    <use x="214.017578" xlink:href="#DejaVuSans-65"/>
   </g>
  </g>
 </g>
 <defs>
  <clipPath id="pf3102e5438">
   <rect height="139.48" width="234.60814" x="47.72" y="34.56"/>
  </clipPath>
  <clipPath id="p1d87fede2e">
   <rect height="139.48" width="234.60814" x="330.32" y="34.56"/>
  </clipPath>
 </defs>
</svg>
