<?xml version="1.0" encoding="utf-8" standalone="no"?>
<!DOCTYPE svg PUBLIC "-//W3C//DTD SVG 1.1//EN"
  "http://www.w3.org/Graphics/SVG/1.1/DTD/svg11.dtd">
<!-- Created with matplotlib (https://matplotlib.org/) -->
<svg height="216pt" version="1.1" viewBox="0 0 576 216" width="576pt" xmlns="http://www.w3.org/2000/svg" xmlns:xlink="http://www.w3.org/1999/xlink">
 <metadata>
  <rdf:RDF xmlns:cc="http://creativecommons.org/ns#" xmlns:dc="http://purl.org/dc/elements/1.1/" xmlns:rdf="http://www.w3.org/1999/02/22-rdf-syntax-ns#">
   <cc:Work>
    <dc:type rdf:resource="http://purl.org/dc/dcmitype/StillImage"/>
    <dc:date>2021-04-11T18:23:43.806899</dc:date>
    <dc:format>image/svg+xml</dc:format>
    <dc:creator>
     <cc:Agent>
      <dc:title>Matplotlib v3.3.3, https://matplotlib.org/</dc:title>
     </cc:Agent>
    </dc:creator>
   </cc:Work>
  </rdf:RDF>
 </metadata>
 <defs>
  <style type="text/css">*{stroke-linecap:butt;stroke-linejoin:round;}</style>
 </defs>
 <g id="figure_1">
  <g id="patch_1">
   <path d="M 0 216 
L 576 216 
L 576 0 
L 0 0 
z
" style="fill:#ffffff;"/>
  </g>
  <g id="axes_1">
   <g id="patch_2">
    <path d="M 47.72 174.04 
L 282.32814 174.04 
L 282.32814 34.56 
L 47.72 34.56 
z
" style="fill:#ffffff;"/>
   </g>
   <g id="matplotlib.axis_1">
    <g id="xtick_1">
     <g id="line2d_1">
      <path clip-path="url(#p53a5e384f9)" d="M 56.229662 174.04 
L 56.229662 34.56 
" style="fill:none;stroke:#b0b0b0;stroke-linecap:square;stroke-width:0.8;"/>
     </g>
     <g id="line2d_2">
      <defs>
       <path d="M 0 0 
L 0 3.5 
" id="mf3d4e192b1" style="stroke:#000000;stroke-width:0.8;"/>
      </defs>
      <g>
       <use style="stroke:#000000;stroke-width:0.8;" x="56.229662" xlink:href="#mf3d4e192b1" y="174.04"/>
      </g>
     </g>
     <g id="text_1">
      <!-- 0 -->
      <g transform="translate(53.048412 188.638438)scale(0.1 -0.1)">
       <defs>
        <path d="M 31.78125 66.40625 
Q 24.171875 66.40625 20.328125 58.90625 
Q 16.5 51.421875 16.5 36.375 
Q 16.5 21.390625 20.328125 13.890625 
Q 24.171875 6.390625 31.78125 6.390625 
Q 39.453125 6.390625 43.28125 13.890625 
Q 47.125 21.390625 47.125 36.375 
Q 47.125 51.421875 43.28125 58.90625 
Q 39.453125 66.40625 31.78125 66.40625 
z
M 31.78125 74.21875 
Q 44.046875 74.21875 50.515625 64.515625 
Q 56.984375 54.828125 56.984375 36.375 
Q 56.984375 17.96875 50.515625 8.265625 
Q 44.046875 -1.421875 31.78125 -1.421875 
Q 19.53125 -1.421875 13.0625 8.265625 
Q 6.59375 17.96875 6.59375 36.375 
Q 6.59375 54.828125 13.0625 64.515625 
Q 19.53125 74.21875 31.78125 74.21875 
z
" id="DejaVuSans-48"/>
       </defs>
       <use xlink:href="#DejaVuSans-48"/>
      </g>
     </g>
    </g>
    <g id="xtick_2">
     <g id="line2d_3">
      <path clip-path="url(#p53a5e384f9)" d="M 99.316556 174.04 
L 99.316556 34.56 
" style="fill:none;stroke:#b0b0b0;stroke-linecap:square;stroke-width:0.8;"/>
     </g>
     <g id="line2d_4">
      <g>
       <use style="stroke:#000000;stroke-width:0.8;" x="99.316556" xlink:href="#mf3d4e192b1" y="174.04"/>
      </g>
     </g>
     <g id="text_2">
      <!-- 20 -->
      <g transform="translate(92.954056 188.638438)scale(0.1 -0.1)">
       <defs>
        <path d="M 19.1875 8.296875 
L 53.609375 8.296875 
L 53.609375 0 
L 7.328125 0 
L 7.328125 8.296875 
Q 12.9375 14.109375 22.625 23.890625 
Q 32.328125 33.6875 34.8125 36.53125 
Q 39.546875 41.84375 41.421875 45.53125 
Q 43.3125 49.21875 43.3125 52.78125 
Q 43.3125 58.59375 39.234375 62.25 
Q 35.15625 65.921875 28.609375 65.921875 
Q 23.96875 65.921875 18.8125 64.3125 
Q 13.671875 62.703125 7.8125 59.421875 
L 7.8125 69.390625 
Q 13.765625 71.78125 18.9375 73 
Q 24.125 74.21875 28.421875 74.21875 
Q 39.75 74.21875 46.484375 68.546875 
Q 53.21875 62.890625 53.21875 53.421875 
Q 53.21875 48.921875 51.53125 44.890625 
Q 49.859375 40.875 45.40625 35.40625 
Q 44.1875 33.984375 37.640625 27.21875 
Q 31.109375 20.453125 19.1875 8.296875 
z
" id="DejaVuSans-50"/>
       </defs>
       <use xlink:href="#DejaVuSans-50"/>
       <use x="63.623047" xlink:href="#DejaVuSans-48"/>
      </g>
     </g>
    </g>
    <g id="xtick_3">
     <g id="line2d_5">
      <path clip-path="url(#p53a5e384f9)" d="M 142.403451 174.04 
L 142.403451 34.56 
" style="fill:none;stroke:#b0b0b0;stroke-linecap:square;stroke-width:0.8;"/>
     </g>
     <g id="line2d_6">
      <g>
       <use style="stroke:#000000;stroke-width:0.8;" x="142.403451" xlink:href="#mf3d4e192b1" y="174.04"/>
      </g>
     </g>
     <g id="text_3">
      <!-- 40 -->
      <g transform="translate(136.040951 188.638438)scale(0.1 -0.1)">
       <defs>
        <path d="M 37.796875 64.3125 
L 12.890625 25.390625 
L 37.796875 25.390625 
z
M 35.203125 72.90625 
L 47.609375 72.90625 
L 47.609375 25.390625 
L 58.015625 25.390625 
L 58.015625 17.1875 
L 47.609375 17.1875 
L 47.609375 0 
L 37.796875 0 
L 37.796875 17.1875 
L 4.890625 17.1875 
L 4.890625 26.703125 
z
" id="DejaVuSans-52"/>
       </defs>
       <use xlink:href="#DejaVuSans-52"/>
       <use x="63.623047" xlink:href="#DejaVuSans-48"/>
      </g>
     </g>
    </g>
    <g id="xtick_4">
     <g id="line2d_7">
      <path clip-path="url(#p53a5e384f9)" d="M 185.490345 174.04 
L 185.490345 34.56 
" style="fill:none;stroke:#b0b0b0;stroke-linecap:square;stroke-width:0.8;"/>
     </g>
     <g id="line2d_8">
      <g>
       <use style="stroke:#000000;stroke-width:0.8;" x="185.490345" xlink:href="#mf3d4e192b1" y="174.04"/>
      </g>
     </g>
     <g id="text_4">
      <!-- 60 -->
      <g transform="translate(179.127845 188.638438)scale(0.1 -0.1)">
       <defs>
        <path d="M 33.015625 40.375 
Q 26.375 40.375 22.484375 35.828125 
Q 18.609375 31.296875 18.609375 23.390625 
Q 18.609375 15.53125 22.484375 10.953125 
Q 26.375 6.390625 33.015625 6.390625 
Q 39.65625 6.390625 43.53125 10.953125 
Q 47.40625 15.53125 47.40625 23.390625 
Q 47.40625 31.296875 43.53125 35.828125 
Q 39.65625 40.375 33.015625 40.375 
z
M 52.59375 71.296875 
L 52.59375 62.3125 
Q 48.875 64.0625 45.09375 64.984375 
Q 41.3125 65.921875 37.59375 65.921875 
Q 27.828125 65.921875 22.671875 59.328125 
Q 17.53125 52.734375 16.796875 39.40625 
Q 19.671875 43.65625 24.015625 45.921875 
Q 28.375 48.1875 33.59375 48.1875 
Q 44.578125 48.1875 50.953125 41.515625 
Q 57.328125 34.859375 57.328125 23.390625 
Q 57.328125 12.15625 50.6875 5.359375 
Q 44.046875 -1.421875 33.015625 -1.421875 
Q 20.359375 -1.421875 13.671875 8.265625 
Q 6.984375 17.96875 6.984375 36.375 
Q 6.984375 53.65625 15.1875 63.9375 
Q 23.390625 74.21875 37.203125 74.21875 
Q 40.921875 74.21875 44.703125 73.484375 
Q 48.484375 72.75 52.59375 71.296875 
z
" id="DejaVuSans-54"/>
       </defs>
       <use xlink:href="#DejaVuSans-54"/>
       <use x="63.623047" xlink:href="#DejaVuSans-48"/>
      </g>
     </g>
    </g>
    <g id="xtick_5">
     <g id="line2d_9">
      <path clip-path="url(#p53a5e384f9)" d="M 228.57724 174.04 
L 228.57724 34.56 
" style="fill:none;stroke:#b0b0b0;stroke-linecap:square;stroke-width:0.8;"/>
     </g>
     <g id="line2d_10">
      <g>
       <use style="stroke:#000000;stroke-width:0.8;" x="228.57724" xlink:href="#mf3d4e192b1" y="174.04"/>
      </g>
     </g>
     <g id="text_5">
      <!-- 80 -->
      <g transform="translate(222.21474 188.638438)scale(0.1 -0.1)">
       <defs>
        <path d="M 31.78125 34.625 
Q 24.75 34.625 20.71875 30.859375 
Q 16.703125 27.09375 16.703125 20.515625 
Q 16.703125 13.921875 20.71875 10.15625 
Q 24.75 6.390625 31.78125 6.390625 
Q 38.8125 6.390625 42.859375 10.171875 
Q 46.921875 13.96875 46.921875 20.515625 
Q 46.921875 27.09375 42.890625 30.859375 
Q 38.875 34.625 31.78125 34.625 
z
M 21.921875 38.8125 
Q 15.578125 40.375 12.03125 44.71875 
Q 8.5 49.078125 8.5 55.328125 
Q 8.5 64.0625 14.71875 69.140625 
Q 20.953125 74.21875 31.78125 74.21875 
Q 42.671875 74.21875 48.875 69.140625 
Q 55.078125 64.0625 55.078125 55.328125 
Q 55.078125 49.078125 51.53125 44.71875 
Q 48 40.375 41.703125 38.8125 
Q 48.828125 37.15625 52.796875 32.3125 
Q 56.78125 27.484375 56.78125 20.515625 
Q 56.78125 9.90625 50.3125 4.234375 
Q 43.84375 -1.421875 31.78125 -1.421875 
Q 19.734375 -1.421875 13.25 4.234375 
Q 6.78125 9.90625 6.78125 20.515625 
Q 6.78125 27.484375 10.78125 32.3125 
Q 14.796875 37.15625 21.921875 38.8125 
z
M 18.3125 54.390625 
Q 18.3125 48.734375 21.84375 45.5625 
Q 25.390625 42.390625 31.78125 42.390625 
Q 38.140625 42.390625 41.71875 45.5625 
Q 45.3125 48.734375 45.3125 54.390625 
Q 45.3125 60.0625 41.71875 63.234375 
Q 38.140625 66.40625 31.78125 66.40625 
Q 25.390625 66.40625 21.84375 63.234375 
Q 18.3125 60.0625 18.3125 54.390625 
z
" id="DejaVuSans-56"/>
       </defs>
       <use xlink:href="#DejaVuSans-56"/>
       <use x="63.623047" xlink:href="#DejaVuSans-48"/>
      </g>
     </g>
    </g>
    <g id="xtick_6">
     <g id="line2d_11">
      <path clip-path="url(#p53a5e384f9)" d="M 271.664134 174.04 
L 271.664134 34.56 
" style="fill:none;stroke:#b0b0b0;stroke-linecap:square;stroke-width:0.8;"/>
     </g>
     <g id="line2d_12">
      <g>
       <use style="stroke:#000000;stroke-width:0.8;" x="271.664134" xlink:href="#mf3d4e192b1" y="174.04"/>
      </g>
     </g>
     <g id="text_6">
      <!-- 100 -->
      <g transform="translate(262.120384 188.638438)scale(0.1 -0.1)">
       <defs>
        <path d="M 12.40625 8.296875 
L 28.515625 8.296875 
L 28.515625 63.921875 
L 10.984375 60.40625 
L 10.984375 69.390625 
L 28.421875 72.90625 
L 38.28125 72.90625 
L 38.28125 8.296875 
L 54.390625 8.296875 
L 54.390625 0 
L 12.40625 0 
z
" id="DejaVuSans-49"/>
       </defs>
       <use xlink:href="#DejaVuSans-49"/>
       <use x="63.623047" xlink:href="#DejaVuSans-48"/>
       <use x="127.246094" xlink:href="#DejaVuSans-48"/>
      </g>
     </g>
    </g>
    <g id="text_7">
     <!-- Epochs -->
     <g transform="translate(147.108445 202.316563)scale(0.1 -0.1)">
      <defs>
       <path d="M 9.8125 72.90625 
L 55.90625 72.90625 
L 55.90625 64.59375 
L 19.671875 64.59375 
L 19.671875 43.015625 
L 54.390625 43.015625 
L 54.390625 34.71875 
L 19.671875 34.71875 
L 19.671875 8.296875 
L 56.78125 8.296875 
L 56.78125 0 
L 9.8125 0 
z
" id="DejaVuSans-69"/>
       <path d="M 18.109375 8.203125 
L 18.109375 -20.796875 
L 9.078125 -20.796875 
L 9.078125 54.6875 
L 18.109375 54.6875 
L 18.109375 46.390625 
Q 20.953125 51.265625 25.265625 53.625 
Q 29.59375 56 35.59375 56 
Q 45.5625 56 51.78125 48.09375 
Q 58.015625 40.1875 58.015625 27.296875 
Q 58.015625 14.40625 51.78125 6.484375 
Q 45.5625 -1.421875 35.59375 -1.421875 
Q 29.59375 -1.421875 25.265625 0.953125 
Q 20.953125 3.328125 18.109375 8.203125 
z
M 48.6875 27.296875 
Q 48.6875 37.203125 44.609375 42.84375 
Q 40.53125 48.484375 33.40625 48.484375 
Q 26.265625 48.484375 22.1875 42.84375 
Q 18.109375 37.203125 18.109375 27.296875 
Q 18.109375 17.390625 22.1875 11.75 
Q 26.265625 6.109375 33.40625 6.109375 
Q 40.53125 6.109375 44.609375 11.75 
Q 48.6875 17.390625 48.6875 27.296875 
z
" id="DejaVuSans-112"/>
       <path d="M 30.609375 48.390625 
Q 23.390625 48.390625 19.1875 42.75 
Q 14.984375 37.109375 14.984375 27.296875 
Q 14.984375 17.484375 19.15625 11.84375 
Q 23.34375 6.203125 30.609375 6.203125 
Q 37.796875 6.203125 41.984375 11.859375 
Q 46.1875 17.53125 46.1875 27.296875 
Q 46.1875 37.015625 41.984375 42.703125 
Q 37.796875 48.390625 30.609375 48.390625 
z
M 30.609375 56 
Q 42.328125 56 49.015625 48.375 
Q 55.71875 40.765625 55.71875 27.296875 
Q 55.71875 13.875 49.015625 6.21875 
Q 42.328125 -1.421875 30.609375 -1.421875 
Q 18.84375 -1.421875 12.171875 6.21875 
Q 5.515625 13.875 5.515625 27.296875 
Q 5.515625 40.765625 12.171875 48.375 
Q 18.84375 56 30.609375 56 
z
" id="DejaVuSans-111"/>
       <path d="M 48.78125 52.59375 
L 48.78125 44.1875 
Q 44.96875 46.296875 41.140625 47.34375 
Q 37.3125 48.390625 33.40625 48.390625 
Q 24.65625 48.390625 19.8125 42.84375 
Q 14.984375 37.3125 14.984375 27.296875 
Q 14.984375 17.28125 19.8125 11.734375 
Q 24.65625 6.203125 33.40625 6.203125 
Q 37.3125 6.203125 41.140625 7.25 
Q 44.96875 8.296875 48.78125 10.40625 
L 48.78125 2.09375 
Q 45.015625 0.34375 40.984375 -0.53125 
Q 36.96875 -1.421875 32.421875 -1.421875 
Q 20.0625 -1.421875 12.78125 6.34375 
Q 5.515625 14.109375 5.515625 27.296875 
Q 5.515625 40.671875 12.859375 48.328125 
Q 20.21875 56 33.015625 56 
Q 37.15625 56 41.109375 55.140625 
Q 45.0625 54.296875 48.78125 52.59375 
z
" id="DejaVuSans-99"/>
       <path d="M 54.890625 33.015625 
L 54.890625 0 
L 45.90625 0 
L 45.90625 32.71875 
Q 45.90625 40.484375 42.875 44.328125 
Q 39.84375 48.1875 33.796875 48.1875 
Q 26.515625 48.1875 22.3125 43.546875 
Q 18.109375 38.921875 18.109375 30.90625 
L 18.109375 0 
L 9.078125 0 
L 9.078125 75.984375 
L 18.109375 75.984375 
L 18.109375 46.1875 
Q 21.34375 51.125 25.703125 53.5625 
Q 30.078125 56 35.796875 56 
Q 45.21875 56 50.046875 50.171875 
Q 54.890625 44.34375 54.890625 33.015625 
z
" id="DejaVuSans-104"/>
       <path d="M 44.28125 53.078125 
L 44.28125 44.578125 
Q 40.484375 46.53125 36.375 47.5 
Q 32.28125 48.484375 27.875 48.484375 
Q 21.1875 48.484375 17.84375 46.4375 
Q 14.5 44.390625 14.5 40.28125 
Q 14.5 37.15625 16.890625 35.375 
Q 19.28125 33.59375 26.515625 31.984375 
L 29.59375 31.296875 
Q 39.15625 29.25 43.1875 25.515625 
Q 47.21875 21.78125 47.21875 15.09375 
Q 47.21875 7.46875 41.1875 3.015625 
Q 35.15625 -1.421875 24.609375 -1.421875 
Q 20.21875 -1.421875 15.453125 -0.5625 
Q 10.6875 0.296875 5.421875 2 
L 5.421875 11.28125 
Q 10.40625 8.6875 15.234375 7.390625 
Q 20.0625 6.109375 24.8125 6.109375 
Q 31.15625 6.109375 34.5625 8.28125 
Q 37.984375 10.453125 37.984375 14.40625 
Q 37.984375 18.0625 35.515625 20.015625 
Q 33.0625 21.96875 24.703125 23.78125 
L 21.578125 24.515625 
Q 13.234375 26.265625 9.515625 29.90625 
Q 5.8125 33.546875 5.8125 39.890625 
Q 5.8125 47.609375 11.28125 51.796875 
Q 16.75 56 26.8125 56 
Q 31.78125 56 36.171875 55.265625 
Q 40.578125 54.546875 44.28125 53.078125 
z
" id="DejaVuSans-115"/>
      </defs>
      <use xlink:href="#DejaVuSans-69"/>
      <use x="63.183594" xlink:href="#DejaVuSans-112"/>
      <use x="126.660156" xlink:href="#DejaVuSans-111"/>
      <use x="187.841797" xlink:href="#DejaVuSans-99"/>
      <use x="242.822266" xlink:href="#DejaVuSans-104"/>
      <use x="306.201172" xlink:href="#DejaVuSans-115"/>
     </g>
    </g>
   </g>
   <g id="matplotlib.axis_2">
    <g id="ytick_1">
     <g id="line2d_13">
      <path clip-path="url(#p53a5e384f9)" d="M 47.72 165.414322 
L 282.32814 165.414322 
" style="fill:none;stroke:#b0b0b0;stroke-linecap:square;stroke-width:0.8;"/>
     </g>
     <g id="line2d_14">
      <defs>
       <path d="M 0 0 
L -3.5 0 
" id="mc2f138b65e" style="stroke:#000000;stroke-width:0.8;"/>
      </defs>
      <g>
       <use style="stroke:#000000;stroke-width:0.8;" x="47.72" xlink:href="#mc2f138b65e" y="165.414322"/>
      </g>
     </g>
     <g id="text_8">
      <!-- 0.4 -->
      <g transform="translate(24.816875 169.213541)scale(0.1 -0.1)">
       <defs>
        <path d="M 10.6875 12.40625 
L 21 12.40625 
L 21 0 
L 10.6875 0 
z
" id="DejaVuSans-46"/>
       </defs>
       <use xlink:href="#DejaVuSans-48"/>
       <use x="63.623047" xlink:href="#DejaVuSans-46"/>
       <use x="95.410156" xlink:href="#DejaVuSans-52"/>
      </g>
     </g>
    </g>
    <g id="ytick_2">
     <g id="line2d_15">
      <path clip-path="url(#p53a5e384f9)" d="M 47.72 137.292605 
L 282.32814 137.292605 
" style="fill:none;stroke:#b0b0b0;stroke-linecap:square;stroke-width:0.8;"/>
     </g>
     <g id="line2d_16">
      <g>
       <use style="stroke:#000000;stroke-width:0.8;" x="47.72" xlink:href="#mc2f138b65e" y="137.292605"/>
      </g>
     </g>
     <g id="text_9">
      <!-- 0.5 -->
      <g transform="translate(24.816875 141.091823)scale(0.1 -0.1)">
       <defs>
        <path d="M 10.796875 72.90625 
L 49.515625 72.90625 
L 49.515625 64.59375 
L 19.828125 64.59375 
L 19.828125 46.734375 
Q 21.96875 47.46875 24.109375 47.828125 
Q 26.265625 48.1875 28.421875 48.1875 
Q 40.625 48.1875 47.75 41.5 
Q 54.890625 34.8125 54.890625 23.390625 
Q 54.890625 11.625 47.5625 5.09375 
Q 40.234375 -1.421875 26.90625 -1.421875 
Q 22.3125 -1.421875 17.546875 -0.640625 
Q 12.796875 0.140625 7.71875 1.703125 
L 7.71875 11.625 
Q 12.109375 9.234375 16.796875 8.0625 
Q 21.484375 6.890625 26.703125 6.890625 
Q 35.15625 6.890625 40.078125 11.328125 
Q 45.015625 15.765625 45.015625 23.390625 
Q 45.015625 31 40.078125 35.4375 
Q 35.15625 39.890625 26.703125 39.890625 
Q 22.75 39.890625 18.8125 39.015625 
Q 14.890625 38.140625 10.796875 36.28125 
z
" id="DejaVuSans-53"/>
       </defs>
       <use xlink:href="#DejaVuSans-48"/>
       <use x="63.623047" xlink:href="#DejaVuSans-46"/>
       <use x="95.410156" xlink:href="#DejaVuSans-53"/>
      </g>
     </g>
    </g>
    <g id="ytick_3">
     <g id="line2d_17">
      <path clip-path="url(#p53a5e384f9)" d="M 47.72 109.170887 
L 282.32814 109.170887 
" style="fill:none;stroke:#b0b0b0;stroke-linecap:square;stroke-width:0.8;"/>
     </g>
     <g id="line2d_18">
      <g>
       <use style="stroke:#000000;stroke-width:0.8;" x="47.72" xlink:href="#mc2f138b65e" y="109.170887"/>
      </g>
     </g>
     <g id="text_10">
      <!-- 0.6 -->
      <g transform="translate(24.816875 112.970106)scale(0.1 -0.1)">
       <use xlink:href="#DejaVuSans-48"/>
       <use x="63.623047" xlink:href="#DejaVuSans-46"/>
       <use x="95.410156" xlink:href="#DejaVuSans-54"/>
      </g>
     </g>
    </g>
    <g id="ytick_4">
     <g id="line2d_19">
      <path clip-path="url(#p53a5e384f9)" d="M 47.72 81.04917 
L 282.32814 81.04917 
" style="fill:none;stroke:#b0b0b0;stroke-linecap:square;stroke-width:0.8;"/>
     </g>
     <g id="line2d_20">
      <g>
       <use style="stroke:#000000;stroke-width:0.8;" x="47.72" xlink:href="#mc2f138b65e" y="81.04917"/>
      </g>
     </g>
     <g id="text_11">
      <!-- 0.7 -->
      <g transform="translate(24.816875 84.848388)scale(0.1 -0.1)">
       <defs>
        <path d="M 8.203125 72.90625 
L 55.078125 72.90625 
L 55.078125 68.703125 
L 28.609375 0 
L 18.3125 0 
L 43.21875 64.59375 
L 8.203125 64.59375 
z
" id="DejaVuSans-55"/>
       </defs>
       <use xlink:href="#DejaVuSans-48"/>
       <use x="63.623047" xlink:href="#DejaVuSans-46"/>
       <use x="95.410156" xlink:href="#DejaVuSans-55"/>
      </g>
     </g>
    </g>
    <g id="ytick_5">
     <g id="line2d_21">
      <path clip-path="url(#p53a5e384f9)" d="M 47.72 52.927452 
L 282.32814 52.927452 
" style="fill:none;stroke:#b0b0b0;stroke-linecap:square;stroke-width:0.8;"/>
     </g>
     <g id="line2d_22">
      <g>
       <use style="stroke:#000000;stroke-width:0.8;" x="47.72" xlink:href="#mc2f138b65e" y="52.927452"/>
      </g>
     </g>
     <g id="text_12">
      <!-- 0.8 -->
      <g transform="translate(24.816875 56.726671)scale(0.1 -0.1)">
       <use xlink:href="#DejaVuSans-48"/>
       <use x="63.623047" xlink:href="#DejaVuSans-46"/>
       <use x="95.410156" xlink:href="#DejaVuSans-56"/>
      </g>
     </g>
    </g>
    <g id="text_13">
     <!-- Acc -->
     <g transform="translate(18.737187 113.13125)rotate(-90)scale(0.1 -0.1)">
      <defs>
       <path d="M 34.1875 63.1875 
L 20.796875 26.90625 
L 47.609375 26.90625 
z
M 28.609375 72.90625 
L 39.796875 72.90625 
L 67.578125 0 
L 57.328125 0 
L 50.6875 18.703125 
L 17.828125 18.703125 
L 11.1875 0 
L 0.78125 0 
z
" id="DejaVuSans-65"/>
      </defs>
      <use xlink:href="#DejaVuSans-65"/>
      <use x="66.658203" xlink:href="#DejaVuSans-99"/>
      <use x="121.638672" xlink:href="#DejaVuSans-99"/>
     </g>
    </g>
   </g>
   <g id="line2d_23">
    <path clip-path="url(#p53a5e384f9)" d="M 58.384006 130.633457 
L 60.538351 89.216652 
L 62.692696 75.50613 
L 64.847041 67.57221 
L 67.001385 67.162148 
L 69.15573 63.221923 
L 71.310075 68.641951 
L 73.464419 63.756794 
L 75.618764 62.722722 
L 77.773109 60.476265 
L 79.927454 60.369291 
L 82.081798 61.688633 
L 84.236143 62.437452 
L 86.390488 60.7437 
L 88.544833 58.158487 
L 90.699177 59.085601 
L 92.853522 58.051513 
L 95.007867 57.10658 
L 97.162211 57.552294 
L 99.316556 59.317367 
L 101.470901 58.764679 
L 103.625246 56.785658 
L 105.77959 58.283295 
L 107.933935 57.980191 
L 110.08828 56.232952 
L 112.242624 55.751569 
L 114.396969 55.412812 
L 116.551314 55.876378 
L 118.705659 58.301113 
L 120.860003 59.067767 
L 123.014348 56.91045 
L 125.168693 56.928284 
L 127.323038 55.591108 
L 129.477382 56.749988 
L 131.631727 54.057817 
L 133.786072 55.787221 
L 135.940416 56.179465 
L 138.094761 56.125978 
L 140.249106 55.056237 
L 142.403451 56.161631 
L 144.557795 54.521366 
L 146.71214 53.915174 
L 148.866485 54.414392 
L 151.02083 52.506693 
L 153.175174 51.740039 
L 155.329519 53.255512 
L 157.483864 52.720641 
L 159.638208 50.581158 
L 161.792553 48.299033 
L 163.946898 46.854882 
L 166.101243 46.979691 
L 168.255587 47.336265 
L 170.409932 48.049432 
L 172.564277 47.478909 
L 174.718622 45.410731 
L 176.872966 48.227728 
L 179.027311 45.981271 
L 181.181656 44.483633 
L 183.336 44.786721 
L 185.490345 45.321592 
L 187.64469 44.572773 
L 189.799035 44.62626 
L 191.953379 46.016923 
L 194.107724 45.268105 
L 196.262069 45.054156 
L 198.416413 42.397638 
L 200.570758 41.791445 
L 202.725103 42.219342 
L 204.879448 43.770467 
L 207.033792 44.982835 
L 209.188137 45.53554 
L 211.342482 43.770467 
L 213.496827 41.595332 
L 215.651171 43.271249 
L 217.805516 40.971305 
L 219.959861 41.934072 
L 222.114205 43.859606 
L 224.26855 44.62626 
L 226.422895 44.269685 
L 228.57724 42.736378 
L 230.731584 45.196783 
L 232.885929 42.985995 
L 235.040274 40.9 
L 237.194619 42.575917 
L 239.348963 43.235596 
L 241.503308 42.700726 
L 243.657653 42.682891 
L 245.811997 44.590607 
L 247.966342 45.963436 
L 250.120687 44.180529 
L 252.275032 43.984415 
L 254.429376 42.165855 
L 256.583721 41.470523 
L 258.738066 40.935652 
L 260.89241 41.52401 
L 263.046755 41.934072 
L 265.2011 43.663493 
L 267.355445 41.773611 
L 269.509789 42.504612 
L 271.664134 42.52243 
" style="fill:none;stroke:#1f77b4;stroke-linecap:square;stroke-width:1.5;"/>
   </g>
   <g id="line2d_24">
    <path clip-path="url(#p53a5e384f9)" d="M 58.384006 138.834812 
L 60.538351 141.901409 
L 62.692696 153.579415 
L 64.847041 156.503378 
L 67.001385 156.8243 
L 69.15573 152.580996 
L 71.310075 151.867829 
L 73.464419 146.340836 
L 75.618764 140.011528 
L 77.773109 132.755122 
L 79.927454 128.743592 
L 82.081798 121.237569 
L 84.236143 117.867884 
L 86.390488 113.196674 
L 88.544833 108.151073 
L 90.699177 107.972777 
L 92.853522 103.658159 
L 95.007867 102.427957 
L 97.162211 99.254386 
L 99.316556 97.899374 
L 101.470901 98.755167 
L 103.625246 96.383919 
L 105.77959 94.957586 
L 107.933935 94.886281 
L 110.08828 94.565359 
L 112.242624 91.96231 
L 114.396969 90.108098 
L 116.551314 88.89573 
L 118.705659 88.253885 
L 120.860003 86.132221 
L 123.014348 86.203542 
L 125.168693 88.949217 
L 127.323038 86.221377 
L 129.477382 84.955505 
L 131.631727 85.329915 
L 133.786072 86.025247 
L 135.940416 85.864785 
L 138.094761 84.759392 
L 140.249106 84.117547 
L 142.403451 84.367148 
L 144.557795 85.561698 
L 146.71214 83.957086 
L 148.866485 84.705905 
L 151.02083 83.600511 
L 153.175174 86.7919 
L 155.329519 85.739993 
L 157.483864 86.595786 
L 159.638208 86.239195 
L 161.792553 86.756248 
L 163.946898 86.684926 
L 166.101243 88.574808 
L 168.255587 86.70276 
L 170.409932 88.842243 
L 172.564277 86.310516 
L 174.718622 88.432164 
L 176.872966 88.931383 
L 179.027311 90.125933 
L 181.181656 93.263835 
L 183.336 88.343025 
L 185.490345 90.571647 
L 187.64469 94.262254 
L 189.799035 87.843807 
L 191.953379 92.53285 
L 194.107724 93.335156 
L 196.262069 93.870027 
L 198.416413 92.140606 
L 200.570758 93.798705 
L 202.725103 91.819684 
L 204.879448 91.373953 
L 207.033792 92.90726 
L 209.188137 93.745218 
L 211.342482 96.25911 
L 213.496827 94.636664 
L 215.651171 95.884701 
L 217.805516 92.728964 
L 219.959861 94.262254 
L 222.114205 94.35141 
L 224.26855 95.278508 
L 226.422895 98.951298 
L 228.57724 94.797125 
L 230.731584 96.062996 
L 232.885929 95.118047 
L 235.040274 94.262254 
L 237.194619 95.884701 
L 239.348963 94.583177 
L 241.503308 91.926658 
L 243.657653 95.100229 
L 245.811997 100.359779 
L 247.966342 96.330432 
L 250.120687 93.032052 
L 252.275032 95.171534 
L 254.429376 98.16681 
L 256.583721 97.132738 
L 258.738066 95.421152 
L 260.89241 96.455224 
L 263.046755 97.881557 
L 265.2011 97.132738 
L 267.355445 99.414847 
L 269.509789 96.526545 
L 271.664134 94.886281 
" style="fill:none;stroke:#ff7f0e;stroke-linecap:square;stroke-width:1.5;"/>
   </g>
   <g id="line2d_25">
    <path clip-path="url(#p53a5e384f9)" d="M 58.384006 117.921371 
L 60.538351 120.007366 
L 62.692696 113.107535 
L 64.847041 116.47722 
L 67.001385 108.578969 
L 69.15573 106.617766 
L 71.310075 106.617766 
L 73.464419 106.617766 
L 75.618764 106.617766 
L 77.773109 106.617766 
L 79.927454 106.617766 
L 82.081798 106.617766 
L 84.236143 106.617766 
L 86.390488 106.617766 
L 88.544833 106.617766 
L 90.699177 106.617766 
L 92.853522 106.617766 
L 95.007867 106.617766 
L 97.162211 106.617766 
L 99.316556 106.617766 
L 101.470901 106.617766 
L 103.625246 106.617766 
L 105.77959 106.617766 
L 107.933935 106.617766 
L 110.08828 106.617766 
L 112.242624 106.617766 
L 114.396969 106.617766 
L 116.551314 106.617766 
L 118.705659 106.617766 
L 120.860003 106.617766 
L 123.014348 106.617766 
L 125.168693 106.617766 
L 127.323038 106.617766 
L 129.477382 106.617766 
L 131.631727 106.617766 
L 133.786072 106.617766 
L 135.940416 106.617766 
L 138.094761 106.617766 
L 140.249106 106.617766 
L 142.403451 106.617766 
L 144.557795 106.617766 
L 146.71214 106.617766 
L 148.866485 106.617766 
L 151.02083 106.617766 
L 153.175174 106.617766 
L 155.329519 106.617766 
L 157.483864 106.617766 
L 159.638208 106.617766 
L 161.792553 106.617766 
L 163.946898 106.617766 
L 166.101243 106.617766 
L 168.255587 106.617766 
L 170.409932 106.617766 
L 172.564277 106.617766 
L 174.718622 106.617766 
L 176.872966 106.617766 
L 179.027311 106.617766 
L 181.181656 106.617766 
L 183.336 106.617766 
L 185.490345 106.617766 
L 187.64469 106.617766 
L 189.799035 106.617766 
L 191.953379 106.617766 
L 194.107724 106.617766 
L 196.262069 106.617766 
L 198.416413 106.617766 
L 200.570758 106.617766 
L 202.725103 106.617766 
L 204.879448 106.617766 
L 207.033792 106.617766 
L 209.188137 106.617766 
L 211.342482 106.617766 
L 213.496827 106.617766 
L 215.651171 106.617766 
L 217.805516 106.617766 
L 219.959861 106.617766 
L 222.114205 106.617766 
L 224.26855 106.617766 
L 226.422895 106.617766 
L 228.57724 106.617766 
L 230.731584 106.617766 
L 232.885929 106.617766 
L 235.040274 106.617766 
L 237.194619 106.617766 
L 239.348963 106.617766 
L 241.503308 106.617766 
L 243.657653 106.617766 
L 245.811997 106.617766 
L 247.966342 106.617766 
L 250.120687 106.617766 
L 252.275032 106.617766 
L 254.429376 106.617766 
L 256.583721 106.617766 
L 258.738066 106.617766 
L 260.89241 106.617766 
L 263.046755 106.617766 
L 265.2011 106.617766 
L 267.355445 106.617766 
L 269.509789 106.617766 
L 271.664134 106.617766 
" style="fill:none;stroke:#2ca02c;stroke-linecap:square;stroke-width:1.5;"/>
   </g>
   <g id="line2d_26">
    <path clip-path="url(#p53a5e384f9)" d="M 58.384006 161.531162 
L 60.538351 113.820701 
L 62.692696 101.019459 
L 64.847041 106.439487 
L 67.001385 105.298424 
L 69.15573 91.516596 
L 71.310075 72.261237 
L 73.464419 62.36613 
L 75.618764 64.701743 
L 77.773109 69.979128 
L 79.927454 66.252868 
L 82.081798 63.132784 
L 84.236143 66.716417 
L 86.390488 74.489876 
L 88.544833 74.258093 
L 90.699177 72.11861 
L 92.853522 69.30163 
L 95.007867 71.334139 
L 97.162211 76.932446 
L 99.316556 75.024746 
L 101.470901 71.387626 
L 103.625246 73.081377 
L 105.77959 72.439533 
L 107.933935 74.204606 
L 110.08828 77.146394 
L 112.242624 76.433228 
L 114.396969 76.700663 
L 116.551314 77.146394 
L 118.705659 79.196737 
L 120.860003 82.940831 
L 123.014348 85.436889 
L 125.168693 84.812879 
L 127.323038 86.916709 
L 129.477382 90.072445 
L 131.631727 91.391787 
L 133.786072 95.135882 
L 135.940416 93.44213 
L 138.094761 96.134301 
L 140.249106 95.563778 
L 142.403451 99.503986 
L 144.557795 97.007929 
L 146.71214 95.118047 
L 148.866485 98.594706 
L 151.02083 104.068221 
L 153.175174 101.696956 
L 155.329519 101.518677 
L 157.483864 102.00006 
L 159.638208 105.262771 
L 161.792553 102.392288 
L 163.946898 104.549605 
L 166.101243 111.877333 
L 168.255587 103.355055 
L 170.409932 105.173615 
L 172.564277 138.531724 
L 174.718622 106.938688 
L 176.872966 99.98537 
L 179.027311 167.7 
L 181.181656 164.811699 
L 183.336 106.992175 
L 185.490345 106.992175 
L 187.64469 107.063497 
L 189.799035 167.593026 
L 191.953379 167.593026 
L 194.107724 167.593026 
L 196.262069 106.938688 
L 198.416413 106.992175 
L 200.570758 106.136382 
L 202.725103 167.5752 
L 204.879448 167.593026 
L 207.033792 106.885201 
L 209.188137 106.564279 
L 211.342482 167.325591 
L 213.496827 156.913448 
L 215.651171 106.992175 
L 217.805516 106.992175 
L 219.959861 137.88988 
L 222.114205 165.810127 
L 224.26855 106.92087 
L 226.422895 107.865803 
L 228.57724 167.593026 
L 230.731584 167.539539 
L 232.885929 106.974357 
L 235.040274 107.027844 
L 237.194619 160.300959 
L 239.348963 143.595161 
L 241.503308 106.974357 
L 243.657653 106.956523 
L 245.811997 167.593026 
L 247.966342 167.593026 
L 250.120687 108.382839 
L 252.275032 107.063497 
L 254.429376 148.997354 
L 256.583721 105.173615 
L 258.738066 147.392742 
L 260.89241 107.01001 
L 263.046755 138.995273 
L 265.2011 110.02312 
L 267.355445 157.287857 
L 269.509789 106.992175 
L 271.664134 106.671253 
" style="fill:none;stroke:#d62728;stroke-linecap:square;stroke-width:1.5;"/>
   </g>
   <g id="line2d_27">
    <path clip-path="url(#p53a5e384f9)" d="M 58.384006 145.16412 
L 60.538351 116.887282 
L 62.692696 100.80551 
L 64.847041 93.81654 
L 67.001385 89.680201 
L 69.15573 83.15478 
L 71.310075 74.454206 
L 73.464419 70.175241 
L 75.618764 63.507193 
L 77.773109 61.242902 
L 79.927454 61.403363 
L 82.081798 62.009555 
L 84.236143 61.920416 
L 86.390488 60.761518 
L 88.544833 59.335202 
L 90.699177 58.01586 
L 92.853522 57.891051 
L 95.007867 57.19572 
L 97.162211 55.484134 
L 99.316556 55.341507 
L 101.470901 55.00275 
L 103.625246 53.968661 
L 105.77959 56.1973 
L 107.933935 55.377159 
L 110.08828 55.359325 
L 112.242624 55.216698 
L 114.396969 55.448481 
L 116.551314 57.017424 
L 118.705659 57.124398 
L 120.860003 56.963937 
L 123.014348 55.466299 
L 125.168693 55.555455 
L 127.323038 55.163211 
L 129.477382 56.00117 
L 131.631727 55.715916 
L 133.786072 54.842289 
L 135.940416 54.343071 
L 138.094761 54.628341 
L 140.249106 54.628341 
L 142.403451 55.394994 
L 144.557795 55.501968 
L 146.71214 55.28802 
L 148.866485 55.947683 
L 151.02083 55.484134 
L 153.175174 55.448481 
L 155.329519 56.446901 
L 157.483864 55.252351 
L 159.638208 56.268605 
L 161.792553 55.876378 
L 163.946898 55.074072 
L 166.101243 55.430647 
L 168.255587 55.787221 
L 170.409932 54.860123 
L 172.564277 55.947683 
L 174.718622 53.505112 
L 176.872966 55.787221 
L 179.027311 55.537621 
L 181.181656 56.839145 
L 183.336 55.805056 
L 185.490345 56.268605 
L 187.64469 56.892632 
L 189.799035 56.749988 
L 191.953379 55.822891 
L 194.107724 56.036839 
L 196.262069 56.28644 
L 198.416413 54.895776 
L 200.570758 55.822891 
L 202.725103 55.858543 
L 204.879448 55.680247 
L 207.033792 56.232952 
L 209.188137 55.91203 
L 211.342482 54.984915 
L 213.496827 56.446901 
L 215.651171 56.143813 
L 217.805516 56.785658 
L 219.959861 56.981771 
L 222.114205 57.088745 
L 224.26855 56.767823 
L 226.422895 56.108144 
L 228.57724 55.448481 
L 230.731584 55.805056 
L 232.885929 57.320528 
L 235.040274 54.984915 
L 237.194619 55.680247 
L 239.348963 56.250787 
L 241.503308 56.429066 
L 243.657653 57.409668 
L 245.811997 56.339927 
L 247.966342 57.035258 
L 250.120687 55.359325 
L 252.275032 57.374015 
L 254.429376 56.928284 
L 256.583721 57.641451 
L 258.738066 57.944538 
L 260.89241 56.482553 
L 263.046755 57.302694 
L 265.2011 56.411248 
L 267.355445 56.28644 
L 269.509789 57.623616 
L 271.664134 57.659269 
" style="fill:none;stroke:#9467bd;stroke-linecap:square;stroke-width:1.5;"/>
   </g>
   <g id="patch_3">
    <path d="M 47.72 174.04 
L 47.72 34.56 
" style="fill:none;stroke:#000000;stroke-linecap:square;stroke-linejoin:miter;stroke-width:0.8;"/>
   </g>
   <g id="patch_4">
    <path d="M 282.32814 174.04 
L 282.32814 34.56 
" style="fill:none;stroke:#000000;stroke-linecap:square;stroke-linejoin:miter;stroke-width:0.8;"/>
   </g>
   <g id="patch_5">
    <path d="M 47.72 174.04 
L 282.32814 174.04 
" style="fill:none;stroke:#000000;stroke-linecap:square;stroke-linejoin:miter;stroke-width:0.8;"/>
   </g>
   <g id="patch_6">
    <path d="M 47.72 34.56 
L 282.32814 34.56 
" style="fill:none;stroke:#000000;stroke-linecap:square;stroke-linejoin:miter;stroke-width:0.8;"/>
   </g>
   <g id="legend_1">
    <g id="patch_7">
     <path d="M 134.443601 169.04 
L 195.604539 169.04 
Q 197.604539 169.04 197.604539 167.04 
L 197.604539 94.649375 
Q 197.604539 92.649375 195.604539 92.649375 
L 134.443601 92.649375 
Q 132.443601 92.649375 132.443601 94.649375 
L 132.443601 167.04 
Q 132.443601 169.04 134.443601 169.04 
z
" style="fill:#ffffff;opacity:0.8;stroke:#cccccc;stroke-linejoin:miter;"/>
    </g>
    <g id="line2d_28">
     <path d="M 136.443601 100.747813 
L 156.443601 100.747813 
" style="fill:none;stroke:#1f77b4;stroke-linecap:square;stroke-width:1.5;"/>
    </g>
    <g id="line2d_29"/>
    <g id="text_14">
     <!-- GAT -->
     <g transform="translate(164.443601 104.247813)scale(0.1 -0.1)">
      <defs>
       <path d="M 59.515625 10.40625 
L 59.515625 29.984375 
L 43.40625 29.984375 
L 43.40625 38.09375 
L 69.28125 38.09375 
L 69.28125 6.78125 
Q 63.578125 2.734375 56.6875 0.65625 
Q 49.8125 -1.421875 42 -1.421875 
Q 24.90625 -1.421875 15.25 8.5625 
Q 5.609375 18.5625 5.609375 36.375 
Q 5.609375 54.25 15.25 64.234375 
Q 24.90625 74.21875 42 74.21875 
Q 49.125 74.21875 55.546875 72.453125 
Q 61.96875 70.703125 67.390625 67.28125 
L 67.390625 56.78125 
Q 61.921875 61.421875 55.765625 63.765625 
Q 49.609375 66.109375 42.828125 66.109375 
Q 29.4375 66.109375 22.71875 58.640625 
Q 16.015625 51.171875 16.015625 36.375 
Q 16.015625 21.625 22.71875 14.15625 
Q 29.4375 6.6875 42.828125 6.6875 
Q 48.046875 6.6875 52.140625 7.59375 
Q 56.25 8.5 59.515625 10.40625 
z
" id="DejaVuSans-71"/>
       <path d="M -0.296875 72.90625 
L 61.375 72.90625 
L 61.375 64.59375 
L 35.5 64.59375 
L 35.5 0 
L 25.59375 0 
L 25.59375 64.59375 
L -0.296875 64.59375 
z
" id="DejaVuSans-84"/>
      </defs>
      <use xlink:href="#DejaVuSans-71"/>
      <use x="77.490234" xlink:href="#DejaVuSans-65"/>
      <use x="138.148438" xlink:href="#DejaVuSans-84"/>
     </g>
    </g>
    <g id="line2d_30">
     <path d="M 136.443601 115.425938 
L 156.443601 115.425938 
" style="fill:none;stroke:#ff7f0e;stroke-linecap:square;stroke-width:1.5;"/>
    </g>
    <g id="line2d_31"/>
    <g id="text_15">
     <!-- GCN -->
     <g transform="translate(164.443601 118.925938)scale(0.1 -0.1)">
      <defs>
       <path d="M 64.40625 67.28125 
L 64.40625 56.890625 
Q 59.421875 61.53125 53.78125 63.8125 
Q 48.140625 66.109375 41.796875 66.109375 
Q 29.296875 66.109375 22.65625 58.46875 
Q 16.015625 50.828125 16.015625 36.375 
Q 16.015625 21.96875 22.65625 14.328125 
Q 29.296875 6.6875 41.796875 6.6875 
Q 48.140625 6.6875 53.78125 8.984375 
Q 59.421875 11.28125 64.40625 15.921875 
L 64.40625 5.609375 
Q 59.234375 2.09375 53.4375 0.328125 
Q 47.65625 -1.421875 41.21875 -1.421875 
Q 24.65625 -1.421875 15.125 8.703125 
Q 5.609375 18.84375 5.609375 36.375 
Q 5.609375 53.953125 15.125 64.078125 
Q 24.65625 74.21875 41.21875 74.21875 
Q 47.75 74.21875 53.53125 72.484375 
Q 59.328125 70.75 64.40625 67.28125 
z
" id="DejaVuSans-67"/>
       <path d="M 9.8125 72.90625 
L 23.09375 72.90625 
L 55.421875 11.921875 
L 55.421875 72.90625 
L 64.984375 72.90625 
L 64.984375 0 
L 51.703125 0 
L 19.390625 60.984375 
L 19.390625 0 
L 9.8125 0 
z
" id="DejaVuSans-78"/>
      </defs>
      <use xlink:href="#DejaVuSans-71"/>
      <use x="77.490234" xlink:href="#DejaVuSans-67"/>
      <use x="147.314453" xlink:href="#DejaVuSans-78"/>
     </g>
    </g>
    <g id="line2d_32">
     <path d="M 136.443601 130.104062 
L 156.443601 130.104062 
" style="fill:none;stroke:#2ca02c;stroke-linecap:square;stroke-width:1.5;"/>
    </g>
    <g id="line2d_33"/>
    <g id="text_16">
     <!-- PPNP -->
     <g transform="translate(164.443601 133.604062)scale(0.1 -0.1)">
      <defs>
       <path d="M 19.671875 64.796875 
L 19.671875 37.40625 
L 32.078125 37.40625 
Q 38.96875 37.40625 42.71875 40.96875 
Q 46.484375 44.53125 46.484375 51.125 
Q 46.484375 57.671875 42.71875 61.234375 
Q 38.96875 64.796875 32.078125 64.796875 
z
M 9.8125 72.90625 
L 32.078125 72.90625 
Q 44.34375 72.90625 50.609375 67.359375 
Q 56.890625 61.8125 56.890625 51.125 
Q 56.890625 40.328125 50.609375 34.8125 
Q 44.34375 29.296875 32.078125 29.296875 
L 19.671875 29.296875 
L 19.671875 0 
L 9.8125 0 
z
" id="DejaVuSans-80"/>
      </defs>
      <use xlink:href="#DejaVuSans-80"/>
      <use x="60.302734" xlink:href="#DejaVuSans-80"/>
      <use x="120.605469" xlink:href="#DejaVuSans-78"/>
      <use x="195.410156" xlink:href="#DejaVuSans-80"/>
     </g>
    </g>
    <g id="line2d_34">
     <path d="M 136.443601 144.782188 
L 156.443601 144.782188 
" style="fill:none;stroke:#d62728;stroke-linecap:square;stroke-width:1.5;"/>
    </g>
    <g id="line2d_35"/>
    <g id="text_17">
     <!-- RGCN -->
     <g transform="translate(164.443601 148.282188)scale(0.1 -0.1)">
      <defs>
       <path d="M 44.390625 34.1875 
Q 47.5625 33.109375 50.5625 29.59375 
Q 53.5625 26.078125 56.59375 19.921875 
L 66.609375 0 
L 56 0 
L 46.6875 18.703125 
Q 43.0625 26.03125 39.671875 28.421875 
Q 36.28125 30.8125 30.421875 30.8125 
L 19.671875 30.8125 
L 19.671875 0 
L 9.8125 0 
L 9.8125 72.90625 
L 32.078125 72.90625 
Q 44.578125 72.90625 50.734375 67.671875 
Q 56.890625 62.453125 56.890625 51.90625 
Q 56.890625 45.015625 53.6875 40.46875 
Q 50.484375 35.9375 44.390625 34.1875 
z
M 19.671875 64.796875 
L 19.671875 38.921875 
L 32.078125 38.921875 
Q 39.203125 38.921875 42.84375 42.21875 
Q 46.484375 45.515625 46.484375 51.90625 
Q 46.484375 58.296875 42.84375 61.546875 
Q 39.203125 64.796875 32.078125 64.796875 
z
" id="DejaVuSans-82"/>
      </defs>
      <use xlink:href="#DejaVuSans-82"/>
      <use x="69.482422" xlink:href="#DejaVuSans-71"/>
      <use x="146.972656" xlink:href="#DejaVuSans-67"/>
      <use x="216.796875" xlink:href="#DejaVuSans-78"/>
     </g>
    </g>
    <g id="line2d_36">
     <path d="M 136.443601 159.460313 
L 156.443601 159.460313 
" style="fill:none;stroke:#9467bd;stroke-linecap:square;stroke-width:1.5;"/>
    </g>
    <g id="line2d_37"/>
    <g id="text_18">
     <!-- SGC -->
     <g transform="translate(164.443601 162.960313)scale(0.1 -0.1)">
      <defs>
       <path d="M 53.515625 70.515625 
L 53.515625 60.890625 
Q 47.90625 63.578125 42.921875 64.890625 
Q 37.9375 66.21875 33.296875 66.21875 
Q 25.25 66.21875 20.875 63.09375 
Q 16.5 59.96875 16.5 54.203125 
Q 16.5 49.359375 19.40625 46.890625 
Q 22.3125 44.4375 30.421875 42.921875 
L 36.375 41.703125 
Q 47.40625 39.59375 52.65625 34.296875 
Q 57.90625 29 57.90625 20.125 
Q 57.90625 9.515625 50.796875 4.046875 
Q 43.703125 -1.421875 29.984375 -1.421875 
Q 24.8125 -1.421875 18.96875 -0.25 
Q 13.140625 0.921875 6.890625 3.21875 
L 6.890625 13.375 
Q 12.890625 10.015625 18.65625 8.296875 
Q 24.421875 6.59375 29.984375 6.59375 
Q 38.421875 6.59375 43.015625 9.90625 
Q 47.609375 13.234375 47.609375 19.390625 
Q 47.609375 24.75 44.3125 27.78125 
Q 41.015625 30.8125 33.5 32.328125 
L 27.484375 33.5 
Q 16.453125 35.6875 11.515625 40.375 
Q 6.59375 45.0625 6.59375 53.421875 
Q 6.59375 63.09375 13.40625 68.65625 
Q 20.21875 74.21875 32.171875 74.21875 
Q 37.3125 74.21875 42.625 73.28125 
Q 47.953125 72.359375 53.515625 70.515625 
z
" id="DejaVuSans-83"/>
      </defs>
      <use xlink:href="#DejaVuSans-83"/>
      <use x="63.476562" xlink:href="#DejaVuSans-71"/>
      <use x="140.966797" xlink:href="#DejaVuSans-67"/>
     </g>
    </g>
   </g>
  </g>
  <g id="axes_2">
   <g id="patch_8">
    <path d="M 330.32 174.04 
L 564.92814 174.04 
L 564.92814 34.56 
L 330.32 34.56 
z
" style="fill:#ffffff;"/>
   </g>
   <g id="matplotlib.axis_3">
    <g id="xtick_7">
     <g id="line2d_38">
      <path clip-path="url(#pb8c9fa12fd)" d="M 338.829662 174.04 
L 338.829662 34.56 
" style="fill:none;stroke:#b0b0b0;stroke-linecap:square;stroke-width:0.8;"/>
     </g>
     <g id="line2d_39">
      <g>
       <use style="stroke:#000000;stroke-width:0.8;" x="338.829662" xlink:href="#mf3d4e192b1" y="174.04"/>
      </g>
     </g>
     <g id="text_19">
      <!-- 0 -->
      <g transform="translate(335.648412 188.638438)scale(0.1 -0.1)">
       <use xlink:href="#DejaVuSans-48"/>
      </g>
     </g>
    </g>
    <g id="xtick_8">
     <g id="line2d_40">
      <path clip-path="url(#pb8c9fa12fd)" d="M 381.916556 174.04 
L 381.916556 34.56 
" style="fill:none;stroke:#b0b0b0;stroke-linecap:square;stroke-width:0.8;"/>
     </g>
     <g id="line2d_41">
      <g>
       <use style="stroke:#000000;stroke-width:0.8;" x="381.916556" xlink:href="#mf3d4e192b1" y="174.04"/>
      </g>
     </g>
     <g id="text_20">
      <!-- 20 -->
      <g transform="translate(375.554056 188.638438)scale(0.1 -0.1)">
       <use xlink:href="#DejaVuSans-50"/>
       <use x="63.623047" xlink:href="#DejaVuSans-48"/>
      </g>
     </g>
    </g>
    <g id="xtick_9">
     <g id="line2d_42">
      <path clip-path="url(#pb8c9fa12fd)" d="M 425.003451 174.04 
L 425.003451 34.56 
" style="fill:none;stroke:#b0b0b0;stroke-linecap:square;stroke-width:0.8;"/>
     </g>
     <g id="line2d_43">
      <g>
       <use style="stroke:#000000;stroke-width:0.8;" x="425.003451" xlink:href="#mf3d4e192b1" y="174.04"/>
      </g>
     </g>
     <g id="text_21">
      <!-- 40 -->
      <g transform="translate(418.640951 188.638438)scale(0.1 -0.1)">
       <use xlink:href="#DejaVuSans-52"/>
       <use x="63.623047" xlink:href="#DejaVuSans-48"/>
      </g>
     </g>
    </g>
    <g id="xtick_10">
     <g id="line2d_44">
      <path clip-path="url(#pb8c9fa12fd)" d="M 468.090345 174.04 
L 468.090345 34.56 
" style="fill:none;stroke:#b0b0b0;stroke-linecap:square;stroke-width:0.8;"/>
     </g>
     <g id="line2d_45">
      <g>
       <use style="stroke:#000000;stroke-width:0.8;" x="468.090345" xlink:href="#mf3d4e192b1" y="174.04"/>
      </g>
     </g>
     <g id="text_22">
      <!-- 60 -->
      <g transform="translate(461.727845 188.638438)scale(0.1 -0.1)">
       <use xlink:href="#DejaVuSans-54"/>
       <use x="63.623047" xlink:href="#DejaVuSans-48"/>
      </g>
     </g>
    </g>
    <g id="xtick_11">
     <g id="line2d_46">
      <path clip-path="url(#pb8c9fa12fd)" d="M 511.17724 174.04 
L 511.17724 34.56 
" style="fill:none;stroke:#b0b0b0;stroke-linecap:square;stroke-width:0.8;"/>
     </g>
     <g id="line2d_47">
      <g>
       <use style="stroke:#000000;stroke-width:0.8;" x="511.17724" xlink:href="#mf3d4e192b1" y="174.04"/>
      </g>
     </g>
     <g id="text_23">
      <!-- 80 -->
      <g transform="translate(504.81474 188.638438)scale(0.1 -0.1)">
       <use xlink:href="#DejaVuSans-56"/>
       <use x="63.623047" xlink:href="#DejaVuSans-48"/>
      </g>
     </g>
    </g>
    <g id="xtick_12">
     <g id="line2d_48">
      <path clip-path="url(#pb8c9fa12fd)" d="M 554.264134 174.04 
L 554.264134 34.56 
" style="fill:none;stroke:#b0b0b0;stroke-linecap:square;stroke-width:0.8;"/>
     </g>
     <g id="line2d_49">
      <g>
       <use style="stroke:#000000;stroke-width:0.8;" x="554.264134" xlink:href="#mf3d4e192b1" y="174.04"/>
      </g>
     </g>
     <g id="text_24">
      <!-- 100 -->
      <g transform="translate(544.720384 188.638438)scale(0.1 -0.1)">
       <use xlink:href="#DejaVuSans-49"/>
       <use x="63.623047" xlink:href="#DejaVuSans-48"/>
       <use x="127.246094" xlink:href="#DejaVuSans-48"/>
      </g>
     </g>
    </g>
    <g id="text_25">
     <!-- Epochs -->
     <g transform="translate(429.708445 202.316563)scale(0.1 -0.1)">
      <use xlink:href="#DejaVuSans-69"/>
      <use x="63.183594" xlink:href="#DejaVuSans-112"/>
      <use x="126.660156" xlink:href="#DejaVuSans-111"/>
      <use x="187.841797" xlink:href="#DejaVuSans-99"/>
      <use x="242.822266" xlink:href="#DejaVuSans-104"/>
      <use x="306.201172" xlink:href="#DejaVuSans-115"/>
     </g>
    </g>
   </g>
   <g id="matplotlib.axis_4">
    <g id="ytick_6">
     <g id="line2d_50">
      <path clip-path="url(#pb8c9fa12fd)" d="M 330.32 165.984311 
L 564.92814 165.984311 
" style="fill:none;stroke:#b0b0b0;stroke-linecap:square;stroke-width:0.8;"/>
     </g>
     <g id="line2d_51">
      <g>
       <use style="stroke:#000000;stroke-width:0.8;" x="330.32" xlink:href="#mc2f138b65e" y="165.984311"/>
      </g>
     </g>
     <g id="text_26">
      <!-- 0.4 -->
      <g transform="translate(307.416875 169.78353)scale(0.1 -0.1)">
       <use xlink:href="#DejaVuSans-48"/>
       <use x="63.623047" xlink:href="#DejaVuSans-46"/>
       <use x="95.410156" xlink:href="#DejaVuSans-52"/>
      </g>
     </g>
    </g>
    <g id="ytick_7">
     <g id="line2d_52">
      <path clip-path="url(#pb8c9fa12fd)" d="M 330.32 139.552007 
L 564.92814 139.552007 
" style="fill:none;stroke:#b0b0b0;stroke-linecap:square;stroke-width:0.8;"/>
     </g>
     <g id="line2d_53">
      <g>
       <use style="stroke:#000000;stroke-width:0.8;" x="330.32" xlink:href="#mc2f138b65e" y="139.552007"/>
      </g>
     </g>
     <g id="text_27">
      <!-- 0.5 -->
      <g transform="translate(307.416875 143.351226)scale(0.1 -0.1)">
       <use xlink:href="#DejaVuSans-48"/>
       <use x="63.623047" xlink:href="#DejaVuSans-46"/>
       <use x="95.410156" xlink:href="#DejaVuSans-53"/>
      </g>
     </g>
    </g>
    <g id="ytick_8">
     <g id="line2d_54">
      <path clip-path="url(#pb8c9fa12fd)" d="M 330.32 113.119703 
L 564.92814 113.119703 
" style="fill:none;stroke:#b0b0b0;stroke-linecap:square;stroke-width:0.8;"/>
     </g>
     <g id="line2d_55">
      <g>
       <use style="stroke:#000000;stroke-width:0.8;" x="330.32" xlink:href="#mc2f138b65e" y="113.119703"/>
      </g>
     </g>
     <g id="text_28">
      <!-- 0.6 -->
      <g transform="translate(307.416875 116.918922)scale(0.1 -0.1)">
       <use xlink:href="#DejaVuSans-48"/>
       <use x="63.623047" xlink:href="#DejaVuSans-46"/>
       <use x="95.410156" xlink:href="#DejaVuSans-54"/>
      </g>
     </g>
    </g>
    <g id="ytick_9">
     <g id="line2d_56">
      <path clip-path="url(#pb8c9fa12fd)" d="M 330.32 86.687399 
L 564.92814 86.687399 
" style="fill:none;stroke:#b0b0b0;stroke-linecap:square;stroke-width:0.8;"/>
     </g>
     <g id="line2d_57">
      <g>
       <use style="stroke:#000000;stroke-width:0.8;" x="330.32" xlink:href="#mc2f138b65e" y="86.687399"/>
      </g>
     </g>
     <g id="text_29">
      <!-- 0.7 -->
      <g transform="translate(307.416875 90.486618)scale(0.1 -0.1)">
       <use xlink:href="#DejaVuSans-48"/>
       <use x="63.623047" xlink:href="#DejaVuSans-46"/>
       <use x="95.410156" xlink:href="#DejaVuSans-55"/>
      </g>
     </g>
    </g>
    <g id="ytick_10">
     <g id="line2d_58">
      <path clip-path="url(#pb8c9fa12fd)" d="M 330.32 60.255095 
L 564.92814 60.255095 
" style="fill:none;stroke:#b0b0b0;stroke-linecap:square;stroke-width:0.8;"/>
     </g>
     <g id="line2d_59">
      <g>
       <use style="stroke:#000000;stroke-width:0.8;" x="330.32" xlink:href="#mc2f138b65e" y="60.255095"/>
      </g>
     </g>
     <g id="text_30">
      <!-- 0.8 -->
      <g transform="translate(307.416875 64.054314)scale(0.1 -0.1)">
       <use xlink:href="#DejaVuSans-48"/>
       <use x="63.623047" xlink:href="#DejaVuSans-46"/>
       <use x="95.410156" xlink:href="#DejaVuSans-56"/>
      </g>
     </g>
    </g>
    <g id="text_31">
     <!-- Val Acc -->
     <g transform="translate(301.337188 122.20625)rotate(-90)scale(0.1 -0.1)">
      <defs>
       <path d="M 28.609375 0 
L 0.78125 72.90625 
L 11.078125 72.90625 
L 34.1875 11.53125 
L 57.328125 72.90625 
L 67.578125 72.90625 
L 39.796875 0 
z
" id="DejaVuSans-86"/>
       <path d="M 34.28125 27.484375 
Q 23.390625 27.484375 19.1875 25 
Q 14.984375 22.515625 14.984375 16.5 
Q 14.984375 11.71875 18.140625 8.90625 
Q 21.296875 6.109375 26.703125 6.109375 
Q 34.1875 6.109375 38.703125 11.40625 
Q 43.21875 16.703125 43.21875 25.484375 
L 43.21875 27.484375 
z
M 52.203125 31.203125 
L 52.203125 0 
L 43.21875 0 
L 43.21875 8.296875 
Q 40.140625 3.328125 35.546875 0.953125 
Q 30.953125 -1.421875 24.3125 -1.421875 
Q 15.921875 -1.421875 10.953125 3.296875 
Q 6 8.015625 6 15.921875 
Q 6 25.140625 12.171875 29.828125 
Q 18.359375 34.515625 30.609375 34.515625 
L 43.21875 34.515625 
L 43.21875 35.40625 
Q 43.21875 41.609375 39.140625 45 
Q 35.0625 48.390625 27.6875 48.390625 
Q 23 48.390625 18.546875 47.265625 
Q 14.109375 46.140625 10.015625 43.890625 
L 10.015625 52.203125 
Q 14.9375 54.109375 19.578125 55.046875 
Q 24.21875 56 28.609375 56 
Q 40.484375 56 46.34375 49.84375 
Q 52.203125 43.703125 52.203125 31.203125 
z
" id="DejaVuSans-97"/>
       <path d="M 9.421875 75.984375 
L 18.40625 75.984375 
L 18.40625 0 
L 9.421875 0 
z
" id="DejaVuSans-108"/>
       <path id="DejaVuSans-32"/>
      </defs>
      <use xlink:href="#DejaVuSans-86"/>
      <use x="60.658203" xlink:href="#DejaVuSans-97"/>
      <use x="121.9375" xlink:href="#DejaVuSans-108"/>
      <use x="149.720703" xlink:href="#DejaVuSans-32"/>
      <use x="181.507812" xlink:href="#DejaVuSans-65"/>
      <use x="248.166016" xlink:href="#DejaVuSans-99"/>
      <use x="303.146484" xlink:href="#DejaVuSans-99"/>
     </g>
    </g>
   </g>
   <g id="line2d_60">
    <path clip-path="url(#pb8c9fa12fd)" d="M 340.984006 71.326645 
L 343.138351 61.273787 
L 345.292696 62.07801 
L 347.447041 64.624739 
L 349.601385 64.356654 
L 351.75573 64.490697 
L 353.910075 63.8205 
L 356.064419 63.150319 
L 358.218764 63.284361 
L 360.373109 63.150319 
L 362.527454 63.016276 
L 364.681798 63.8205 
L 366.836143 61.675898 
L 368.990488 60.737632 
L 371.144833 60.067435 
L 373.299177 59.799366 
L 375.453522 59.129169 
L 377.607867 58.995142 
L 379.762211 58.458988 
L 381.916556 59.129169 
L 384.070901 59.665324 
L 386.225246 59.263212 
L 388.37959 58.458988 
L 390.533935 57.922834 
L 392.68828 57.252637 
L 394.842624 57.252637 
L 396.996969 57.654764 
L 399.151314 58.458988 
L 401.305659 58.995142 
L 403.460003 58.995142 
L 405.614348 58.056876 
L 407.768693 57.386679 
L 409.923038 57.252637 
L 412.077382 57.922834 
L 414.231727 57.788791 
L 416.386072 57.386679 
L 418.540416 57.386679 
L 420.694761 56.850525 
L 422.849106 56.448413 
L 425.003451 55.64419 
L 427.157795 55.108035 
L 429.31214 54.303812 
L 431.466485 53.231503 
L 433.62083 53.365545 
L 435.775174 53.633615 
L 437.929519 52.963418 
L 440.083864 51.757082 
L 442.238208 50.952859 
L 444.392553 49.88055 
L 446.546898 49.746507 
L 448.701243 49.746507 
L 450.855587 49.612481 
L 453.009932 49.076326 
L 455.164277 49.210353 
L 457.318622 48.674214 
L 459.472966 48.540172 
L 461.627311 46.797682 
L 463.781656 45.457288 
L 465.936 44.921134 
L 468.090345 46.395555 
L 470.24469 47.065751 
L 472.399035 48.13806 
L 474.553379 46.797682 
L 476.707724 45.591331 
L 478.862069 43.178644 
L 481.016413 43.178644 
L 483.170758 43.848841 
L 485.325103 45.055177 
L 487.479448 45.8594 
L 489.633792 45.993443 
L 491.788137 45.457288 
L 493.942482 43.848841 
L 496.096827 42.240378 
L 498.251171 41.972309 
L 500.405516 42.240378 
L 502.559861 43.446729 
L 504.714205 44.384995 
L 506.86855 45.591331 
L 509.022895 45.591331 
L 511.17724 44.519022 
L 513.331584 43.178644 
L 515.485929 42.240378 
L 517.640274 42.240378 
L 519.794619 41.838266 
L 521.948963 42.64249 
L 524.103308 44.250953 
L 526.257653 45.725373 
L 528.411997 45.8594 
L 530.566342 44.787107 
L 532.720687 43.446729 
L 534.875032 42.508463 
L 537.029376 42.374421 
L 539.183721 42.64249 
L 541.338066 43.044602 
L 543.49241 43.178644 
L 545.646755 43.312687 
L 547.8011 43.580756 
L 549.955445 42.776532 
L 552.109789 42.106335 
L 554.264134 41.034043 
" style="fill:none;stroke:#1f77b4;stroke-linecap:square;stroke-width:1.5;"/>
   </g>
   <g id="line2d_61">
    <path clip-path="url(#pb8c9fa12fd)" d="M 340.984006 149.7389 
L 343.138351 161.400206 
L 345.292696 162.740592 
L 347.447041 162.472515 
L 349.601385 161.400206 
L 351.75573 157.379064 
L 353.910075 152.419656 
L 356.064419 144.779492 
L 358.218764 137.273363 
L 360.373109 130.303388 
L 362.527454 124.94186 
L 364.681798 120.652641 
L 366.836143 117.301688 
L 368.990488 113.816708 
L 371.144833 110.733825 
L 373.299177 108.45518 
L 375.453522 105.104228 
L 377.607867 103.227695 
L 379.762211 101.351163 
L 381.916556 100.144812 
L 384.070901 99.206545 
L 386.225246 98.268279 
L 388.37959 96.525789 
L 390.533935 94.515215 
L 392.68828 92.906767 
L 394.842624 91.432347 
L 396.996969 90.091969 
L 399.151314 89.01966 
L 401.305659 87.947351 
L 403.460003 87.27717 
L 405.614348 86.875058 
L 407.768693 86.070819 
L 409.923038 84.998526 
L 412.077382 84.730441 
L 414.231727 84.864484 
L 416.386072 84.462372 
L 418.540416 83.524106 
L 420.694761 83.524106 
L 422.849106 83.792175 
L 425.003451 82.987951 
L 427.157795 82.317754 
L 429.31214 82.317754 
L 431.466485 82.049685 
L 433.62083 81.915642 
L 435.775174 81.513531 
L 437.929519 81.379488 
L 440.083864 81.245461 
L 442.238208 80.709307 
L 444.392553 80.575264 
L 446.546898 80.977376 
L 448.701243 81.111419 
L 450.855587 81.245461 
L 453.009932 82.049685 
L 455.164277 82.317754 
L 457.318622 82.183728 
L 459.472966 82.451797 
L 461.627311 81.915642 
L 463.781656 82.049685 
L 465.936 82.317754 
L 468.090345 81.513531 
L 470.24469 80.709307 
L 472.399035 80.441222 
L 474.553379 80.843334 
L 476.707724 81.647573 
L 478.862069 82.049685 
L 481.016413 82.049685 
L 483.170758 81.7816 
L 485.325103 81.7816 
L 487.479448 81.7816 
L 489.633792 82.451797 
L 491.788137 82.183728 
L 493.942482 82.183728 
L 496.096827 81.245461 
L 498.251171 80.843334 
L 500.405516 80.843334 
L 502.559861 80.575264 
L 504.714205 80.977376 
L 506.86855 80.709307 
L 509.022895 79.502956 
L 511.17724 79.234886 
L 513.331584 79.368929 
L 515.485929 79.502956 
L 517.640274 79.368929 
L 519.794619 79.771041 
L 521.948963 79.771041 
L 524.103308 79.636998 
L 526.257653 79.368929 
L 528.411997 78.430647 
L 530.566342 78.028535 
L 532.720687 78.028535 
L 534.875032 77.626423 
L 537.029376 77.224312 
L 539.183721 77.224312 
L 541.338066 76.688157 
L 543.49241 76.286045 
L 545.646755 76.152003 
L 547.8011 76.286045 
L 549.955445 76.420088 
L 552.109789 76.554115 
L 554.264134 76.688157 
" style="fill:none;stroke:#ff7f0e;stroke-linecap:square;stroke-width:1.5;"/>
   </g>
   <g id="line2d_62">
    <path clip-path="url(#pb8c9fa12fd)" d="M 340.984006 117.7038 
L 343.138351 112.7444 
L 345.292696 112.7444 
L 347.447041 112.7444 
L 349.601385 112.7444 
L 351.75573 112.7444 
L 353.910075 112.7444 
L 356.064419 112.7444 
L 358.218764 112.7444 
L 360.373109 112.7444 
L 362.527454 112.7444 
L 364.681798 112.7444 
L 366.836143 112.7444 
L 368.990488 112.7444 
L 371.144833 112.7444 
L 373.299177 112.7444 
L 375.453522 112.7444 
L 377.607867 112.7444 
L 379.762211 112.7444 
L 381.916556 112.7444 
L 384.070901 112.7444 
L 386.225246 112.7444 
L 388.37959 112.7444 
L 390.533935 112.7444 
L 392.68828 112.7444 
L 394.842624 112.7444 
L 396.996969 112.7444 
L 399.151314 112.7444 
L 401.305659 112.7444 
L 403.460003 112.7444 
L 405.614348 112.7444 
L 407.768693 112.7444 
L 409.923038 112.7444 
L 412.077382 112.7444 
L 414.231727 112.7444 
L 416.386072 112.7444 
L 418.540416 112.7444 
L 420.694761 112.7444 
L 422.849106 112.7444 
L 425.003451 112.7444 
L 427.157795 112.7444 
L 429.31214 112.7444 
L 431.466485 112.7444 
L 433.62083 112.7444 
L 435.775174 112.7444 
L 437.929519 112.7444 
L 440.083864 112.7444 
L 442.238208 112.7444 
L 444.392553 112.7444 
L 446.546898 112.7444 
L 448.701243 112.7444 
L 450.855587 112.7444 
L 453.009932 112.7444 
L 455.164277 112.7444 
L 457.318622 112.7444 
L 459.472966 112.7444 
L 461.627311 112.7444 
L 463.781656 112.7444 
L 465.936 112.7444 
L 468.090345 112.7444 
L 470.24469 112.7444 
L 472.399035 112.7444 
L 474.553379 112.7444 
L 476.707724 112.7444 
L 478.862069 112.7444 
L 481.016413 112.7444 
L 483.170758 112.7444 
L 485.325103 112.7444 
L 487.479448 112.7444 
L 489.633792 112.7444 
L 491.788137 112.7444 
L 493.942482 112.7444 
L 496.096827 112.7444 
L 498.251171 112.7444 
L 500.405516 112.7444 
L 502.559861 112.7444 
L 504.714205 112.7444 
L 506.86855 112.7444 
L 509.022895 112.7444 
L 511.17724 112.7444 
L 513.331584 112.7444 
L 515.485929 112.7444 
L 517.640274 112.7444 
L 519.794619 112.7444 
L 521.948963 112.7444 
L 524.103308 112.7444 
L 526.257653 112.7444 
L 528.411997 112.7444 
L 530.566342 112.7444 
L 532.720687 112.7444 
L 534.875032 112.7444 
L 537.029376 112.7444 
L 539.183721 112.7444 
L 541.338066 112.7444 
L 543.49241 112.7444 
L 545.646755 112.7444 
L 547.8011 112.7444 
L 549.955445 112.7444 
L 552.109789 112.7444 
L 554.264134 112.7444 
" style="fill:none;stroke:#2ca02c;stroke-linecap:square;stroke-width:1.5;"/>
   </g>
   <g id="line2d_63">
    <path clip-path="url(#pb8c9fa12fd)" d="M 340.984006 75.481822 
L 343.138351 94.649257 
L 345.292696 108.321138 
L 347.447041 109.795558 
L 349.601385 100.680966 
L 351.75573 75.07971 
L 353.910075 53.633615 
L 356.064419 60.201478 
L 358.218764 73.069135 
L 360.373109 65.160894 
L 362.527454 54.303812 
L 364.681798 63.016276 
L 366.836143 76.420088 
L 368.990488 76.956242 
L 371.144833 72.264911 
L 373.299177 65.026851 
L 375.453522 69.986251 
L 377.607867 75.749891 
L 379.762211 73.337204 
L 381.916556 61.943968 
L 384.070901 50.684774 
L 386.225246 50.014592 
L 388.37959 57.11861 
L 390.533935 66.635299 
L 392.68828 65.697032 
L 394.842624 61.675898 
L 396.996969 56.448413 
L 399.151314 59.397254 
L 401.305659 71.05856 
L 403.460003 77.626423 
L 405.614348 74.945667 
L 407.768693 72.532981 
L 409.923038 71.862784 
L 412.077382 76.554115 
L 414.231727 79.905068 
L 416.386072 76.286045 
L 418.540416 75.347779 
L 420.694761 79.100844 
L 422.849106 84.462372 
L 425.003451 74.141444 
L 427.157795 70.388379 
L 429.31214 77.492381 
L 431.466485 86.204862 
L 433.62083 68.243762 
L 435.775174 66.367229 
L 437.929519 82.183728 
L 440.083864 76.8222 
L 442.238208 55.376104 
L 444.392553 63.284361 
L 446.546898 92.906767 
L 448.701243 85.132553 
L 450.855587 40.9 
L 453.009932 166.895768 
L 455.164277 111.404022 
L 457.318622 77.492381 
L 459.472966 167.7 
L 461.627311 167.7 
L 463.781656 111.404022 
L 465.936 111.404022 
L 468.090345 111.404022 
L 470.24469 167.7 
L 472.399035 167.7 
L 474.553379 167.7 
L 476.707724 111.404022 
L 478.862069 111.404022 
L 481.016413 110.867867 
L 483.170758 167.7 
L 485.325103 167.7 
L 487.479448 111.404022 
L 489.633792 111.404022 
L 491.788137 167.7 
L 493.942482 167.7 
L 496.096827 111.404022 
L 498.251171 111.404022 
L 500.405516 167.7 
L 502.559861 167.7 
L 504.714205 111.404022 
L 506.86855 111.404022 
L 509.022895 167.7 
L 511.17724 167.7 
L 513.331584 111.404022 
L 515.485929 111.404022 
L 517.640274 167.7 
L 519.794619 167.7 
L 521.948963 111.404022 
L 524.103308 111.404022 
L 526.257653 167.7 
L 528.411997 167.7 
L 530.566342 110.733825 
L 532.720687 111.404022 
L 534.875032 167.7 
L 537.029376 107.382872 
L 539.183721 167.7 
L 541.338066 111.404022 
L 543.49241 167.7 
L 545.646755 100.949051 
L 547.8011 167.7 
L 549.955445 111.404022 
L 552.109789 111.404022 
L 554.264134 167.7 
" style="fill:none;stroke:#d62728;stroke-linecap:square;stroke-width:1.5;"/>
   </g>
   <g id="line2d_64">
    <path clip-path="url(#pb8c9fa12fd)" d="M 340.984006 123.333397 
L 343.138351 104.702116 
L 345.292696 98.268279 
L 347.447041 95.453481 
L 349.601385 90.226011 
L 351.75573 81.245461 
L 353.910075 73.471247 
L 356.064419 66.769341 
L 358.218764 66.09916 
L 360.373109 68.243762 
L 362.527454 68.243762 
L 364.681798 69.182028 
L 366.836143 68.779916 
L 368.990488 67.439538 
L 371.144833 66.769341 
L 373.299177 65.831075 
L 375.453522 65.294921 
L 377.607867 65.026851 
L 379.762211 63.954543 
L 381.916556 63.954543 
L 384.070901 63.418388 
L 386.225246 63.016276 
L 388.37959 63.284361 
L 390.533935 64.088585 
L 392.68828 64.490697 
L 394.842624 64.490697 
L 396.996969 63.8205 
L 399.151314 63.954543 
L 401.305659 63.954543 
L 403.460003 63.954543 
L 405.614348 63.418388 
L 407.768693 63.150319 
L 409.923038 62.748207 
L 412.077382 62.882234 
L 414.231727 62.748207 
L 416.386072 62.882234 
L 418.540416 63.016276 
L 420.694761 62.748207 
L 422.849106 63.016276 
L 425.003451 63.418388 
L 427.157795 63.8205 
L 429.31214 63.686473 
L 431.466485 63.954543 
L 433.62083 64.088585 
L 435.775174 64.356654 
L 437.929519 64.356654 
L 440.083864 64.222628 
L 442.238208 63.954543 
L 444.392553 64.088585 
L 446.546898 64.088585 
L 448.701243 64.088585 
L 450.855587 64.222628 
L 453.009932 64.222628 
L 455.164277 64.088585 
L 457.318622 64.088585 
L 459.472966 64.088585 
L 461.627311 63.686473 
L 463.781656 63.954543 
L 465.936 64.222628 
L 468.090345 64.222628 
L 470.24469 64.222628 
L 472.399035 64.758766 
L 474.553379 64.892809 
L 476.707724 64.624739 
L 478.862069 64.222628 
L 481.016413 64.356654 
L 483.170758 64.356654 
L 485.325103 64.356654 
L 487.479448 64.758766 
L 489.633792 64.758766 
L 491.788137 64.490697 
L 493.942482 64.624739 
L 496.096827 64.624739 
L 498.251171 64.490697 
L 500.405516 64.490697 
L 502.559861 64.758766 
L 504.714205 64.356654 
L 506.86855 64.490697 
L 509.022895 64.490697 
L 511.17724 64.490697 
L 513.331584 64.490697 
L 515.485929 64.490697 
L 517.640274 64.490697 
L 519.794619 64.356654 
L 521.948963 64.088585 
L 524.103308 64.222628 
L 526.257653 63.954543 
L 528.411997 64.356654 
L 530.566342 64.356654 
L 532.720687 64.624739 
L 534.875032 64.758766 
L 537.029376 64.758766 
L 539.183721 64.222628 
L 541.338066 64.088585 
L 543.49241 63.954543 
L 545.646755 64.088585 
L 547.8011 64.356654 
L 549.955445 64.624739 
L 552.109789 65.294921 
L 554.264134 65.563006 
" style="fill:none;stroke:#9467bd;stroke-linecap:square;stroke-width:1.5;"/>
   </g>
   <g id="patch_9">
    <path d="M 330.32 174.04 
L 330.32 34.56 
" style="fill:none;stroke:#000000;stroke-linecap:square;stroke-linejoin:miter;stroke-width:0.8;"/>
   </g>
   <g id="patch_10">
    <path d="M 564.92814 174.04 
L 564.92814 34.56 
" style="fill:none;stroke:#000000;stroke-linecap:square;stroke-linejoin:miter;stroke-width:0.8;"/>
   </g>
   <g id="patch_11">
    <path d="M 330.32 174.04 
L 564.92814 174.04 
" style="fill:none;stroke:#000000;stroke-linecap:square;stroke-linejoin:miter;stroke-width:0.8;"/>
   </g>
   <g id="patch_12">
    <path d="M 330.32 34.56 
L 564.92814 34.56 
" style="fill:none;stroke:#000000;stroke-linecap:square;stroke-linejoin:miter;stroke-width:0.8;"/>
   </g>
   <g id="legend_2">
    <g id="patch_13">
     <path d="M 417.043601 169.04 
L 478.204539 169.04 
Q 480.204539 169.04 480.204539 167.04 
L 480.204539 94.649375 
Q 480.204539 92.649375 478.204539 92.649375 
L 417.043601 92.649375 
Q 415.043601 92.649375 415.043601 94.649375 
L 415.043601 167.04 
Q 415.043601 169.04 417.043601 169.04 
z
" style="fill:#ffffff;opacity:0.8;stroke:#cccccc;stroke-linejoin:miter;"/>
    </g>
    <g id="line2d_65">
     <path d="M 419.043601 100.747813 
L 439.043601 100.747813 
" style="fill:none;stroke:#1f77b4;stroke-linecap:square;stroke-width:1.5;"/>
    </g>
    <g id="line2d_66"/>
    <g id="text_32">
     <!-- GAT -->
     <g transform="translate(447.043601 104.247813)scale(0.1 -0.1)">
      <use xlink:href="#DejaVuSans-71"/>
      <use x="77.490234" xlink:href="#DejaVuSans-65"/>
      <use x="138.148438" xlink:href="#DejaVuSans-84"/>
     </g>
    </g>
    <g id="line2d_67">
     <path d="M 419.043601 115.425938 
L 439.043601 115.425938 
" style="fill:none;stroke:#ff7f0e;stroke-linecap:square;stroke-width:1.5;"/>
    </g>
    <g id="line2d_68"/>
    <g id="text_33">
     <!-- GCN -->
     <g transform="translate(447.043601 118.925938)scale(0.1 -0.1)">
      <use xlink:href="#DejaVuSans-71"/>
      <use x="77.490234" xlink:href="#DejaVuSans-67"/>
      <use x="147.314453" xlink:href="#DejaVuSans-78"/>
     </g>
    </g>
    <g id="line2d_69">
     <path d="M 419.043601 130.104062 
L 439.043601 130.104062 
" style="fill:none;stroke:#2ca02c;stroke-linecap:square;stroke-width:1.5;"/>
    </g>
    <g id="line2d_70"/>
    <g id="text_34">
     <!-- PPNP -->
     <g transform="translate(447.043601 133.604062)scale(0.1 -0.1)">
      <use xlink:href="#DejaVuSans-80"/>
      <use x="60.302734" xlink:href="#DejaVuSans-80"/>
      <use x="120.605469" xlink:href="#DejaVuSans-78"/>
      <use x="195.410156" xlink:href="#DejaVuSans-80"/>
     </g>
    </g>
    <g id="line2d_71">
     <path d="M 419.043601 144.782188 
L 439.043601 144.782188 
" style="fill:none;stroke:#d62728;stroke-linecap:square;stroke-width:1.5;"/>
    </g>
    <g id="line2d_72"/>
    <g id="text_35">
     <!-- RGCN -->
     <g transform="translate(447.043601 148.282188)scale(0.1 -0.1)">
      <use xlink:href="#DejaVuSans-82"/>
      <use x="69.482422" xlink:href="#DejaVuSans-71"/>
      <use x="146.972656" xlink:href="#DejaVuSans-67"/>
      <use x="216.796875" xlink:href="#DejaVuSans-78"/>
     </g>
    </g>
    <g id="line2d_73">
     <path d="M 419.043601 159.460313 
L 439.043601 159.460313 
" style="fill:none;stroke:#9467bd;stroke-linecap:square;stroke-width:1.5;"/>
    </g>
    <g id="line2d_74"/>
    <g id="text_36">
     <!-- SGC -->
     <g transform="translate(447.043601 162.960313)scale(0.1 -0.1)">
      <use xlink:href="#DejaVuSans-83"/>
      <use x="63.476562" xlink:href="#DejaVuSans-71"/>
      <use x="140.966797" xlink:href="#DejaVuSans-67"/>
     </g>
    </g>
   </g>
  </g>
  <g id="text_37">
   <!-- PUBMED -->
   <g transform="translate(262.28625 13.438125)scale(0.12 -0.12)">
    <defs>
     <path d="M 8.6875 72.90625 
L 18.609375 72.90625 
L 18.609375 28.609375 
Q 18.609375 16.890625 22.84375 11.734375 
Q 27.09375 6.59375 36.625 6.59375 
Q 46.09375 6.59375 50.34375 11.734375 
Q 54.59375 16.890625 54.59375 28.609375 
L 54.59375 72.90625 
L 64.5 72.90625 
L 64.5 27.390625 
Q 64.5 13.140625 57.4375 5.859375 
Q 50.390625 -1.421875 36.625 -1.421875 
Q 22.796875 -1.421875 15.734375 5.859375 
Q 8.6875 13.140625 8.6875 27.390625 
z
" id="DejaVuSans-85"/>
     <path d="M 19.671875 34.8125 
L 19.671875 8.109375 
L 35.5 8.109375 
Q 43.453125 8.109375 47.28125 11.40625 
Q 51.125 14.703125 51.125 21.484375 
Q 51.125 28.328125 47.28125 31.5625 
Q 43.453125 34.8125 35.5 34.8125 
z
M 19.671875 64.796875 
L 19.671875 42.828125 
L 34.28125 42.828125 
Q 41.5 42.828125 45.03125 45.53125 
Q 48.578125 48.25 48.578125 53.8125 
Q 48.578125 59.328125 45.03125 62.0625 
Q 41.5 64.796875 34.28125 64.796875 
z
M 9.8125 72.90625 
L 35.015625 72.90625 
Q 46.296875 72.90625 52.390625 68.21875 
Q 58.5 63.53125 58.5 54.890625 
Q 58.5 48.1875 55.375 44.234375 
Q 52.25 40.28125 46.1875 39.3125 
Q 53.46875 37.75 57.5 32.78125 
Q 61.53125 27.828125 61.53125 20.40625 
Q 61.53125 10.640625 54.890625 5.3125 
Q 48.25 0 35.984375 0 
L 9.8125 0 
z
" id="DejaVuSans-66"/>
     <path d="M 9.8125 72.90625 
L 24.515625 72.90625 
L 43.109375 23.296875 
L 61.8125 72.90625 
L 76.515625 72.90625 
L 76.515625 0 
L 66.890625 0 
L 66.890625 64.015625 
L 48.09375 14.015625 
L 38.1875 14.015625 
L 19.390625 64.015625 
L 19.390625 0 
L 9.8125 0 
z
" id="DejaVuSans-77"/>
     <path d="M 19.671875 64.796875 
L 19.671875 8.109375 
L 31.59375 8.109375 
Q 46.6875 8.109375 53.6875 14.9375 
Q 60.6875 21.78125 60.6875 36.53125 
Q 60.6875 51.171875 53.6875 57.984375 
Q 46.6875 64.796875 31.59375 64.796875 
z
M 9.8125 72.90625 
L 30.078125 72.90625 
Q 51.265625 72.90625 61.171875 64.09375 
Q 71.09375 55.28125 71.09375 36.53125 
Q 71.09375 17.671875 61.125 8.828125 
Q 51.171875 0 30.078125 0 
L 9.8125 0 
z
" id="DejaVuSans-68"/>
    </defs>
    <use xlink:href="#DejaVuSans-80"/>
    <use x="60.302734" xlink:href="#DejaVuSans-85"/>
    <use x="133.496094" xlink:href="#DejaVuSans-66"/>
    <use x="202.099609" xlink:href="#DejaVuSans-77"/>
    <use x="288.378906" xlink:href="#DejaVuSans-69"/>
    <use x="351.5625" xlink:href="#DejaVuSans-68"/>
   </g>
  </g>
 </g>
 <defs>
  <clipPath id="p53a5e384f9">
   <rect height="139.48" width="234.60814" x="47.72" y="34.56"/>
  </clipPath>
  <clipPath id="pb8c9fa12fd">
   <rect height="139.48" width="234.60814" x="330.32" y="34.56"/>
  </clipPath>
 </defs>
</svg>
